<?xml version="1.0" encoding="utf-8"?>
<!-- Generator: Adobe Illustrator 24.1.3, SVG Export Plug-In . SVG Version: 6.00 Build 0)  -->
<svg version="1.1" xmlns="http://www.w3.org/2000/svg" xmlns:xlink="http://www.w3.org/1999/xlink" x="0px" y="0px"
	 viewBox="0 0 600 655" style="enable-background:new 0 0 600 655;" xml:space="preserve">
<style type="text/css">
	.st0{opacity:0.5;fill:url(#SVGID_1_);}
	.st1{fill:#FAFAFA;}
	.st2{fill:none;stroke:#B3B3B3;stroke-width:2;stroke-linecap:round;stroke-linejoin:round;stroke-miterlimit:10;}
	.st3{fill:#B3B3B3;}
	.st4{fill:#E6E6E6;}
	.st5{fill:#511A66;}
	.st6{clip-path:url(#SVGID_3_);}
	.st7{fill:#1E0401;}
	.st8{fill:#FFCAD0;}
	.st9{fill:#FEC9CF;}
	.st10{fill:#3D4359;}
	.st11{fill:#2A2E30;}
	.st12{fill:#EE84AA;}
	.st13{fill:#F7EEE2;}
	.st14{fill:#D6B5A7;}
	.st15{fill:#FFF7EE;}
	.st16{fill:#303347;}
	.st17{fill:#171D51;}
	.st18{fill:none;stroke:#171D51;stroke-width:1.1516;stroke-linecap:round;stroke-linejoin:round;stroke-miterlimit:10;}
	.st19{fill:none;stroke:#EE84AA;stroke-width:0.8637;stroke-linecap:round;stroke-linejoin:round;stroke-miterlimit:10;}
	.st20{fill:#EADACE;}
	.st21{fill:#EF6060;}
	.st22{opacity:0.3;fill:#00A2A6;}
	.st23{fill:#B0C1D1;}
	.st24{opacity:0.2;fill:#525B66;}
	.st25{fill:#525B66;}
	.st26{clip-path:url(#SVGID_5_);}
	.st27{fill:#EDB2BB;}
	.st28{opacity:0.22;fill:#FFFFFF;}
	.st29{fill:none;stroke:#D86539;stroke-width:0.7177;stroke-miterlimit:10;}
	.st30{fill:none;stroke:#EAB2BA;stroke-width:0.4498;stroke-linecap:round;stroke-linejoin:round;stroke-miterlimit:10;}
	.st31{fill:#CEB5A1;}
	.st32{fill:#C6AB99;}
	.st33{fill:#CEB4A1;}
	.st34{fill:#BCA291;}
	.st35{fill:#D3BBAB;}
	.st36{fill:#F7C249;}
	.st37{fill:#DDC6BA;}
	.st38{fill:none;stroke:#F7C249;stroke-width:0.5;stroke-miterlimit:10;}
	.st39{fill:#C4AB9B;}
	.st40{fill:none;stroke:#F7C249;stroke-miterlimit:10;}
	.st41{fill:#431459;}
	.st42{fill:#D31610;}
	.st43{fill:#837165;}
	.st44{fill:#FFFFFF;}
	.st45{fill:#132A35;}
	.st46{clip-path:url(#SVGID_7_);}
	.st47{fill:#A99B95;}
	.st48{fill:#7F7F7F;}
	.st49{fill:#1A1A1A;}
	.st50{clip-path:url(#SVGID_9_);}
	.st51{fill:#292C3D;}
	.st52{fill:#3B164C;}
	.st53{fill:#4D505E;}
	.st54{opacity:0.55;fill:#ABACB3;}
	.st55{font-family:'Gilroy-ExtraBold';}
	.st56{font-size:24px;}
	.st57{display:none;}
	.st58{display:inline;}
</style>
<g id="Layer_1">
	<linearGradient id="SVGID_1_" gradientUnits="userSpaceOnUse" x1="8.1341" y1="321" x2="596.5839" y2="321">
		<stop  offset="0" style="stop-color:#D31610"/>
		<stop  offset="1" style="stop-color:#511A66"/>
	</linearGradient>
	<path class="st0" d="M589.4,298.5c19.7-55.6-1.2-140.2-63.1-158.1c-17.8-5.1-32.2,0.1-49.3,3.1c-39.5,6.7-82-31.7-117.5-52.4
		c-51.7-30.1-82.7-33.3-128-35.6c-25.5-1.3-84.5-10.8-116.1,39.7C78.6,154.3,45.3,151.3,21,196.5c-40,74.6,28,151.5,7.6,204.8
		c-16.9,44-49.4,142.1,41.3,170.1c73.9,22.7,81.4-41.9,223.1-6c141.7,35.9,239.6,29.9,269.8-23.9c9.5-17,26.8-64.8,5-120.4l0,0
		C553.3,350.7,576,336.4,589.4,298.5z"/>
	<g>
		<path class="st1" d="M160.9,203.3c0,1.6-1.3,2.9-2.9,2.9s-2.9-1.3-2.9-2.9c0-1.6,1.3-2.9,2.9-2.9S160.9,201.7,160.9,203.3z"/>
		<path class="st1" d="M175.4,203.3c0,1.6-1.3,2.9-2.9,2.9c-1.6,0-2.9-1.3-2.9-2.9c0-1.6,1.3-2.9,2.9-2.9
			C174.1,200.4,175.4,201.7,175.4,203.3z"/>
		<path class="st1" d="M189.9,203.3c0,1.6-1.3,2.9-2.9,2.9c-1.6,0-2.9-1.3-2.9-2.9c0-1.6,1.3-2.9,2.9-2.9
			C188.6,200.4,189.9,201.7,189.9,203.3z"/>
	</g>
	<g>
		<path class="st2" d="M78.9,245.3H60.8c-1.7,0-3.1,1.4-3.1,3.1v7.9c0,1.7,1.4,3.1,3.1,3.1h7.1l5.8,5.8v-5.8h5.2
			c1.7,0,3.1-1.4,3.1-3.1v-7.9C82,246.7,80.6,245.3,78.9,245.3z"/>
		<rect x="398.1" y="409" class="st2" width="6.3" height="6.3"/>
		<rect x="264.3" y="156.8" class="st3" width="3.1" height="3.1"/>
		<rect x="545.3" y="269.3" class="st1" width="4.7" height="4.7"/>
		<rect x="56.5" y="314.6" class="st3" width="2.3" height="2.3"/>
		<rect x="84.3" y="223" class="st3" width="3.2" height="3.2"/>
		
			<rect x="69.9" y="336.2" transform="matrix(0.9092 -0.4164 0.4164 0.9092 -134.6791 61.2139)" class="st2" width="6.3" height="6.3"/>
		<circle class="st2" cx="526" cy="301" r="7.1"/>
		<path class="st2" d="M224.5,159.2c0,2.3-1.8,4.1-4.1,4.1c-2.3,0-4.1-1.8-4.1-4.1c0-2.3,1.8-4.1,4.1-4.1
			C222.7,155.1,224.5,157,224.5,159.2z"/>
		<path class="st2" d="M520.6,237.5h18.1c1.7,0,3.1,1.4,3.1,3.1v7.9c0,1.7-1.4,3.1-3.1,3.1h-7.1l-5.8,5.8v-5.8h-5.2
			c-1.7,0-3.1-1.4-3.1-3.1v-7.9C517.4,238.9,518.9,237.5,520.6,237.5z"/>
	</g>
	<g>
		<g>
			<path class="st4" d="M189.9,400.7c0,0.8-0.6,1.5-1.5,1.5c-0.8,0-1.5-0.6-1.5-1.5c0-0.8,0.6-1.5,1.5-1.5
				C189.2,399.3,189.9,399.9,189.9,400.7z"/>
			<path class="st4" d="M200.4,400.7c0,0.8-0.6,1.5-1.5,1.5c-0.8,0-1.5-0.6-1.5-1.5c0-0.8,0.6-1.5,1.5-1.5
				C199.8,399.3,200.4,399.9,200.4,400.7z"/>
			<circle class="st4" cx="209.6" cy="400.7" r="1.5"/>
			<circle class="st4" cx="220.1" cy="400.7" r="1.5"/>
			<path class="st4" d="M232.1,400.7c0,0.8-0.6,1.5-1.5,1.5c-0.8,0-1.5-0.6-1.5-1.5c0-0.8,0.6-1.5,1.5-1.5
				C231.5,399.3,232.1,399.9,232.1,400.7z"/>
			<path class="st4" d="M189.9,411.3c0,0.8-0.6,1.5-1.5,1.5c-0.8,0-1.5-0.6-1.5-1.5c0-0.8,0.6-1.5,1.5-1.5
				C189.2,409.8,189.9,410.5,189.9,411.3z"/>
			<path class="st4" d="M200.4,411.3c0,0.8-0.6,1.5-1.5,1.5c-0.8,0-1.5-0.6-1.5-1.5c0-0.8,0.6-1.5,1.5-1.5
				C199.8,409.8,200.4,410.5,200.4,411.3z"/>
			<circle class="st4" cx="209.6" cy="411.3" r="1.5"/>
			<circle class="st4" cx="220.1" cy="411.3" r="1.5"/>
			<path class="st4" d="M232.1,411.3c0,0.8-0.6,1.5-1.5,1.5c-0.8,0-1.5-0.6-1.5-1.5c0-0.8,0.6-1.5,1.5-1.5
				C231.5,409.8,232.1,410.5,232.1,411.3z"/>
			<path class="st4" d="M189.9,421.9c0,0.8-0.6,1.5-1.5,1.5c-0.8,0-1.5-0.6-1.5-1.5c0-0.8,0.6-1.5,1.5-1.5
				C189.2,420.4,189.9,421.1,189.9,421.9z"/>
			<path class="st4" d="M200.4,421.9c0,0.8-0.6,1.5-1.5,1.5c-0.8,0-1.5-0.6-1.5-1.5c0-0.8,0.6-1.5,1.5-1.5
				C199.8,420.4,200.4,421.1,200.4,421.9z"/>
			<circle class="st4" cx="209.6" cy="421.9" r="1.5"/>
			<circle class="st4" cx="220.1" cy="421.9" r="1.5"/>
			<path class="st4" d="M232.1,421.9c0,0.8-0.6,1.5-1.5,1.5c-0.8,0-1.5-0.6-1.5-1.5c0-0.8,0.6-1.5,1.5-1.5
				C231.5,420.4,232.1,421.1,232.1,421.9z"/>
			<path class="st4" d="M189.9,432.4c0,0.8-0.6,1.5-1.5,1.5c-0.8,0-1.5-0.6-1.5-1.5c0-0.8,0.6-1.5,1.5-1.5
				C189.2,431,189.9,431.6,189.9,432.4z"/>
			<path class="st4" d="M200.4,432.4c0,0.8-0.6,1.5-1.5,1.5c-0.8,0-1.5-0.6-1.5-1.5c0-0.8,0.6-1.5,1.5-1.5
				C199.8,431,200.4,431.6,200.4,432.4z"/>
			<circle class="st4" cx="209.6" cy="432.4" r="1.5"/>
			<circle class="st4" cx="220.1" cy="432.4" r="1.5"/>
			<path class="st4" d="M232.1,432.4c0,0.8-0.6,1.5-1.5,1.5c-0.8,0-1.5-0.6-1.5-1.5c0-0.8,0.6-1.5,1.5-1.5
				C231.5,431,232.1,431.6,232.1,432.4z"/>
		</g>
		<g>
			<circle class="st4" cx="552" cy="333.1" r="1.5"/>
			<path class="st4" d="M552,345.1c-0.8,0-1.5-0.6-1.5-1.5c0-0.8,0.6-1.5,1.5-1.5c0.8,0,1.5,0.6,1.5,1.5
				C553.4,344.5,552.8,345.1,552,345.1z"/>
			<circle class="st4" cx="552" cy="354.2" r="1.5"/>
			<circle class="st4" cx="552" cy="364.8" r="1.5"/>
			<circle class="st4" cx="552" cy="375.4" r="1.5"/>
			<path class="st4" d="M541.4,334.6c-0.8,0-1.5-0.6-1.5-1.5c0-0.8,0.6-1.5,1.5-1.5c0.8,0,1.5,0.6,1.5,1.5
				C542.9,333.9,542.2,334.6,541.4,334.6z"/>
			<path class="st4" d="M541.4,345.1c-0.8,0-1.5-0.6-1.5-1.5c0-0.8,0.6-1.5,1.5-1.5c0.8,0,1.5,0.6,1.5,1.5
				C542.9,344.5,542.2,345.1,541.4,345.1z"/>
			<path class="st4" d="M541.4,355.7c-0.8,0-1.5-0.6-1.5-1.5c0-0.8,0.6-1.5,1.5-1.5c0.8,0,1.5,0.6,1.5,1.5
				C542.9,355,542.2,355.7,541.4,355.7z"/>
			<path class="st4" d="M541.4,366.3c-0.8,0-1.5-0.6-1.5-1.5c0-0.8,0.6-1.5,1.5-1.5c0.8,0,1.5,0.6,1.5,1.5
				C542.9,365.6,542.2,366.3,541.4,366.3z"/>
			<path class="st4" d="M541.4,376.8c-0.8,0-1.5-0.6-1.5-1.5c0-0.8,0.6-1.5,1.5-1.5c0.8,0,1.5,0.6,1.5,1.5
				C542.9,376.2,542.2,376.8,541.4,376.8z"/>
			<circle class="st4" cx="530.9" cy="333.1" r="1.5"/>
			<path class="st4" d="M530.9,345.1c-0.8,0-1.5-0.6-1.5-1.5c0-0.8,0.6-1.5,1.5-1.5c0.8,0,1.5,0.6,1.5,1.5
				C532.3,344.5,531.7,345.1,530.9,345.1z"/>
			<circle class="st4" cx="530.9" cy="354.2" r="1.5"/>
			<circle class="st4" cx="530.9" cy="364.8" r="1.5"/>
			<circle class="st4" cx="530.9" cy="375.4" r="1.5"/>
			<circle class="st4" cx="520.3" cy="333.1" r="1.5"/>
			<path class="st4" d="M520.3,345.1c-0.8,0-1.5-0.6-1.5-1.5c0-0.8,0.6-1.5,1.5-1.5c0.8,0,1.5,0.6,1.5,1.5
				C521.8,344.5,521.1,345.1,520.3,345.1z"/>
			<circle class="st4" cx="520.3" cy="354.2" r="1.5"/>
			<circle class="st4" cx="520.3" cy="364.8" r="1.5"/>
			<circle class="st4" cx="520.3" cy="375.4" r="1.5"/>
		</g>
	</g>
	<g>
		<path class="st5" d="M208.9,201.6l-179.2,0.5c-8.8,0-16.2,7.2-16.2,16.1l0.2,33.1c0,8.8,7.2,16,16,16h111.9l11,25.7l4.7-25.7
			l51.6-0.5c8.8,0,16-7.2,17.1-14.9v-33.2C224.9,208.8,217.7,201.6,208.9,201.6z"/>
	</g>
	<g>
		<path class="st4" d="M38,209.6h2.9l-1,7.1h-3.8L38,209.6z M42.8,209.6h2.9l-1,7.1h-3.8L42.8,209.6z"/>
		<path class="st4" d="M52,209.6v16.8h-3.8v-16.8H52z"/>
		<path class="st4" d="M72.3,219v7.4h-3.6v-6.8c0-1.5-0.9-2.2-2.1-2.2c-1.3,0-2.2,0.8-2.2,2.5v6.6h-3.6v-12h3.6v1.1
			c0.6-0.9,1.8-1.5,3.4-1.5C70.2,214,72.3,215.8,72.3,219z"/>
		<path class="st4" d="M80.9,223.5c1,0,1.8-0.4,2.3-0.9l2.9,1.7c-1.2,1.6-3,2.5-5.2,2.5c-4.1,0-6.6-2.8-6.6-6.3s2.6-6.3,6.4-6.3
			c3.5,0,6.1,2.7,6.1,6.3c0,0.5,0,1-0.1,1.4H78C78.4,223.1,79.5,223.5,80.9,223.5z M83.1,219.1c-0.4-1.4-1.5-1.9-2.5-1.9
			c-1.4,0-2.3,0.7-2.6,1.9H83.1z"/>
		<path class="st4" d="M94.7,223.5c1,0,1.8-0.4,2.3-0.9l2.9,1.7c-1.2,1.6-3,2.5-5.2,2.5c-4.1,0-6.6-2.8-6.6-6.3s2.6-6.3,6.4-6.3
			c3.5,0,6.1,2.7,6.1,6.3c0,0.5,0,1-0.1,1.4h-8.5C92.2,223.1,93.3,223.5,94.7,223.5z M96.9,219.1c-0.4-1.4-1.5-1.9-2.5-1.9
			c-1.4,0-2.3,0.7-2.6,1.9H96.9z"/>
		<path class="st4" d="M114.7,209.6v16.8h-3.6v-1.1c-0.8,0.9-2,1.5-3.6,1.5c-3.1,0-5.7-2.8-5.7-6.3s2.6-6.3,5.7-6.3
			c1.6,0,2.8,0.6,3.6,1.5v-5.9H114.7z M111.1,220.4c0-1.8-1.2-2.9-2.9-2.9s-2.9,1.1-2.9,2.9s1.2,2.9,2.9,2.9
			S111.1,222.2,111.1,220.4z"/>
		<path class="st4" d="M127.9,217.8v4.2c0,1,0.9,1.1,2.5,1v3.3c-4.7,0.5-6.1-0.9-6.1-4.3v-4.2h-1.9v-3.5h1.9v-2.3l3.6-1.1v3.4h2.5
			v3.5H127.9z"/>
		<path class="st4" d="M131.5,220.4c0-3.6,2.8-6.3,6.4-6.3s6.4,2.8,6.4,6.3s-2.8,6.3-6.4,6.3S131.5,224,131.5,220.4z M140.7,220.4
			c0-1.7-1.2-2.8-2.8-2.8s-2.8,1.1-2.8,2.8s1.2,2.8,2.8,2.8S140.7,222.1,140.7,220.4z"/>
		<path class="st4" d="M156.9,217.8v4.2c0,1,0.9,1.1,2.5,1v3.3c-4.7,0.5-6.1-0.9-6.1-4.3v-4.2h-1.9v-3.5h1.9v-2.3l3.6-1.1v3.4h2.5
			v3.5H156.9z"/>
		<path class="st4" d="M168.8,214.1v4.1c-1.5-0.2-3.6,0.4-3.6,2.7v5.4h-3.6v-12h3.6v2.1C165.7,214.9,167.3,214.1,168.8,214.1z"/>
		<path class="st4" d="M182.5,214.4v12h-3.6v-1.1c-0.8,0.9-2,1.5-3.6,1.5c-3.1,0-5.7-2.8-5.7-6.3s2.6-6.3,5.7-6.3
			c1.6,0,2.8,0.6,3.6,1.5v-1.1H182.5z M178.9,220.4c0-1.8-1.2-2.9-2.9-2.9s-2.9,1.1-2.9,2.9s1.2,2.9,2.9,2.9
			S178.9,222.2,178.9,220.4z"/>
		<path class="st4" d="M184.7,211.2c0-1.2,1-2.2,2.2-2.2c1.2,0,2.2,1,2.2,2.2s-1,2.2-2.2,2.2C185.7,213.3,184.7,212.3,184.7,211.2z
			 M185.1,214.4h3.6v12h-3.6V214.4z"/>
		<path class="st4" d="M202.9,219v7.4h-3.6v-6.8c0-1.5-0.9-2.2-2.1-2.2c-1.3,0-2.2,0.8-2.2,2.5v6.6h-3.6v-12h3.6v1.1
			c0.6-0.9,1.8-1.5,3.4-1.5C200.8,214,202.9,215.8,202.9,219z"/>
		<path class="st4" d="M60.3,247.8v7.4h-3.6v-7.1c0-1.2-0.6-2-1.7-2c-1.2,0-1.9,0.8-1.9,2.3v6.8h-3.6v-7.1c0-1.2-0.6-2-1.7-2
			c-1.2,0-1.9,0.8-1.9,2.3v6.8h-3.6v-12h3.6v1.1c0.6-0.8,1.6-1.4,3.2-1.4c1.4,0,2.5,0.6,3.1,1.6c0.7-1,1.8-1.6,3.5-1.6
			C58.5,242.8,60.3,244.8,60.3,247.8z"/>
		<path class="st4" d="M73.9,243.2l-4.1,11.6c-1.3,3.8-3.5,5.3-6.8,5.2v-3.4c1.7,0,2.5-0.5,3-2l-4.8-11.4h4l2.7,7.3l2.3-7.3H73.9z"
			/>
		<path class="st4" d="M90.6,251.6c0,2.8-2.4,3.9-5,3.9c-2.4,0-4.2-0.9-5.2-2.9l3.1-1.8c0.3,0.9,1,1.4,2,1.4c0.9,0,1.3-0.3,1.3-0.7
			c0-1.3-5.9-0.6-5.9-4.8c0-2.6,2.2-3.9,4.7-3.9c1.9,0,3.7,0.9,4.7,2.6l-3.1,1.7c-0.3-0.6-0.8-1.1-1.6-1.1c-0.6,0-1,0.2-1,0.7
			C84.7,248.1,90.6,247.1,90.6,251.6z"/>
		<path class="st4" d="M96.6,246.6v4.2c0,1,0.9,1.1,2.5,1v3.3c-4.7,0.5-6.1-0.9-6.1-4.3v-4.2H91v-3.5H93v-2.3l3.6-1.1v3.4H99v3.5
			H96.6z"/>
		<path class="st4" d="M113.1,243.2v12h-3.6v-1.1c-0.8,0.9-2,1.5-3.6,1.5c-3.1,0-5.7-2.8-5.7-6.3s2.6-6.3,5.7-6.3
			c1.6,0,2.8,0.6,3.6,1.5v-1.1H113.1z M109.5,249.2c0-1.8-1.2-2.9-2.9-2.9s-2.9,1.1-2.9,2.9s1.2,2.9,2.9,2.9S109.5,251,109.5,249.2z
			"/>
		<path class="st4" d="M126.9,242.9v0.2h2.2v3.5h-2.2v8.5h-3.6v-8.5h-3.1v8.5h-3.6v-8.5h-1.6v-3.5h1.6c0-3.4,1.8-5.4,5.8-5.1v3.5
			c-1.3-0.1-2.2,0.3-2.2,1.7h3.1v-0.2c0-3.4,1.8-5.4,5.8-5.1v3.5C127.8,241.1,126.9,241.6,126.9,242.9z"/>
		<path class="st4" d="M133.8,245.5h-2.9l1-7.1h3.8L133.8,245.5z M138.6,245.5h-2.9l1-7.1h3.8L138.6,245.5z"/>
	</g>
	<g>
		<path class="st5" d="M359.7,94.6H577c6.1,0,11,7.7,11,17.3v66.4c0,9.5-4.9,17.3-11,17.3h-93.8L480,257l-17.1-61.5H359.7
			c-6.1,0-11-7.7-11-17.3v-66.4C348.7,102.3,353.7,94.6,359.7,94.6z"/>
	</g>
	<g>
		<path class="st4" d="M382.5,106.3l2.9,0l-1,7.1l-3.8,0L382.5,106.3z M387.3,106.3l2.9,0l-1,7.1l-3.8,0L387.3,106.3z"/>
		<path class="st4" d="M396.5,106.3l0,16.8l-3.8,0l0-16.8L396.5,106.3z"/>
		<path class="st4" d="M416.8,115.7l0,7.4l-3.6,0l0-6.8c0-1.5-0.9-2.2-2.1-2.2c-1.3,0-2.2,0.8-2.2,2.5l0,6.6l-3.6,0l0-12l3.6,0
			l0,1.1c0.6-0.9,1.8-1.5,3.4-1.5C414.8,110.7,416.8,112.4,416.8,115.7z"/>
		<path class="st4" d="M425.4,120.2c1,0,1.8-0.4,2.3-0.9l2.9,1.7c-1.2,1.6-3,2.5-5.2,2.5c-4.1,0-6.7-2.8-6.7-6.3s2.6-6.3,6.4-6.3
			c3.5,0,6.1,2.7,6.1,6.3c0,0.5,0,1-0.1,1.4l-8.5,0C423,119.7,424.1,120.2,425.4,120.2z M427.6,115.8c-0.4-1.4-1.5-1.9-2.5-1.9
			c-1.4,0-2.3,0.7-2.6,1.9L427.6,115.8z"/>
		<path class="st4" d="M439.2,120.1c1,0,1.8-0.4,2.3-0.9l2.9,1.7c-1.2,1.6-3,2.5-5.2,2.5c-4.1,0-6.7-2.8-6.7-6.3s2.6-6.3,6.4-6.3
			c3.5,0,6.1,2.7,6.1,6.3c0,0.5,0,1-0.1,1.4l-8.5,0C436.8,119.7,437.9,120.1,439.2,120.1z M441.4,115.8c-0.4-1.4-1.5-1.9-2.5-1.9
			c-1.4,0-2.3,0.7-2.6,1.9L441.4,115.8z"/>
		<path class="st4" d="M459.2,106.2l0,16.8l-3.6,0l0-1.1c-0.8,0.9-2,1.5-3.6,1.5c-3.1,0-5.7-2.8-5.7-6.3s2.6-6.3,5.7-6.3
			c1.6,0,2.8,0.5,3.6,1.5l0-5.9L459.2,106.2z M455.6,117c0-1.8-1.2-2.9-2.9-2.9c-1.7,0-2.9,1.1-2.9,2.9c0,1.8,1.2,2.9,2.9,2.9
			C454.4,119.9,455.6,118.8,455.6,117z"/>
		<path class="st4" d="M472.4,114.5l0,4.2c0,1,0.9,1.1,2.5,1l0,3.3c-4.7,0.5-6.1-0.9-6.1-4.3l0-4.2l-1.9,0l0-3.5l1.9,0l0-2.3
			l3.6-1.1l0,3.4l2.5,0l0,3.5L472.4,114.5z"/>
		<path class="st4" d="M476.1,117c0-3.6,2.8-6.3,6.4-6.3c3.5,0,6.4,2.8,6.4,6.3s-2.8,6.3-6.4,6.3C478.9,123.3,476.1,120.6,476.1,117
			z M485.2,117c0-1.7-1.2-2.8-2.8-2.8c-1.6,0-2.8,1.1-2.8,2.8c0,1.7,1.2,2.8,2.8,2.8C484,119.8,485.2,118.7,485.2,117z"/>
		<path class="st4" d="M380.3,145.9c0-3.6,2.7-6.3,6.4-6.3c2.3,0,4.4,1.2,5.4,3.1l-3.1,1.8c-0.4-0.8-1.3-1.3-2.3-1.3
			c-1.6,0-2.7,1.1-2.7,2.8c0,1.7,1.2,2.8,2.7,2.8c1.1,0,1.9-0.5,2.3-1.3l3.1,1.8c-1,1.9-3.1,3.1-5.4,3.1
			C383,152.2,380.3,149.4,380.3,145.9z"/>
		<path class="st4" d="M392.6,145.9c0-3.6,2.8-6.3,6.4-6.3c3.5,0,6.4,2.8,6.4,6.3s-2.8,6.3-6.4,6.3
			C395.5,152.2,392.6,149.4,392.6,145.9z M401.8,145.9c0-1.7-1.2-2.8-2.8-2.8c-1.6,0-2.8,1.1-2.8,2.8c0,1.7,1.2,2.8,2.8,2.8
			C400.6,148.7,401.8,147.6,401.8,145.9z"/>
		<path class="st4" d="M425.4,144.5l0,7.4l-3.6,0l0-7.1c0-1.2-0.6-2-1.7-2c-1.2,0-1.9,0.8-1.9,2.3l0,6.8l-3.6,0l0-7.1
			c0-1.2-0.6-2-1.7-2c-1.2,0-1.9,0.8-1.9,2.3l0,6.8l-3.6,0l0-12l3.6,0l0,1.1c0.6-0.8,1.6-1.4,3.2-1.4c1.4,0,2.5,0.6,3.1,1.6
			c0.7-1,1.8-1.6,3.5-1.6C423.6,139.5,425.4,141.5,425.4,144.5z"/>
		<path class="st4" d="M445.9,144.4l0,7.4l-3.6,0l0-7.1c0-1.2-0.6-2-1.7-2c-1.2,0-1.9,0.8-1.9,2.3l0,6.8l-3.6,0l0-7.1
			c0-1.2-0.6-2-1.7-2c-1.2,0-1.9,0.8-1.9,2.3l0,6.8l-3.6,0l0-12l3.6,0l0,1.1c0.6-0.8,1.6-1.4,3.2-1.4c1.4,0,2.5,0.6,3.1,1.6
			c0.7-1,1.8-1.6,3.5-1.6C444.1,139.5,445.9,141.4,445.9,144.4z"/>
		<path class="st4" d="M459.7,139.8l0,12l-3.6,0l0-1.1c-0.6,0.9-1.8,1.5-3.4,1.5c-2.4,0-4.5-1.7-4.5-5l0-7.4l3.6,0l0,6.8
			c0,1.5,0.9,2.2,2.1,2.2c1.3,0,2.2-0.8,2.2-2.5l0-6.6L459.7,139.8z"/>
		<path class="st4" d="M473.9,144.4l0,7.4l-3.6,0l0-6.8c0-1.5-0.9-2.2-2.1-2.2c-1.3,0-2.2,0.8-2.2,2.5l0,6.6l-3.6,0l0-12l3.6,0
			l0,1.1c0.6-0.9,1.8-1.5,3.4-1.5C471.8,139.5,473.8,141.2,473.9,144.4z"/>
		<path class="st4" d="M476,136.6c0-1.2,1-2.2,2.2-2.2s2.2,1,2.2,2.2s-1,2.2-2.2,2.2S476,137.8,476,136.6z M476.3,139.8l3.6,0l0,12
			l-3.6,0L476.3,139.8z"/>
		<path class="st4" d="M482,145.8c0-3.6,2.7-6.3,6.4-6.3c2.3,0,4.4,1.2,5.4,3.1l-3.1,1.8c-0.4-0.8-1.3-1.3-2.3-1.3
			c-1.6,0-2.7,1.1-2.7,2.8c0,1.7,1.2,2.8,2.7,2.8c1.1,0,1.9-0.5,2.3-1.3l3.1,1.8c-1,1.9-3.1,3.1-5.4,3.1
			C484.7,152.1,482,149.4,482,145.8z"/>
		<path class="st4" d="M507.3,139.8l0,12l-3.6,0l0-1.1c-0.8,0.9-2,1.5-3.6,1.5c-3.1,0-5.7-2.8-5.7-6.3s2.6-6.3,5.7-6.3
			c1.6,0,2.8,0.5,3.6,1.5l0-1.1L507.3,139.8z M503.7,145.8c0-1.8-1.2-2.9-2.9-2.9s-2.9,1.1-2.9,2.9c0,1.8,1.2,2.9,2.9,2.9
			S503.7,147.6,503.7,145.8z"/>
		<path class="st4" d="M514.5,143.2l0,4.2c0,1,0.9,1.1,2.5,1l0,3.3c-4.7,0.5-6.1-0.9-6.1-4.3l0-4.2l-1.9,0l0-3.5l1.9,0l0-2.3
			l3.6-1.1l0,3.4l2.5,0l0,3.5L514.5,143.2z"/>
		<path class="st4" d="M524.8,148.9c1,0,1.8-0.4,2.3-0.9l2.9,1.7c-1.2,1.6-3,2.5-5.2,2.5c-4.1,0-6.7-2.8-6.7-6.3s2.6-6.3,6.4-6.3
			c3.5,0,6.1,2.7,6.1,6.3c0,0.5,0,1-0.1,1.4l-8.5,0C522.4,148.4,523.5,148.9,524.8,148.9z M527,144.5c-0.4-1.4-1.5-1.9-2.5-1.9
			c-1.4,0-2.3,0.7-2.6,1.9L527,144.5z"/>
		<path class="st4" d="M397.9,168.7l-3.8,12l-3.4,0l-1.9-6.4l-1.9,6.4l-3.4,0l-3.8-12l3.8,0l1.7,6.4l1.9-6.4l3.4,0l1.9,6.4l1.7-6.4
			L397.9,168.7z"/>
		<path class="st4" d="M399,165.4c0-1.2,1-2.2,2.2-2.2s2.2,1,2.2,2.2s-1,2.2-2.2,2.2S399,166.6,399,165.4z M399.3,168.7l3.6,0l0,12
			l-3.6,0L399.3,168.7z"/>
		<path class="st4" d="M410.2,172.1l0,4.2c0,1,0.9,1.1,2.5,1l0,3.3c-4.7,0.5-6.1-0.9-6.1-4.3l0-4.2l-1.9,0l0-3.5l1.9,0l0-2.3
			l3.6-1.1l0,3.4l2.5,0l0,3.5L410.2,172.1z"/>
		<path class="st4" d="M426.2,173.3l0,7.4l-3.6,0l0-6.8c0-1.5-0.9-2.2-2.1-2.2c-1.3,0-2.2,0.8-2.2,2.5l0,6.6l-3.6,0l0-16.8l3.6,0
			l0,5.9c0.6-0.9,1.8-1.5,3.4-1.5C424.1,168.3,426.2,170,426.2,173.3z"/>
		<path class="st4" d="M434.1,174.6c0-3.6,2.7-6.3,6.4-6.3c2.3,0,4.4,1.2,5.4,3.1l-3.1,1.8c-0.4-0.8-1.3-1.3-2.3-1.3
			c-1.6,0-2.7,1.1-2.7,2.8c0,1.7,1.2,2.8,2.7,2.8c1.1,0,1.9-0.5,2.3-1.3l3.1,1.8c-1,1.9-3.1,3.1-5.4,3.1
			C436.8,181,434.1,178.2,434.1,174.6z"/>
		<path class="st4" d="M458.7,168.6l0,12l-3.6,0l0-1.1c-0.6,0.9-1.8,1.5-3.4,1.5c-2.4,0-4.5-1.7-4.5-5l0-7.4l3.6,0l0,6.8
			c0,1.5,0.9,2.2,2.1,2.2c1.3,0,2.2-0.8,2.2-2.5l0-6.6L458.7,168.6z"/>
		<path class="st4" d="M470.6,177c0,2.8-2.4,3.9-5,3.9c-2.4,0-4.2-0.9-5.2-2.9l3.1-1.8c0.3,0.9,1,1.4,2,1.4c0.9,0,1.3-0.3,1.3-0.7
			c0-1.3-5.9-0.6-5.9-4.8c0-2.6,2.2-3.9,4.7-3.9c1.9,0,3.7,0.9,4.7,2.6l-3.1,1.7c-0.3-0.6-0.8-1.1-1.6-1.1c-0.6,0-1,0.2-1,0.7
			C464.7,173.5,470.6,172.6,470.6,177z"/>
		<path class="st4" d="M476.6,172l0,4.2c0,1,0.9,1.1,2.5,1l0,3.3c-4.7,0.5-6.1-0.9-6.1-4.3l0-4.2l-1.9,0l0-3.5l1.9,0l0-2.3l3.6-1.1
			l0,3.4l2.5,0l0,3.5L476.6,172z"/>
		<path class="st4" d="M480.3,174.6c0-3.6,2.8-6.3,6.4-6.3c3.5,0,6.4,2.8,6.4,6.3s-2.8,6.3-6.4,6.3
			C483.1,180.9,480.3,178.2,480.3,174.6z M489.4,174.6c0-1.7-1.2-2.8-2.8-2.8c-1.6,0-2.8,1.1-2.8,2.8c0,1.7,1.2,2.8,2.8,2.8
			C488.2,177.4,489.4,176.3,489.4,174.6z"/>
		<path class="st4" d="M513,173.2l0,7.4l-3.6,0l0-7.1c0-1.2-0.6-2-1.7-2c-1.2,0-1.9,0.8-1.9,2.3l0,6.8l-3.6,0l0-7.1
			c0-1.2-0.6-2-1.7-2c-1.2,0-1.9,0.8-1.9,2.3l0,6.8l-3.6,0l0-12l3.6,0l0,1.1c0.6-0.8,1.6-1.4,3.2-1.4c1.4,0,2.5,0.6,3.1,1.6
			c0.7-1,1.8-1.6,3.5-1.6C511.2,168.2,513,170.2,513,173.2z"/>
		<path class="st4" d="M521.6,177.7c1,0,1.8-0.4,2.3-0.9l2.9,1.7c-1.2,1.6-3,2.5-5.2,2.5c-4.1,0-6.7-2.8-6.7-6.3s2.6-6.3,6.4-6.3
			c3.5,0,6.1,2.7,6.1,6.3c0,0.5,0,1-0.1,1.4l-8.5,0C519.2,177.2,520.3,177.7,521.6,177.7z M523.8,173.3c-0.4-1.4-1.5-1.9-2.5-1.9
			c-1.4,0-2.3,0.7-2.6,1.9L523.8,173.3z"/>
		<path class="st4" d="M536.6,168.3l0,4.1c-1.5-0.2-3.6,0.4-3.6,2.7l0,5.4l-3.6,0l0-12l3.6,0l0,2.1
			C533.5,169.1,535.1,168.3,536.6,168.3z"/>
		<path class="st4" d="M547.2,176.9c0,2.8-2.4,3.9-5,3.9c-2.4,0-4.2-0.9-5.2-2.9l3.1-1.8c0.3,0.9,1,1.4,2,1.4c0.9,0,1.3-0.3,1.3-0.7
			c0-1.3-5.9-0.6-5.9-4.8c0-2.6,2.2-3.9,4.7-3.9c1.9,0,3.7,0.9,4.7,2.6l-3.1,1.7c-0.3-0.6-0.8-1.1-1.6-1.1c-0.6,0-1,0.2-1,0.7
			C541.3,173.4,547.2,172.5,547.2,176.9z"/>
		<path class="st4" d="M551.1,170.8l-2.9,0l1-7.1l3.8,0L551.1,170.8z M555.9,170.8l-2.9,0l1-7.1l3.8,0L555.9,170.8z"/>
	</g>
	<g>
		<path class="st5" d="M303.9,90.3h-212c-9.4,0-17.1,7.6-17.1,17.1v36.7c0,9.4,7.6,17.1,17.1,17.1h167.5l19.6,33.4l-5.2-33.4h30.2
			c9.4,0,17.1-7.6,17.1-17.1v-36.7C321,98,313.4,90.3,303.9,90.3z"/>
	</g>
	<g>
		<path class="st4" d="M101.1,101h2.9l-1,7.1h-3.8L101.1,101z M105.9,101h2.9l-1,7.1H104L105.9,101z"/>
		<path class="st4" d="M115.2,101v16.8h-3.8V101H115.2z"/>
		<path class="st4" d="M141,105.8l-3.8,12h-3.4l-1.9-6.4l-1.9,6.4h-3.4l-3.8-12h3.8l1.7,6.4l1.9-6.4h3.4l1.9,6.4l1.7-6.4H141z"/>
		<path class="st4" d="M154.3,105.8v12h-3.6v-1.1c-0.8,0.9-2,1.5-3.6,1.5c-3.1,0-5.7-2.8-5.7-6.3s2.6-6.3,5.7-6.3
			c1.6,0,2.8,0.6,3.6,1.5v-1.1H154.3z M150.7,111.8c0-1.8-1.2-2.9-2.9-2.9s-2.9,1.1-2.9,2.9s1.2,2.9,2.9,2.9
			S150.7,113.6,150.7,111.8z"/>
		<path class="st4" d="M168.4,110.4v7.4h-3.6v-6.8c0-1.5-0.9-2.2-2.1-2.2c-1.3,0-2.2,0.8-2.2,2.5v6.6h-3.6v-12h3.6v1.1
			c0.6-0.9,1.8-1.5,3.4-1.5C166.3,105.4,168.4,107.1,168.4,110.4z"/>
		<path class="st4" d="M175.4,109.2v4.2c0,1,0.9,1.1,2.5,1v3.3c-4.7,0.5-6.1-0.9-6.1-4.3v-4.2h-1.9v-3.5h1.9v-2.3l3.6-1.1v3.4h2.5
			v3.5H175.4z"/>
		<path class="st4" d="M190.8,109.2v4.2c0,1,0.9,1.1,2.5,1v3.3c-4.7,0.5-6.1-0.9-6.1-4.3v-4.2h-1.9v-3.5h1.9v-2.3l3.6-1.1v3.4h2.5
			v3.5H190.8z"/>
		<path class="st4" d="M194.4,111.8c0-3.6,2.8-6.3,6.4-6.3s6.4,2.8,6.4,6.3s-2.8,6.3-6.4,6.3S194.4,115.3,194.4,111.8z M203.5,111.8
			c0-1.7-1.2-2.8-2.8-2.8s-2.8,1.1-2.8,2.8s1.2,2.8,2.8,2.8S203.5,113.5,203.5,111.8z"/>
		<path class="st4" d="M227.5,101v16.8h-3.6v-1.1c-0.8,0.9-2,1.5-3.6,1.5c-3.1,0-5.7-2.8-5.7-6.3s2.6-6.3,5.7-6.3
			c1.6,0,2.8,0.6,3.6,1.5V101H227.5z M223.9,111.8c0-1.8-1.2-2.9-2.9-2.9s-2.9,1.1-2.9,2.9s1.2,2.9,2.9,2.9S223.9,113.6,223.9,111.8
			z"/>
		<path class="st4" d="M236.2,114.9c1,0,1.8-0.4,2.3-0.9l2.9,1.7c-1.2,1.6-3,2.5-5.2,2.5c-4.1,0-6.6-2.8-6.6-6.3s2.6-6.3,6.4-6.3
			c3.5,0,6.1,2.7,6.1,6.3c0,0.5,0,1-0.1,1.4h-8.5C233.8,114.4,234.9,114.9,236.2,114.9z M238.4,110.5c-0.4-1.4-1.5-1.9-2.5-1.9
			c-1.4,0-2.3,0.7-2.6,1.9H238.4z"/>
		<path class="st4" d="M255.2,105.8l-4.4,12h-4.1l-4.4-12h4l2.5,7.6l2.5-7.6H255.2z"/>
		<path class="st4" d="M262.2,114.9c1,0,1.8-0.4,2.3-0.9l2.9,1.7c-1.2,1.6-3,2.5-5.2,2.5c-4.1,0-6.6-2.8-6.6-6.3s2.6-6.3,6.4-6.3
			c3.5,0,6.1,2.7,6.1,6.3c0,0.5,0,1-0.1,1.4h-8.5C259.7,114.4,260.8,114.9,262.2,114.9z M264.4,110.5c-0.4-1.4-1.5-1.9-2.5-1.9
			c-1.4,0-2.3,0.7-2.6,1.9H264.4z"/>
		<path class="st4" d="M270,100.2h3.6v17.5H270V100.2z"/>
		<path class="st4" d="M275.6,111.8c0-3.6,2.8-6.3,6.4-6.3s6.4,2.8,6.4,6.3s-2.8,6.3-6.4,6.3S275.6,115.3,275.6,111.8z M284.7,111.8
			c0-1.7-1.2-2.8-2.8-2.8c-1.6,0-2.8,1.1-2.8,2.8s1.2,2.8,2.8,2.8C283.5,114.6,284.7,113.5,284.7,111.8z"/>
		<path class="st4" d="M303.3,111.8c0,3.6-2.6,6.3-5.7,6.3c-1.6,0-2.8-0.6-3.6-1.5v5.9h-3.6v-16.8h3.6v1.1c0.8-0.9,2-1.5,3.6-1.5
			C300.7,105.4,303.3,108.2,303.3,111.8z M299.7,111.8c0-1.8-1.2-2.9-2.9-2.9s-2.9,1.1-2.9,2.9s1.2,2.9,2.9,2.9
			S299.7,113.6,299.7,111.8z"/>
		<path class="st4" d="M117.5,139.2v7.4h-3.6v-7.1c0-1.2-0.6-2-1.7-2c-1.2,0-1.9,0.8-1.9,2.3v6.8h-3.6v-7.1c0-1.2-0.6-2-1.7-2
			c-1.2,0-1.9,0.8-1.9,2.3v6.8h-3.6v-12h3.6v1.1c0.6-0.8,1.6-1.4,3.2-1.4c1.4,0,2.5,0.6,3.1,1.6c0.7-1,1.8-1.6,3.5-1.6
			C115.7,134.2,117.5,136.2,117.5,139.2z"/>
		<path class="st4" d="M131.1,134.6l-4.1,11.6c-1.3,3.8-3.5,5.3-6.8,5.2V148c1.7,0,2.5-0.5,3-2l-4.8-11.4h4l2.7,7.3l2.3-7.3H131.1z"
			/>
		<path class="st4" d="M143,138v4.2c0,1,0.9,1.1,2.5,1v3.3c-4.7,0.5-6.1-0.9-6.1-4.3V138h-1.9v-3.5h1.9v-2.3l3.6-1.1v3.4h2.5v3.5
			H143z"/>
		<path class="st4" d="M153.3,143.7c1,0,1.8-0.4,2.3-0.9l2.9,1.7c-1.2,1.6-3,2.5-5.2,2.5c-4.1,0-6.6-2.8-6.6-6.3s2.6-6.3,6.4-6.3
			c3.5,0,6.1,2.7,6.1,6.3c0,0.5,0,1-0.1,1.4h-8.5C150.9,143.2,152,143.7,153.3,143.7z M155.5,139.3c-0.4-1.4-1.5-1.9-2.5-1.9
			c-1.4,0-2.3,0.7-2.6,1.9H155.5z"/>
		<path class="st4" d="M173.4,134.6v12h-3.6v-1.1c-0.8,0.9-2,1.5-3.6,1.5c-3.1,0-5.7-2.8-5.7-6.3s2.6-6.3,5.7-6.3
			c1.6,0,2.8,0.6,3.6,1.5v-1.1H173.4z M169.8,140.6c0-1.8-1.2-2.9-2.9-2.9s-2.9,1.1-2.9,2.9s1.2,2.9,2.9,2.9
			S169.8,142.4,169.8,140.6z"/>
		<path class="st4" d="M175.4,140.6c0-3.6,2.7-6.3,6.4-6.3c2.3,0,4.4,1.2,5.4,3.1l-3.1,1.8c-0.4-0.8-1.3-1.3-2.3-1.3
			c-1.6,0-2.7,1.1-2.7,2.8s1.2,2.8,2.7,2.8c1.1,0,1.9-0.5,2.3-1.3l3.1,1.8c-1,1.9-3.1,3.1-5.4,3.1
			C178.1,146.9,175.4,144.1,175.4,140.6z"/>
		<path class="st4" d="M200.1,139.2v7.4h-3.6v-6.8c0-1.5-0.9-2.2-2.1-2.2c-1.3,0-2.2,0.8-2.2,2.5v6.6h-3.6v-16.8h3.6v5.9
			c0.6-0.9,1.8-1.5,3.4-1.5C198.1,134.2,200.1,135.9,200.1,139.2z"/>
		<path class="st4" d="M208.7,143.7c1,0,1.8-0.4,2.3-0.9l2.9,1.7c-1.2,1.6-3,2.5-5.2,2.5c-4.1,0-6.6-2.8-6.6-6.3s2.6-6.3,6.4-6.3
			c3.5,0,6.1,2.7,6.1,6.3c0,0.5,0,1-0.1,1.4h-8.5C206.3,143.2,207.4,143.7,208.7,143.7z M210.9,139.3c-0.4-1.4-1.5-1.9-2.5-1.9
			c-1.4,0-2.3,0.7-2.6,1.9H210.9z"/>
		<path class="st4" d="M223.7,134.3v4.1c-1.5-0.2-3.6,0.4-3.6,2.7v5.4h-3.6v-12h3.6v2.1C220.6,135.1,222.2,134.3,223.7,134.3z"/>
		<path class="st4" d="M234.4,143c0,2.8-2.4,3.9-5,3.9c-2.4,0-4.2-0.9-5.2-2.9l3.1-1.8c0.3,0.9,1,1.4,2,1.4c0.9,0,1.3-0.3,1.3-0.7
			c0-1.3-5.9-0.6-5.9-4.8c0-2.6,2.2-3.9,4.7-3.9c1.9,0,3.7,0.9,4.7,2.6l-3.1,1.7c-0.3-0.6-0.8-1.1-1.6-1.1c-0.6,0-1,0.2-1,0.7
			C228.5,139.4,234.4,138.5,234.4,143z"/>
		<path class="st4" d="M238.2,136.8h-2.9l1-7.1h3.8L238.2,136.8z M243,136.8h-2.9l1-7.1h3.8L243,136.8z"/>
	</g>
	<g>
		<defs>
			<path id="SVGID_2_" d="M589.4,298.5c19.7-55.6-1.2-140.2-63.1-158.1c-17.8-5.1-32.2,0.1-49.3,3.1c-39.5,6.7-82-31.7-117.5-52.4
				c-51.7-30.1-82.7-33.3-128-35.6c-25.5-1.3-84.5-10.8-116.1,39.7C78.6,154.3,45.3,151.3,21,196.5c-40,74.6,28,151.5,7.6,204.8
				c-16.9,44-49.4,142.1,41.3,170.1c73.9,22.7,81.4-41.9,223.1-6c141.7,35.9,239.6,29.9,269.8-23.9c9.5-17,26.8-64.8,5-120.4l0,0
				C553.3,350.7,576,336.4,589.4,298.5z"/>
		</defs>
		<clipPath id="SVGID_3_">
			<use xlink:href="#SVGID_2_"  style="overflow:visible;"/>
		</clipPath>
		<g class="st6">
			<g>
				<g>
					<g>
						<path class="st7" d="M492.1,670.6c0,0,3.8-0.1,3.7,7.2c-0.2,7.3,0,18.1,0,18.1h-3.7v-12.6l-10.9,12.6h-37.6
							c0,0,2-6.9,19.7-6.8L492.1,670.6z"/>
						<path class="st8" d="M478.4,645.1l1.2,25.6l-18,18.6h8.3c3.9,0,7.6-1.4,10.5-4c3.9-3.5,9.1-8.9,11.7-14.6l-1.1-28.8
							c0,0,3.2-37.1-3.9-70.8l-14,1.9L478.4,645.1z"/>
					</g>
					<g>
						<path class="st7" d="M521.6,670.6c0,0,3.8-0.1,3.7,7.2c-0.2,7.3,0,18.1,0,18.1h-3.7v-12.6l-10.9,12.6h-37.6
							c0,0,2-6.9,19.7-6.8L521.6,670.6z"/>
						<path class="st9" d="M519.8,639.3l1.9,31.4c-2.6,5.7-7.8,11.1-11.7,14.6c-2.9,2.6-6.6,4-10.5,4h-8.3l18-18.6l-2.8-31.5
							l-8.1-67.2h16.3L519.8,639.3z"/>
					</g>
					<path class="st10" d="M509.6,455.3l-55.5,12.5c0,0-4.3,36.9,2.3,61.7c4.4,16.3,9.6,55.9,9.6,55.9l54.5-1.8
						c0,0,2.5-30.8,4.4-80.7c0.9-24.6-8.2-38.4-8.2-38.4"/>
					<path class="st11" d="M456,301.6c0,0,5.1-12.7,23.6-13.6c13.2-0.7,25.3,7.1,26.2,22.7c1,16.5-3.8,15.2,9.7,20.1
						c13.5,4.9-5,23.4,8.4,25.7c13.4,2.3,14.1,22.1-2.9,27.5c-17,5.5-72,2.6-74.4-8.7c-2.4-11.3,13.9-26.2,9.6-35.3
						C451.8,330.9,447,308.8,456,301.6z"/>
					<path class="st8" d="M439.8,410.1l-5.5,15.6c0,0-18.6-35.8-19.4-39c-0.9-3.2,0.1-18.3,0-20.1c0,0-3.3-0.2-3.6,3.3
						c-0.3,3.5,0,5,0,5s-6.5-3.6-9.4-5.1s-13.5-5.2-16.1-5.5c0,0-2.5,1,1.4,3.8s11.9,17,14.9,18.1c3,1.2,19.6,53.1,25.3,60.9
						c5.7,7.8,16.9,6.6,21.7-5.4c4.8-12.1,8.4-29.2,8.4-29.2L439.8,410.1z"/>
					<path class="st10" d="M423.9,443.3c0.2,0.6,3.1,3.3,3.5,3.8c3,3.6,15.9,12.2,23-8.9c4.3-12.8,25-83.9,4.4-75.2
						c-8.4,3.5-12.5,24.9-19.4,57.5c0,0-0.5,9.3-7.9-8c-4.2-9.8-10.9-25.1-10.9-25.1l-13.5,5.3L423.9,443.3z"/>
					<path class="st8" d="M487,364.2h-9.5c-2.5,0-4.6-2.1-4.6-4.6v-33.4h18.7v33.4C491.6,362.2,489.5,364.2,487,364.2z"/>
					<path class="st12" d="M472.9,352.1c0,0,7.6,1.6,18.7-4.4v-11.6l-18.7,12.4C472.8,348.4,472.8,350.8,472.9,352.1z"/>
					<path class="st8" d="M459.4,307.7c0,0-3.4,43.5,13.3,43.5c18.3,0,21.1-16.8,21.1-16.8s6.1-3.5,4.7-7.4c-1-2.8-4-1.1-4-1.1
						S502.6,300.1,459.4,307.7z"/>
					<path class="st11" d="M458.6,304.7c0,0,3.1,17.7,17.6,14.9c14.6-2.8,11.1,8,17.9,6.2c0,0,16.8-10.8,4.1-21.7
						C485.6,293.2,466.3,296,458.6,304.7z"/>
					<path class="st8" d="M468.2,355.9c0,0,3.5,10.6,10.1,12.6c0,0,10.4-1,18.7-15c0,0-9.4-2.6-15.8-1.9
						C481.2,351.7,473.3,353.8,468.2,355.9z"/>
					<path class="st13" d="M462.7,432.3c-9.8,15.3-7.8,27.7-9,41c-0.2,2.3,1.2,4.5,3.5,5.3c22.1,7.1,50.2,0.8,59.6-14.1
						c-4.2-19.3-0.7-6.7-7.9-19.5c0-0.1-16.1-11.9-16.2-12c-0.1-0.1-0.2-0.2-0.3-0.3c-0.1-0.1-0.2-0.2-0.2-0.2
						c-5.1-9.2,12.3-19.3,18.6-37.2c6.4-18.2,6.9-32.6,6.9-32.6c-1.4-0.6-4.1-1.9-8.3-4.4c-3.8-2.2-9-3.7-13.2-4.8
						c-5.8-1.6-11.7,5.4-17.7,5.5c-4.4,0.1-5.9-4.3-9.2-3.3c-5.6,1.7-12.6,5.1-16.8,9.8l-1.6,16.3c0,0-5.3,12.2-4.5,17.7
						C447.1,404.9,470.1,422.5,462.7,432.3z"/>
					<path class="st14" d="M475.7,365.9l-3.2,6l-6.2-11.4c1-0.2,1.9-0.5,2.8-0.7l9.7-1.6l14.8,1.6c1.9,0.4,3.7,1,5.6,1.6l-15.7,11.7
						l-2.8-6.9l-3.5,3.3L475.7,365.9z"/>
					<polygon class="st15" points="478.9,358.3 483.9,370.3 499.1,360.9 494.9,350.3 					"/>
					<polygon class="st15" points="478.9,358.2 472.7,369.2 466.9,359.9 471.5,351.4 					"/>
					<path class="st14" d="M477,368.6c-0.6,1.3-7.9,30.4-8.6,36.3c-0.7,6.2,5,22.8,5,27.1c0,1.5-1.2,6-2.7,11.7
						c-2.8,10.6-1,21.9-3,37.2c0.4,0.1,0.8,0.1,1.2,0.1c2-15.2,0.1-25.6,2.9-37c1.6-6.3,2.8-10.4,2.8-12.1c0-4.7-5.7-21.3-5-26.9
						c0.7-5.7,8.5-36,8.6-36.3L477,368.6z"/>
					<path class="st10" d="M509.3,358.1l10.4,5.5c0,0-6.2,21.3-7.1,43.6c-1,24.6-1.1,19.7-1,24.6c0.1,9.5-0.1,10.7,4.6,27.3
						c0,0-7.4,13.3-28.8,18.8c0,0-15.6,2.4-17.8-4.2c0,0-4.3,3.9-9.1,4.3s-6.2-6.5-6.2-6.5s-0.3-5.7,0.8-19.7
						c1-13.3,3.5-15.7,2.3-22.6c-1.5-8.9-10.2-19.3-11.9-27.6c-1.3-6.3,3.1-21.6,3.1-21.6l0.2-2.9c0-9.8,4.7-13.3,6.5-14.5l2.3-1.6
						c0,0,5.8,16.8,14.1,31.9L509.3,358.1z"/>
					<polygon class="st13" points="456.3,384 455.2,391.2 444,390.2 445.2,383 					"/>
					<path class="st16" d="M469.2,474.8c0,0-4.1,2.9-8.9,3.3s-6.7-3.8-6.7-3.8s-0.1-15.2,1.9-28.4c1.1-7.3,2.4-10.7,1.5-17.4
						c-0.9-6.7-10.8-20-11.7-26.7c0,0,12.1,11.5,37.2,9.4c24.8-2.1,30.3-10.4,30.3-10.4c-0.2,2.6-0.4,3.8-0.5,6.5
						c-0.4,14.1-1.1,16.6-1,22c0,6.5,0.3,13.6,4.6,30c0,0-3.6,8.5-19.5,15.6C494.9,476.4,473.6,483.3,469.2,474.8z"/>
				</g>
				<g>
					<circle class="st17" cx="477" cy="330.4" r="1.4"/>
					<circle class="st17" cx="464.7" cy="330.4" r="1.4"/>
					<path class="st18" d="M481.9,326.5c0,0-2-3.3-6.3-2.1"/>
					<path class="st18" d="M468.2,324.6c0,0-3.1-2.8-6.1,0.3"/>
					<path class="st19" d="M470.9,327.9c0,0-1,3.9-2.7,6.1c-1.6,2.1,2.4,3.4,2.4,3.4"/>
					<path class="st19" d="M479.1,340.1c0,0-2.4,3.5-6.6,2.5"/>
					<path class="st19" d="M493.8,330.5c0,0,0-3.4,3.2-2.3"/>
				</g>
			</g>
			<g>
				<path class="st10" d="M523.4,436.5c-1.4-5.6-25.6-68.2-6.2-73.1c13.4-3.4,32.4,75.9,25.6,91.7
					C536.1,457.4,529.9,449.6,523.4,436.5z"/>
				<g>
					<g id="folder">
						<g>
							<polygon class="st14" points="470.8,482 527.8,477.8 522.5,405.9 475.2,409.4 467.3,409.2 							"/>
							
								<rect x="468.1" y="408.5" transform="matrix(-0.9973 7.346768e-02 -7.346768e-02 -0.9973 1024.6331 850.8528)" class="st20" width="57.1" height="71.5"/>
							
								<rect x="467" y="409.4" transform="matrix(-0.9973 7.347153e-02 -7.347153e-02 -0.9973 1025.3418 854.4301)" class="st21" width="59.9" height="73.4"/>
							<path class="st22" d="M529.5,480.5l-5.4-73.2l-59.8,4.4C490.4,430,512.4,452.6,529.5,480.5z"/>
							
								<rect x="483.7" y="407.3" transform="matrix(-0.9973 7.346673e-02 -7.346673e-02 -0.9973 1017.4893 782.9878)" class="st23" width="21.2" height="5.8"/>
							<path class="st24" d="M484,413.9l21.1-1.6l-0.4-5.8c0,0-1.5,4.8-10.1,5.2c-8.6,0.4-11.1-3.6-11.1-3.6L484,413.9z"/>
							<path class="st25" d="M501.9,408.4c-0.1,0.3,0.1,0.7,0.5,0.8c0.3,0.1,0.7-0.1,0.8-0.5c0.1-0.3-0.1-0.7-0.5-0.8
								C502.3,407.8,501.9,408.1,501.9,408.4z"/>
							<path class="st25" d="M485.4,409.7c-0.1,0.3,0.1,0.7,0.5,0.8c0.3,0.1,0.7-0.1,0.8-0.5c0.1-0.3-0.1-0.7-0.5-0.8
								C485.8,409.1,485.5,409.3,485.4,409.7z"/>
							<path class="st23" d="M485.9,410.1c0,0,0.1,0,0.1,0c0.2,0,0.4-0.2,0.3-0.4l-0.2-3.2l15.8-1.2l0.2,3.2c0,0.2,0.2,0.4,0.4,0.3
								c0.2,0,0.4-0.2,0.3-0.4l-0.3-3.6c0-0.2-0.2-0.4-0.4-0.3l-16.5,1.2c-0.1,0-0.2,0.1-0.3,0.1c-0.1,0.1-0.1,0.2-0.1,0.3l0.3,3.6
								C485.7,409.9,485.8,410,485.9,410.1z"/>
						</g>
					</g>
				</g>
				<g>
					<g>
						<path class="st8" d="M542.2,448.3c-0.6-6.4-7.9-7.1-18.5-6.7c0,0-22.9,4.3-30.6,2.3c-2.2-3.4-4.2-4.5-6.2-6.7
							c-2.9-3.1-4.2-7.1-5.1-6.4c-4.8,3.7,7.5,10.7,1.8,12.6c-4.9,1.7-16-2.8-16.7-0.4c-1.1,3.6,7.3,4.2,7.1,4.6
							c-0.2,0.4-7.5-1.2-8.1,1c-1,3.8,8.3,2.2,8.3,2.8c0,0.7-7.4-0.8-7.1,2.5c0.3,2.7,6.7,0.9,6.7,1.4c0,0.9-5,0-4.1,2.6
							c0.5,1.3,2.3,1.3,5.5,1.1c5.9,0.3,12.9-2,17-4.8c0.5,0,1,0,1.4,0.2c4.7,1.6,25.2,6.6,40.3,2.9
							C541.2,455.7,542.6,452,542.2,448.3z"/>
					</g>
				</g>
				<path class="st10" d="M542.7,455.1c-5.8,9.4-49.4,0.4-49.4,0.4l0.3-11.5c0,0,30.3-6.9,32-8.2
					C539.8,434.5,546.8,441.6,542.7,455.1z"/>
			</g>
		</g>
	</g>
	<g>
		<defs>
			<path id="SVGID_4_" d="M589.4,298.5c19.7-55.6-1.2-140.2-63.1-158.1c-17.8-5.1-32.2,0.1-49.3,3.1c-39.5,6.7-82-31.7-117.5-52.4
				c-51.7-30.1-82.7-33.3-128-35.6c-25.5-1.3-84.5-10.8-116.1,39.7C78.6,154.3,45.3,151.3,21,196.5c-40,74.6,28,151.5,7.6,204.8
				c-16.9,44-49.4,142.1,41.3,170.1c73.9,22.7,81.4-41.9,223.1-6c141.7,35.9,239.6,29.9,269.8-23.9c9.5-17,26.8-64.8,5-120.4l0,0
				C553.3,350.7,576,336.4,589.4,298.5z"/>
		</defs>
		<clipPath id="SVGID_5_">
			<use xlink:href="#SVGID_4_"  style="overflow:visible;"/>
		</clipPath>
		<g class="st26">
			<g>
				<path class="st11" d="M248.9,239.9c0,0-4.3,9.3-2.1,22.3c2.3,13.3-12.4,12-10.7,25c0,0,41.6,12.4,80.1-12.7
					c0,0,2.6-11.4-5.4-14.2c-11.2-3.8-14.1-15.5-14.1-15.5L248.9,239.9z"/>
				
					<ellipse transform="matrix(0.9909 -0.1349 0.1349 0.9909 -30.9917 38.948)" class="st11" cx="272" cy="248.2" rx="25" ry="23.2"/>
				<polygon class="st8" points="269.6,267.2 270.1,305.2 288.5,302.8 282.8,269.4 				"/>
				<path class="st27" d="M285.2,281.8l-2-10.1l-13.4,5.9c0,0,2.9,2.3,7.4,3.3C277.2,281,280.8,282,285.2,281.8z"/>
				<path class="st27" d="M289.4,264.7c-0.1-2.4,0.2-4.7,1.1-7c1.1-3.1,3.1-6.2,6.8-5c6.3,2,1.8,12.5-4.2,14.1
					C291.2,267.2,289.4,266.1,289.4,264.7L289.4,264.7z"/>
				<path class="st8" d="M265.7,231c4-1.7,8.4-2.6,12.8-2.3c5.9,0.4,13.8,3,16.1,13.4c3.9,17.3,3,28.8-4.5,34.7
					c-5.3,4.1-11.2,4.6-19.5,1.2c-3.1-1.3-7.6-6.8-8.9-10.1l-3.5-9.1C258.2,258.9,246.4,239.2,265.7,231z"/>
				<g>
					<g>
						<path class="st28" d="M270.8,246.3l10.4,10.1c0,0-1.7,5.3-5.9,5.5l-10.4-9.8C264.9,252,266.4,246.7,270.8,246.3z"/>
						<path class="st28" d="M289.8,243.1l9.1,10.3c0,0-1.4,5.3-4.9,5.3l-9.1-10C284.9,248.7,286,243.4,289.8,243.1z"/>
						<path class="st29" d="M281.3,252.7c0.8,4.6-2.3,8.9-6.9,9.7c-4.6,0.8-8.9-2.3-9.7-6.9c-0.8-4.6,2.3-8.9,6.9-9.7
							C276.2,245.1,280.5,248.2,281.3,252.7z"/>
						<path class="st29" d="M298.9,249.8c0.8,4.6-1.8,8.8-5.7,9.5c-3.9,0.7-7.6-2.5-8.4-7.1c-0.8-4.6,1.8-8.8,5.7-9.5
							C294.4,242,298.1,245.2,298.9,249.8z"/>
						<path class="st29" d="M281.3,252.7c0,0,1.6-1.3,3.5-0.6"/>
						<line class="st29" x1="259.4" y1="260.6" x2="264.8" y2="256.2"/>
					</g>
				</g>
				<path class="st11" d="M261.9,262.6c0-1.6,4.6-14.5-2.2-30c0,0-6.2-0.7-6.9,10.5C251.6,261.2,261.9,262.6,261.9,262.6z"/>
				<g>
					<path class="st8" d="M265.2,267.9c-0.8-2.3-2.1-4.5-3.8-6.4c-2.3-2.6-5.4-4.9-8.6-2.3c-5.4,4.4,3.2,12.9,9.6,12.1
						C264.3,271.1,265.7,269.4,265.2,267.9L265.2,267.9z"/>
					<path class="st30" d="M255,263.7c4.4-2.2,7.5,2.6,7.5,2.6"/>
				</g>
				<path class="st11" d="M257.9,233.9c0,0,8.5,8.2,38.9,3.3c0,0-6.1-11.6-21.8-12.1C259.2,224.5,257.9,233.9,257.9,233.9z"/>
				<g>
					<circle class="st17" cx="278.3" cy="255.9" r="1.4"/>
					<circle class="st17" cx="290.6" cy="255.9" r="1.4"/>
					<path class="st18" d="M271.1,244c0,0,2-3.3,6.3-2.1"/>
					<path class="st18" d="M284.8,242.1c0,0,3.1-2.8,6.1,0.3"/>
					<path class="st19" d="M284.3,253.4c0,0,1,3.9,2.7,6.1c1.6,2.1-2.4,3.4-2.4,3.4"/>
					<path class="st19" d="M276.2,265.5c0,0,2.4,3.5,6.6,2.5"/>
				</g>
			</g>
			<g>
				<path class="st8" d="M270.3,302.9c0,0,34.9,11.7,33.2-9.7L287,280.6l-11,6.2l-5.8,4.8l-5.8,9.6L270.3,302.9z"/>
			</g>
			<g>
				<path class="st7" d="M284.8,594.7c0,0-4-0.1-3.8,7.5c0.2,7.6,0,18.8,0,18.8h3.8v-13.1l11.4,13.1h39.2c0,0-2.1-7.2-20.5-7
					L284.8,594.7z"/>
				<path class="st8" d="M300.1,579.1l-2.3,15.6l18.7,19.4h-8.6c-4,0-7.9-1.5-10.9-4.2c-4-3.7-9.5-9.3-12.2-15.2V585
					c0,0,1.2-67.7,1.2-93.1h25.5L300.1,579.1z"/>
			</g>
			<g>
				<path class="st7" d="M225.6,594.7c0,0,4-0.1,3.8,7.5c-0.2,7.6,0,18.8,0,18.8h-3.8v-13.1L214.2,621H175c0,0,2.1-7.2,20.5-7
					L225.6,594.7z"/>
				<path class="st9" d="M235.4,566.3l-9.8,28.4c-2.7,5.9-8.2,11.5-12.2,15.2c-3,2.7-6.9,4.2-10.9,4.2h-8.6l18.7-19.4l7.5-26.7
					l19.4-85.7l27.7,3.8L235.4,566.3z"/>
			</g>
			<path class="st31" d="M265.9,370.2l45.7-0.3c0,0,4.9,54.1,4.9,77.7c0,17.6-2.8,58.5-2.8,58.5l-83.2-2.1c0,0,4.4-32.2,18-82.4
				C260.7,376.6,265.9,370.2,265.9,370.2"/>
			<g>
				<g>
					<path class="st32" d="M295.6,307.7c0,0,10.7,21.7,38.7,41.7l13.4-17.5l-46.3-50.2L295.6,307.7z"/>
				</g>
				<g>
					<g>
						<path class="st8" d="M375,295.7l-9.5-4.9l-14.1,20.5c3.3,2.2,7.7,4.7,11.1,6.9L375,295.7z"/>
						<g>
							<path class="st8" d="M363.9,289.7l-0.6-2.2c-0.8-3-1-6.1-0.4-9.1l1.1-5.3c0.3-1.3,1.6-2,2.8-1.5v0c1,0.4,1.7,1.4,1.7,2.4
								l0.1,5.8l8.6-15.5c0.4-0.9,1.6-1.1,2.4-0.6l0.5,0.4c0.6,0.4,0.9,1.3,0.6,2l-6,12l8.8-12.8c0.5-0.8,1.6-1,2.4-0.4l0.4,0.3
								c0.6,0.5,0.8,1.4,0.4,2.1l-7.1,11.7l7.4-7.7c0.7-0.8,1.9-0.7,2.5,0.1l0.1,0.2c0.4,0.6,0.4,1.4,0,1.9l-7.1,8.6l4.7-3.6
								c0.8-0.9,2.3-0.5,2.7,0.6l0,0c0.2,0.5,0.1,1.1-0.3,1.6l-17.2,19.5l-4.7-4.3C365.8,294,364.5,291.9,363.9,289.7z"/>
						</g>
					</g>
					<g>
						<g>
							<g>
								<g>
									<path class="st32" d="M329.2,335.4l31.1-40.7l12.4,10.3l-21.3,39c-3.6,6.3-9,9.5-15,6.6h0
										C330.9,348.1,326.7,340.8,329.2,335.4z"/>
								</g>
							</g>
						</g>
					</g>
				</g>
			</g>
			<g>
				<g>
					<g>
						<g>
							<g>
								<g>
									<path class="st33" d="M303.1,368.5c-0.8,0.2-1.1-6.5-1.1-7.4c0.6-15.3,1.2-30.1-3.2-41.2c-2.9-7.3-5.4-14.2-7.4-20.1
										c-3-8.7-4.8-15.1-5.5-17.5c-0.2-0.6,0.1-1.2,0.6-1.5l0,0c0.3-0.2,0.6-0.3,0.9-0.4c5.1-1.7,8.5-1.4,9.7-1.2
										c0.2,0,0.5,0.1,0.7,0.2c11.2,4.2,19,38,20.6,46.8c1.5,7.9-3.8,39.1-4.9,40.1c-1,1-3.2,2.1-5.3,2.1c-0.1,0-3.1,0-3.2,0
										H303.1z"/>
								</g>
							</g>
							<path class="st34" d="M304.2,368.5h-1.1c0,0-1.7-1.7-0.8-13c0,0,1-20.5-0.7-24.9c0,0-2.7-20.3-8-25l2.1,0.5
								c2.6,2.5,4.6,5.6,5.3,8.5c1.6,6.4,3.2,14.5,3.2,25.4C304.2,345.2,303.1,368.5,304.2,368.5z"/>
							<path class="st35" d="M294.7,307.2c0,0,5.3-9.5,10.6,0c0,0-8.2-24.2-14.9-27.7c0,0-3.1,0-5.2,2.1
								C285.2,281.6,291.5,303,294.7,307.2z"/>
							
								<ellipse transform="matrix(0.9215 -0.3884 0.3884 0.9215 -93.6468 141.3378)" class="st36" cx="302.8" cy="302.3" rx="0.5" ry="0.6"/>
							<path class="st37" d="M301,278.7c0,0-6.3-1.1-9.5,0c0,0-2.1,1.1,1.1,2.1l8.8,0.9C301.3,281.6,302.1,279.7,301,278.7z"/>
							
								<ellipse transform="matrix(0.1068 -0.9943 0.9943 0.1068 -16.3221 541.2848)" class="st38" cx="293.1" cy="279.7" rx="0.5" ry="1.1"/>
							<path class="st36" d="M294.9,278.2c0,0,0.8,1.5,0.4,2.9l0.9,0.1c0,0,0.2-2.3-0.6-2.9L294.9,278.2z"/>
							<path class="st36" d="M299.5,278.5c0,0,0.3,1.5-0.1,3l0.7,0.1c0,0,0.1-2.1,0-3L299.5,278.5z"/>
							<path class="st36" d="M297,278.2c0,0,0.2,2.4,0,3l0.6,0.1v-3H297z"/>
							<path class="st39" d="M304.5,322c0,0-0.3,4.2,1.8,7.4c0,0,1.1,1.1,3.2,1.1c0,0-1.1,0-3.2-2.1c-1.5-1.6-1.5-6.3-1.5-6.3H304.5
								z"/>
							<path class="st35" d="M304.2,318.8c0,0,5.3,0,8.5-1.1c0,0,1.1,1.1,1.1,2.1c0,0,0,1.1-1.1,2.1l-2.1,2.1
								c-0.7,0.3-1.1,1.1-3.2,0l-2.1-1.1c0,0-1.1-1.1-1.1-2.1C304.2,319.9,304.2,318.8,304.2,318.8z"/>
						</g>
					</g>
					<g>
						<path class="st33" d="M270.4,288.2c1.1,4.2,9.5,11.6,22.2,16.9c8.8,3.7,10.6,18.5,10.6,30.6v31.7c0,0,0,7.4-18,6.3l-20.1-1.1
							l3.2-12.7l-12-33.8l7.2-34.9L270.4,288.2L270.4,288.2z"/>
						<g>
							<g>
								<g>
									<g>
										<path class="st33" d="M265.5,290.3c0,0-18.9,4.5-53,58.7l18.4,12.2l35.7-40.3L265.5,290.3z"/>
									</g>
								</g>
							</g>
						</g>
						<path class="st35" d="M269.9,286.9c0,0-2.7,0.2-4.8,3.4c0,0,3.2,14.8,10.6,24.3c0,0-1.1-15.8,16.9-9.5
							C292.6,305.1,273.5,292.6,269.9,286.9z"/>
						<circle class="st34" cx="297.3" cy="320.4" r="1.6"/>
						<circle class="st34" cx="299.4" cy="340.5" r="1.6"/>
						<circle class="st34" cx="300.5" cy="359.5" r="1.6"/>
						<path class="st37" d="M248.6,301l12.2-10.7c0.3-0.3,0.7-0.5,1.1-0.5c4.2-0.1,4.4,2.8,4.2,4.2c-0.1,0.5-0.3,0.9-0.6,1.2
							l-11.2,11.2C254.2,306.5,253.1,302.1,248.6,301z"/>
						<circle class="st40" cx="262.5" cy="292.9" r="2.1"/>
						<path class="st36" d="M261.8,298.9c0,0-2.7-3.8-5.5-4.6l-0.8,0.7c0,0,4.5,2.6,5.5,4.8L261.8,298.9z"/>
						<path class="st36" d="M259.4,301.3c0,0-1.2-3.8-5.7-4.7l-0.8,0.7c0,0,4.6,1.7,5.7,4.8L259.4,301.3z"/>
						<path class="st36" d="M257.1,303.6c0,0-1.3-3.2-5.6-5.1l-0.9,0.8c0,0,4,1.5,5.6,5.2L257.1,303.6z"/>
						<circle class="st36" cx="274.1" cy="308.8" r="1.6"/>
						<polygon class="st36" points="289.4,312.5 290.5,315.6 270.4,318.8 270.4,315.6 						"/>
						<g>
							<path class="st39" d="M273.6,326.4l2.1,12.6c1.9,3.7,6.8,5.1,8.3,5.4c-0.4,0.1-0.8,0.1-1.3,0.1c0,0-6.3-1.1-8.5-5.3
								l-2.1-12.7L273.6,326.4z"/>
						</g>
						<g>
							<path class="st39" d="M293.6,335.7l-2.1-11.6h1.1l2.1,11.6c0,0-2.6,6.9-8.6,8.2C291.5,342.1,293.6,335.7,293.6,335.7z"/>
						</g>
						<path class="st35" d="M291.5,320.9l-20.1,3.2c0,0-1.1,2.1,1.1,4.2c0,0,2.1,2.1,9.5,4.2c0.8,0.2,2.5-0.6,3.2-1.1l7.4-5.3
							C293.6,324.1,293,322.5,291.5,320.9z"/>
						<polygon class="st36" points="289.4,315.6 290.5,318.8 271.4,322 271.4,317.8 						"/>
						<polygon class="st41" points="288.3,312.7 289.4,315.8 285.4,316.4 284.4,313.3 						"/>
						<polygon class="st42" points="284,313.4 285,316.5 284.1,316.7 283.3,313.5 						"/>
						<polygon class="st42" points="288.9,315.9 289.8,318.9 288.5,319.1 287.9,316.1 						"/>
						<polygon class="st41" points="276,314.7 276.5,317.9 271,318.7 271,315.6 						"/>
						<polygon class="st42" points="272,318.7 272.1,321.9 272.6,321.8 272.5,318.6 						"/>
						<polygon class="st5" points="282.4,313.6 283.3,316.8 280.7,317.3 280.1,314 						"/>
						<polygon class="st5" points="287.1,316.3 287.9,319.2 284,319.9 283.5,317 						"/>
						<polygon class="st5" points="272.8,318.5 273,321.7 275.7,321.3 275.3,318.2 						"/>
						<polygon class="st42" points="279.6,314.1 280.1,317.3 279.4,317.4 278.8,314.2 						"/>
						<polygon class="st42" points="278.2,314.4 278.7,317.5 278,317.6 277.6,314.5 						"/>
						<polygon class="st42" points="276.9,314.6 277.5,317.7 276.9,317.8 276.4,314.6 						"/>
						<polygon class="st42" points="283.7,319.9 283.1,317 282.6,317.1 283.2,320 						"/>
						<polygon class="st42" points="282.2,317.2 282.8,320.1 282.3,320.2 281.8,317.3 						"/>
						<polygon class="st5" points="281.3,317.4 281.9,320.2 279,320.7 278.7,317.8 						"/>
						<polygon class="st42" points="278.7,320.8 278.4,317.8 277.1,318 277.5,321 						"/>
						<polygon class="st42" points="276.7,318 277.1,321 276.7,321.1 276.3,318.1 						"/>
						<polygon class="st42" points="276,318.1 276.4,321.2 276,321.2 275.7,318.2 						"/>
					</g>
				</g>
			</g>
			<path class="st43" d="M267.2,368.5l46.2-1.6c0.7,0,1.4,0.6,1.4,1.3v4c0,0.6-0.4,1.2-1.1,1.3c-4.4,0.8-16.9,2.4-42.3,1.4
				c-1.2-0.1-6.3-0.9-6.3-2.1L267.2,368.5z"/>
			<polygon class="st36" points="306.1,367.1 306.1,374.4 296.5,375.2 295.7,367.1 			"/>
			<circle class="st34" cx="283.1" cy="330.4" r="1.1"/>
			<circle class="st34" cx="309.1" cy="322.9" r="0.6"/>
			<g>
				<polygon points="296.9,331.5 252.8,311.3 247.8,321.9 290.9,341.1 				"/>
				<polygon class="st44" points="251.3,318.6 253.9,313.6 295.2,332.8 292.5,337.8 				"/>
				<polygon class="st45" points="292.9,334.7 264.1,395.5 220.6,374.7 248.5,314 				"/>
				<polygon points="292.9,334.7 296.9,331.5 268.5,392.1 264.1,395.5 				"/>
				<g>
					<polygon class="st44" points="247.7,338.4 275.5,351.3 279,344.1 251.2,331.1 					"/>
				</g>
			</g>
			<g>
				<g>
					<path class="st8" d="M288.5,357.6l-12.3-2.8l0.4-2.7c0.1-1-0.4-2-1.3-2.4c-0.9-0.4-2-0.2-2.6,0.7l-8.3,11.5l-6.3,8.8
						c7.2,3.6,13.9,3,15.9,1.4c0.3,0,9.6,0.7,9.6,0.7c0.9,0.1,1.8-0.5,2-1.4c0.1-0.7,0-1.7-2-2.1l2,0.4c1,0.2,1.9-0.5,2.1-1.5
						c0.2-0.9-0.6-1.8-1.8-2.2l1.5,0.2c1.1,0.2,2.1-0.6,2.1-1.8c0.1-1-0.7-1.9-1.6-2.1l-2.2-0.5l2.4,0c1.1,0.1,2.1-0.8,2.2-2
						C290.3,358.7,289.5,357.8,288.5,357.6z"/>
					<polygon class="st8" points="264.5,361.8 244.1,356.3 240.8,368.6 261.7,372.1 					"/>
				</g>
				<g>
					<g>
						<g>
							<g>
								<path class="st33" d="M225.3,344.9l35.7,12.2l-7.6,16.2l-34.4-7.7c-6.4-1.5-10.1-8.3-7.7-14.5l0,0
									C213.5,345.6,219.7,342.8,225.3,344.9z"/>
							</g>
						</g>
					</g>
				</g>
			</g>
		</g>
	</g>
	<g>
		<defs>
			<path id="SVGID_6_" d="M589.4,298.5c19.7-55.6-1.2-140.2-63.1-158.1c-17.8-5.1-32.2,0.1-49.3,3.1c-39.5,6.7-82-31.7-117.5-52.4
				c-51.7-30.1-82.7-33.3-128-35.6c-25.5-1.3-84.5-10.8-116.1,39.7C78.6,154.3,45.3,151.3,21,196.5c-40,74.6,28,151.5,7.6,204.8
				c-16.9,44-49.4,142.1,41.3,170.1c73.9,22.7,81.4-41.9,223.1-6c141.7,35.9,239.6,29.9,269.8-23.9c9.5-17,26.8-64.8,5-120.4l0,0
				C553.3,350.7,576,336.4,589.4,298.5z"/>
		</defs>
		<clipPath id="SVGID_7_">
			<use xlink:href="#SVGID_6_"  style="overflow:visible;"/>
		</clipPath>
		<g class="st46">
			<g>
				<g>
					<path class="st8" d="M350.2,401.3L350.2,401.3c-8.5,0-15.5-6.9-15.5-15.5v-32.9h30.9v32.9C365.6,394.4,358.7,401.3,350.2,401.3
						z"/>
					<g>
						<g>
							<path class="st8" d="M372.1,337.1c0,0,2.1-3.3,6.4-1.7c4.3,1.6,2.4,12.1-4.1,13.4c0,0-2.3,0.5-4.1-1.1
								C370.2,347.8,371.8,340,372.1,337.1z"/>
						</g>
						<g>
							<path class="st8" d="M327.9,337.1c0,0-2.1-3.3-6.4-1.7c-4.3,1.6-2.4,12.1,4.1,13.4c0,0,2.3,0.5,4.1-1.1
								C329.8,347.8,328.2,340,327.9,337.1z"/>
						</g>
						<path class="st47" d="M379.3,309.2c0.8-1.3,0.8-3.1,0.1-4.5c-0.7-1.4-2.3-2.5-3.8-2.5c1.5-2.1,1.7-5.1,0.6-7.5
							c-1.1-2.4-3.4-4.1-5.9-4.8c-2.5-0.7-5.3-0.6-7.8,0.4c-3-3.3-7.3-5.2-11.8-5.2h-0.9h-0.9c-4.5,0-8.8,1.9-11.8,5.2
							c-2.5-0.9-5.2-1.1-7.8-0.4c-2.5,0.7-4.8,2.5-5.9,4.8c-1.1,2.4-1,5.4,0.6,7.5c-1.6,0.1-3.1,1.2-3.8,2.5
							c-0.7,1.4-0.7,3.1,0.1,4.5c-3,1.2-5,5-4.4,8.2c0.6,3.2,3.2,5.9,6.3,6.9l1.5,6.4c0.5,2.1,2.3,3.9,3.8,5.4l1.5,6.2l0,0
							c0.7,4,1.7,8,3.3,11.3c4.7,9.6,10.6,12.6,18.5,12.4c7.9-0.2,13.9-4.2,17.6-11.6c1.9-3.8,3-8.8,3.6-13.7l0,0l1.2-5.4v0.9
							c1.5-1.5,2.6-3.4,3.1-5.5l1.5-6.4c3.1-1,5.7-3.7,6.3-6.9C384.3,314.2,382.3,310.4,379.3,309.2z"/>
					</g>
				</g>
				<g>
					<polygon class="st48" points="392.6,553.1 307.5,553.1 310.2,509.9 388.9,509.9 					"/>
					<g>
						<path class="st48" d="M307.5,552.6l-2.5,99.7c-0.3,9,6.9,16.5,15.9,16.5l0,0c8.2,0,15-6.2,15.9-14.3l10-99.2
							c1.2-11.6-7.9-21.8-19.6-21.8l0,0C316.5,533.6,307.8,542,307.5,552.6z"/>
						<g>
							<g>
								<polygon class="st44" points="303.8,784 305.8,751.2 321.2,751.3 319.2,784.1 								"/>
								<path class="st49" d="M302.6,784l-19.2,10.5l-10.8,2.1c-5,1-8.7,5.1-9.2,10.1l-0.2,2.4l58.3,0.3l0.1-25.3L302.6,784z"/>
								<polyline class="st44" points="321.8,809.8 263,809.5 263,804.3 321.8,804.6 321.8,809.8 								"/>
							</g>
							<path class="st48" d="M336.7,655.1L324,770.7h-22.5l3.5-117.8c0.3-8.9,7.8-15.9,16.7-15.4l0,0
								C330.8,637.9,337.7,646,336.7,655.1z"/>
						</g>
					</g>
					<g>
						<path class="st48" d="M392.5,552.6l2.5,99.7c0.3,9-6.9,16.5-15.9,16.5l0,0c-8.2,0-15-6.2-15.9-14.3l-10-99.2
							c-1.2-11.6,7.9-21.8,19.6-21.8l0,0C383.4,533.6,392.1,542,392.5,552.6z"/>
						<g>
							<path class="st48" d="M363.2,655.1l12.7,115.6h22.5L395,652.9c-0.3-8.9-7.8-15.9-16.7-15.4l0,0
								C369.1,637.9,362.2,646,363.2,655.1z"/>
						</g>
					</g>
				</g>
				<g>
					<g>
						<path class="st1" d="M293.8,408.1c-4,20.3-14.8,65.5-20.3,88.2c-1.8,7.6,2.6,15.3,10.2,17.5l0,0c8,2.3,16.2-2.5,18.2-10.5
							l21.9-88.8c1.9-8.6-3.9-17-12.6-18.4l0,0C303.1,394.8,295.4,400.1,293.8,408.1z"/>
						<g>
							<path class="st8" d="M276.8,588.5c-1.2-3-2.8-4.3-3.1-4.5l3.4-16.1c0.8-3.7-1.6-7.3-5.3-8.1c-3.7-0.8-7.3,1.6-8.1,5.3
								l-3.2,15.1c-0.1,0.2-0.2,0.5-0.2,0.7l0,0.2c0,0-4.2,7.6-5.1,18c-1.2,13.4,4.5,20.2,8.7,20.3c4,0.1,6.2-15.7,7.1-21.5l2.5,5.9
								c0.3,0.8,1.1,1.2,1.9,1.1c0.9-0.1,1.6-0.8,1.7-1.6l0.9-6.9C278,593.8,277.8,591,276.8,588.5z"/>
							<path class="st1" d="M273.4,496.3l-18.7,76.3l28.4,7.7l19-78c1.8-8.2-3.7-16.3-12-17.6l0,0
								C282.3,483.5,275,488.6,273.4,496.3z"/>
						</g>
					</g>
					<g>
						<path class="st1" d="M405.6,408.1c4,20.3,14.8,65.5,20.3,88.2c1.8,7.6-2.6,15.3-10.2,17.5l0,0c-8,2.3-16.2-2.5-18.2-10.5
							l-21.9-88.8c-1.9-8.6,3.9-17,12.6-18.4l0,0C396.3,394.8,404,400.1,405.6,408.1z"/>
						<g>
							<path class="st8" d="M444.3,599.2c-0.9-10.4-5.1-18-5.1-18l0-0.2c-0.1-0.3-0.2-0.5-0.2-0.7l-3.2-15.1
								c-0.8-3.7-4.4-6.1-8.1-5.3c-3.7,0.8-6.1,4.4-5.3,8.1l3.4,16.1c-0.4,0.3-1.9,1.5-3.1,4.5c-1,2.5-1.3,5.3-0.9,8l0.9,6.9
								c0.1,0.9,0.8,1.5,1.7,1.6c0.8,0.1,1.6-0.4,1.9-1.1l2.5-5.9c0.9,5.8,3.1,21.6,7.1,21.5C439.9,619.4,445.6,612.6,444.3,599.2z"
								/>
							<path class="st1" d="M426,496.3l18.7,76.3l-28.4,7.7l-19-78c-1.8-8.2,3.7-16.3,12-17.6l0,0
								C417.1,483.5,424.4,488.6,426,496.3z"/>
						</g>
					</g>
					<g>
						<polygon class="st1" points="365.6,383.3 349.5,383.5 334.7,383.3 304.4,396.5 310.2,509.9 349.5,509.9 389.2,509.9 
							395.1,396.5 						"/>
						<path class="st1" d="M366,376.1c0,0-22.8-1.4-32,0.5c0,0-0.9,2.5,0,6.8c0,0,25.8,1.1,32,0C366,383.3,366.7,379.7,366,376.1z"
							/>
					</g>
				</g>
			</g>
		</g>
	</g>
	<g>
		<defs>
			<path id="SVGID_8_" d="M589.4,298.5c19.7-55.6-1.2-140.2-63.1-158.1c-17.8-5.1-32.2,0.1-49.3,3.1c-39.5,6.7-82-31.7-117.5-52.4
				c-51.7-30.1-82.7-33.3-128-35.6c-25.5-1.3-84.5-10.8-116.1,39.7C78.6,154.3,45.3,151.3,21,196.5c-40,74.6,28,151.5,7.6,204.8
				c-16.9,44-49.4,142.1,41.3,170.1c73.9,22.7,81.4-41.9,223.1-6c141.7,35.9,239.6,29.9,269.8-23.9c9.5-17,26.8-64.8,5-120.4l0,0
				C553.3,350.7,576,336.4,589.4,298.5z"/>
		</defs>
		<clipPath id="SVGID_9_">
			<use xlink:href="#SVGID_8_"  style="overflow:visible;"/>
		</clipPath>
		<g class="st50">
			<path class="st51" d="M131.6,300.3c6.7-1.4,13.3,3,20.1,3c2.7,0,5.4-0.6,8-0.7c2.7-0.1,5.6,0.5,7.5,2.5c2.2,2.3,2.4,6,2.1,9.2
				c-0.9,8.1-5.2,15.7-11.4,20.6c-2.7,2.1-5.9,3.7-9.2,3.3c-2.6-0.3-5-1.9-7.2-3.4c-7-4.8-14.6-10-19-17.7
				C118.6,310.2,124.9,301.6,131.6,300.3z"/>
			<path class="st51" d="M128.4,356.6c0,0-26.4-24.2-15-41.9c11.4-17.8,23.5,0.8,23.5,0.8S142,346,128.4,356.6z"/>
			<g>
				<path class="st9" d="M151.1,339.2l-1.2,23.5l-0.4,6.7c-0.1,2.9-1.4,5.4-3.3,7.2c-1.9,1.8-4.5,2.9-7.4,2.9c-6,0-10.9-5-10.7-11
					l0.3-12l0.5-19.9L151.1,339.2z"/>
				<path class="st12" d="M151.1,343.9l-1.2,22.2c-10.4,0.4-18-3.8-21.5-9.5l0.5-15.2L151.1,343.9z"/>
				<path class="st8" d="M159.4,325.6c0,0,0.8,7.7-0.3,16.2c-1.3,9.8-0.8,21.4-15.3,22.1c-15.4,0.8-20.6-16.5-20.6-16.5
					s-8.2-1.5-8.8-7.1c-0.6-5.5,5.2-5.9,7-4.3c0,0,2.1-20.7,21.2-20.7C159.6,315.4,159.4,325.6,159.4,325.6z"/>
			</g>
			<g>
				<path class="st52" d="M141.3,341.7c0,0.8-0.7,1.5-1.5,1.5c-0.8,0-1.5-0.7-1.5-1.5c0-0.8,0.7-1.5,1.5-1.5
					C140.6,340.2,141.3,340.9,141.3,341.7z"/>
				<path class="st52" d="M155.2,341.7c0,0.8-0.7,1.5-1.5,1.5s-1.5-0.7-1.5-1.5c0-0.8,0.7-1.5,1.5-1.5S155.2,340.9,155.2,341.7z"/>
				<path class="st18" d="M134.2,336.4c0,0,2.3-3.7,7.1-2.4"/>
				<path class="st18" d="M149.6,334c0,0,3.5-3.2,6.9,0.3"/>
				<path class="st19" d="M146.6,337.8c0,0,1.7,4.2,3.1,6.9s-2.8,3.8-2.8,3.8"/>
				<path class="st19" d="M141,353.1c0,0,3.4,3.3,7.8,1.3"/>
				<path class="st19" d="M123.1,343.5c0,0-0.1-4.8-3.6-3.5"/>
			</g>
			<path class="st51" d="M122.6,337.6c0,0,12-5.3,8.9-18.8c0,0-7.9-12.2-14.7-7.8C110.1,315.5,122.6,337.6,122.6,337.6z"/>
			<path class="st51" d="M141.1,320.4c3.5,0.8,6.5,3.4,9.7,5.2c3.2,1.8,7.2,2.9,10.2,0.7c2.8-2,3.9-6.4,3.1-10.1
				c-0.8-3.7-3.1-6.8-5.9-8.7c-2.8-1.9-6-2.8-9.2-3.4c-4.2-0.8-8.5-1.2-12.6-0.3c-3.7,0.8-14.1,5.9-12,12.4c0.8,2.4,4.2,3.2,6.1,3.6
				C133.9,320.6,137.5,319.6,141.1,320.4z"/>
			<g>
				<polygon class="st9" points="167,640.6 170.2,671.3 157.1,671.3 152.7,640.6 				"/>
				<path class="st5" d="M155.7,664.9c0,0-5.7,9.2-1.4,10.8c4.3,1.6,32.3,1.8,39.2,0.7c6.9-1-15.5-10.5-20.6-12
					C167.9,662.9,166.2,670.7,155.7,664.9z"/>
			</g>
			<g>
				<polygon class="st9" points="111.6,637.9 113.1,670.4 128.8,671.5 126.1,640.6 				"/>
				<path class="st5" d="M128.5,664c0,0,5.7,9.2,1.4,10.8c-4.3,1.6-32.3,1.8-39.2,0.7c-6.9-1,15.5-10.5,20.6-12
					C116.3,662,118,669.8,128.5,664z"/>
			</g>
			<g>
				<path class="st8" d="M229.8,390.3c0,0,3.3-5.5,5.9-10.7c0.9-1.8-3.2-11.2-3.2-12.7c0-2.7,1.8-4.6,2.7-2.7
					c3.6,7.3,4.2,7.1,4.6,6.3c3.4-7.6,9.8-20.1,12.1-18.5c2.8,2-5.1,18-5.1,18s7-20.1,10.7-18.9c3.8,1.1-6.4,19.8-6.4,19.8
					s8.4-17.6,10.6-15.9c2.2,1.7,0.5,5.6-6.8,18.7c0,0,6.2-11.2,8.5-8.6c2.3,2.6-5.2,12.9-7.9,15.3c-0.6,0.5-4.8,5.7-9.4,7.5
					c-5.4,2.1-6.4,8.8-7.3,10C238.9,397.8,229.9,394.9,229.8,390.3z"/>
			</g>
			<path class="st8" d="M50.2,381.5c0,0-3.6-7.1-3.6-9.2c0-2.1,1-4.3,1.1-7.2c0.1-2.8,3.9-9.4,3.1-11.3c-0.8-1.9-3.1-1.4-5.4,3.1
				c-2.2,4.5-1.5,7.2-3.3,6c-1.8-1.3-6.2-6.8-7.6-9.1c-1.4-2.3-5.9-6.9-7.1-6.1s-1.5,1.9,6.4,13.1c0,0-9-13.5-11.6-11
				c-1.8,1.7,6.9,11.6,8.2,13.1c0,0-8.1-10.2-10.6-7.8c-2.3,2.3,8.9,10.8,8.9,10.8s-8.3-6.6-9.5-4.7c-1.1,1.9,3.7,6.2,8.5,8.9
				c4.8,2.7,6,3.4,7.2,5.2c1.2,1.8,4.2,9,4.2,9S46.8,386.1,50.2,381.5z"/>
			<path class="st44" d="M154.6,365.6l-15.7,8.5l-12.2-7.3c0,0-6.2,18.7-4.4,39.9c1.8,21.2,5.2,36.5,19.6,16.7
				C156.1,403.7,161.5,372.5,154.6,365.6z"/>
			<path class="st44" d="M154.6,365.6l-15.7,8.5l-12.2-7.3c0,0-6.2,18.7-4.4,39.9c1.8,21.2,5.2,36.5,19.6,16.7
				C156.1,403.7,161.5,372.5,154.6,365.6z"/>
			<path class="st51" d="M135.9,383.8c0,0-8.4,45.7-7.7,46.6c0.5-0.6,5.6,12.4,8.6,0c2.3-9.7,2.6-45.6,3-46c0,0,4.4-4.7,7-7.1
				c1.7-1.5,3.3-3.1,4.9-4.7c0.4-0.7,0.8-1.5,1.2-2.3c-0.2,0.5-0.5,1.1-0.7,1.6c1-1.9,2.1-3.7,3.3-5.3c-0.2-0.4-0.5-0.7-0.8-1
				l-15.7,8.5l-12.2-7.3c0,0-0.4,1.1-0.9,3c1.3,1.8,2.4,3.6,3.5,5.3C130.5,377.4,135.9,383.8,135.9,383.8z"/>
			<path class="st51" d="M103.7,450.7l48.3-0.9c0,0,7.3,12,9,46.8c1.1,23.8,2.1,30.4,4.5,61.8c1.6,21.3,9.2,103.1,9.2,103.1h-25.6
				c0,0-10.9-93.3-11.4-98.4c-0.2-1.8-6.5-51.1-6.5-51.1s1,44.7,1,49.9c0,5.2,1.1,97,1.1,97h-27c0,0-3-78.1-3.3-95.9
				C102.4,534,99.9,460.1,103.7,450.7z"/>
			<path class="st53" d="M122.2,367.7c-4.3,0.9-10.8,2.3-15.6,3.5c-2,0.5-3.4,2.4-3.3,4.5c0.3,9.5,0.7,35.8-4.1,44.8
				c-0.3,0.6-0.5,1.3-0.5,2l-2.8,79c-0.1,2.9,2.6,5.2,5.4,4.6c10.4-2.2,31.9-11,32.8-46c1-38,1.1-46.2,1.1-48c0-0.3,0-0.6-0.1-0.9
				l-7.6-39.9C127,368.8,124.6,367.2,122.2,367.7z"/>
			<g>
				<path class="st51" d="M131.9,417c0,0.8-0.7,1.4-1.5,1.4c-0.8,0-1.4-0.7-1.4-1.5c0-0.8,0.7-1.4,1.5-1.4
					C131.3,415.5,131.9,416.2,131.9,417z"/>
				<path class="st51" d="M131,431c0,0.8-0.7,1.4-1.5,1.4c-0.8,0-1.4-0.7-1.4-1.5c0-0.8,0.7-1.4,1.5-1.4
					C130.4,429.6,131,430.2,131,431z"/>
				<path class="st51" d="M130.1,445c0,0.8-0.7,1.4-1.5,1.4c-0.8,0-1.4-0.7-1.4-1.5c0-0.8,0.7-1.4,1.5-1.4
					C129.5,443.6,130.1,444.2,130.1,445z"/>
				<path class="st51" d="M129.2,459.1c0,0.8-0.7,1.4-1.5,1.4c-0.8,0-1.4-0.7-1.4-1.5c0-0.8,0.7-1.4,1.5-1.4
					C128.6,457.6,129.2,458.3,129.2,459.1z"/>
			</g>
			<path class="st53" d="M177.8,376.5l-23.2-10.8l-19.5,46l-4.1,53.8c0,0-5.2,32.1,11.5,38.8c13.6,5.5,15.5,5.5,22.5,3.9
				c4-0.9,6.8-4.5,6.6-8.6l-3-79.4C168.5,420.1,168.2,388.4,177.8,376.5z"/>
			<path class="st53" d="M242.6,395.6l-14-10.2c0,0-26,41-27.5,39.8c-1.5-1.2-13.9-44.4-23.3-48.8c0,0-4.8,3.4-7.5,13.4
				c-1.9,7-2.2,18.4-1.8,29.6c0,0,24.5,36.3,33.2,35.1C210.4,453.3,242.6,395.6,242.6,395.6z"/>
			<path class="st53" d="M52.7,376.5l-15.9,6.3c0,0,21.8,78.6,34.3,71.7c12.5-6.9,29.2-31.4,29.2-31.4s4.6-7.7,6.5-19.6
				c1.6-10.5,0.6-24.9-1.9-31.3c0,0-11.1,6.7-20.3,25.2s-12.1,23.8-12.9,22.6C70.8,419,52.7,376.5,52.7,376.5z"/>
			<path class="st54" d="M125.9,369.4c-0.1,0.4,4.1,15.2,4.1,15.2l8.9-6.6l7.5,7.1l8-16.9l-1.3-1.6l-9.5,5.1l-4.7,4.2l-10.4-7.9
				l-0.6-0.4L125.9,369.4z"/>
			<polygon class="st44" points="138.9,372.9 127.9,364.6 125.3,367.1 129.5,382 138.9,375 147.3,382.9 155.5,365.8 150,363.9 			
				"/>
		</g>
	</g>
	<g>
		<path class="st42" d="M306.1,620.3H89c-8.2,0-14.9-6.7-14.9-14.9v-32c0-8.2,6.7-14.9,14.9-14.9h167.9l39.4-28.2l-12,28.2h21.8
			c8.2,0,14.9,6.7,14.9,14.9v32C321,613.6,314.3,620.3,306.1,620.3z"/>
	</g>
	<text transform="matrix(0.9999 1.347025e-02 -1.347025e-02 0.9999 98.1979 594.9804)" class="st4 st55 st56">OK. We can help</text>
</g>
<g id="Layer_2" class="st57">
	<text transform="matrix(1 0 0 1 34.9717 226.3853)" class="st58"><tspan x="0" y="0" class="st4 st55 st56">I need to train</tspan><tspan x="0" y="28.8" class="st4 st55 st56"> my staff</tspan></text>
	<text transform="matrix(1 -7.796478e-04 7.796478e-04 1 379.5143 123.0695)" class="st58"><tspan x="0" y="0" class="st4 st55 st56">I need to </tspan><tspan x="0" y="28.8" class="st4 st55 st56">communicate </tspan><tspan x="0" y="57.6" class="st4 st55 st56">with customers</tspan></text>
	<text transform="matrix(1 0 0 1 98.1406 117.7573)" class="st58"><tspan x="0" y="0" class="st4 st55 st56">I want to develop </tspan><tspan x="0" y="28.8" class="st4 st55 st56">my teachers</tspan></text>
</g>
</svg>
