<svg xmlns="http://www.w3.org/2000/svg" xmlns:xlink="http://www.w3.org/1999/xlink" viewBox="0 0 593.13 755.78"><defs><style>.cls-1,.cls-34,.cls-35,.cls-49,.cls-5,.cls-50,.cls-58,.cls-60{fill:none;}.cls-2{isolation:isolate;}.cls-3{opacity:0.5;fill:url(#linear-gradient);}.cls-4{fill:#fafafa;}.cls-5{stroke:#b3b3b3;stroke-width:2px;}.cls-34,.cls-35,.cls-5,.cls-50{stroke-linecap:round;stroke-linejoin:round;}.cls-6{fill:#b3b3b3;}.cls-7,.cls-9{fill:#e6e6e6;}.cls-8{fill:#511a66;}.cls-9{font-size:18px;font-family:Gilroy-ExtraBold, Gilroy;font-weight:800;}.cls-10{letter-spacing:0em;}.cls-11{letter-spacing:0em;}.cls-12{letter-spacing:-0.02em;}.cls-13{letter-spacing:-0.02em;}.cls-14{letter-spacing:-0.01em;}.cls-15{letter-spacing:0.03em;}.cls-16{letter-spacing:-0.02em;}.cls-17{letter-spacing:0em;}.cls-18{letter-spacing:-0.01em;}.cls-19{letter-spacing:-0.01em;}.cls-20{letter-spacing:-0.01em;}.cls-21{letter-spacing:-0.03em;}.cls-22{clip-path:url(#clip-path);}.cls-23{fill:#1e0401;}.cls-24{fill:#ffcad0;}.cls-25{fill:#fec9cf;}.cls-26{fill:#3d4359;}.cls-27{fill:#2a2e30;}.cls-28{fill:#ee84aa;}.cls-29{fill:#f7eee2;}.cls-30{fill:#d6b5a7;}.cls-31{fill:#fff7ee;}.cls-32{fill:#303347;}.cls-33{fill:#171d51;}.cls-34{stroke:#171d51;stroke-width:1.15px;}.cls-35{stroke:#ee84aa;stroke-width:0.86px;}.cls-36{fill:#eadace;}.cls-37{fill:#ef6060;}.cls-38{fill:#00a2a6;opacity:0.3;}.cls-38,.cls-40,.cls-46{mix-blend-mode:multiply;}.cls-39{fill:#b0c1d1;}.cls-40,.cls-41{fill:#525b66;}.cls-40{opacity:0.2;}.cls-42{fill:#292c3d;}.cls-43{fill:#3b164c;}.cls-44,.cls-48{fill:#fff;}.cls-45{fill:#4d505e;}.cls-46{fill:#abacb3;opacity:0.55;}.cls-47{fill:#edb2bb;}.cls-48{opacity:0.22;}.cls-49{stroke:#d86539;stroke-width:0.72px;}.cls-49,.cls-58,.cls-60{stroke-miterlimit:10;}.cls-50{stroke:#eab2ba;stroke-width:0.45px;}.cls-51{fill:#ceb5a1;}.cls-52{fill:#c6ab99;}.cls-53{fill:#ceb4a1;}.cls-54{fill:#bca291;}.cls-55{fill:#d3bbab;}.cls-56{fill:#f7c249;}.cls-57{fill:#ddc6ba;}.cls-58,.cls-60{stroke:#f7c249;}.cls-58{stroke-width:0.5px;}.cls-59{fill:#c4ab9b;}.cls-61{fill:#431459;}.cls-62{fill:#d31610;}.cls-63{fill:#837165;}.cls-64{fill:#132a35;}.cls-65{fill:#a99b95;}.cls-66{fill:#7f7f7f;}.cls-67{fill:#1a1a1a;}.cls-68{letter-spacing:-0.04em;}.cls-69{letter-spacing:-0.06em;}.cls-70{letter-spacing:-0.07em;}</style><linearGradient id="linear-gradient" x1="8.13" y1="321" x2="596.58" y2="321" gradientUnits="userSpaceOnUse"><stop offset="0" stop-color="#d31610"/><stop offset="1" stop-color="#511a66"/></linearGradient><clipPath id="clip-path" transform="translate(-3.45 -54)"><path class="cls-1" d="M589.44,298.48c19.65-55.57-1.18-140.16-63.14-158.06-17.78-5.13-32.17.15-49.31,3.07-39.54,6.74-82-31.72-117.51-52.4-51.7-30.09-82.74-33.25-128-35.55C206.05,54.25,147,44.73,115.46,95.2,78.56,154.3,45.27,151.32,21,196.52c-40,74.59,28,151.53,7.58,204.78-16.87,44-49.4,142.15,41.27,170.06,73.86,22.73,81.45-41.87,223.1-6s239.58,29.9,269.81-23.88c9.54-17,26.77-64.83,5.05-120.37h0C553.32,350.65,576,336.37,589.44,298.48Z"/></clipPath></defs><g class="cls-2"><g id="Layer_1" data-name="Layer 1"><path class="cls-3" d="M589.44,298.48c19.65-55.57-1.18-140.16-63.14-158.06-17.78-5.13-32.17.15-49.31,3.07-39.54,6.74-82-31.72-117.51-52.4-51.7-30.09-82.74-33.25-128-35.55C206.05,54.25,147,44.73,115.46,95.2,78.56,154.3,45.27,151.32,21,196.52c-40,74.59,28,151.53,7.58,204.78-16.87,44-49.4,142.15,41.27,170.06,73.86,22.73,81.45-41.87,223.1-6s239.58,29.9,269.81-23.88c9.54-17,26.77-64.83,5.05-120.37h0C553.32,350.65,576,336.37,589.44,298.48Z" transform="translate(-3.45 -54)"/><path class="cls-4" d="M160.94,203.26a2.91,2.91,0,1,1-2.9-2.9A2.9,2.9,0,0,1,160.94,203.26Z" transform="translate(-3.45 -54)"/><path class="cls-4" d="M175.41,203.26a2.91,2.91,0,1,1-2.9-2.9A2.9,2.9,0,0,1,175.41,203.26Z" transform="translate(-3.45 -54)"/><path class="cls-4" d="M189.88,203.26a2.91,2.91,0,1,1-2.9-2.9A2.9,2.9,0,0,1,189.88,203.26Z" transform="translate(-3.45 -54)"/><path class="cls-5" d="M78.89,245.27H60.81a3.14,3.14,0,0,0-3.15,3.14v7.86a3.15,3.15,0,0,0,3.15,3.15h7.07l5.8,5.79v-5.79h5.21A3.15,3.15,0,0,0,82,256.27v-7.86A3.14,3.14,0,0,0,78.89,245.27Z" transform="translate(-3.45 -54)"/><rect class="cls-5" x="394.66" y="354.98" width="6.29" height="6.29"/><rect class="cls-6" x="260.84" y="102.82" width="3.14" height="3.14"/><rect class="cls-4" x="541.83" y="215.29" width="4.67" height="4.67"/><rect class="cls-6" x="53.03" y="260.58" width="2.34" height="2.34"/><rect class="cls-6" x="80.85" y="168.97" width="3.18" height="3.18"/><rect class="cls-5" x="69.86" y="336.24" width="6.29" height="6.29" transform="translate(-138.13 7.21) rotate(-24.61)"/><circle class="cls-5" cx="522.55" cy="246.97" r="7.14"/><path class="cls-5" d="M224.54,159.2a4.08,4.08,0,1,1-4.08-4.07A4.08,4.08,0,0,1,224.54,159.2Z" transform="translate(-3.45 -54)"/><path class="cls-5" d="M520.59,237.53h18.08a3.15,3.15,0,0,1,3.15,3.15v7.86a3.15,3.15,0,0,1-3.15,3.14H531.6l-5.8,5.8v-5.8h-5.21a3.15,3.15,0,0,1-3.14-3.14v-7.86A3.15,3.15,0,0,1,520.59,237.53Z" transform="translate(-3.45 -54)"/><path class="cls-7" d="M189.88,400.73a1.45,1.45,0,1,1-1.45-1.45A1.45,1.45,0,0,1,189.88,400.73Z" transform="translate(-3.45 -54)"/><path class="cls-7" d="M200.44,400.73a1.45,1.45,0,1,1-1.45-1.45A1.45,1.45,0,0,1,200.44,400.73Z" transform="translate(-3.45 -54)"/><circle class="cls-7" cx="206.1" cy="346.73" r="1.45"/><circle class="cls-7" cx="216.66" cy="346.73" r="1.45"/><path class="cls-7" d="M232.13,400.73a1.45,1.45,0,1,1-1.45-1.45A1.45,1.45,0,0,1,232.13,400.73Z" transform="translate(-3.45 -54)"/><path class="cls-7" d="M189.88,411.29a1.45,1.45,0,1,1-1.45-1.45A1.45,1.45,0,0,1,189.88,411.29Z" transform="translate(-3.45 -54)"/><path class="cls-7" d="M200.44,411.29a1.45,1.45,0,1,1-1.45-1.45A1.45,1.45,0,0,1,200.44,411.29Z" transform="translate(-3.45 -54)"/><circle class="cls-7" cx="206.1" cy="357.29" r="1.45"/><circle class="cls-7" cx="216.66" cy="357.29" r="1.45"/><path class="cls-7" d="M232.13,411.29a1.45,1.45,0,1,1-1.45-1.45A1.45,1.45,0,0,1,232.13,411.29Z" transform="translate(-3.45 -54)"/><path class="cls-7" d="M189.88,421.85a1.45,1.45,0,1,1-1.45-1.45A1.45,1.45,0,0,1,189.88,421.85Z" transform="translate(-3.45 -54)"/><path class="cls-7" d="M200.44,421.85A1.45,1.45,0,1,1,199,420.4,1.45,1.45,0,0,1,200.44,421.85Z" transform="translate(-3.45 -54)"/><circle class="cls-7" cx="206.1" cy="367.85" r="1.45"/><circle class="cls-7" cx="216.66" cy="367.85" r="1.45"/><path class="cls-7" d="M232.13,421.85a1.45,1.45,0,1,1-1.45-1.45A1.45,1.45,0,0,1,232.13,421.85Z" transform="translate(-3.45 -54)"/><path class="cls-7" d="M189.88,432.41a1.45,1.45,0,1,1-1.45-1.45A1.45,1.45,0,0,1,189.88,432.41Z" transform="translate(-3.45 -54)"/><path class="cls-7" d="M200.44,432.41A1.45,1.45,0,1,1,199,431,1.45,1.45,0,0,1,200.44,432.41Z" transform="translate(-3.45 -54)"/><circle class="cls-7" cx="206.1" cy="378.41" r="1.45"/><circle class="cls-7" cx="216.66" cy="378.41" r="1.45"/><path class="cls-7" d="M232.13,432.41a1.45,1.45,0,1,1-1.45-1.45A1.45,1.45,0,0,1,232.13,432.41Z" transform="translate(-3.45 -54)"/><circle class="cls-7" cx="548.54" cy="279.12" r="1.45"/><path class="cls-7" d="M552,345.14a1.46,1.46,0,1,1,1.46-1.46A1.45,1.45,0,0,1,552,345.14Z" transform="translate(-3.45 -54)"/><circle class="cls-7" cx="548.54" cy="300.25" r="1.45"/><circle class="cls-7" cx="548.54" cy="310.81" r="1.45"/><circle class="cls-7" cx="548.54" cy="321.37" r="1.45"/><path class="cls-7" d="M541.43,334.57a1.45,1.45,0,1,1,1.45-1.45A1.45,1.45,0,0,1,541.43,334.57Z" transform="translate(-3.45 -54)"/><path class="cls-7" d="M541.43,345.14a1.46,1.46,0,1,1,1.45-1.46A1.45,1.45,0,0,1,541.43,345.14Z" transform="translate(-3.45 -54)"/><path class="cls-7" d="M541.43,355.7a1.45,1.45,0,1,1,1.45-1.45A1.45,1.45,0,0,1,541.43,355.7Z" transform="translate(-3.45 -54)"/><path class="cls-7" d="M541.43,366.26a1.45,1.45,0,1,1,1.45-1.45A1.45,1.45,0,0,1,541.43,366.26Z" transform="translate(-3.45 -54)"/><path class="cls-7" d="M541.43,376.82a1.45,1.45,0,1,1,1.45-1.45A1.45,1.45,0,0,1,541.43,376.82Z" transform="translate(-3.45 -54)"/><circle class="cls-7" cx="527.42" cy="279.12" r="1.45"/><path class="cls-7" d="M530.87,345.14a1.46,1.46,0,1,1,1.45-1.46A1.45,1.45,0,0,1,530.87,345.14Z" transform="translate(-3.45 -54)"/><circle class="cls-7" cx="527.42" cy="300.25" r="1.45"/><circle class="cls-7" cx="527.42" cy="310.81" r="1.45"/><circle class="cls-7" cx="527.42" cy="321.37" r="1.45"/><circle class="cls-7" cx="516.86" cy="279.12" r="1.45"/><path class="cls-7" d="M520.31,345.14a1.46,1.46,0,1,1,1.45-1.46A1.45,1.45,0,0,1,520.31,345.14Z" transform="translate(-3.45 -54)"/><circle class="cls-7" cx="516.86" cy="300.25" r="1.45"/><circle class="cls-7" cx="516.86" cy="310.81" r="1.45"/><circle class="cls-7" cx="516.86" cy="321.37" r="1.45"/><path class="cls-8" d="M168.57,221.78l-151.41.45A13.73,13.73,0,0,0,3.45,235.8l.19,28a13.52,13.52,0,0,0,13.52,13.52h94.53L121,299l4-21.72,43.57-.46A15,15,0,0,0,183,264.23v-28C182.09,227.83,176,221.78,168.57,221.78Z" transform="translate(-3.45 -54)"/><text class="cls-9" transform="translate(23.52 191.39)">“I n<tspan class="cls-10" x="28.85" y="0">ee</tspan><tspan class="cls-11" x="49.55" y="0">d </tspan><tspan class="cls-12" x="65.27" y="0">t</tspan><tspan x="71.89" y="0">o t</tspan><tspan class="cls-13" x="94" y="0">r</tspan><tspan x="100.38" y="0">ain</tspan><tspan x="0" y="21.6"> </tspan><tspan class="cls-14" x="4.5" y="21.6">m</tspan><tspan x="19.67" y="21.6">y </tspan><tspan class="cls-12" x="33.71" y="21.6">st</tspan><tspan x="48.4" y="21.6">a</tspan><tspan class="cls-15" x="59.62" y="21.6">ff</tspan><tspan x="71.14" y="21.6">”</tspan></text><path class="cls-8" d="M347.72,159.58H565a11,11,0,0,1,11,11v42.3a11,11,0,0,1-11,11H471.2L468,263l-17.07-39.13H347.72a11,11,0,0,1-11-11v-42.3A11,11,0,0,1,347.72,159.58Z" transform="translate(-3.45 -54)"/><text class="cls-9" transform="translate(351.08 132)">“I n<tspan class="cls-10" x="28.85" y="0">ee</tspan><tspan x="49.55" y="0">d </tspan><tspan class="cls-16" x="65.27" y="0">t</tspan><tspan class="cls-17" x="71.89" y="0">o </tspan><tspan class="cls-18" x="87.01" y="0">c</tspan><tspan x="96.3" y="0">ommuni</tspan><tspan class="cls-13" x="163.29" y="0">c</tspan><tspan x="172.58" y="0">a</tspan><tspan class="cls-16" x="183.8" y="0">t</tspan><tspan x="190.42" y="0">e </tspan><tspan x="0" y="21.6">wi</tspan><tspan class="cls-19" x="18.54" y="21.6">t</tspan><tspan x="25.34" y="21.6">h c</tspan><tspan class="cls-20" x="49.9" y="21.6">u</tspan><tspan class="cls-16" x="60.3" y="21.6">st</tspan><tspan x="74.99" y="21.6">ome</tspan><tspan class="cls-18" x="111.4" y="21.6">r</tspan><tspan class="cls-21" x="117.79" y="21.6">s</tspan><tspan class="cls-17" x="125.67" y="21.6">”</tspan></text><path class="cls-8" d="M253.09,95.32H90.9a13,13,0,0,0-13,13.05v28.06a13,13,0,0,0,13,13H219L234,175l-4-25.52h23.09a13.05,13.05,0,0,0,13-13V108.37A13.05,13.05,0,0,0,253.09,95.32Z" transform="translate(-3.45 -54)"/><text class="cls-9" transform="translate(94.69 61.76)">“I <tspan class="cls-12" x="18.36" y="0">w</tspan><tspan x="31.86" y="0">ant </tspan><tspan class="cls-12" x="65.05" y="0">t</tspan><tspan class="cls-11" x="71.68" y="0">o d</tspan><tspan class="cls-12" x="98.01" y="0">ev</tspan><tspan x="117.45" y="0">elop </tspan><tspan class="cls-14" x="0" y="21.6">m</tspan><tspan x="15.17" y="21.6">y </tspan><tspan class="cls-12" x="29.21" y="21.6">t</tspan><tspan class="cls-10" x="35.84" y="21.6">e</tspan><tspan x="46.19" y="21.6">a</tspan><tspan class="cls-10" x="57.4" y="21.6">c</tspan><tspan x="66.87" y="21.6">he</tspan><tspan class="cls-18" x="87.8" y="21.6">r</tspan><tspan class="cls-21" x="94.19" y="21.6">s</tspan><tspan x="102.08" y="21.6">”</tspan></text><g class="cls-22"><path class="cls-23" d="M492.1,670.65s3.83-.14,3.65,7.16,0,18.07,0,18.07H492.1V683.26l-11,12.62h-37.6s2-6.94,19.71-6.76Z" transform="translate(-3.45 -54)"/><path class="cls-24" d="M478.43,645.09l1.22,25.56-18,18.63h8.27a15.5,15.5,0,0,0,10.46-4c3.87-3.52,9.07-8.93,11.7-14.59L491,641.82s3.22-37.1-3.89-70.83l-14,1.85Z" transform="translate(-3.45 -54)"/><path class="cls-23" d="M521.63,670.65s3.84-.14,3.66,7.16,0,18.07,0,18.07h-3.66V683.26l-10.94,12.62h-37.6s2-6.94,19.71-6.76Z" transform="translate(-3.45 -54)"/><path class="cls-25" d="M519.78,639.3l1.85,31.35c-2.62,5.66-7.82,11.07-11.69,14.59a15.52,15.52,0,0,1-10.46,4H491.2l18-18.63-2.77-31.54-8.13-67.19h16.26Z" transform="translate(-3.45 -54)"/><path class="cls-26" d="M509.64,455.25l-55.53,12.53s-4.33,36.91,2.34,61.71c4.38,16.29,9.58,55.92,9.58,55.92l54.49-1.81s2.53-30.78,4.44-80.72c.95-24.64-8.25-38.41-8.25-38.41" transform="translate(-3.45 -54)"/><path class="cls-27" d="M456,301.63S461.11,289,479.54,288c13.23-.66,25.28,7.09,26.21,22.7,1,16.51-3.85,15.22,9.69,20.09s-5,23.42,8.37,25.71,14.14,22-2.89,27.52-72,2.57-74.39-8.68,13.88-26.2,9.59-35.32S447,308.78,456,301.63Z" transform="translate(-3.45 -54)"/><path class="cls-24" d="M439.81,410.1l-5.54,15.58s-18.56-35.84-19.42-39,.11-18.35,0-20.05a3.41,3.41,0,0,0-3.62,3.3,19,19,0,0,0,0,5s-6.51-3.62-9.39-5.11-13.55-5.23-16.11-5.55c0,0-2.45,1,1.39,3.84s11.95,17,14.93,18.13,19.63,53.12,25.28,60.91,16.86,6.61,21.66-5.44,8.42-29.23,8.42-29.23Z" transform="translate(-3.45 -54)"/><path class="cls-26" d="M423.87,443.35a48.86,48.86,0,0,0,3.46,3.77c3,3.58,15.93,12.22,22.95-8.9,4.26-12.78,25-83.85,4.42-75.23-8.37,3.5-12.47,24.9-19.37,57.46,0,0-.49,9.26-7.87-8-4.18-9.78-10.85-25.12-10.85-25.12l-13.49,5.26Z" transform="translate(-3.45 -54)"/><path class="cls-24" d="M469.39,272.21h18.71a0,0,0,0,1,0,0v33.43a4.59,4.59,0,0,1-4.59,4.59H474a4.59,4.59,0,0,1-4.59-4.59V272.21a0,0,0,0,1,0,0Z"/><path class="cls-28" d="M472.85,352.06s7.57,1.64,18.71-4.42V336.08l-18.73,12.35S472.85,350.77,472.85,352.06Z" transform="translate(-3.45 -54)"/><path class="cls-24" d="M459.37,307.67s-3.44,43.54,13.25,43.54c18.33,0,21.11-16.82,21.11-16.82s6.13-3.46,4.75-7.37c-1-2.77-4-1.14-4-1.14S502.57,300.06,459.37,307.67Z" transform="translate(-3.45 -54)"/><path class="cls-27" d="M458.56,304.75s3.07,17.66,17.63,14.9,11.1,8,17.93,6.23c0,0,16.78-10.84,4.12-21.75S466.32,296,458.56,304.75Z" transform="translate(-3.45 -54)"/><path class="cls-24" d="M468.21,355.88s3.46,10.64,10.05,12.62c0,0,10.41-1,18.7-15,0,0-9.38-2.59-15.76-1.88C481.2,351.66,473.32,353.8,468.21,355.88Z" transform="translate(-3.45 -54)"/><path class="cls-29" d="M462.66,432.35c-9.77,15.32-7.81,27.72-9,40.95a5,5,0,0,0,3.46,5.27c22.1,7.15,50.16.83,59.59-14.1-4.2-19.29-.67-6.74-7.88-19.52-.05-.09-16.14-11.91-16.2-12s-.21-.25-.29-.33l-.2-.24c-5.08-9.22,12.31-19.34,18.57-37.23a122.24,122.24,0,0,0,6.88-32.6c-1.36-.61-4.07-1.95-8.33-4.43-3.82-2.22-9-3.68-13.17-4.82-5.85-1.61-11.67,5.4-17.68,5.51-4.39.07-5.94-4.29-9.17-3.32-5.61,1.68-12.62,5.14-16.76,9.8l-1.62,16.26s-5.28,12.18-4.5,17.73S470.11,422.55,462.66,432.35Z" transform="translate(-3.45 -54)"/><path class="cls-30" d="M475.72,365.94l-3.15,6-6.21-11.43c.95-.25,1.88-.48,2.81-.68l9.71-1.55,14.8,1.61q2.77.64,5.64,1.57l-15.74,11.71-2.78-6.93-3.54,3.31Z" transform="translate(-3.45 -54)"/><polygon class="cls-31" points="475.43 304.28 480.47 316.26 495.63 306.88 491.44 296.31 475.43 304.28"/><polygon class="cls-31" points="475.43 304.21 469.26 315.25 463.41 305.85 468.03 297.4 475.43 304.21"/><path class="cls-30" d="M477,368.55c-.59,1.26-7.89,30.37-8.6,36.28-.74,6.17,5,22.79,5,27.09,0,1.46-1.21,6-2.74,11.74-2.82,10.59-1,21.9-3,37.22.41.06.83.09,1.24.15,2-15.24.09-25.61,2.92-37,1.56-6.31,2.78-10.43,2.79-12.06,0-4.72-5.7-21.33-5-26.94s8.46-36,8.61-36.3Z" transform="translate(-3.45 -54)"/><path class="cls-26" d="M509.26,358.14l10.35,5.5s-6.21,21.29-7.14,43.61c-1,24.61-1.07,19.66-1,24.6.1,9.51-.08,10.75,4.59,27.33,0,0-7.4,13.32-28.8,18.8,0,0-15.59,2.36-17.77-4.19,0,0-4.33,3.91-9.1,4.31s-6.23-6.52-6.23-6.52-.31-5.67.77-19.68c1-13.29,3.46-15.72,2.32-22.58-1.47-8.92-10.18-19.32-11.87-27.6-1.3-6.33,3.08-21.6,3.08-21.6l.18-2.94c0-9.76,4.71-13.25,6.52-14.52l2.27-1.58A231.25,231.25,0,0,0,471.49,393Z" transform="translate(-3.45 -54)"/><polygon class="cls-29" points="452.82 329.98 451.76 337.21 440.52 336.2 441.78 328.96 452.82 329.98"/><path class="cls-32" d="M469.23,474.81a20.38,20.38,0,0,1-8.86,3.29,6.91,6.91,0,0,1-6.7-3.81,223,223,0,0,1,1.88-28.42c1.08-7.3,2.44-10.67,1.52-17.41s-10.79-20-11.71-26.74c0,0,12.08,11.5,37.24,9.38,24.8-2.09,30.33-10.39,30.33-10.39-.24,2.59-.39,3.84-.46,6.54-.38,14.14-1.06,16.58-1,22,0,6.45.25,13.58,4.59,30,0,0-3.55,8.49-19.54,15.64C494.94,476.42,473.57,483.35,469.23,474.81Z" transform="translate(-3.45 -54)"/><circle class="cls-33" cx="473.51" cy="276.44" r="1.36"/><circle class="cls-33" cx="461.23" cy="276.44" r="1.36"/><path class="cls-34" d="M481.9,326.49a5.51,5.51,0,0,0-6.3-2.11" transform="translate(-3.45 -54)"/><path class="cls-34" d="M468.21,324.57a4.33,4.33,0,0,0-6.14.27" transform="translate(-3.45 -54)"/><path class="cls-35" d="M470.93,327.94a19.79,19.79,0,0,1-2.72,6.08c-1.63,2.09,2.45,3.37,2.45,3.37" transform="translate(-3.45 -54)"/><path class="cls-35" d="M479.07,340.06a6.42,6.42,0,0,1-6.56,2.48" transform="translate(-3.45 -54)"/><path class="cls-35" d="M493.76,330.51s.05-3.43,3.2-2.28" transform="translate(-3.45 -54)"/><path class="cls-26" d="M523.37,436.51c-1.44-5.58-25.63-68.19-6.23-73.12,13.37-3.4,32.44,75.9,25.57,91.67C536.07,457.35,529.87,449.64,523.37,436.51Z" transform="translate(-3.45 -54)"/><g id="folder"><polygon class="cls-30" points="467.37 428.02 524.31 423.83 519.01 351.94 471.78 355.42 463.84 355.24 467.37 428.02"/><rect class="cls-36" x="468.12" y="408.52" width="57.09" height="71.5" transform="translate(1021.18 796.85) rotate(175.79)"/><rect class="cls-37" x="466.98" y="409.4" width="59.95" height="73.36" transform="translate(1021.89 800.43) rotate(175.79)"/><path class="cls-38" d="M529.54,480.45l-5.39-73.16-59.78,4.41A232.22,232.22,0,0,1,529.54,480.45Z" transform="translate(-3.45 -54)"/><rect class="cls-39" x="483.74" y="407.29" width="21.21" height="5.83" transform="translate(1014.04 728.99) rotate(175.79)"/><path class="cls-40" d="M484,413.89l21.15-1.56-.43-5.81s-1.47,4.77-10.07,5.2-11.07-3.64-11.07-3.64Z" transform="translate(-3.45 -54)"/><path class="cls-41" d="M501.87,408.4a.65.65,0,0,0,.49.76.64.64,0,1,0-.49-.76Z" transform="translate(-3.45 -54)"/><path class="cls-41" d="M485.42,409.67a.65.65,0,0,0,.49.76.64.64,0,1,0-.49-.76Z" transform="translate(-3.45 -54)"/><path class="cls-39" d="M485.94,410.08h.11a.38.38,0,0,0,.34-.41l-.24-3.17,15.77-1.17.25,3.18a.38.38,0,0,0,.41.35.37.37,0,0,0,.34-.4l-.27-3.56a.38.38,0,0,0-.41-.35l-16.52,1.22a.36.36,0,0,0-.26.13.34.34,0,0,0-.09.27l.27,3.56A.37.37,0,0,0,485.94,410.08Z" transform="translate(-3.45 -54)"/></g><path class="cls-24" d="M542.23,448.27c-.64-6.41-7.87-7.15-18.5-6.74,0,0-22.86,4.31-30.63,2.34-2.23-3.44-4.23-4.52-6.2-6.66-2.86-3.09-4.22-7.08-5.08-6.41-4.79,3.72,7.53,10.69,1.75,12.64-4.93,1.66-16-2.75-16.71-.38-1.13,3.57,7.34,4.15,7.14,4.58s-7.47-1.23-8.07,1c-1,3.85,8.33,2.16,8.34,2.81s-7.41-.84-7.09,2.48c.27,2.72,6.72.94,6.74,1.38,0,.9-5,0-4.1,2.62.45,1.34,2.32,1.34,5.46,1.12a30.66,30.66,0,0,0,17-4.76,4,4,0,0,1,1.43.17c4.68,1.59,25.18,6.64,40.3,2.95C541.23,455.66,542.6,452,542.23,448.27Z" transform="translate(-3.45 -54)"/><path class="cls-26" d="M542.71,455.06c-5.75,9.39-49.38.4-49.38.4l.34-11.47s30.28-6.89,32-8.23C539.77,434.49,546.8,441.59,542.71,455.06Z" transform="translate(-3.45 -54)"/></g><g class="cls-22"><path class="cls-42" d="M139.62,301.79c6.29-1.27,12.47,2.78,18.88,2.84,2.52,0,5-.58,7.53-.67s5.24.45,7,2.34c2.05,2.18,2.28,5.58,1.93,8.6a29,29,0,0,1-10.7,19.28c-2.5,1.95-5.53,3.5-8.63,3.12-2.48-.3-4.67-1.77-6.75-3.2-6.59-4.54-13.68-9.4-17.84-16.61C127.39,311.15,133.34,303.07,139.62,301.79Z" transform="translate(-3.45 -54)"/><path class="cls-42" d="M136.57,354.62s-24.77-22.65-14-39.29,22,.75,22,.75S149.33,344.63,136.57,354.62Z" transform="translate(-3.45 -54)"/><path class="cls-25" d="M157.9,338.25l-1.15,22.08-.33,6.3a10.09,10.09,0,0,1-10.06,9.55,10.09,10.09,0,0,1-10.08-10.32l.29-11.24.48-18.68Z" transform="translate(-3.45 -54)"/><path class="cls-28" d="M157.9,342.66l-1.15,20.79c-9.78.4-16.91-3.58-20.18-8.87l.48-14.23Z" transform="translate(-3.45 -54)"/><path class="cls-24" d="M165.66,325.56a75.67,75.67,0,0,1-.29,15.16c-1.17,9.2-.75,20-14.32,20.74-14.48.77-19.28-15.44-19.28-15.44s-7.69-1.43-8.21-6.63,4.85-5.49,6.6-4c0,0,2-19.38,19.9-19.38C165.87,316,165.66,325.56,165.66,325.56Z" transform="translate(-3.45 -54)"/><path class="cls-43" d="M148.69,340.69a1.44,1.44,0,1,1-1.43-1.44A1.43,1.43,0,0,1,148.69,340.69Z" transform="translate(-3.45 -54)"/><path class="cls-43" d="M161.66,340.69a1.44,1.44,0,1,1-1.43-1.44A1.43,1.43,0,0,1,161.66,340.69Z" transform="translate(-3.45 -54)"/><path class="cls-34" d="M142,335.69a5.81,5.81,0,0,1,6.65-2.23" transform="translate(-3.45 -54)"/><path class="cls-34" d="M156.5,333.4a4.57,4.57,0,0,1,6.48.29" transform="translate(-3.45 -54)"/><path class="cls-35" d="M153.63,337s1.55,4,2.87,6.42-2.58,3.56-2.58,3.56" transform="translate(-3.45 -54)"/><path class="cls-35" d="M148.43,351.37a6.79,6.79,0,0,0,7.31,1.2" transform="translate(-3.45 -54)"/><path class="cls-35" d="M131.61,342.31s-.05-4.46-3.37-3.24" transform="translate(-3.45 -54)"/><path class="cls-42" d="M131.15,336.82s11.22-4.95,8.38-17.67c0,0-7.45-11.45-13.8-7.26S131.15,336.82,131.15,336.82Z" transform="translate(-3.45 -54)"/><path class="cls-42" d="M148.44,320.67c3.27.76,6.07,3.16,9.07,4.87s6.72,2.71,9.56.64c2.59-1.88,3.65-6,2.93-9.45a13.25,13.25,0,0,0-5.58-8.12,22.83,22.83,0,0,0-8.62-3.23,28.66,28.66,0,0,0-11.84-.26c-3.47.79-13.26,5.58-11.25,11.65.76,2.29,3.94,3,5.71,3.36C141.73,320.88,145.13,319.91,148.44,320.67Z" transform="translate(-3.45 -54)"/><polygon class="cls-25" points="169.34 566.86 172.33 595.66 160.07 595.66 155.92 566.89 169.34 566.86"/><path class="cls-8" d="M162.19,643.64s-5.33,8.6-1.33,10.13,30.3,1.67,36.79.69-14.48-9.87-19.28-11.26S172,649.1,162.19,643.64Z" transform="translate(-3.45 -54)"/><polygon class="cls-25" points="117.33 564.3 118.74 594.81 133.53 595.84 130.97 566.86 117.33 564.3"/><path class="cls-8" d="M136.64,642.79s5.33,8.6,1.33,10.13-30.3,1.67-36.79.69,14.48-9.87,19.28-11.26S126.81,648.25,136.64,642.79Z" transform="translate(-3.45 -54)"/><path class="cls-24" d="M231.6,386.17s3.1-5.19,5.55-10c.88-1.72-3-10.47-3-11.94,0-2.55,1.69-4.3,2.56-2.55,3.41,6.82,4,6.65,4.31,5.86,3.21-7.14,9.15-18.86,11.32-17.32,2.64,1.88-4.77,16.9-4.77,16.9s6.54-18.81,10.07-17.76-6,18.56-6,18.56,7.88-16.51,9.94-14.92.44,5.27-6.34,17.49c0,0,5.78-10.49,8-8s-4.86,12.08-7.42,14.36c-.55.48-4.55,5.32-8.81,7-5,2-6,8.21-6.82,9.38C240.14,393.23,231.73,390.5,231.6,386.17Z" transform="translate(-3.45 -54)"/><path class="cls-24" d="M63.27,377.91s-3.37-6.68-3.37-8.63,1-4,1.05-6.71,3.65-8.82,2.88-10.57-2.95-1.33-5,2.87-1.4,6.79-3.08,5.6-5.81-6.37-7.14-8.54-5.53-6.44-6.65-5.74-1.44,1.82,6,12.32c0,0-8.43-12.64-10.91-10.36-1.73,1.59,6.5,10.84,7.69,12.31,0,0-7.62-9.56-9.89-7.31s8.35,10.09,8.35,10.09-7.83-6.2-8.88-4.38,3.5,5.85,8,8.37,5.63,3.19,6.77,4.87A87.74,87.74,0,0,1,53,380.5S60.11,382.25,63.27,377.91Z" transform="translate(-3.45 -54)"/><path class="cls-44" d="M161.15,363.06l-14.75,8-11.46-6.88a104.57,104.57,0,0,0-4.16,37.42c1.68,19.89,4.9,34.18,18.35,15.69S167.57,369.51,161.15,363.06Z" transform="translate(-3.45 -54)"/><path class="cls-44" d="M161.15,363.06l-14.75,8-11.46-6.88a104.57,104.57,0,0,0-4.16,37.42c1.68,19.89,4.9,34.18,18.35,15.69S167.57,369.51,161.15,363.06Z" transform="translate(-3.45 -54)"/><path class="cls-42" d="M143.63,380.15s-7.92,42.88-7.25,43.7c.43-.55,5.26,11.63,8,0,2.17-9.05,2.43-42.71,2.78-43.12,0,0,4.13-4.45,6.55-6.64q2.38-2.16,4.6-4.44c.39-.7.76-1.41,1.09-2.16l-.65,1.53a35.88,35.88,0,0,1,3.12-5,6.84,6.84,0,0,0-.76-1l-14.75,8-11.46-6.88s-.34,1-.83,2.84c1.2,1.67,2.29,3.37,3.23,5C138.55,374.08,143.63,380.15,143.63,380.15Z" transform="translate(-3.45 -54)"/><path class="cls-42" d="M113.39,442.87l45.25-.85s6.88,11.28,8.42,43.84c1.05,22.29,2,28.46,4.18,57.93,1.51,20,8.6,96.67,8.6,96.67H155.79s-10.18-87.49-10.7-92.25c-.18-1.69-6.13-48-6.13-48s1,41.9,1,46.78,1,91,1,91H115.65s-2.85-73.19-3.09-89.94C112.17,520.93,109.86,451.63,113.39,442.87Z" transform="translate(-3.45 -54)"/><path class="cls-45" d="M130.73,365c-4,.83-10.16,2.14-14.62,3.33a4.23,4.23,0,0,0-3.13,4.22c.3,8.92.68,33.56-3.87,42a4.13,4.13,0,0,0-.5,1.85L106,490.44a4.22,4.22,0,0,0,5.09,4.29c9.79-2.09,29.89-10.35,30.73-43.14.92-35.6,1-43.33,1-45a4.47,4.47,0,0,0-.07-.82l-7.09-37.45A4.23,4.23,0,0,0,130.73,365Z" transform="translate(-3.45 -54)"/><path class="cls-42" d="M139.87,411.22a1.35,1.35,0,0,1-1.37,1.31,1.33,1.33,0,0,1-1.31-1.36,1.34,1.34,0,0,1,1.36-1.32A1.36,1.36,0,0,1,139.87,411.22Z" transform="translate(-3.45 -54)"/><path class="cls-42" d="M139,424.37a1.33,1.33,0,0,1-1.36,1.31,1.34,1.34,0,0,1-1.32-1.36A1.36,1.36,0,0,1,137.7,423,1.34,1.34,0,0,1,139,424.37Z" transform="translate(-3.45 -54)"/><path class="cls-42" d="M138.16,437.52a1.34,1.34,0,1,1-2.68,0,1.33,1.33,0,0,1,1.36-1.31A1.34,1.34,0,0,1,138.16,437.52Z" transform="translate(-3.45 -54)"/><path class="cls-42" d="M137.3,450.67a1.34,1.34,0,0,1-1.36,1.32,1.34,1.34,0,1,1,.05-2.68A1.33,1.33,0,0,1,137.3,450.67Z" transform="translate(-3.45 -54)"/><path class="cls-45" d="M182.88,373.23l-21.73-10.17L142.89,406.2,139,456.6s-4.84,30.14,10.76,36.38c12.79,5.11,14.54,5.16,21.06,3.68a7.92,7.92,0,0,0,6.19-8l-2.82-74.48S173.92,384.38,182.88,373.23Z" transform="translate(-3.45 -54)"/><path class="cls-45" d="M243.67,391.22l-13.17-9.53S206.13,420.17,204.73,419s-13-41.64-21.85-45.77c0,0-4.46,3.19-7,12.52-1.8,6.61-2.06,17.26-1.68,27.75,0,0,23,34,31.09,32.9S243.67,391.22,243.67,391.22Z" transform="translate(-3.45 -54)"/><path class="cls-45" d="M65.64,373.23l-14.91,5.94s20.4,73.73,32.17,67.26S110.29,417,110.29,417a54.57,54.57,0,0,0,6-18.35c1.51-9.85.58-23.35-1.79-29.36,0,0-10.36,6.31-19,23.65s-11.33,22.3-12.11,21.22S65.64,373.23,65.64,373.23Z" transform="translate(-3.45 -54)"/><path class="cls-46" d="M134.22,366.59c-.11.38,3.87,14.22,3.87,14.22l8.31-6.23,7.07,6.62L161,365.38l-1.23-1.55-8.91,4.82-4.41,4-9.74-7.42-.57-.35Z" transform="translate(-3.45 -54)"/><polygon class="cls-44" points="142.95 315.93 132.69 308.11 130.22 310.41 134.19 324.45 142.95 317.89 150.84 325.27 158.53 309.26 153.41 307.48 142.95 315.93"/></g><g class="cls-22"><path class="cls-27" d="M224.87,200.93s-4.29,9.29-2.08,22.31c2.25,13.33-12.43,12-10.67,24.95,0,0,41.62,12.37,80.08-12.7,0,0,2.63-11.43-5.4-14.17-11.25-3.83-14.1-15.47-14.1-15.47Z" transform="translate(-3.45 -54)"/><ellipse class="cls-27" cx="247.97" cy="209.22" rx="24.96" ry="23.18" transform="translate(-29.4 -18.65) rotate(-7.75)"/><polygon class="cls-24" points="242.18 174.22 242.69 212.24 261.03 209.81 255.36 176.42 242.18 174.22"/><path class="cls-47" d="M261.18,242.84l-2-10.06-13.41,5.85a20,20,0,0,0,7.4,3.34A29.12,29.12,0,0,0,261.18,242.84Z" transform="translate(-3.45 -54)"/><path class="cls-47" d="M265.37,225.67a18.67,18.67,0,0,1,1.07-7c1.12-3.12,3.07-6.22,6.78-5,6.31,2,1.75,12.46-4.23,14.07-1.76.47-3.57-.55-3.62-2Z" transform="translate(-3.45 -54)"/><path class="cls-24" d="M241.65,192a27.92,27.92,0,0,1,12.81-2.26c5.92.43,13.79,3.05,16.15,13.44,3.92,17.33,3.05,28.83-4.53,34.75-5.31,4.15-11.24,4.58-19.5,1.16-3.07-1.27-7.64-6.81-8.87-10.06l-3.55-9.05S222.38,200.16,241.65,192Z" transform="translate(-3.45 -54)"/><path class="cls-48" d="M246.81,207.28l10.4,10.09s-1.73,5.32-5.9,5.46L240.87,213S242.36,207.71,246.81,207.28Z" transform="translate(-3.45 -54)"/><path class="cls-48" d="M265.79,204.08l9.09,10.29s-1.37,5.26-4.91,5.31l-9.11-10S262,204.41,265.79,204.08Z" transform="translate(-3.45 -54)"/><path class="cls-49" d="M257.3,213.75a8.41,8.41,0,1,1-9.68-6.9A8.4,8.4,0,0,1,257.3,213.75Z" transform="translate(-3.45 -54)"/><path class="cls-49" d="M274.89,210.76c.75,4.58-1.78,8.83-5.66,9.49s-7.64-2.52-8.4-7.1,1.78-8.83,5.66-9.49S274.13,206.18,274.89,210.76Z" transform="translate(-3.45 -54)"/><path class="cls-49" d="M257.3,213.75a4,4,0,0,1,3.53-.6" transform="translate(-3.45 -54)"/><line class="cls-49" x1="231.9" y1="167.65" x2="237.38" y2="163.23"/><path class="cls-27" d="M237.88,223.65c0-1.61,4.56-14.51-2.19-30,0,0-6.16-.74-6.92,10.52C227.55,222.21,237.88,223.65,237.88,223.65Z" transform="translate(-3.45 -54)"/><path class="cls-24" d="M241.16,228.92a19.61,19.61,0,0,0-3.77-6.42c-2.32-2.61-5.43-4.88-8.6-2.28-5.38,4.43,3.16,12.86,9.63,12.09,1.9-.22,3.27-1.92,2.74-3.39Z" transform="translate(-3.45 -54)"/><path class="cls-50" d="M231,224.73c4.36-2.18,7.5,2.62,7.5,2.62" transform="translate(-3.45 -54)"/><path class="cls-27" d="M233.86,194.94s8.46,8.22,38.88,3.32c0,0-6.08-11.55-21.82-12.15S233.86,194.94,233.86,194.94Z" transform="translate(-3.45 -54)"/><circle class="cls-33" cx="250.83" cy="162.91" r="1.36"/><circle class="cls-33" cx="263.12" cy="162.91" r="1.36"/><path class="cls-34" d="M247.05,205a5.53,5.53,0,0,1,6.31-2.13" transform="translate(-3.45 -54)"/><path class="cls-34" d="M260.76,203.06a4.33,4.33,0,0,1,6.14.27" transform="translate(-3.45 -54)"/><path class="cls-35" d="M260.32,214.41A19.9,19.9,0,0,0,263,220.5c1.62,2.09-2.45,3.37-2.45,3.37" transform="translate(-3.45 -54)"/><path class="cls-35" d="M252.17,226.54a6.42,6.42,0,0,0,6.56,2.48" transform="translate(-3.45 -54)"/><path class="cls-24" d="M246.27,263.89s34.91,11.68,33.22-9.69l-16.44-12.63-11,6.23-5.76,4.8-5.76,9.63Z" transform="translate(-3.45 -54)"/><path class="cls-23" d="M260.83,555.73s-4-.15-3.81,7.46S257,582,257,582h3.81V568.88L272.24,582h39.19s-2.09-7.23-20.55-7Z" transform="translate(-3.45 -54)"/><path class="cls-24" d="M276.08,540.12l-2.28,15.61,18.74,19.42h-8.62a16.14,16.14,0,0,1-10.9-4.21c-4-3.67-9.46-9.31-12.19-15.21V546s1.22-67.73,1.24-93.12h25.46Z" transform="translate(-3.45 -54)"/><path class="cls-23" d="M201.6,555.73s4-.15,3.8,7.46,0,18.83,0,18.83h-3.8V568.88L190.18,582H151s2.09-7.23,20.54-7Z" transform="translate(-3.45 -54)"/><path class="cls-25" d="M211.39,527.34l-9.79,28.39c-2.74,5.9-8.16,11.54-12.19,15.21a16.17,16.17,0,0,1-10.9,4.21h-8.63l18.75-19.42,7.51-26.67,19.38-85.69,27.66,3.85Z" transform="translate(-3.45 -54)"/><path class="cls-51" d="M241.92,331.2l45.67-.27s5,54.07,5,77.67c0,17.58-2.83,58.52-2.83,58.52L206.53,465s4.44-32.16,18-82.45c12.13-45,17.38-51.38,17.38-51.38" transform="translate(-3.45 -54)"/><path class="cls-52" d="M271.58,268.71s10.73,21.68,38.66,41.67l13.43-17.53-46.34-50.21Z" transform="translate(-3.45 -54)"/><path class="cls-24" d="M351,256.7l-9.52-4.9-14.1,20.46c3.34,2.22,7.75,4.67,11.11,6.87Z" transform="translate(-3.45 -54)"/><path class="cls-24" d="M339.89,250.67l-.62-2.22a19.67,19.67,0,0,1-.35-9.12L340,234a2.09,2.09,0,0,1,2.79-1.54h0a2.65,2.65,0,0,1,1.72,2.44l.12,5.77,8.6-15.54a1.61,1.61,0,0,1,2.36-.59l.53.37a1.59,1.59,0,0,1,.57,2l-6,12,8.8-12.78a1.61,1.61,0,0,1,2.38-.44l.38.29a1.63,1.63,0,0,1,.39,2.11l-7.14,11.74,7.38-7.72a1.61,1.61,0,0,1,2.51.14l.12.16a1.6,1.6,0,0,1,0,1.92l-7.09,8.57,4.66-3.57a1.62,1.62,0,0,1,2.68.59h0a1.62,1.62,0,0,1-.27,1.57l-17.2,19.46-4.7-4.27A12.6,12.6,0,0,1,339.89,250.67Z" transform="translate(-3.45 -54)"/><path class="cls-52" d="M305.19,296.36l31.06-40.68L348.62,266l-21.33,39c-3.62,6.27-9,9.45-15,6.63h0C306.92,309.11,302.7,301.76,305.19,296.36Z" transform="translate(-3.45 -54)"/><path class="cls-53" d="M279.14,329.48c-.84.21-1.09-6.53-1.05-7.4.64-15.29,1.24-30.08-3.17-41.2-2.89-7.27-5.4-14.21-7.4-20.08-3-8.69-4.84-15.13-5.52-17.5a1.27,1.27,0,0,1,.61-1.48h0a6,6,0,0,1,.93-.42c5.13-1.73,8.52-1.38,9.68-1.17a4.41,4.41,0,0,1,.71.2c11.24,4.16,19,38,20.64,46.83,1.46,7.9-3.81,39.05-4.86,40.11a8.2,8.2,0,0,1-5.28,2.11c-.11,0-3.07,0-3.17,0Z" transform="translate(-3.45 -54)"/><path class="cls-54" d="M280.2,329.48h-1.06s-1.66-1.67-.83-13c0,0,1-20.45-.66-24.86,0,0-2.73-20.26-8-25l2.06.47a18.81,18.81,0,0,1,5.28,8.45A102.43,102.43,0,0,1,280.2,301C280.2,306.23,279.14,329.48,280.2,329.48Z" transform="translate(-3.45 -54)"/><path class="cls-55" d="M270.69,268.2s5.28-9.51,10.57,0c0,0-8.23-24.16-14.87-27.71a8.17,8.17,0,0,0-5.21,2.14S267.52,264,270.69,268.2Z" transform="translate(-3.45 -54)"/><ellipse class="cls-56" cx="278.78" cy="263.31" rx="0.53" ry="0.63" transform="translate(-83.84 74.95) rotate(-22.86)"/><path class="cls-57" d="M277,239.67s-6.34-1.06-9.51,0c0,0-2.11,1.06,1.06,2.11l8.75.86S278.09,240.73,277,239.67Z" transform="translate(-3.45 -54)"/><ellipse class="cls-58" cx="269.1" cy="240.73" rx="0.53" ry="1.06" transform="translate(-2.44 428.59) rotate(-83.87)"/><path class="cls-56" d="M270.92,239.2a4.38,4.38,0,0,1,.44,2.86l.85.08s.24-2.35-.64-2.94Z" transform="translate(-3.45 -54)"/><path class="cls-56" d="M275.45,239.46a7.7,7.7,0,0,1-.13,3l.71.07s.06-2.07,0-3Z" transform="translate(-3.45 -54)"/><path class="cls-56" d="M273,239.25a13.08,13.08,0,0,1,0,3l.63.06v-3Z" transform="translate(-3.45 -54)"/><path class="cls-59" d="M280.47,283a13.54,13.54,0,0,0,1.84,7.4,4.65,4.65,0,0,0,3.17,1.05s-1.12,0-3.17-2.11c-1.51-1.56-1.48-6.34-1.48-6.34Z" transform="translate(-3.45 -54)"/><path class="cls-55" d="M280.2,279.82a33.87,33.87,0,0,0,8.45-1.06,3.7,3.7,0,0,1,1.06,2.12,3.27,3.27,0,0,1-1.06,2.11l-2.11,2.11c-.7.35-1.06,1.06-3.17,0l-2.11-1.05a3.7,3.7,0,0,1-1.06-2.12Z" transform="translate(-3.45 -54)"/><path class="cls-53" d="M246.39,249.18c1.06,4.23,9.51,11.62,22.19,16.9,8.78,3.66,10.56,18.51,10.56,30.64v31.7s0,7.4-18,6.34l-20.07-1.06L244.28,321l-12-33.77,7.19-34.87,6.91-3.21Z" transform="translate(-3.45 -54)"/><path class="cls-53" d="M241.49,251.29s-18.88,4.53-53,58.66l18.43,12.18,35.66-40.35Z" transform="translate(-3.45 -54)"/><path class="cls-55" d="M245.9,247.93a6.93,6.93,0,0,0-4.79,3.36s3.17,14.79,10.56,24.3c0,0-1.06-15.85,16.91-9.51C268.58,266.08,249.49,253.56,245.9,247.93Z" transform="translate(-3.45 -54)"/><circle class="cls-54" cx="269.88" cy="227.4" r="1.58"/><circle class="cls-54" cx="271.99" cy="247.48" r="1.58"/><circle class="cls-54" cx="273.05" cy="266.5" r="1.58"/><path class="cls-57" d="M224.57,262l12.16-10.68a1.83,1.83,0,0,1,1.13-.46c4.21-.11,4.36,2.77,4.18,4.18a2,2,0,0,1-.62,1.18l-11.23,11.21A8,8,0,0,0,224.57,262Z" transform="translate(-3.45 -54)"/><circle class="cls-60" cx="235.01" cy="199.93" r="2.11"/><path class="cls-56" d="M237.82,259.85s-2.72-3.8-5.53-4.59l-.8.7s4.49,2.56,5.47,4.76Z" transform="translate(-3.45 -54)"/><path class="cls-56" d="M235.42,262.25a7.72,7.72,0,0,0-5.7-4.73l-.8.69s4.57,1.73,5.74,4.8Z" transform="translate(-3.45 -54)"/><path class="cls-56" d="M233.08,264.58a10.91,10.91,0,0,0-5.64-5.07l-.85.75a10.43,10.43,0,0,1,5.58,5.23Z" transform="translate(-3.45 -54)"/><circle class="cls-56" cx="246.63" cy="215.78" r="1.58"/><polygon class="cls-56" points="261.95 219.48 263.01 222.65 242.94 225.82 242.94 222.65 261.95 219.48"/><path class="cls-59" d="M249.65,287.44l2.1,12.63c1.85,3.71,6.83,5.06,8.32,5.39a8.73,8.73,0,0,1-1.27.09s-6.34-1.05-8.45-5.28l-2.12-12.68Z" transform="translate(-3.45 -54)"/><path class="cls-59" d="M269.63,296.72l-2.11-11.62h1.06l2.11,11.62s-2.62,6.94-8.62,8.23C267.52,303.06,269.63,296.72,269.63,296.72Z" transform="translate(-3.45 -54)"/><path class="cls-55" d="M267.52,281.93l-20.07,3.17a3.73,3.73,0,0,0,1.05,4.23s2.11,2.11,9.51,4.23c.79.22,2.49-.6,3.17-1.06l7.4-5.28C269.63,285.1,269,283.45,267.52,281.93Z" transform="translate(-3.45 -54)"/><polygon class="cls-56" points="261.95 222.65 263.01 225.82 243.99 228.99 243.99 224.76 261.95 222.65"/><polygon class="cls-61" points="260.87 219.66 261.95 222.76 257.99 223.41 256.92 220.32 260.87 219.66"/><polygon class="cls-62" points="256.58 220.38 257.56 223.51 256.62 223.73 255.81 220.5 256.58 220.38"/><polygon class="cls-62" points="261.47 222.92 262.31 225.94 261.08 226.14 260.41 223.06 261.47 222.92"/><polygon class="cls-61" points="248.5 221.72 249.05 224.91 243.51 225.73 243.51 222.55 248.5 221.72"/><polygon class="cls-62" points="244.56 225.66 244.66 228.88 245.18 228.79 245.02 225.6 244.56 225.66"/><polygon class="cls-8" points="254.97 220.64 255.81 223.79 253.28 224.26 252.67 221.03 254.97 220.64"/><polygon class="cls-8" points="259.7 223.28 260.43 226.25 256.58 226.89 256.04 224.01 259.7 223.28"/><polygon class="cls-8" points="245.34 225.55 245.5 228.74 248.22 228.28 247.85 225.23 245.34 225.55"/><polygon class="cls-62" points="252.16 221.11 252.67 224.26 251.91 224.42 251.39 221.24 252.16 221.11"/><polygon class="cls-62" points="250.7 221.36 251.27 224.5 250.55 224.61 250.12 221.45 250.7 221.36"/><polygon class="cls-62" points="249.49 221.56 250.03 224.71 249.49 224.78 248.98 221.64 249.49 221.56"/><polygon class="cls-62" points="256.24 226.95 255.68 224.04 255.19 224.1 255.72 227.03 256.24 226.95"/><polygon class="cls-62" points="254.78 224.19 255.31 227.1 254.88 227.18 254.31 224.26 254.78 224.19"/><polygon class="cls-8" points="253.89 224.35 254.48 227.24 251.53 227.73 251.24 224.82 253.89 224.35"/><polygon class="cls-62" points="251.24 227.78 250.9 224.84 249.62 225 250.03 227.98 251.24 227.78"/><polygon class="cls-62" points="249.22 225.03 249.65 228.05 249.26 228.11 248.84 225.09 249.22 225.03"/><polygon class="cls-62" points="248.52 225.14 248.98 228.16 248.59 228.22 248.21 225.2 248.52 225.14"/><path class="cls-63" d="M243.22,329.48l46.19-1.65a1.3,1.3,0,0,1,1.35,1.31v4a1.29,1.29,0,0,1-1.06,1.28c-4.4.8-16.9,2.42-42.25,1.37-1.25-.05-6.34-.87-6.34-2.12Z" transform="translate(-3.45 -54)"/><polygon class="cls-56" points="278.67 274.09 278.67 281.42 269.01 282.17 268.29 274.09 278.67 274.09"/><circle class="cls-54" cx="255.61" cy="237.44" r="1.06"/><circle class="cls-54" cx="281.61" cy="229.88" r="0.64"/><polygon points="269.49 238.47 225.37 218.34 220.34 228.89 263.46 248.06 269.49 238.47"/><polygon class="cls-44" points="223.85 225.56 226.42 220.56 267.77 239.81 265.01 244.82 223.85 225.56"/><polygon class="cls-64" points="265.41 241.66 236.67 302.46 193.19 281.72 221.03 221.04 265.41 241.66"/><polygon points="265.41 241.66 269.49 238.47 241.02 299.12 236.67 302.46 265.41 241.66"/><polygon class="cls-44" points="220.23 245.4 248.03 258.33 251.52 251.05 223.72 238.12 220.23 245.4"/><path class="cls-24" d="M264.53,318.55l-12.28-2.78.4-2.73a2.31,2.31,0,0,0-1.27-2.4,2.1,2.1,0,0,0-2.61.65l-8.27,11.48-6.27,8.84c7.2,3.6,13.94,3,15.86,1.43l9.55.72a1.74,1.74,0,0,0,2-1.41c.13-.69,0-1.69-2-2.13l2,.44a1.8,1.8,0,0,0,2.06-1.51c.17-.9-.58-1.81-1.78-2.22l1.47.18a1.85,1.85,0,0,0,2.13-1.76,2,2,0,0,0-1.61-2.08l-2.17-.49,2.41,0a2,2,0,0,0,2.18-2A2.23,2.23,0,0,0,264.53,318.55Z" transform="translate(-3.45 -54)"/><polygon class="cls-24" points="237.04 268.77 216.65 263.33 213.31 275.58 234.29 279.07 237.04 268.77"/><path class="cls-53" d="M201.29,305.9,237,318.12l-7.57,16.16L195,326.59a10.83,10.83,0,0,1-7.67-14.49h0A10.84,10.84,0,0,1,201.29,305.9Z" transform="translate(-3.45 -54)"/></g><g class="cls-22"><path class="cls-24" d="M350.17,401.28h0a15.46,15.46,0,0,1-15.47-15.47V352.89h30.93v32.92A15.46,15.46,0,0,1,350.17,401.28Z" transform="translate(-3.45 -54)"/><path class="cls-24" d="M372.06,337.08a5.17,5.17,0,0,1,6.41-1.69c4.31,1.64,2.36,12.11-4.11,13.44a5.11,5.11,0,0,1-4.14-1.08S371.81,340,372.06,337.08Z" transform="translate(-3.45 -54)"/><path class="cls-24" d="M327.92,337.08a5.17,5.17,0,0,0-6.41-1.69c-4.31,1.64-2.36,12.11,4.11,13.44a5.11,5.11,0,0,0,4.14-1.08S328.17,340,327.92,337.08Z" transform="translate(-3.45 -54)"/><path class="cls-65" d="M379.3,309.2a4.65,4.65,0,0,0,.08-4.49,4.87,4.87,0,0,0-3.83-2.55,7.51,7.51,0,0,0,.55-7.49,9.35,9.35,0,0,0-5.94-4.83,12.56,12.56,0,0,0-7.76.35A16,16,0,0,0,350.58,285h-1.9a16,16,0,0,0-11.82,5.19,12.56,12.56,0,0,0-7.76-.35,9.37,9.37,0,0,0-5.94,4.83,7.49,7.49,0,0,0,.56,7.49,4.86,4.86,0,0,0-3.83,2.55,4.63,4.63,0,0,0,.08,4.49,7.82,7.82,0,0,0-4.42,8.23,9.3,9.3,0,0,0,6.29,6.9l1.51,6.43c.48,2.06,2.29,3.94,3.79,5.45l1.49,6.25v0a42.3,42.3,0,0,0,3.28,11.27c4.72,9.55,10.61,12.6,18.51,12.36s13.93-4.19,17.58-11.55c1.86-3.78,3-8.79,3.62-13.69h0l1.23-5.44v.88a11.45,11.45,0,0,0,3.05-5.51l1.51-6.43a9.28,9.28,0,0,0,6.29-6.9A7.82,7.82,0,0,0,379.3,309.2Z" transform="translate(-3.45 -54)"/><polygon class="cls-66" points="389.17 499.13 304 499.13 306.79 455.94 385.46 455.94 389.17 499.13"/><path class="cls-66" d="M307.45,552.62l-2.53,99.74a15.94,15.94,0,0,0,15.94,16.49h0a16,16,0,0,0,15.86-14.29l10-99.23a19.71,19.71,0,0,0-19.6-21.76h0A19.71,19.71,0,0,0,307.45,552.62Z" transform="translate(-3.45 -54)"/><polygon class="cls-44" points="300.37 730.05 302.37 697.19 317.75 697.26 315.79 730.06 300.37 730.05"/><path class="cls-67" d="M302.65,784l-19.22,10.47-10.81,2.11a11.42,11.42,0,0,0-9.18,10.14l-.22,2.36,58.3.27.11-25.26Z" transform="translate(-3.45 -54)"/><polyline class="cls-44" points="318.3 755.78 259.53 755.51 259.56 750.32 318.32 750.59 318.3 755.78"/><path class="cls-66" d="M336.69,655.12,324,770.67H301.52L305,652.88a15.91,15.91,0,0,1,16.67-15.44h0A15.92,15.92,0,0,1,336.69,655.12Z" transform="translate(-3.45 -54)"/><path class="cls-66" d="M392.48,552.62,395,652.36a16,16,0,0,1-15.94,16.49h0a16,16,0,0,1-15.86-14.29l-10-99.23a19.71,19.71,0,0,1,19.6-21.76h0A19.71,19.71,0,0,1,392.48,552.62Z" transform="translate(-3.45 -54)"/><path class="cls-66" d="M363.25,655.12l12.68,115.55h22.48L395,652.88a15.91,15.91,0,0,0-16.67-15.44h0A15.91,15.91,0,0,0,363.25,655.12Z" transform="translate(-3.45 -54)"/><path class="cls-4" d="M293.79,408.15c-4.05,20.25-14.85,65.49-20.33,88.22a14.61,14.61,0,0,0,10.16,17.45h0a14.61,14.61,0,0,0,18.23-10.54l21.91-88.85A15.31,15.31,0,0,0,311.18,396h0A15.31,15.31,0,0,0,293.79,408.15Z" transform="translate(-3.45 -54)"/><path class="cls-24" d="M276.77,588.52a10.32,10.32,0,0,0-3.12-4.52l3.41-16.1a6.84,6.84,0,1,0-13.39-2.76l-3.21,15.13a5.82,5.82,0,0,0-.24.74l0,.17a50.36,50.36,0,0,0-5.12,18c-1.21,13.42,4.47,20.23,8.66,20.29,4,.06,6.19-15.67,7.09-21.49l2.47,5.92a1.86,1.86,0,0,0,3.56-.48l.87-6.89A16,16,0,0,0,276.77,588.52Z" transform="translate(-3.45 -54)"/><path class="cls-4" d="M273.44,496.28l-18.68,76.31,28.37,7.75,19-78a14.67,14.67,0,0,0-12.05-17.62h0A14.65,14.65,0,0,0,273.44,496.28Z" transform="translate(-3.45 -54)"/><path class="cls-4" d="M405.61,408.15c4.05,20.25,14.85,65.49,20.33,88.22a14.61,14.61,0,0,1-10.16,17.45h0a14.61,14.61,0,0,1-18.23-10.54l-21.91-88.85A15.31,15.31,0,0,1,388.23,396h0A15.31,15.31,0,0,1,405.61,408.15Z" transform="translate(-3.45 -54)"/><path class="cls-24" d="M444.34,599.15a50.47,50.47,0,0,0-5.11-18l0-.17a5.85,5.85,0,0,0-.25-.74l-3.21-15.13a6.84,6.84,0,1,0-13.39,2.76l3.41,16.1a10.32,10.32,0,0,0-3.12,4.52,16,16,0,0,0-.94,8l.87,6.89a1.86,1.86,0,0,0,3.57.48l2.46-5.92c.9,5.82,3.14,21.55,7.09,21.49C439.87,619.38,445.55,612.57,444.34,599.15Z" transform="translate(-3.45 -54)"/><path class="cls-4" d="M426,496.28l18.68,76.31-28.36,7.75-19-78a14.65,14.65,0,0,1,12-17.62h0A14.65,14.65,0,0,1,426,496.28Z" transform="translate(-3.45 -54)"/><polygon class="cls-4" points="362.18 329.31 346.07 329.55 331.24 329.33 300.91 342.49 306.79 455.94 346.07 455.94 385.75 455.94 391.63 342.49 362.18 329.31"/><path class="cls-4" d="M366,376.1s-22.78-1.42-32,.47c0,0-.95,2.49,0,6.76,0,0,25.79,1.1,32,0A20.91,20.91,0,0,0,366,376.1Z" transform="translate(-3.45 -54)"/></g><path class="cls-62" d="M280.19,572H120.94a13.85,13.85,0,0,1-13.84-13.85V528.36a13.85,13.85,0,0,1,13.84-13.85h127.4L285,488.29l-11.14,26.22h6.31A13.85,13.85,0,0,1,294,528.36v29.79A13.85,13.85,0,0,1,280.19,572Z" transform="translate(-3.45 -54)"/><text class="cls-9" transform="translate(115.83 494.37)"><tspan class="cls-68">“</tspan><tspan class="cls-11" x="8.1" y="0">OK. </tspan><tspan class="cls-69" x="43.09" y="0">W</tspan><tspan class="cls-11" x="59.98" y="0">e </tspan><tspan class="cls-18" x="74.92" y="0">c</tspan><tspan x="84.2" y="0">an hel</tspan><tspan class="cls-70" x="136.02" y="0">p</tspan><tspan x="145.98" y="0">”</tspan></text></g></g></svg>