<svg width="413" height="500" viewBox="0 0 413 500" fill="none" xmlns="http://www.w3.org/2000/svg">
<g clip-path="url(#clip0)">
<path opacity="0.7" d="M408.946 211.167C408.946 99.3494 318.301 8.70448 206.483 8.70448C94.6646 8.70448 4.0197 99.3494 4.0197 211.167C3.95078 264.111 24.6893 314.961 61.7644 352.756C56.0536 374.889 58.8896 398.361 69.7075 418.497C80.5254 438.634 98.5313 453.956 120.139 461.413C141.746 468.869 165.37 467.913 186.304 458.734C207.238 449.556 223.947 432.828 233.102 411.884C332.345 398.845 408.946 313.953 408.946 211.167Z" fill="url(#paint0_linear)"/>
<path opacity="0.2" d="M272.996 255.645C252.376 277.186 241.155 306.035 241.802 335.848C242.449 365.66 254.911 393.995 276.447 414.621C277.711 415.828 278.992 416.998 280.289 418.129C319.152 408.993 354.499 388.7 381.983 359.744C409.467 330.788 427.89 294.432 434.988 255.146C434.011 254.148 433.028 253.157 432.008 252.18C421.341 241.965 408.765 233.952 395 228.598C381.236 223.244 366.551 220.653 351.785 220.975C337.019 221.297 322.46 224.524 308.942 230.473C295.423 236.422 283.209 244.975 272.996 255.645V255.645Z" fill="#F2F2F2"/>
<path opacity="0.2" d="M354.366 395.024C339.076 372.796 316.977 356.139 291.397 347.563C265.818 338.986 238.144 338.955 212.546 347.474C186.947 355.992 164.81 372.599 149.469 394.792C134.129 416.985 126.417 443.562 127.494 470.52C210.047 496.326 302.168 467.311 354.366 395.024Z" fill="#F2F2F2"/>
<path opacity="0.2" d="M160.494 379.183C107.333 350.018 40.3776 369.538 11.1488 422.705C5.0559 433.794 0.929048 445.854 -1.04883 458.35L-0.421478 458.921C1.51332 446.339 5.64187 434.195 11.7762 423.041C40.7555 370.215 107.304 350.824 160.123 379.803C202.319 402.937 223.179 449.988 215.144 494.901L215.922 494.58C223.792 449.532 202.797 402.388 160.494 379.183Z" fill="#F2F2F2"/>
<path opacity="0.1" d="M305.333 410.515C283.054 369.816 288.48 317.66 322.228 282.414C336.276 267.767 354.123 257.318 373.771 252.236C393.419 247.153 414.094 247.637 433.483 253.635C433.526 253.399 433.561 253.157 433.597 252.922C414.087 246.903 393.287 246.428 373.522 251.549C353.757 256.67 335.805 267.186 321.672 281.922C287.752 317.389 282.292 369.823 304.662 410.779L305.333 410.515Z" fill="#F2F2F2"/>
<path opacity="0.2" d="M124.777 154.328C167.394 154.328 201.941 119.781 201.941 77.164C201.941 34.5475 167.394 0 124.777 0C82.1608 0 47.6133 34.5475 47.6133 77.164C47.6133 119.781 82.1608 154.328 124.777 154.328Z" fill="#F2F2F2"/>
<path opacity="0.2" d="M52.0195 227.614C94.636 227.614 129.184 193.066 129.184 150.45C129.184 107.833 94.636 73.2859 52.0195 73.2859C9.40298 73.2859 -25.1445 107.833 -25.1445 150.45C-25.1445 193.066 9.40298 227.614 52.0195 227.614Z" fill="#F2F2F2"/>
<path opacity="0.2" d="M354.41 206.89C375.08 206.89 391.837 190.133 391.837 169.463C391.837 148.792 375.08 132.036 354.41 132.036C333.739 132.036 316.982 148.792 316.982 169.463C316.982 190.133 333.739 206.89 354.41 206.89Z" fill="#F2F2F2"/>
<path d="M314.844 75.3105H108.118V359.379H314.844V75.3105Z" fill="#F2F2F2"/>
<path d="M229.296 113.422H125.861V223.686H229.296V113.422Z" fill="#AAAAAA"/>
<path d="M277.532 229.703H145.432V236.268H277.532V229.703Z" fill="#D5A39A"/>
<path d="M277.16 243.647H126.239V252.843H277.16V243.647Z" fill="#E7B7AD"/>
<path d="M277.16 265.355H126.239V274.551H277.16V265.355Z" fill="#E7B7AD"/>
<path d="M277.16 287.062H126.239V296.259H277.16V287.062Z" fill="#E7B7AD"/>
<path d="M277.16 308.77H126.239V317.967H277.16V308.77Z" fill="#E7B7AD"/>
<path d="M277.16 330.471H126.239V339.667H277.16V330.471Z" fill="#E7B7AD"/>
<path d="M297.192 253.556H285.03V242.934H297.192V253.556ZM286.456 252.13H295.767V244.36H286.456V252.13Z" fill="#D8B5A8"/>
<path d="M297.192 275.264H285.03V264.635H297.192V275.264ZM286.456 273.838H295.767V266.06H286.456V273.838Z" fill="#D8B5A8"/>
<path d="M297.192 296.972H285.03V286.35H297.192V296.972ZM286.456 295.546H295.767V287.775H286.456V295.546Z" fill="#D8B5A8"/>
<path d="M297.192 318.679H285.03V308.05H297.192V318.679ZM286.456 317.254H295.767V309.483H286.456V317.254Z" fill="#D8B5A8"/>
<path d="M297.192 340.38H285.03V329.765H297.192V340.38ZM286.456 338.954H295.767V331.191H286.456V338.954Z" fill="#D8B5A8"/>
<path d="M296.479 90.5665H126.239V107.769H296.479V90.5665Z" fill="#D5A39A"/>
<path d="M281.316 149.523H233.573V158.719H281.316V149.523Z" fill="#E7B7AD"/>
<path d="M292.624 149.523H284.504V158.719H292.624V149.523Z" fill="#E7B7AD"/>
<path d="M292.615 172.079H233.573V181.276H292.615V172.079Z" fill="#E7B7AD"/>
<path d="M260.77 194.642H233.573V203.839H260.77V194.642Z" fill="#E7B7AD"/>
<path d="M273.717 194.642H263.936V203.839H273.717V194.642Z" fill="#E7B7AD"/>
<path d="M254.939 126.967H233.573V136.163H254.939V126.967Z" fill="#E7B7AD"/>
<path d="M292.616 126.967H258.312V136.163H292.616V126.967Z" fill="#E7B7AD"/>
<path d="M283.926 261.783C283.926 261.783 289.337 267.486 291.176 272.063C291.176 272.063 295.375 263.081 300.914 256.593C300.914 256.593 296.152 258.646 291.176 266.003C291.176 266.06 286.834 262.353 283.926 261.783Z" fill="#D31610"/>
<path d="M283.926 283.997C283.926 283.997 289.337 289.7 291.176 294.277C291.176 294.277 295.375 285.294 300.914 278.807C300.914 278.807 296.152 280.86 291.176 288.217C291.176 288.217 286.834 284.539 283.926 283.997Z" fill="#D31610"/>
<path d="M283.926 326.058C283.926 326.058 289.337 331.797 291.176 336.338C291.176 336.338 295.375 327.355 300.914 320.861C300.914 320.861 296.152 322.921 291.176 330.278C291.176 330.278 286.834 326.6 283.926 326.058Z" fill="#D31610"/>
<path d="M166.476 116.659C173.669 115.197 180.734 119.838 188.076 119.902C190.964 119.902 193.815 119.239 196.703 119.147C199.59 119.054 202.698 119.66 204.715 121.813C207.054 124.315 207.325 128.229 206.918 131.665C205.898 140.345 201.498 148.273 194.671 153.729C191.819 155.961 188.34 157.729 184.79 157.294C181.938 156.951 179.458 155.262 177.069 153.622C169.534 148.44 161.386 142.865 156.652 134.609C152.474 127.373 159.29 118.12 166.476 116.659Z" fill="#292C3D"/>
<path d="M162.997 177.112C162.997 177.112 134.652 151.198 146.928 132.15C159.204 113.101 172.136 133.005 172.136 133.005C172.136 133.005 177.583 165.685 162.997 177.112Z" fill="#292C3D"/>
<path d="M187.392 158.413L186.08 183.678L185.702 190.893C185.527 193.907 184.177 196.734 181.941 198.764C179.706 200.794 176.763 201.866 173.745 201.751C170.727 201.635 167.875 200.34 165.801 198.145C163.728 195.949 162.598 193.028 162.654 190.009L162.982 177.176L163.531 155.789L187.392 158.413Z" fill="#FEC9CF"/>
<path d="M187.392 163.403L186.08 187.2C174.888 187.649 166.718 183.101 162.982 177.041L163.531 160.758L187.392 163.403Z" fill="#EE84AA"/>
<path d="M196.268 143.863C196.744 149.641 196.634 155.452 195.94 161.208C194.599 171.744 195.084 184.12 179.543 184.94C162.975 185.824 157.486 167.281 157.486 167.281C157.486 167.281 148.682 165.642 148.083 159.689C147.484 153.736 153.636 153.401 155.64 155.077C155.64 155.077 157.914 132.891 178.409 132.891C196.503 132.891 196.268 143.863 196.268 143.863Z" fill="#FFCAD0"/>
<path d="M176.855 161.172C176.855 161.496 176.758 161.813 176.578 162.083C176.398 162.352 176.142 162.563 175.842 162.687C175.543 162.811 175.213 162.843 174.895 162.78C174.577 162.717 174.285 162.561 174.055 162.331C173.826 162.102 173.67 161.81 173.607 161.492C173.543 161.174 173.576 160.844 173.7 160.544C173.824 160.245 174.034 159.989 174.304 159.809C174.574 159.628 174.891 159.532 175.215 159.532C175.65 159.532 176.067 159.705 176.374 160.012C176.682 160.32 176.855 160.737 176.855 161.172Z" fill="#3B164C"/>
<path d="M191.697 161.172C191.697 161.496 191.601 161.813 191.421 162.083C191.241 162.352 190.985 162.563 190.685 162.687C190.386 162.811 190.056 162.843 189.738 162.78C189.42 162.717 189.128 162.561 188.898 162.331C188.669 162.102 188.513 161.81 188.449 161.492C188.386 161.174 188.419 160.844 188.543 160.544C188.667 160.245 188.877 159.989 189.147 159.809C189.416 159.628 189.733 159.532 190.058 159.532C190.492 159.532 190.91 159.705 191.217 160.012C191.525 160.32 191.697 160.737 191.697 161.172Z" fill="#3B164C"/>
<path d="M169.242 155.462C170.06 154.265 171.246 153.367 172.619 152.904C173.993 152.441 175.48 152.438 176.856 152.895" stroke="#171D51" stroke-width="1.15" stroke-linecap="round" stroke-linejoin="round"/>
<path d="M185.809 152.831C185.809 152.831 189.551 149.416 193.23 153.159" stroke="#171D51" stroke-width="1.15" stroke-linecap="round" stroke-linejoin="round"/>
<path d="M182.509 156.902C182.509 156.902 184.277 161.436 185.788 164.259C187.299 167.082 182.837 168.329 182.837 168.329" stroke="#EE84AA" stroke-width="0.86" stroke-linecap="round" stroke-linejoin="round"/>
<path d="M176.541 173.384C176.541 173.384 180.205 176.948 184.91 174.76" stroke="#EE84AA" stroke-width="0.86" stroke-linecap="round" stroke-linejoin="round"/>
<path d="M157.293 163.033C157.293 163.033 157.236 157.928 153.437 159.325" stroke="#EE84AA" stroke-width="0.86" stroke-linecap="round" stroke-linejoin="round"/>
<path d="M156.78 156.745C156.78 156.745 169.612 151.042 166.368 136.527C166.368 136.527 157.849 123.417 150.577 128.215C143.306 133.012 156.78 156.745 156.78 156.745Z" fill="#292C3D"/>
<path d="M176.542 138.266C180.285 139.129 183.486 141.881 186.922 143.841C190.358 145.802 194.614 146.935 197.865 144.554C200.823 142.416 202.035 137.732 201.215 133.747C200.346 129.948 198.048 126.63 194.799 124.479C191.791 122.426 188.383 121.456 184.933 120.786C180.456 119.895 175.843 119.474 171.388 120.487C167.417 121.385 156.21 126.903 158.513 133.811C159.382 136.441 163.018 137.197 165.043 137.661C168.893 138.509 172.778 137.397 176.542 138.266Z" fill="#292C3D"/>
<path d="M204.43 481.805L207.859 514.769H193.829L189.081 481.847L204.43 481.805Z" fill="#FEC9CF"/>
<path d="M144.918 478.882L146.536 513.792L163.453 514.976L160.53 481.805L144.918 478.882Z" fill="#FEC9CF"/>
<path d="M271.742 213.228C271.742 213.228 275.307 207.282 278.094 201.821C279.099 199.854 274.679 189.837 274.679 188.162C274.679 185.232 276.611 183.236 277.609 185.232C281.509 193.038 282.136 192.846 282.543 191.941C286.221 183.771 293.015 170.361 295.489 172.122C298.519 174.261 290.035 191.463 290.035 191.463C290.035 191.463 297.521 169.941 301.563 171.131C305.605 172.322 294.648 192.375 294.648 192.375C294.648 192.375 303.666 173.484 306.054 175.266C308.442 177.048 306.553 181.297 298.797 195.284C298.797 195.284 305.419 183.279 307.915 186.095C310.41 188.911 302.354 199.925 299.424 202.491C298.797 203.047 294.22 208.587 289.344 210.533C283.598 212.836 282.5 219.922 281.537 221.269C281.509 221.305 271.892 218.175 271.742 213.228Z" fill="#FFCAD0"/>
<path d="M116.003 304.835C116.003 304.835 114.021 312.456 114.456 314.459C114.89 316.462 116.366 318.416 117.029 321.139C117.692 323.862 122.732 329.416 122.34 331.39C121.948 333.365 119.603 333.415 116.509 329.551C113.415 325.687 113.557 322.871 112.089 324.468C110.62 326.065 107.519 332.31 106.635 334.855C105.751 337.4 102.358 342.697 101.06 342.248C99.7627 341.799 99.171 340.694 104.504 328.225C104.504 328.225 98.6364 343.118 95.5709 341.321C93.4322 340.066 99.8483 328.71 100.754 326.928C100.754 326.928 95.0505 338.47 92.1989 336.652C89.5255 334.941 98.5508 324.411 98.5508 324.411C98.5508 324.411 91.871 332.531 90.3881 330.891C88.9053 329.252 92.6908 324.09 96.7472 320.497C100.804 316.904 101.837 315.963 102.643 313.981C103.448 312 104.831 304.45 104.831 304.45C104.831 304.45 111.789 301.064 116.003 304.835Z" fill="#FFCAD0"/>
<path d="M191.114 186.779L174.232 195.911L161.115 188.034C161.115 188.034 154.428 208.102 156.353 230.865C158.278 253.628 161.963 269.974 177.355 248.815C192.746 227.657 198.457 194.158 191.114 186.779Z" fill="white"/>
<path d="M191.114 186.779L174.232 195.911L161.115 188.034C161.115 188.034 154.428 208.102 156.353 230.865C158.278 253.628 161.963 269.974 177.355 248.815C192.746 227.657 198.457 194.158 191.114 186.779Z" fill="white"/>
<path d="M171.059 206.341C171.059 206.341 161.998 255.41 162.768 256.351C163.26 255.723 168.778 269.661 171.964 256.351C174.445 245.992 174.752 207.467 175.151 206.997C175.151 206.997 179.878 201.907 182.644 199.397C184.459 197.748 186.215 196.054 187.912 194.314C188.367 193.511 188.781 192.686 189.152 191.841L188.44 193.594C189.471 191.6 190.663 189.693 192.004 187.891C191.751 187.498 191.459 187.13 191.134 186.793L174.231 195.911L161.114 188.034C161.114 188.034 160.722 189.217 160.166 191.278C161.549 193.202 162.789 195.149 163.866 196.981C165.249 199.39 171.059 206.341 171.059 206.341Z" fill="#292C3D"/>
<path d="M136.456 278.116L188.233 277.139C188.233 277.139 196.111 290.049 197.879 327.313C199.084 352.82 200.124 359.885 202.662 393.612C204.38 416.482 212.507 504.24 212.507 504.24H184.982C184.982 504.24 173.334 404.113 172.742 398.659C172.528 396.735 165.713 343.766 165.713 343.766C165.713 343.766 166.825 391.716 166.825 397.298C166.825 402.88 168.03 501.381 168.03 501.381H139.043C139.043 501.381 135.785 417.623 135.479 398.453C135.065 367.442 132.413 288.16 136.456 278.116Z" fill="#292C3D"/>
<path d="M156.295 189.003C151.682 189.952 144.675 191.449 139.57 192.81C138.517 193.094 137.591 193.726 136.943 194.604C136.296 195.482 135.965 196.554 136.006 197.644C136.348 207.845 136.783 236.04 131.572 245.679C131.217 246.337 131.022 247.07 131.001 247.817L128.036 332.567C128.008 333.301 128.148 334.031 128.445 334.703C128.742 335.375 129.188 335.97 129.75 336.443C130.311 336.917 130.973 337.256 131.685 337.436C132.398 337.615 133.141 337.63 133.86 337.479C145.067 335.097 168.079 325.637 169.034 288.11C170.082 247.375 170.218 238.521 170.232 236.661C170.236 236.347 170.207 236.034 170.146 235.727L162.019 192.846C161.902 192.215 161.66 191.613 161.307 191.077C160.954 190.54 160.498 190.08 159.964 189.722C159.431 189.364 158.832 189.116 158.202 188.993C157.572 188.869 156.924 188.873 156.295 189.003Z" fill="#4D505E"/>
<path d="M166.754 241.886C166.748 242.189 166.653 242.484 166.479 242.733C166.306 242.981 166.063 243.173 165.781 243.284C165.499 243.395 165.19 243.419 164.894 243.355C164.598 243.29 164.328 243.139 164.117 242.921C163.907 242.703 163.766 242.427 163.713 242.128C163.659 241.83 163.695 241.523 163.816 241.245C163.937 240.967 164.138 240.731 164.393 240.567C164.648 240.404 164.946 240.319 165.249 240.325C165.451 240.329 165.649 240.372 165.834 240.452C166.018 240.533 166.185 240.649 166.325 240.794C166.465 240.939 166.574 241.11 166.648 241.297C166.722 241.485 166.757 241.685 166.754 241.886V241.886Z" fill="#292C3D"/>
<path d="M165.777 256.943C165.771 257.246 165.676 257.54 165.503 257.789C165.33 258.038 165.087 258.23 164.805 258.341C164.522 258.451 164.214 258.476 163.918 258.411C163.622 258.347 163.351 258.196 163.141 257.977C162.931 257.759 162.79 257.483 162.736 257.185C162.682 256.887 162.719 256.579 162.84 256.301C162.961 256.023 163.162 255.788 163.417 255.624C163.672 255.46 163.97 255.376 164.273 255.381C164.474 255.385 164.673 255.428 164.857 255.509C165.042 255.589 165.209 255.705 165.348 255.85C165.488 255.995 165.598 256.166 165.671 256.354C165.745 256.541 165.781 256.741 165.777 256.943V256.943Z" fill="#292C3D"/>
<path d="M164.801 271.992C164.795 272.295 164.699 272.589 164.526 272.838C164.353 273.087 164.11 273.279 163.828 273.39C163.546 273.501 163.237 273.525 162.941 273.46C162.645 273.396 162.375 273.245 162.164 273.026C161.954 272.808 161.813 272.532 161.76 272.234C161.706 271.936 161.742 271.628 161.863 271.35C161.984 271.073 162.185 270.837 162.44 270.673C162.695 270.509 162.993 270.425 163.296 270.431C163.498 270.434 163.696 270.478 163.881 270.558C164.065 270.639 164.232 270.755 164.372 270.9C164.512 271.045 164.621 271.216 164.695 271.403C164.768 271.59 164.804 271.791 164.801 271.992V271.992Z" fill="#292C3D"/>
<path d="M163.823 287.041C163.817 287.344 163.722 287.639 163.549 287.888C163.376 288.136 163.133 288.328 162.851 288.439C162.568 288.55 162.26 288.574 161.964 288.51C161.667 288.445 161.397 288.294 161.187 288.076C160.976 287.857 160.836 287.582 160.782 287.283C160.728 286.985 160.764 286.677 160.886 286.4C161.007 286.122 161.208 285.886 161.463 285.722C161.718 285.559 162.016 285.474 162.319 285.48C162.52 285.484 162.719 285.527 162.903 285.607C163.088 285.688 163.255 285.804 163.394 285.949C163.534 286.094 163.644 286.265 163.717 286.452C163.791 286.64 163.827 286.84 163.823 287.041V287.041Z" fill="#292C3D"/>
<path d="M215.987 198.414L191.114 186.779L170.219 236.154L165.777 293.863C165.777 293.863 160.238 328.353 178.089 335.49C192.725 341.35 194.735 341.399 202.192 339.71C204.261 339.245 206.102 338.071 207.396 336.392C208.691 334.712 209.356 332.633 209.278 330.514L206.056 245.244C206.056 245.244 205.728 211.167 215.987 198.414Z" fill="#4D505E"/>
<path d="M285.551 219.009L270.487 208.102C270.487 208.102 242.592 252.13 240.988 250.79C239.384 249.45 226.081 203.14 215.986 198.414C215.986 198.414 210.882 202.064 207.966 212.75C205.906 220.307 205.607 232.49 206.056 244.502C206.056 244.502 232.333 283.441 241.629 282.158C250.926 280.874 285.551 219.009 285.551 219.009Z" fill="#4D505E"/>
<path d="M115.988 220.963C121.912 199.576 137.788 193.872 137.788 193.872C140.497 200.745 141.56 216.2 139.834 227.471C137.881 240.218 132.912 248.466 132.912 248.466C132.912 248.466 130.474 261.234 122.996 280.646C122.86 280.981 120.379 293.272 120.329 293.635L115.795 311.059L99.9834 308.706C99.9834 308.706 103.676 265.383 115.988 220.963Z" fill="#4D505E"/>
<g style="mix-blend-mode:multiply" opacity="0.55">
<path d="M160.294 190.821C160.173 191.256 164.721 207.09 164.721 207.09L174.232 199.961L182.33 207.532L190.885 189.431L189.459 187.663L179.265 193.181L174.21 197.722L163.068 189.224L162.412 188.832L160.294 190.821Z" fill="#ABACB3"/>
</g>
<path d="M174.232 194.635L162.497 185.688L159.66 188.319L164.208 204.395L174.232 196.881L183.264 205.322L192.068 187L186.208 184.976L174.232 194.635Z" fill="white"/>
<path d="M274.609 105.295L250.463 156.324L260.9 152.974L264.086 160.559L290.193 106.443L274.609 105.295Z" fill="#895F97"/>
<path d="M287.783 110.328L304.151 153.416L294.605 149.53L291.041 160.709L276.105 120.587L287.783 110.328Z" fill="#895F97"/>
<path d="M278.351 135.5C291.907 135.5 302.896 124.511 302.896 110.955C302.896 97.3995 291.907 86.4103 278.351 86.4103C264.795 86.4103 253.806 97.3995 253.806 110.955C253.806 124.511 264.795 135.5 278.351 135.5Z" fill="#D72D28"/>
<path d="M278.351 130.467C289.127 130.467 297.863 121.732 297.863 110.955C297.863 100.179 289.127 91.4434 278.351 91.4434C267.575 91.4434 258.839 100.179 258.839 110.955C258.839 121.732 267.575 130.467 278.351 130.467Z" fill="#DB423D"/>
<path d="M213.299 218.225C219.228 218.225 224.035 213.418 224.035 207.489C224.035 201.559 219.228 196.753 213.299 196.753C207.369 196.753 202.562 201.559 202.562 207.489C202.562 213.418 207.369 218.225 213.299 218.225Z" stroke="white" stroke-miterlimit="10"/>
<path d="M217.176 206.576L211.188 203.126C211.028 203.033 210.846 202.985 210.661 202.985C210.476 202.984 210.294 203.033 210.134 203.126C209.973 203.218 209.84 203.351 209.747 203.511C209.655 203.671 209.606 203.853 209.605 204.038V210.946C209.606 211.131 209.655 211.313 209.747 211.474C209.84 211.634 209.973 211.767 210.134 211.859C210.294 211.952 210.476 212 210.661 212C210.846 212 211.028 211.951 211.188 211.859L217.176 208.401C217.336 208.309 217.469 208.175 217.561 208.015C217.653 207.855 217.702 207.674 217.702 207.489C217.702 207.304 217.653 207.122 217.561 206.962C217.469 206.802 217.336 206.669 217.176 206.576V206.576Z" fill="white"/>
<path d="M365.565 268.655L356.668 259.758L363.156 256.009C363.343 255.902 363.497 255.744 363.598 255.554C363.699 255.363 363.743 255.147 363.726 254.932C363.711 254.718 363.637 254.512 363.511 254.338C363.385 254.164 363.212 254.029 363.013 253.948L335.602 243.02C335.395 242.935 335.167 242.913 334.947 242.957C334.727 243.001 334.524 243.108 334.365 243.267C334.206 243.425 334.097 243.627 334.052 243.846C334.007 244.066 334.028 244.294 334.112 244.502L345.041 271.928C345.123 272.126 345.258 272.297 345.432 272.423C345.606 272.549 345.811 272.623 346.025 272.639C346.239 272.655 346.453 272.61 346.643 272.511C346.833 272.412 346.992 272.262 347.101 272.077L350.844 265.583L359.755 274.48C359.97 274.694 360.261 274.814 360.564 274.814C360.868 274.814 361.159 274.694 361.374 274.48L365.58 270.274C365.685 270.167 365.769 270.04 365.826 269.901C365.882 269.761 365.911 269.612 365.909 269.462C365.908 269.311 365.877 269.163 365.818 269.024C365.759 268.886 365.673 268.761 365.565 268.655V268.655Z" fill="#0F0F0F" stroke="#F9F9F9" stroke-miterlimit="10"/>
</g>
<defs>
<linearGradient id="paint0_linear" x1="4.0197" y1="237.545" x2="408.945" y2="237.545" gradientUnits="userSpaceOnUse">
<stop stop-color="#D31610"/>
<stop offset="1" stop-color="#511A66"/>
</linearGradient>
<clipPath id="clip0">
<rect width="412.87" height="500" fill="white"/>
</clipPath>
</defs>
</svg>
