<svg id="Layer_99" data-name="Layer 99" xmlns="http://www.w3.org/2000/svg" xmlns:xlink="http://www.w3.org/1999/xlink" viewBox="0 0 595 592.32"><defs><style>.cls-1,.cls-31,.cls-32,.cls-34,.cls-35,.cls-45,.cls-47,.cls-5{fill:none;}.cls-2{opacity:0.5;}.cls-3{fill:url(#linear-gradient);}.cls-30,.cls-4{fill:#fff;}.cls-5{stroke:#fff;}.cls-31,.cls-45,.cls-47,.cls-5{stroke-miterlimit:10;}.cls-6{fill:#511a66;}.cls-7{fill:#d31610;}.cls-8{fill:#b3b3b3;}.cls-9{font-size:16.48px;}.cls-13,.cls-14,.cls-9{fill:#e6e6e6;}.cls-14,.cls-9{font-family:Gilroy-ExtraBold, Gilroy;font-weight:800;}.cls-10{letter-spacing:-0.01em;}.cls-11{letter-spacing:0em;}.cls-12{letter-spacing:-0.02em;}.cls-14{font-size:28.26px;}.cls-15{letter-spacing:-0.01em;}.cls-16{letter-spacing:-0.02em;}.cls-17{letter-spacing:0em;}.cls-18{letter-spacing:-0.03em;}.cls-19{letter-spacing:0em;}.cls-20{letter-spacing:-0.02em;}.cls-21{letter-spacing:-0.02em;}.cls-22{letter-spacing:-0.02em;}.cls-23{letter-spacing:0em;}.cls-24{letter-spacing:-0.01em;}.cls-25{fill:#27315e;}.cls-26{clip-path:url(#clip-path);}.cls-27{fill:#2a2e30;}.cls-28{fill:#ffcad0;}.cls-29{fill:#edb2bb;}.cls-30{opacity:0.22;}.cls-31{stroke:#d86539;stroke-width:0.72px;}.cls-32{stroke:#eab2ba;stroke-width:0.45px;}.cls-32,.cls-34,.cls-35{stroke-linecap:round;stroke-linejoin:round;}.cls-33{fill:#171d51;}.cls-34{stroke:#171d51;stroke-width:1.15px;}.cls-35{stroke:#ee84aa;stroke-width:0.86px;}.cls-36{fill:#1e0401;}.cls-37{fill:#fec9cf;}.cls-38{fill:#ceb5a1;}.cls-39{fill:#c6ab99;}.cls-40{fill:#ceb4a1;}.cls-41{fill:#bca291;}.cls-42{fill:#d3bbab;}.cls-43{fill:#f7c249;}.cls-44{fill:#ddc6ba;}.cls-45,.cls-47{stroke:#f7c249;}.cls-45{stroke-width:0.5px;}.cls-46{fill:#c4ab9b;}.cls-48{fill:#431459;}.cls-49{fill:#837165;}.cls-50{fill:#132a35;}</style><linearGradient id="linear-gradient" x1="3" y1="329.71" x2="598" y2="329.71" gradientUnits="userSpaceOnUse"><stop offset="0" stop-color="#d31610"/><stop offset="1" stop-color="#511a66"/></linearGradient><clipPath id="clip-path" transform="translate(-3 -110.42)"><path class="cls-1" d="M98.23,548.3C57.51,527.35,16.3,495.92,7.44,453.18s-6.94-97.09,29-124.7c23.37-18,52.93-26.79,80.48-38.4s55.25-27.94,67.32-53.9c8.31-17.87,8.27-38.49,17.25-56.08,14.65-28.71,52.71-36.74,86.19-31.45,48.08,7.59,62.45,45.07,103.86,58.7s63.13,9.76,107.83,14.55c49.88,5.34,77.14,17.21,84.85,61.65,4.49,25.88-1.7,44.45-15.09,69.45-6.31,11.79-14.26,36.29,0,64.47,13,25.62,31.81,36.07,30.84,71.71-.76,28.32-30.84,57.23-53.81,57.95Z"/></clipPath></defs><g class="cls-2"><path class="cls-3" d="M97.91,549C57.32,526.1,16.26,491.74,7.43,445S.51,338.87,36.32,308.69c23.29-19.62,52.75-29.29,80.21-42s55.07-30.55,67.1-58.93c8.28-19.54,8.24-42.08,17.18-61.3,14.61-31.39,52.54-40.17,85.91-34.39,47.91,8.29,62.24,49.28,103.5,64.17s62.92,10.67,107.47,15.91c49.72,5.84,76.89,18.81,84.57,67.4,4.48,28.3-1.69,48.59-15,75.93-6.29,12.88-14.22,39.67,0,70.47,12.92,28,31.69,39.44,30.73,78.4-.76,31-30.73,62.57-53.63,63.36Z" transform="translate(-3 -110.42)"/></g><polygon class="cls-4" points="458.34 89.22 460.29 84.95 462.24 89.22 466.79 91.05 462.24 92.89 460.29 97.16 458.34 92.89 453.8 91.05 458.34 89.22"/><polygon class="cls-4" points="178.67 337.35 180.63 333.07 182.58 337.35 187.12 339.18 182.58 341.01 180.63 345.29 178.67 341.01 174.13 339.18 178.67 337.35"/><polygon class="cls-4" points="287.25 28.3 289.2 24.03 291.16 28.3 295.7 30.14 291.16 31.98 289.2 36.25 287.25 31.98 282.71 30.14 287.25 28.3"/><polygon class="cls-4" points="481.19 172.82 482.37 170.25 483.54 172.82 486.27 173.92 483.54 175.02 482.37 177.59 481.19 175.02 478.46 173.92 481.19 172.82"/><polygon class="cls-4" points="344.81 300.65 345.99 298.08 347.16 300.65 349.89 301.75 347.16 302.86 345.99 305.43 344.81 302.86 342.08 301.75 344.81 300.65"/><polygon class="cls-4" points="276.92 362.8 278.1 360.23 279.27 362.8 282 363.9 279.27 365 278.1 367.57 276.92 365 274.19 363.9 276.92 362.8"/><polygon class="cls-4" points="45.22 210.71 46.4 208.14 47.57 210.71 50.3 211.81 47.57 212.91 46.4 215.48 45.22 212.91 42.49 211.81 45.22 210.71"/><path class="cls-5" d="M247.85,130.93a2.81,2.81,0,1,1-2.8-2.64A2.72,2.72,0,0,1,247.85,130.93Z" transform="translate(-3 -110.42)"/><path class="cls-5" d="M205.92,399.22a2.81,2.81,0,1,1-2.81-2.64A2.73,2.73,0,0,1,205.92,399.22Z" transform="translate(-3 -110.42)"/><path class="cls-5" d="M107.07,288a2.81,2.81,0,1,1-2.8-2.64A2.72,2.72,0,0,1,107.07,288Z" transform="translate(-3 -110.42)"/><path class="cls-5" d="M456,256.36a2.81,2.81,0,1,1-2.81-2.63A2.73,2.73,0,0,1,456,256.36Z" transform="translate(-3 -110.42)"/><path class="cls-5" d="M540.83,384a4.43,4.43,0,1,1-4.42-4.15A4.29,4.29,0,0,1,540.83,384Z" transform="translate(-3 -110.42)"/><path class="cls-5" d="M461.31,439.34a4.43,4.43,0,1,1-4.42-4.15A4.29,4.29,0,0,1,461.31,439.34Z" transform="translate(-3 -110.42)"/><path class="cls-5" d="M25.14,367.2a4.29,4.29,0,0,1-4.42,4.16,4.16,4.16,0,1,1,0-8.31A4.29,4.29,0,0,1,25.14,367.2Z" transform="translate(-3 -110.42)"/><circle class="cls-6" cx="289.52" cy="244.59" r="170.91"/><path class="cls-7" d="M292.52,184.1a170.92,170.92,0,0,0,0,341.83Z" transform="translate(-3 -110.42)"/><path class="cls-8" d="M121.61,355A170.91,170.91,0,0,0,292.52,525.93V355Z" transform="translate(-3 -110.42)"/><text class="cls-9" transform="translate(314.68 339.72)"><tspan class="cls-10">s</tspan><tspan class="cls-11" x="7.55" y="0">elf </tspan><tspan class="cls-12" x="30.96" y="0">s</tspan><tspan x="38.34" y="0">tudy</tspan></text><path class="cls-13" d="M369.91,365.79h-31.5a5.4,5.4,0,0,0-5.4,5.39v51.51a5.4,5.4,0,0,0,5.4,5.39h31.5a5.39,5.39,0,0,0,5.39-5.39V371.18A5.39,5.39,0,0,0,369.91,365.79Zm2.89,56.9a2.9,2.9,0,0,1-2.89,2.89h-31.5a2.89,2.89,0,0,1-2.89-2.89V371.18a2.89,2.89,0,0,1,2.89-2.89h31.5a2.9,2.9,0,0,1,2.89,2.89Z" transform="translate(-3 -110.42)"/><path class="cls-13" d="M354.16,369.59a.58.58,0,1,0-.58-.58A.58.58,0,0,0,354.16,369.59Z" transform="translate(-3 -110.42)"/><path class="cls-13" d="M352,371.93h4.34a.58.58,0,0,0,0-1.16H352a.58.58,0,0,0,0,1.16Z" transform="translate(-3 -110.42)"/><path class="cls-13" d="M350.05,371.8a.45.45,0,1,0-.45-.45A.45.45,0,0,0,350.05,371.8Z" transform="translate(-3 -110.42)"/><path class="cls-13" d="M354.16,418.3a3.53,3.53,0,1,0,3.53,3.52A3.53,3.53,0,0,0,354.16,418.3Zm0,5.8a2.28,2.28,0,1,1,2.28-2.28A2.28,2.28,0,0,1,354.16,424.1Z" transform="translate(-3 -110.42)"/><path class="cls-13" d="M368.94,373.18H339.38a.62.62,0,0,0-.62.62v43.78a.63.63,0,0,0,.62.63h29.56a.63.63,0,0,0,.62-.63V373.8A.62.62,0,0,0,368.94,373.18ZM368.31,417H340V374.43h28.3Z" transform="translate(-3 -110.42)"/><path class="cls-13" d="M366.92,402.91c-1.82-1.56-4.52-2.22-8-2a8.67,8.67,0,1,0-10.09-.24c-2.54-.25-7.89-.06-9.51,5.57a.57.57,0,0,0,0,.18v9.86a.66.66,0,0,0,.66.65h28.5a.66.66,0,0,0,.66-.65v-9.42A6.13,6.13,0,0,0,366.92,402.91Zm-20.35-9.15A7.44,7.44,0,1,1,354,401.2H354A7.44,7.44,0,0,1,346.57,393.76Zm7.3,10.08h.64l.94,1.94-1.29,2.5-1-1.89Zm-.78-1.32a.45.45,0,0,1,.44-.45h1.25a.45.45,0,1,1,0,.89h-1.25A.44.44,0,0,1,353.09,402.52Zm2.32,1.16a1.34,1.34,0,0,0,.7-1.16,1.14,1.14,0,0,0-.05-.33,9.6,9.6,0,0,0,1.51-.52L356,404.8Zm-2.41,0-.4,1.5-1.7-3.36a8.63,8.63,0,0,0,1.34.4,1.09,1.09,0,0,0,0,.26A1.33,1.33,0,0,0,353,403.72Zm14.75,11.92H340.57v-9.1c1.65-5.5,7.58-4.69,9-4.42l4,7.91a.66.66,0,0,0,.59.36h0a.67.67,0,0,0,.59-.36l4-7.77c3.26-.26,5.71.29,7.3,1.63a4.8,4.8,0,0,1,1.71,3.05Z" transform="translate(-3 -110.42)"/><text class="cls-14" transform="translate(325.66 369.88)"><tspan class="cls-15">2</tspan><tspan class="cls-16" x="14.64" y="0">5</tspan><tspan x="29.61" y="0">%</tspan></text><path class="cls-13" d="M234.49,379.4c-1.34-1.16-3.35-1.65-6-1.47a6.44,6.44,0,1,0-7.48-.18c-1.88-.18-5.85-.05-7.05,4.13a.34.34,0,0,0,0,.14v7.3a.49.49,0,0,0,.49.49H235.6a.49.49,0,0,0,.49-.49v-7A4.53,4.53,0,0,0,234.49,379.4Zm-15.09-6.79a5.52,5.52,0,1,1,5.54,5.52h-.05A5.52,5.52,0,0,1,219.4,372.61Zm5.42,7.48h.47l.7,1.44-1,1.85-.72-1.4Zm-.58-1a.33.33,0,0,1,.33-.33h.93a.33.33,0,0,1,0,.66h-.93A.33.33,0,0,1,224.24,379.11ZM226,380a.94.94,0,0,0,.48-1.11,6.16,6.16,0,0,0,1.12-.38l-1.2,2.32Zm-1.79,0-.29,1.11-1.27-2.49a6.75,6.75,0,0,0,1,.29,1.23,1.23,0,0,0,0,.2A1,1,0,0,0,224.17,380Zm10.94,8.84H215v-6.75c1.22-4.08,5.62-3.48,6.66-3.28l3,5.87a.48.48,0,0,0,.43.26h0a.5.5,0,0,0,.44-.26l3-5.76c2.42-.2,4.24.21,5.41,1.21a3.52,3.52,0,0,1,1.27,2.25Z" transform="translate(-3 -110.42)"/><path class="cls-13" d="M204.51,389.37a4.88,4.88,0,0,0,3.45,8.32h0a4.87,4.87,0,1,0-3.45-8.32Zm7,3.45A3.58,3.58,0,0,1,208,396.4h0a3.58,3.58,0,0,1-3.58-3.58,3.52,3.52,0,0,1,1.05-2.53,3.57,3.57,0,0,1,6.11,2.53Z" transform="translate(-3 -110.42)"/><path class="cls-13" d="M202.43,405.14h11a.64.64,0,0,0,.65-.62c0-.17.11-4.29-2.48-6.66a.65.65,0,0,0-.83,0s-2.89,2.17-5.55,0a.64.64,0,0,0-.83,0,9.19,9.19,0,0,0-2.65,6.64.61.61,0,0,0,.18.46A.62.62,0,0,0,202.43,405.14Zm2.51-5.95a5.77,5.77,0,0,0,6.19,0,8.21,8.21,0,0,1,1.69,4.68h-9.71A8.07,8.07,0,0,1,204.94,399.19Z" transform="translate(-3 -110.42)"/><path class="cls-13" d="M242.11,399.44h0a4.87,4.87,0,1,0-4.87-4.87A4.83,4.83,0,0,0,242.11,399.44Zm-2.53-7.4a3.52,3.52,0,0,1,2.53-1.05,3.59,3.59,0,0,1,3.58,3.58,3.58,3.58,0,0,1-3.58,3.58h0a3.57,3.57,0,0,1-2.53-6.11Z" transform="translate(-3 -110.42)"/><path class="cls-13" d="M248.28,406.27c0-.17.11-4.28-2.48-6.65a.65.65,0,0,0-.83,0s-2.89,2.17-5.55,0a.65.65,0,0,0-.83,0,9.23,9.23,0,0,0-2.65,6.65.62.62,0,0,0,.18.46.66.66,0,0,0,.46.19h11A.65.65,0,0,0,248.28,406.27Zm-11-.66a8.07,8.07,0,0,1,1.83-4.67,5.79,5.79,0,0,0,6.19,0,8.16,8.16,0,0,1,1.69,4.68Z" transform="translate(-3 -110.42)"/><path class="cls-13" d="M208,409.73a4.87,4.87,0,0,0,0,9.74h0a4.87,4.87,0,1,0,0-9.74Zm2.54,7.4a3.56,3.56,0,0,1-2.54,1.05h0a3.58,3.58,0,1,1,2.54-1.05Z" transform="translate(-3 -110.42)"/><path class="cls-13" d="M202.44,426.93h11.05a.64.64,0,0,0,.64-.63c0-.17.11-4.28-2.47-6.65a.64.64,0,0,0-.83,0s-2.89,2.17-5.55,0a.64.64,0,0,0-.83,0,9.13,9.13,0,0,0-2.66,6.64.68.68,0,0,0,.19.47A.64.64,0,0,0,202.44,426.93Zm2.51-6a5.77,5.77,0,0,0,6.19,0,8.19,8.19,0,0,1,1.68,4.69h-9.71A8.13,8.13,0,0,1,205,421Z" transform="translate(-3 -110.42)"/><path class="cls-13" d="M238.53,408.81a4.87,4.87,0,0,0,0,9.74h0a4.87,4.87,0,1,0,0-9.74Zm2.53,7.4a3.54,3.54,0,0,1-2.53,1.05h0a3.58,3.58,0,0,1-2.53-6.11,3.52,3.52,0,0,1,2.53-1,3.58,3.58,0,0,1,2.53,6.11Z" transform="translate(-3 -110.42)"/><path class="cls-13" d="M233,426h11.06a.64.64,0,0,0,.64-.62c0-.17.11-4.28-2.48-6.65a.62.62,0,0,0-.82,0s-2.89,2.17-5.55,0a.65.65,0,0,0-.83,0,9.13,9.13,0,0,0-2.66,6.64.67.67,0,0,0,.18.47A.66.66,0,0,0,233,426Zm2.51-6a5.77,5.77,0,0,0,6.19,0,8.21,8.21,0,0,1,1.69,4.69h-9.71A8.14,8.14,0,0,1,235.51,420.05Z" transform="translate(-3 -110.42)"/><path class="cls-13" d="M224.33,413.46a4.88,4.88,0,0,0-4.87,4.87,4.88,4.88,0,0,0,4.87,4.87h0a4.87,4.87,0,0,0,0-9.74Zm2.53,7.4a3.52,3.52,0,0,1-2.53,1.05h0a3.59,3.59,0,0,1-3.58-3.58,3.58,3.58,0,0,1,3.58-3.58,3.58,3.58,0,0,1,2.53,6.11Z" transform="translate(-3 -110.42)"/><path class="cls-13" d="M218.8,430.66h11.06a.64.64,0,0,0,.64-.62c0-.17.11-4.29-2.48-6.66a.64.64,0,0,0-.82,0s-2.89,2.17-5.55,0a.65.65,0,0,0-.83,0,9.13,9.13,0,0,0-2.66,6.64.65.65,0,0,0,.64.66Zm2.51-6a5.79,5.79,0,0,0,6.2,0,8.18,8.18,0,0,1,1.68,4.68h-9.71A8.14,8.14,0,0,1,221.31,424.7Z" transform="translate(-3 -110.42)"/><text class="cls-9" transform="translate(178.15 339.12)">Cl<tspan class="cls-17" x="16.14" y="0">a</tspan><tspan class="cls-18" x="26.32" y="0">s</tspan><tspan class="cls-19" x="33.54" y="0">s </tspan><tspan class="cls-20" x="45.38" y="0">s</tspan><tspan class="cls-19" x="52.76" y="0">tudy</tspan></text><text class="cls-14" transform="translate(198.08 369.88)"><tspan class="cls-15">2</tspan><tspan class="cls-21" x="14.64" y="0">5</tspan><tspan x="29.61" y="0">%</tspan></text><text class="cls-9" transform="translate(183.94 199.93)"><tspan class="cls-22">f</tspan><tspan class="cls-23" x="5.19" y="0">a</tspan><tspan class="cls-24" x="15.46" y="0">c</tspan><tspan x="23.97" y="0">e </tspan><tspan class="cls-20" x="37.65" y="0">t</tspan><tspan x="43.71" y="0">o </tspan><tspan class="cls-22" x="57.56" y="0">f</tspan><tspan x="62.75" y="0">a</tspan><tspan class="cls-24" x="73.02" y="0">c</tspan><tspan class="cls-11" x="81.53" y="0">e</tspan></text><path class="cls-13" d="M254.55,285.77c0-.29.19-7.09-4.1-11a1.19,1.19,0,0,0-1.51-.07c-.19.15-4.7,3.49-9,0a1.18,1.18,0,0,0-1.51,0,11,11,0,0,0-1.3,1.47,14.53,14.53,0,0,0-2.39-2.84,1.17,1.17,0,0,0-1.51-.07c-.29.21-7,5.23-13.44,0a1.17,1.17,0,0,0-1.52,0c-.25.21-6,5.31-6.13,15.35a1.22,1.22,0,0,0,.34.85,1.21,1.21,0,0,0,.84.35h25.95a1.18,1.18,0,0,0,1.18-1.14c0-.1,0-.77-.05-1.8h12.94A1.18,1.18,0,0,0,254.55,285.77Zm-40,1.73a19.66,19.66,0,0,1,4.61-11.73c6.13,4.27,12.38,1.31,14.63,0,3.48,3.74,4.15,9.38,4.27,11.78Zm25.59-2.95a23.5,23.5,0,0,0-1.75-6,13.13,13.13,0,0,1,.95-1.34,9.6,9.6,0,0,0,10.11,0c2,2.34,2.54,5.67,2.67,7.4Z" transform="translate(-3 -110.42)"/><path class="cls-13" d="M242.34,244.08h-9.2V247a2.63,2.63,0,0,0,2.63,2.63h8.17l2.33,2.67a.87.87,0,0,0,.67.3,1,1,0,0,0,.34-.06.9.9,0,0,0,.54-.89l-.16-2h4.2a2.62,2.62,0,0,0,2.62-2.63V236.6a2.62,2.62,0,0,0-2.62-2.62h-5.72v6.3A3.81,3.81,0,0,1,242.34,244.08Zm4-3.75v-4.58h5.51a.86.86,0,0,1,.86.85V247a.87.87,0,0,1-.86.86H246.7a.9.9,0,0,0-.65.28.92.92,0,0,0-.23.67l0,.31-.83-1a.87.87,0,0,0-.66-.3h-8.58a.86.86,0,0,1-.86-.86v-2.76h7.56A3.88,3.88,0,0,0,246.35,240.33Z" transform="translate(-3 -110.42)"/><path class="cls-13" d="M210.41,240.28a3.8,3.8,0,0,0,3.8,3.8h10.2l-.29,3.66a1,1,0,0,0,.63,1,1,1,0,0,0,.39.08,1,1,0,0,0,.77-.36l3.83-4.4h12.6a3.81,3.81,0,0,0,3.8-3.8V225.13a3.8,3.8,0,0,0-3.8-3.8H214.21a3.8,3.8,0,0,0-3.8,3.8Zm2-15.15a1.76,1.76,0,0,1,1.76-1.76h28.13a1.76,1.76,0,0,1,1.76,1.76v15.15a1.76,1.76,0,0,1-1.76,1.76H229.28a1,1,0,0,0-.77.35l-2.11,2.43.13-1.68a1,1,0,0,0-1-1.1h-11.3a1.76,1.76,0,0,1-1.76-1.76Z" transform="translate(-3 -110.42)"/><path class="cls-13" d="M244.31,274.68h0a8.12,8.12,0,1,0-5.74-13.85,8.66,8.66,0,0,0-1.19,1.52,10,10,0,0,0,.06-1.1,11.11,11.11,0,1,0-11.1,11.1h0a11,11,0,0,0,7.84-3.25,11.15,11.15,0,0,0,2-2.78c0,.08,0,.16,0,.25A8.14,8.14,0,0,0,244.31,274.68Zm-4.07-12.18a5.71,5.71,0,0,1,4.07-1.69,5.77,5.77,0,0,1,5.76,5.75,5.77,5.77,0,0,1-5.76,5.76h0a5.75,5.75,0,0,1-4.07-9.82Zm-7.73,4.93a8.67,8.67,0,0,1-6.17,2.56h0a8.76,8.76,0,0,1-8.75-8.73,8.77,8.77,0,0,1,8.75-8.75,8.76,8.76,0,0,1,8.74,8.74A8.66,8.66,0,0,1,232.51,267.43Z" transform="translate(-3 -110.42)"/><text class="cls-14" transform="translate(204.96 225.51)"><tspan class="cls-15">2</tspan><tspan class="cls-21" x="14.64" y="0">5</tspan><tspan x="29.61" y="0">%</tspan></text><path class="cls-25" d="M413.11,233.9a170.4,170.4,0,0,0-120.59-49.8V354.5l-.26.26h.26V355l.26-.26,170.39-.38A170.39,170.39,0,0,0,413.12,233.9" transform="translate(-3 -110.42)"/><path class="cls-13" d="M345.66,247.25a11.27,11.27,0,0,0,8,19.24h0a11.28,11.28,0,1,0-8-19.24Zm16.26,8a8.3,8.3,0,0,1-8.29,8.29h0a8.29,8.29,0,1,1,8.29-8.29Z" transform="translate(-3 -110.42)"/><path class="cls-13" d="M362.18,266.89a1.5,1.5,0,0,0-1.92-.08c-.06.05-6.68,5-12.84,0a1.5,1.5,0,0,0-1.92,0c-.24.22-6,5.34-6.15,15.38a1.5,1.5,0,0,0,1.49,1.52h25.58a1.48,1.48,0,0,0,1.49-1.44C367.93,281.9,368.17,272.38,362.18,266.89ZM342.4,280.76A18.86,18.86,0,0,1,346.65,270c5.38,3.58,11.15,1.88,14.33,0,3,3.44,3.74,8.41,3.9,10.84Z" transform="translate(-3 -110.42)"/><path class="cls-13" d="M338.91,267.17a1.13,1.13,0,0,0,.65-.22h3.5a.89.89,0,0,0,.89-.89v-16.5a.89.89,0,0,0-.89-.89h-1v-10c0-3.55,5-6.38,10.83-6.49,6.43-.12,12.25,2.94,12.25,6.49v10h-1a.88.88,0,0,0-.88.89v16.5a.88.88,0,0,0,.88.89h3.5a1.14,1.14,0,0,0,.66.22A9.35,9.35,0,0,0,371.51,249V238.7c0-7.38-9.21-12.62-18.59-12.83-7.87-.17-17.17,5.45-17.17,12.83V249a9.35,9.35,0,0,0,3.16,18.16ZM369.3,238.7v9.8c-.31,0-.62-.05-.94-.05a1.14,1.14,0,0,0-.66.22h-.31v-10c0-5.18-7.84-9-14.47-8.7s-13.05,3.52-13.05,8.7v10h-.31a1.13,1.13,0,0,0-.65-.22c-.32,0-.63,0-.94.05v-9.8c0-6.2,8.27-10.33,14.95-10.61C360.3,227.78,369.3,232.5,369.3,238.7Zm-4.21,11.75h2.38v14.72h-2.38Zm4.38,14.42V250.76a7.14,7.14,0,0,1,0,14.11Zm-27.3.3h-2.38V250.45h2.38Zm-4.37-14.41v14.11a7.14,7.14,0,0,1,0-14.11Z" transform="translate(-3 -110.42)"/><text class="cls-9" transform="translate(314.68 195.65)">online <tspan class="cls-24" x="51.2" y="0">c</tspan><tspan x="59.7" y="0">ou</tspan><tspan class="cls-24" x="79.04" y="0">r</tspan><tspan class="cls-10" x="84.89" y="0">s</tspan><tspan class="cls-11" x="92.44" y="0">e</tspan></text><text class="cls-14" transform="translate(320.82 226.33)"><tspan class="cls-15">2</tspan><tspan class="cls-16" x="14.64" y="0">5</tspan><tspan x="29.61" y="0">%</tspan></text><g class="cls-26"><path class="cls-27" d="M162.36,379.08a34.26,34.26,0,0,1-2.87,18.49C154.94,407.9,167.1,409.85,163,420c0,0-36.28,1.52-62.34-26.62,0,0,.21-9.8,7.28-10.38,9.9-.8,14.59-9.65,14.59-9.65Z" transform="translate(-3 -110.42)"/><ellipse class="cls-27" cx="141.94" cy="381.07" rx="19.36" ry="20.87" transform="translate(-267.64 262.78) rotate(-68.46)"/><polygon class="cls-28" points="136.95 286.51 128.77 317.2 114.39 311.49 125.81 285.6 136.95 286.51"/><path class="cls-29" d="M124.35,405.61l3.68-7.74,9.68,7.47a16.75,16.75,0,0,1-6.68,1.2A24.67,24.67,0,0,1,124.35,405.61Z" transform="translate(-3 -110.42)"/><path class="cls-29" d="M124.46,390.84A15.49,15.49,0,0,0,125,385c-.28-2.75-1.22-5.66-4.47-5.47-5.53.34-4,9.74.56,12.26,1.33.74,3,.28,3.34-.91Z" transform="translate(-3 -110.42)"/><path class="cls-28" d="M150.58,368.39a23.21,23.21,0,0,0-9.92-4.44c-4.89-.86-11.81-.35-15.84,7.59-6.72,13.23-8.36,22.72-3.43,29.06,3.46,4.44,8.18,6,15.57,4.91,2.76-.4,7.59-3.95,9.25-6.33l4.73-6.61S164.53,379,150.58,368.39Z" transform="translate(-3 -110.42)"/><path class="cls-30" d="M143.27,379.75l-10.5,6s.32,4.66,3.67,5.62l10.47-5.8S146.79,381,143.27,379.75Z" transform="translate(-3 -110.42)"/><path class="cls-30" d="M128.53,373.28l-9.47,6.48s0,4.54,2.9,5.3l9.42-6.24S131.53,374.32,128.53,373.28Z" transform="translate(-3 -110.42)"/><path class="cls-31" d="M133.44,382.84a7,7,0,1,0,9.26-3.61A7,7,0,0,0,133.44,382.84Z" transform="translate(-3 -110.42)"/><path class="cls-31" d="M119.79,376.83c-1.54,3.55-.36,7.51,2.66,8.84s6.7-.48,8.25-4,.36-7.51-2.65-8.84S121.34,373.27,119.79,376.83Z" transform="translate(-3 -110.42)"/><path class="cls-31" d="M133.44,382.84a3.3,3.3,0,0,0-2.74-1.2" transform="translate(-3 -110.42)"/><line class="cls-31" x1="146.63" y1="283.29" x2="143.08" y2="278.59"/><path class="cls-27" d="M147.17,394.82c.34-1.3-.73-12.68,7.91-23.86,0,0,5.14.66,3.46,9.93C155.84,395.76,147.17,394.82,147.17,394.82Z" transform="translate(-3 -110.42)"/><path class="cls-28" d="M143.43,398.42A16.44,16.44,0,0,1,147.8,394c2.41-1.64,5.4-2.84,7.44-.09,3.46,4.68-5.19,9.77-10.28,7.83-1.5-.58-2.26-2.23-1.53-3.31Z" transform="translate(-3 -110.42)"/><path class="cls-32" d="M152.49,397.09c-3.09-2.66-6.62.59-6.62.59" transform="translate(-3 -110.42)"/><path class="cls-27" d="M156.29,372.39s-8.54,4.93-32.2-5.24c0,0,7.29-8.12,20.18-5.39S156.29,372.39,156.29,372.39Z" transform="translate(-3 -110.42)"/><circle class="cls-33" cx="132.25" cy="275.59" r="1.14"/><circle class="cls-33" cx="122.28" cy="273.08" r="1.14"/><path class="cls-34" d="M143.54,377.84a4.62,4.62,0,0,0-4.68-3" transform="translate(-3 -110.42)"/><path class="cls-34" d="M132.82,373.48a3.63,3.63,0,0,0-5-1" transform="translate(-3 -110.42)"/><path class="cls-35" d="M130.86,382.76a16.69,16.69,0,0,1-3.45,4.38c-1.74,1.36,1.3,3.23,1.3,3.23" transform="translate(-3 -110.42)"/><path class="cls-35" d="M135,394.24a5.37,5.37,0,0,1-5.83.68" transform="translate(-3 -110.42)"/><path class="cls-28" d="M132.14,425.69s-30.69,2.34-25-14.62l15.92-6.87,7.66,7.29,3.69,5.06,2.7,9Z" transform="translate(-3 -110.42)"/><path class="cls-36" d="M60.71,659s3.28.7,1.57,6.82-3.85,15.25-3.85,15.25l-3.09-.78L58,669.69,46.09,678l-31.78-8s3.18-5.43,18.1-1.51Z" transform="translate(-3 -110.42)"/><path class="cls-28" d="M51.54,643.29,50.2,656.4,31,668.3l7,1.76a13.56,13.56,0,0,0,9.7-1.19c4-2.15,9.57-5.61,13-9.83l2-7.92s12.84-55.09,18-75.66l-20.64-5.19Z" transform="translate(-3 -110.42)"/><path class="cls-36" d="M108.74,671.13s-3.21-.94-4.61,5.26-3.85,15.25-3.85,15.25l3.09.78,2.69-10.65,6.56,13,31.78,8s-.22-6.28-15.22-9.89Z" transform="translate(-3 -110.42)"/><path class="cls-37" d="M106.6,646.14l2.14,25c1,5.33,4.26,11,6.78,14.8a13.52,13.52,0,0,0,8,5.64l7,1.76-11.23-19.56-.65-23.12,1.8-73.34-23.22-2.54Z" transform="translate(-3 -110.42)"/><path class="cls-38" d="M121.91,481.09l-37-9.54s-15.06,42.77-19.88,61.88c-3.6,14.24-9.66,48-9.66,48l67.87,15.27s3-26.94,2.25-70.43c-.65-38.92-3.61-45.15-3.61-45.15" transform="translate(-3 -110.42)"/><path class="cls-39" d="M110.63,424.43S97.5,439.79,70.78,450.29l-7.31-16.94,47.83-31.2Z" transform="translate(-3 -110.42)"/><path class="cls-28" d="M48.72,398.51l8.72-2,7.25,19.45c-3.16,1.11-7.24,2.2-10.42,3.3Z" transform="translate(-3 -110.42)"/><path class="cls-28" d="M58.94,395.88l1-1.66A16.44,16.44,0,0,0,62,386.9l.23-4.53a1.75,1.75,0,0,0-1.94-1.83h0a2.21,2.21,0,0,0-1.9,1.62l-1.27,4.65-3.8-14.34a1.36,1.36,0,0,0-1.79-1l-.51.19a1.36,1.36,0,0,0-.87,1.48l2.43,10.91L48.1,372a1.35,1.35,0,0,0-1.84-.84l-.37.16a1.34,1.34,0,0,0-.75,1.62l3.39,11-4.4-7.76a1.35,1.35,0,0,0-2.07-.4l-.13.11a1.34,1.34,0,0,0-.38,1.56l4,8.38-3-3.84a1.35,1.35,0,0,0-2.29-.07h0a1.37,1.37,0,0,0-.1,1.33l10,19.27,4.69-2.51A10.55,10.55,0,0,0,58.94,395.88Z" transform="translate(-3 -110.42)"/><path class="cls-39" d="M77.73,440,60.86,400.69l-12.14,5.85,9.33,35.93c1.65,5.82,5.38,9.49,10.8,8.43h0C73.73,449.94,78.65,444.85,77.73,440Z" transform="translate(-3 -110.42)"/><path class="cls-40" d="M92.09,472.1c.64.34,2.22-5.07,2.37-5.78,2.6-12.51,5.13-24.61,11-32.72,3.83-5.3,7.28-10.4,10.1-14.74,4.18-6.44,7-11.27,8.06-13.05a1.08,1.08,0,0,0-.19-1.32h0a5.56,5.56,0,0,0-.67-.53,16.58,16.58,0,0,0-7.61-2.92,3.21,3.21,0,0,0-.62,0c-10,1.08-23.17,26.9-26.3,33.71-2.8,6.1-4.9,32.4-4.26,33.47A6.86,6.86,0,0,0,87.8,471c.09,0,2.5.6,2.57.65Z" transform="translate(-3 -110.42)"/><path class="cls-41" d="M91.23,471.88l.86.22s1.69-1,3.32-10.35c0,0,3.37-16.76,5.62-20,0,0,6.36-15.85,11.56-18.59l-1.77,0a15.7,15.7,0,0,0-6,5.76,85.84,85.84,0,0,0-7.75,19.89C96,453.06,92.09,472.1,91.23,471.88Z" transform="translate(-3 -110.42)"/><path class="cls-42" d="M111.46,424.2s-2.34-8.78-8.57-2.16c0,0,11.61-17.88,17.72-19.4a6.89,6.89,0,0,1,3.79,2.79S114.9,421.42,111.46,424.2Z" transform="translate(-3 -110.42)"/><ellipse class="cls-43" cx="105.9" cy="418.59" rx="0.53" ry="0.44" transform="translate(-294.52 139.38) rotate(-52.79)"/><path class="cls-44" d="M112.15,399.8s5.36.44,7.71,1.94c0,0,1.5,1.29-1.29,1.5l-7.27-1.09S111.08,400.44,112.15,399.8Z" transform="translate(-3 -110.42)"/><ellipse class="cls-45" cx="118.36" cy="402.28" rx="0.44" ry="0.88" transform="translate(-299.47 353.11) rotate(-82.01)"/><path class="cls-43" d="M117.2,400.67a3.68,3.68,0,0,0-.94,2.22l-.71-.1s.29-2,1.12-2.25Z" transform="translate(-3 -110.42)"/><path class="cls-43" d="M113.47,400a6.47,6.47,0,0,0-.5,2.45l-.59-.09s.37-1.69.61-2.42Z" transform="translate(-3 -110.42)"/><path class="cls-43" d="M115.48,400.28a11,11,0,0,0-.61,2.41l-.52-.08.62-2.46Z" transform="translate(-3 -110.42)"/><path class="cls-46" d="M100.51,434.18a11.2,11.2,0,0,1-3,5.61,3.86,3.86,0,0,1-2.78.21s.91.23,3-1.06c1.54-1,2.5-4.83,2.5-4.83Z" transform="translate(-3 -110.42)"/><path class="cls-42" d="M101.38,431.67a28.48,28.48,0,0,1-6.64-2.58,3.1,3.1,0,0,0-1.29,1.5,2.68,2.68,0,0,0,.43,1.92l1.28,2.14c.49.43.64,1.08,2.57.65l1.93-.42a3.1,3.1,0,0,0,1.29-1.5Z" transform="translate(-3 -110.42)"/><path class="cls-40" d="M135.05,413.76c-1.72,3.2-10.08,7.47-21.44,9.16-7.87,1.17-12.35,12.83-14.83,22.65L92.3,471.24s-1.51,6,13.27,8.8l16.5,3.24,0-10.91,16.61-24.9,1.3-29.7-4.95-4Z" transform="translate(-3 -110.42)"/><path class="cls-40" d="M138.59,416.46s14.38,7.53,31,58.33l-17.43,6.09L131.5,440.94Z" transform="translate(-3 -110.42)"/><path class="cls-42" d="M135.71,412.85a5.78,5.78,0,0,1,3.19,3.7s-5.59,11.33-13.53,17.52c0,0,4.1-12.62-11.76-11.15C113.61,422.92,131.64,416.67,135.71,412.85Z" transform="translate(-3 -110.42)"/><circle class="cls-41" cx="103.62" cy="323.93" r="1.32"/><circle class="cls-41" cx="97.81" cy="339.76" r="1.32"/><circle class="cls-41" cx="93.06" cy="354.94" r="1.32"/><path class="cls-44" d="M150.12,428.62l-7.68-11.12a1.49,1.49,0,0,0-.83-.61c-3.38-.94-4.09,1.35-4.24,2.53a1.65,1.65,0,0,0,.26,1.08l6.82,11.37A6.69,6.69,0,0,1,150.12,428.62Z" transform="translate(-3 -110.42)"/><circle class="cls-47" cx="137.51" cy="308.8" r="1.77"/><path class="cls-43" d="M139.82,424.14s3-2.51,5.42-2.59l.51.74s-4.17,1.15-5.41,2.73Z" transform="translate(-3 -110.42)"/><path class="cls-43" d="M141.28,426.58a6.46,6.46,0,0,1,5.59-2.67l.5.73s-4.06.46-5.63,2.71Z" transform="translate(-3 -110.42)"/><path class="cls-43" d="M142.7,429a9.07,9.07,0,0,1,5.6-3l.54.78a8.74,8.74,0,0,0-5.59,3.1Z" transform="translate(-3 -110.42)"/><circle class="cls-43" cx="124.84" cy="319.26" r="1.32"/><polygon class="cls-43" points="111.67 319.13 110.16 321.48 125.79 328.14 126.44 325.58 111.67 319.13"/><path class="cls-46" d="M124.59,444.08l-4.28,9.79c-2.26,2.63-6.57,2.71-7.85,2.67a7.47,7.47,0,0,0,1,.33s5.36.44,7.93-2.55l4.31-9.84Z" transform="translate(-3 -110.42)"/><path class="cls-46" d="M106.49,447.51l4.09-9-.86-.21-4.09,9s.71,6.15,5.31,8.42C106.91,453.08,106.49,447.51,106.49,447.51Z" transform="translate(-3 -110.42)"/><path class="cls-42" d="M111.23,436l15.63,6.66a3.12,3.12,0,0,1-1.72,3.21s-2.15,1.28-8.58,1.48c-.69,0-1.89-1-2.35-1.5L109.29,440A3.45,3.45,0,0,1,111.23,436Z" transform="translate(-3 -110.42)"/><polygon class="cls-43" points="111.02 321.7 109.51 324.05 124.29 330.5 125.15 327.07 111.02 321.7"/><polygon class="cls-48" points="112.51 319.5 111 321.79 114.08 323.12 115.58 320.84 112.51 319.5"/><polygon class="cls-7" points="115.84 320.95 114.41 323.29 115.12 323.66 116.44 321.21 115.84 320.95"/><polygon class="cls-7" points="111.36 322.01 110.06 324.29 111.01 324.7 112.19 322.34 111.36 322.01"/><polygon class="cls-48" points="122.12 323.69 121.02 326.16 125.35 327.95 126 325.38 122.12 323.69"/><polygon class="cls-7" points="124.5 327.69 123.77 330.27 123.37 330.09 124.15 327.54 124.5 327.69"/><polygon class="cls-6" points="117.09 321.5 115.77 323.87 117.72 324.78 118.88 322.28 117.09 321.5"/><polygon class="cls-6" points="112.72 322.67 111.52 324.92 114.51 326.23 115.53 324.01 112.72 322.67"/><polygon class="cls-6" points="123.89 327.43 123.12 329.98 121 329.06 121.93 326.67 123.89 327.43"/><polygon class="cls-7" points="119.27 322.45 118.22 324.9 118.8 325.18 119.87 322.71 119.27 322.45"/><polygon class="cls-7" points="120.41 322.94 119.31 325.37 119.86 325.61 120.86 323.14 120.41 322.94"/><polygon class="cls-7" points="121.35 323.36 120.27 325.8 120.69 325.97 121.75 323.53 121.35 323.36"/><polygon class="cls-7" points="114.77 326.34 115.83 324.1 116.21 324.25 115.18 326.52 114.77 326.34"/><polygon class="cls-7" points="116.52 324.41 115.49 326.66 115.83 326.81 116.89 324.57 116.52 324.41"/><polygon class="cls-6" points="117.21 324.72 116.14 326.94 118.43 327.94 119.27 325.64 117.21 324.72"/><polygon class="cls-7" points="118.66 328.04 119.54 325.72 120.54 326.11 119.6 328.45 118.66 328.04"/><polygon class="cls-7" points="120.85 326.23 119.89 328.58 120.19 328.71 121.16 326.35 120.85 326.23"/><polygon class="cls-7" points="121.4 326.46 120.42 328.81 120.71 328.94 121.64 326.57 121.4 326.46"/><path class="cls-49" d="M121.22,479.43,84.1,468.67a1.1,1.1,0,0,0-1.37.78l-.82,3.26a1.09,1.09,0,0,0,.6,1.26c3.41,1.55,13.21,5.41,34,9.73,1,.21,5.32.59,5.58-.42Z" transform="translate(-3 -110.42)"/><polygon class="cls-43" points="86.95 359.94 85.45 365.88 93.14 368.45 95.37 362.06 86.95 359.94"/><circle class="cls-41" cx="113.14" cy="334.97" r="0.88"/><circle class="cls-41" cx="93.6" cy="323.54" r="0.54"/><polygon points="101.68 332.97 141.56 325.67 143.48 335.24 104.61 341.96 101.68 332.97"/><polygon class="cls-4" points="141.32 331.83 140.26 327.25 102.8 334.41 104.01 339.03 141.32 331.83"/><polygon class="cls-50" points="104.33 336.39 115.22 391.48 154.71 383.56 144.53 328.74 104.33 336.39"/><polygon points="104.33 336.39 101.68 332.97 112.37 387.89 115.22 391.48 104.33 336.39"/><polygon class="cls-4" points="140.2 348.63 115.02 353.43 113.68 346.82 138.86 342.03 140.2 348.63"/><path class="cls-28" d="M106.16,466.23l10.53.26.24-2.3a1.93,1.93,0,0,1,1.52-1.69,1.76,1.76,0,0,1,2,1.07l4.36,11,3.28,8.44c-6.57,1.45-11.92-.41-13.15-2.08l-7.9-1.37a1.46,1.46,0,0,1-1.31-1.55c0-.58.37-1.35,2.05-1.31l-1.68,0a1.51,1.51,0,0,1-1.36-1.65c0-.76.84-1.35,1.89-1.43l-1.22-.16a1.54,1.54,0,0,1-1.37-1.86,1.7,1.7,0,0,1,1.73-1.35l1.86,0-2-.52a1.69,1.69,0,0,1-1.36-2.07A1.86,1.86,0,0,1,106.16,466.23Z" transform="translate(-3 -110.42)"/><polygon class="cls-28" points="121.79 364.13 139.44 363.88 139.65 374.48 121.93 373.03 121.79 364.13"/><path class="cls-40" d="M160,468.89l-31.47,2.61,2.83,14.62,29.5.8a9.05,9.05,0,0,0,9.18-10.17h0A9.07,9.07,0,0,0,160,468.89Z" transform="translate(-3 -110.42)"/></g></svg>