<svg xmlns="http://www.w3.org/2000/svg" xmlns:xlink="http://www.w3.org/1999/xlink" viewBox="0 0 664.2 469.72"><defs><style>.cls-1{isolation:isolate;}.cls-2{opacity:0.5;fill:url(#linear-gradient);}.cls-3{fill:#fafafa;}.cls-21,.cls-22,.cls-4,.cls-51,.cls-52,.cls-61,.cls-63,.cls-68,.cls-69,.cls-7,.cls-74{fill:none;}.cls-4{stroke:#b3b3b3;}.cls-21,.cls-22,.cls-4,.cls-52,.cls-68,.cls-69,.cls-7{stroke-linecap:round;stroke-linejoin:round;}.cls-4,.cls-7{stroke-width:2px;}.cls-5{fill:#b3b3b3;}.cls-6,.cls-9{fill:#e6e6e6;}.cls-7{stroke:#2a246e;}.cls-8{fill:#703e82;}.cls-9{font-size:12px;}.cls-42,.cls-9{font-family:Gilroy-ExtraBold, Gilroy;font-weight:800;}.cls-10{letter-spacing:-0.01em;}.cls-11{letter-spacing:-0.02em;}.cls-12{letter-spacing:0em;}.cls-13{letter-spacing:-0.01em;}.cls-14{letter-spacing:-0.01em;}.cls-15{letter-spacing:0em;}.cls-16{fill:#d72923;}.cls-17{fill:#fec9cf;}.cls-18{fill:#ee84aa;}.cls-19{fill:#ffcad0;}.cls-20{fill:#3b164c;}.cls-21{stroke:#171d51;stroke-width:1.15px;}.cls-22,.cls-69{stroke:#ee84aa;}.cls-22{stroke-width:0.86px;}.cls-23{fill:#511a66;}.cls-24,.cls-42,.cls-50{fill:#fff;}.cls-25{fill:#292c3d;}.cls-26{fill:#4d505e;}.cls-27{fill:#abacb3;opacity:0.55;mix-blend-mode:multiply;}.cls-28{fill:#dd4c47;}.cls-29{fill:#431459;}.cls-30{fill:#d31610;}.cls-31{fill:#ef6060;}.cls-32{fill:#a50e0e;}.cls-33{fill:#24242b;}.cls-34{fill:#af0c0c;}.cls-35{fill:#171d51;}.cls-36{letter-spacing:0em;}.cls-37{letter-spacing:-0.02em;}.cls-38{letter-spacing:-0.02em;}.cls-39{letter-spacing:-0.01em;}.cls-40{letter-spacing:-0.01em;}.cls-41{letter-spacing:-0.03em;}.cls-42{font-size:18px;}.cls-43{letter-spacing:-0.06em;}.cls-44{letter-spacing:-0.02em;}.cls-45{letter-spacing:0em;}.cls-46{letter-spacing:-0.01em;}.cls-47{letter-spacing:-0.02em;}.cls-48{letter-spacing:0.02em;}.cls-49{fill:#edb2bb;}.cls-50{opacity:0.22;}.cls-51{stroke:#d86539;stroke-width:0.72px;}.cls-51,.cls-61,.cls-63,.cls-74{stroke-miterlimit:10;}.cls-52{stroke:#eab2ba;stroke-width:0.45px;}.cls-53{fill:#1e0401;}.cls-54{fill:#ceb5a1;}.cls-55{fill:#c6ab99;}.cls-56{fill:#ceb4a1;}.cls-57{fill:#bca291;}.cls-58{fill:#d3bbab;}.cls-59{fill:#f7c249;}.cls-60{fill:#ddc6ba;}.cls-61,.cls-63{stroke:#f7c249;}.cls-61{stroke-width:0.5px;}.cls-62{fill:#c4ab9b;}.cls-64{fill:#837165;}.cls-65{fill:#132a35;}.cls-66{fill:#eaa344;}.cls-67{fill:#f7f7f7;}.cls-68{stroke:#703e82;}.cls-69{stroke-width:0.75px;}.cls-70{fill:#2c334b;}.cls-71{fill:#efefef;}.cls-72{fill:#dbd9d9;}.cls-73{fill:#2d2d2d;}.cls-74{stroke:#e6e6e6;}.cls-75{fill:#265f66;}.cls-76{fill:#6ca7b5;}.cls-77{fill:#a3d1de;}.cls-78{fill:#2c7277;}.cls-79{fill:#1a1a1a;}.cls-80{fill:#a99b95;}.cls-81{fill:#7f7f7f;}</style><linearGradient id="linear-gradient" x1="71.09" y1="303.86" x2="724.88" y2="303.86" gradientUnits="userSpaceOnUse"><stop offset="0" stop-color="#d31610"/><stop offset="1" stop-color="#511a66"/></linearGradient></defs><g class="cls-1"><g id="Layer_4" data-name="Layer 4"><path class="cls-2" d="M716.94,285c21.84-48.71-1.31-122.84-70.15-138.53-19.76-4.5-35.74.13-54.78,2.69-43.94,5.91-96.48-17.56-135.94-35.69-57.45-26.37-95-34-136.79-41.4-27.88-4.93-93.94-9.47-128.95,34.77-41,51.79-78,49.18-104.94,88.8C40.9,261,116.5,328.41,93.82,375.09c-18.75,38.58-54.89,124.59,45.85,149,82.06,19.93,90.49-36.69,247.87-5.24S653.73,545.11,687.31,498c10.6-14.87,29.74-56.82,5.61-105.5h0C676.81,330.69,702,318.18,716.94,285Z" transform="translate(-60.68 -69)"/><path class="cls-3" d="M240.86,201a3.23,3.23,0,1,1-3.23-3.23A3.22,3.22,0,0,1,240.86,201Z" transform="translate(-60.68 -69)"/><path class="cls-3" d="M256.94,201a3.23,3.23,0,1,1-3.23-3.23A3.23,3.23,0,0,1,256.94,201Z" transform="translate(-60.68 -69)"/><path class="cls-3" d="M273,201a3.23,3.23,0,1,1-3.23-3.23A3.23,3.23,0,0,1,273,201Z" transform="translate(-60.68 -69)"/><path class="cls-4" d="M149.7,247.63H129.61a3.5,3.5,0,0,0-3.49,3.5v8.73a3.49,3.49,0,0,0,3.49,3.49h7.86l6.44,6.44v-6.44h5.79a3.49,3.49,0,0,0,3.49-3.49v-8.73A3.5,3.5,0,0,0,149.7,247.63Z" transform="translate(-60.68 -69)"/><rect class="cls-4" x="443.69" y="360.53" width="6.99" height="6.99"/><rect class="cls-5" x="295.01" y="80.37" width="3.49" height="3.49"/><rect class="cls-5" x="607.2" y="205.32" width="5.19" height="5.19"/><rect class="cls-5" x="64.12" y="255.65" width="2.59" height="2.59"/><rect class="cls-5" x="95.04" y="153.86" width="3.53" height="3.53"/><rect class="cls-4" x="139.67" y="348.71" width="6.99" height="6.99" transform="translate(-194.33 22.59) rotate(-24.61)"/><circle class="cls-4" cx="585.77" cy="240.53" r="7.93"/><path class="cls-4" d="M311.52,152a4.53,4.53,0,1,1-4.53-4.52A4.53,4.53,0,0,1,311.52,152Z" transform="translate(-60.68 -69)"/><path class="cls-4" d="M640.45,239h20.09a3.49,3.49,0,0,1,3.49,3.49v8.74a3.49,3.49,0,0,1-3.49,3.49h-7.86l-6.44,6.44v-6.44h-5.79a3.49,3.49,0,0,1-3.49-3.49v-8.74A3.49,3.49,0,0,1,640.45,239Z" transform="translate(-60.68 -69)"/><path class="cls-6" d="M273,420.36a1.62,1.62,0,1,1-1.61-1.61A1.61,1.61,0,0,1,273,420.36Z" transform="translate(-60.68 -69)"/><path class="cls-6" d="M284.75,420.36a1.61,1.61,0,1,1-1.61-1.61A1.61,1.61,0,0,1,284.75,420.36Z" transform="translate(-60.68 -69)"/><circle class="cls-6" cx="234.19" cy="351.36" r="1.61"/><circle class="cls-6" cx="245.92" cy="351.36" r="1.61"/><path class="cls-6" d="M320,420.36a1.61,1.61,0,1,1-1.61-1.61A1.61,1.61,0,0,1,320,420.36Z" transform="translate(-60.68 -69)"/><path class="cls-6" d="M273,432.09a1.62,1.62,0,1,1-1.61-1.61A1.61,1.61,0,0,1,273,432.09Z" transform="translate(-60.68 -69)"/><path class="cls-6" d="M284.75,432.09a1.61,1.61,0,1,1-1.61-1.61A1.61,1.61,0,0,1,284.75,432.09Z" transform="translate(-60.68 -69)"/><circle class="cls-6" cx="234.19" cy="363.09" r="1.61"/><circle class="cls-6" cx="245.92" cy="363.09" r="1.61"/><path class="cls-6" d="M320,432.09a1.61,1.61,0,1,1-1.61-1.61A1.61,1.61,0,0,1,320,432.09Z" transform="translate(-60.68 -69)"/><path class="cls-6" d="M273,443.83a1.62,1.62,0,0,1-3.23,0,1.62,1.62,0,1,1,3.23,0Z" transform="translate(-60.68 -69)"/><path class="cls-6" d="M284.75,443.83a1.61,1.61,0,1,1-1.61-1.62A1.61,1.61,0,0,1,284.75,443.83Z" transform="translate(-60.68 -69)"/><circle class="cls-6" cx="234.19" cy="374.83" r="1.61"/><circle class="cls-6" cx="245.92" cy="374.83" r="1.61"/><path class="cls-6" d="M320,443.83a1.61,1.61,0,1,1-1.61-1.62A1.61,1.61,0,0,1,320,443.83Z" transform="translate(-60.68 -69)"/><path class="cls-6" d="M273,455.56a1.62,1.62,0,1,1-1.61-1.61A1.61,1.61,0,0,1,273,455.56Z" transform="translate(-60.68 -69)"/><path class="cls-6" d="M284.75,455.56a1.61,1.61,0,1,1-1.61-1.61A1.61,1.61,0,0,1,284.75,455.56Z" transform="translate(-60.68 -69)"/><circle class="cls-6" cx="234.19" cy="386.56" r="1.61"/><circle class="cls-6" cx="245.92" cy="386.56" r="1.61"/><path class="cls-6" d="M320,455.56a1.61,1.61,0,1,1-1.61-1.61A1.61,1.61,0,0,1,320,455.56Z" transform="translate(-60.68 -69)"/><circle class="cls-6" cx="614.65" cy="276.25" r="1.61"/><path class="cls-6" d="M675.34,358.59A1.61,1.61,0,1,1,677,357,1.61,1.61,0,0,1,675.34,358.59Z" transform="translate(-60.68 -69)"/><circle class="cls-6" cx="614.65" cy="299.71" r="1.61"/><circle class="cls-6" cx="614.65" cy="311.45" r="1.61"/><circle class="cls-6" cx="614.65" cy="323.18" r="1.61"/><path class="cls-6" d="M663.6,346.86a1.62,1.62,0,0,1,0-3.23,1.62,1.62,0,1,1,0,3.23Z" transform="translate(-60.68 -69)"/><path class="cls-6" d="M663.6,358.59a1.61,1.61,0,1,1,1.62-1.61A1.61,1.61,0,0,1,663.6,358.59Z" transform="translate(-60.68 -69)"/><path class="cls-6" d="M663.6,370.33a1.62,1.62,0,1,1,1.62-1.62A1.62,1.62,0,0,1,663.6,370.33Z" transform="translate(-60.68 -69)"/><path class="cls-6" d="M663.6,382.06a1.61,1.61,0,1,1,1.62-1.61A1.61,1.61,0,0,1,663.6,382.06Z" transform="translate(-60.68 -69)"/><path class="cls-6" d="M663.6,393.79a1.61,1.61,0,1,1,1.62-1.61A1.61,1.61,0,0,1,663.6,393.79Z" transform="translate(-60.68 -69)"/><circle class="cls-6" cx="591.19" cy="276.25" r="1.61"/><path class="cls-6" d="M651.87,358.59a1.61,1.61,0,1,1,1.61-1.61A1.61,1.61,0,0,1,651.87,358.59Z" transform="translate(-60.68 -69)"/><circle class="cls-6" cx="591.19" cy="299.71" r="1.61"/><circle class="cls-6" cx="591.19" cy="311.45" r="1.61"/><circle class="cls-6" cx="591.19" cy="323.18" r="1.61"/><circle class="cls-6" cx="579.45" cy="276.25" r="1.61"/><path class="cls-6" d="M640.14,358.59a1.61,1.61,0,1,1,1.61-1.61A1.62,1.62,0,0,1,640.14,358.59Z" transform="translate(-60.68 -69)"/><circle class="cls-6" cx="579.45" cy="299.71" r="1.61"/><circle class="cls-6" cx="579.45" cy="311.45" r="1.61"/><circle class="cls-6" cx="579.45" cy="323.18" r="1.61"/><line class="cls-7" x1="34.32" y1="434.45" x2="626.32" y2="434.45"/><path class="cls-8" d="M196.54,156.89H71.11a10.44,10.44,0,0,0-10.43,10.32l.15,21.28a10.28,10.28,0,0,0,10.28,10.28h89.44l19,19v-19h17a11.4,11.4,0,0,0,11-9.58V167.87C206.83,161.49,202.22,156.89,196.54,156.89Z" transform="translate(-60.68 -69)"/><text class="cls-9" transform="translate(8 111.59)">I n<tspan class="cls-10" x="13.36" y="0">ee</tspan><tspan x="27.16" y="0">d </tspan><tspan class="cls-11" x="37.63" y="0">t</tspan><tspan class="cls-12" x="42.05" y="0">o t</tspan><tspan class="cls-13" x="56.78" y="0">r</tspan><tspan class="cls-12" x="61.04" y="0">ain </tspan><tspan class="cls-14" x="81.63" y="0">m</tspan><tspan x="91.75" y="0">y </tspan><tspan class="cls-11" x="101.11" y="0">st</tspan><tspan class="cls-15" x="110.9" y="0">aff</tspan></text><path class="cls-16" d="M207.49,206.72c4.78-1,9.49,2.12,14.36,2.16,1.92,0,3.81-.44,5.73-.5a6.85,6.85,0,0,1,5.33,1.77c1.55,1.66,1.74,4.25,1.47,6.55a22.11,22.11,0,0,1-8.15,14.67c-1.9,1.49-4.21,2.66-6.56,2.38a12.08,12.08,0,0,1-5.14-2.44c-5-3.45-10.41-7.16-13.57-12.64C198.18,213.85,202.71,207.69,207.49,206.72Z" transform="translate(-60.68 -69)"/><path class="cls-16" d="M205.16,246.92s-18.85-17.23-10.68-29.9,16.76.57,16.76.57S214.87,239.32,205.16,246.92Z" transform="translate(-60.68 -69)"/><path class="cls-17" d="M221.39,234.47l-.87,16.8-.25,4.79a7.67,7.67,0,0,1-15.32-.59l.21-8.55.37-14.21Z" transform="translate(-60.68 -69)"/><path class="cls-18" d="M221.39,237.82l-.87,15.82c-7.44.3-12.87-2.72-15.36-6.75l.37-10.83Z" transform="translate(-60.68 -69)"/><path class="cls-19" d="M227.3,224.81a57.35,57.35,0,0,1-.22,11.53c-.89,7-.57,15.24-10.9,15.79-11,.58-14.67-11.75-14.67-11.75s-5.85-1.09-6.25-5,3.69-4.19,5-3.08c0,0,1.51-14.74,15.14-14.74C227.46,217.52,227.3,224.81,227.3,224.81Z" transform="translate(-60.68 -69)"/><path class="cls-20" d="M214.39,236.32a1.09,1.09,0,1,1-1.09-1.09A1.09,1.09,0,0,1,214.39,236.32Z" transform="translate(-60.68 -69)"/><path class="cls-20" d="M224.26,236.32a1.1,1.1,0,1,1-1.09-1.09A1.09,1.09,0,0,1,224.26,236.32Z" transform="translate(-60.68 -69)"/><path class="cls-21" d="M209.32,232.52a4.45,4.45,0,0,1,5.07-1.7" transform="translate(-60.68 -69)"/><path class="cls-21" d="M220.33,230.77a3.48,3.48,0,0,1,4.93.22" transform="translate(-60.68 -69)"/><path class="cls-22" d="M218.14,233.48s1.18,3,2.19,4.89-2,2.71-2,2.71" transform="translate(-60.68 -69)"/><path class="cls-22" d="M214.19,244.45a5.16,5.16,0,0,0,5.56.92" transform="translate(-60.68 -69)"/><path class="cls-22" d="M201.39,237.56s0-3.4-2.57-2.47" transform="translate(-60.68 -69)"/><path class="cls-16" d="M201,233.38s8.54-3.77,6.37-13.44c0,0-5.66-8.72-10.5-5.53S201,233.38,201,233.38Z" transform="translate(-60.68 -69)"/><path class="cls-16" d="M214.2,221.09c2.49.57,4.61,2.4,6.9,3.71s5.11,2,7.28.48c2-1.43,2.77-4.54,2.22-7.19a10.08,10.08,0,0,0-4.24-6.18,17.42,17.42,0,0,0-6.57-2.45,21.68,21.68,0,0,0-9-.2c-2.64.6-10.09,4.24-8.56,8.86.58,1.75,3,2.25,4.34,2.56C209.09,221.25,211.68,220.51,214.2,221.09Z" transform="translate(-60.68 -69)"/><polygon class="cls-17" points="172.04 380.51 174.32 402.43 164.99 402.43 161.83 380.54 172.04 380.51"/><path class="cls-23" d="M224.66,466.85s-4,6.54-1,7.7,23.06,1.27,28,.53-11-7.51-14.67-8.57S232.14,471,224.66,466.85Z" transform="translate(-60.68 -69)"/><polygon class="cls-17" points="132.47 378.56 133.54 401.78 144.79 402.57 142.85 380.51 132.47 378.56"/><path class="cls-23" d="M205.22,466.2s4.05,6.54,1,7.71-23.06,1.27-28,.53,11-7.52,14.68-8.57S197.73,470.36,205.22,466.2Z" transform="translate(-60.68 -69)"/><path class="cls-19" d="M277.48,270.93s2.35-3.95,4.22-7.6c.67-1.31-2.27-8-2.27-9.08,0-1.95,1.28-3.28,1.95-1.95,2.59,5.19,3,5.06,3.28,4.46,2.44-5.43,7-14.35,8.61-13.18,2,1.43-3.63,12.86-3.63,12.86s5-14.31,7.67-13.52-4.6,14.13-4.6,14.13,6-12.57,7.56-11.35.34,4-4.82,13.3c0,0,4.4-8,6.06-6.11s-3.7,9.2-5.65,10.93c-.41.37-3.45,4.05-6.7,5.35-3.82,1.52-4.55,6.24-5.19,7.13C284,276.3,277.58,274.22,277.48,270.93Z" transform="translate(-60.68 -69)"/><path class="cls-19" d="M149.38,264.65s-2.55-5.09-2.55-6.57.74-3.08.8-5.11,2.77-6.71,2.18-8-2.24-1-3.84,2.18-1.06,5.17-2.34,4.27a35.34,35.34,0,0,1-5.44-6.51c-1-1.65-4.21-4.9-5.06-4.37s-1.09,1.39,4.57,9.38c0,0-6.41-9.62-8.3-7.88-1.32,1.21,4.95,8.25,5.85,9.37,0,0-5.8-7.28-7.53-5.56s6.36,7.67,6.36,7.67-6-4.72-6.76-3.33,2.67,4.45,6.08,6.37,4.28,2.42,5.15,3.7a66.38,66.38,0,0,1,3,6.4S147,268,149.38,264.65Z" transform="translate(-60.68 -69)"/><path class="cls-24" d="M223.87,253.35l-11.23,6.07-8.72-5.24a79.62,79.62,0,0,0-3.16,28.48c1.27,15.13,3.73,26,14,11.93S228.75,258.25,223.87,253.35Z" transform="translate(-60.68 -69)"/><path class="cls-24" d="M223.87,253.35l-11.23,6.07-8.72-5.24a79.62,79.62,0,0,0-3.16,28.48c1.27,15.13,3.73,26,14,11.93S228.75,258.25,223.87,253.35Z" transform="translate(-60.68 -69)"/><path class="cls-25" d="M210.53,266.35s-6,32.63-5.51,33.25c.33-.41,4,8.85,6.12,0,1.65-6.88,1.85-32.5,2.11-32.81,0,0,3.15-3.39,5-5.06q1.8-1.64,3.5-3.37a18.09,18.09,0,0,0,.82-1.65c-.16.39-.32.78-.49,1.17a26.66,26.66,0,0,1,2.37-3.8,4.29,4.29,0,0,0-.57-.73l-11.23,6.07-8.72-5.24s-.26.79-.63,2.16a44.31,44.31,0,0,1,2.46,3.81C206.67,261.73,210.53,266.35,210.53,266.35Z" transform="translate(-60.68 -69)"/><path class="cls-25" d="M187.52,314.08l34.43-.65s5.24,8.58,6.41,33.36c.81,17,1.5,21.65,3.19,44.08,1.14,15.22,6.54,73.56,6.54,73.56h-18.3s-7.74-66.58-8.14-70.2c-.14-1.28-4.67-36.48-4.67-36.48s.74,31.88.74,35.59.8,69.21.8,69.21H189.25s-2.17-55.7-2.35-68.44C186.6,373.47,184.84,320.74,187.52,314.08Z" transform="translate(-60.68 -69)"/><path class="cls-26" d="M200.72,254.82c-3.07.63-7.73,1.63-11.12,2.54a3.19,3.19,0,0,0-2.38,3.21c.22,6.78.51,25.53-2.95,31.94a3.13,3.13,0,0,0-.38,1.41l-2,56.35a3.2,3.2,0,0,0,3.87,3.26c7.45-1.58,22.74-7.87,23.39-32.82.69-27.09.79-33,.79-34.21a2.56,2.56,0,0,0-.05-.62l-5.39-28.5A3.22,3.22,0,0,0,200.72,254.82Z" transform="translate(-60.68 -69)"/><path class="cls-25" d="M207.67,290a1,1,0,1,1-1-1A1,1,0,0,1,207.67,290Z" transform="translate(-60.68 -69)"/><path class="cls-25" d="M207,300a1,1,0,1,1-1-1A1,1,0,0,1,207,300Z" transform="translate(-60.68 -69)"/><path class="cls-25" d="M206.37,310a1,1,0,1,1-1-1A1,1,0,0,1,206.37,310Z" transform="translate(-60.68 -69)"/><path class="cls-25" d="M205.72,320a1,1,0,1,1-2,0,1,1,0,0,1,2,0Z" transform="translate(-60.68 -69)"/><path class="cls-26" d="M240.4,261.08l-16.53-7.73L210,286.17l-3,38.35s-3.68,22.94,8.19,27.68c9.73,3.89,11.06,3.93,16,2.81a6,6,0,0,0,4.71-6.12l-2.15-56.67S233.58,269.57,240.4,261.08Z" transform="translate(-60.68 -69)"/><path class="cls-26" d="M286.66,274.77l-10-7.25S258.1,296.8,257,295.91s-9.91-31.69-16.63-34.83c0,0-3.39,2.43-5.32,9.53-1.38,5-1.57,13.13-1.28,21.12,0,0,17.48,25.89,23.66,25S286.66,274.77,286.66,274.77Z" transform="translate(-60.68 -69)"/><path class="cls-26" d="M151.19,261.08l-11.34,4.52s15.52,56.11,24.47,51.18,20.85-22.4,20.85-22.4a41.67,41.67,0,0,0,4.6-14c1.15-7.49.44-17.77-1.36-22.34,0,0-7.89,4.8-14.49,18s-8.63,17-9.22,16.15S151.19,261.08,151.19,261.08Z" transform="translate(-60.68 -69)"/><path class="cls-27" d="M203.38,256c-.08.29,2.94,10.82,2.94,10.82l6.32-4.74,5.39,5,5.68-12-.93-1.18L216,257.6l-3.36,3-7.4-5.65-.44-.26Z" transform="translate(-60.68 -69)"/><polygon class="cls-24" points="151.96 189.57 144.16 183.62 142.27 185.37 145.29 196.06 151.96 191.06 157.96 196.68 163.82 184.49 159.92 183.15 151.96 189.57"/><path class="cls-28" d="M485.16,233.72s3.16-7.82,14.53-8.39c8.16-.41,15.6,4.38,16.17,14,.61,10.18-2.37,9.39,6,12.39s-3.1,14.45,5.16,15.86,8.73,13.6-1.78,17-44.39,1.58-45.89-5.36,8.56-16.16,5.92-21.79S479.62,238.13,485.16,233.72Z" transform="translate(-60.68 -69)"/><path class="cls-19" d="M475.19,300.63l-3.42,9.61s-11.45-22.11-12-24.08.07-11.32,0-12.37a2.1,2.1,0,0,0-2.24,2,12.23,12.23,0,0,0,0,3.1s-4-2.24-5.79-3.16a58.58,58.58,0,0,0-9.93-3.42s-1.52.59.85,2.37,7.37,10.46,9.21,11.18,12.11,32.77,15.6,37.57,10.4,4.08,13.36-3.35a134.25,134.25,0,0,0,5.19-18Z" transform="translate(-60.68 -69)"/><path class="cls-29" d="M482.6,273.44a147.31,147.31,0,0,0-11.24,31.67s1.1,6,14.61,6.14C486,311.25,496.7,280.73,482.6,273.44Z" transform="translate(-60.68 -69)"/><polygon class="cls-17" points="427.72 379.81 425.88 402.16 435.41 402.16 439.53 378.41 427.72 379.81"/><path class="cls-30" d="M497.13,466.48s4.14,7.52,1,8.71-23.54.46-28.59-.3,11.26-7.67,15-8.75S489.49,470.73,497.13,466.48Z" transform="translate(-60.68 -69)"/><polygon class="cls-17" points="477.82 379.81 479.65 402.16 470.13 402.16 465.18 379.81 477.82 379.81"/><path class="cls-30" d="M529.77,466.73s-2.41,5.89.7,7.08,13,2.4,18,1.56c6.55-1.09-4-7.9-7.7-9S532,469.72,529.77,466.73Z" transform="translate(-60.68 -69)"/><path class="cls-31" d="M486,326.63l-4.32,134h20.12l4.34-89.24,17.24,91.79,21.91-3.65s-19.79-100.13-23.15-132.88Z" transform="translate(-60.68 -69)"/><path class="cls-23" d="M501.57,264.6s-9,2-14.07,4.92-6.47,4.79-6.9,11.4-3.17,17.17,1,20.41,4.91,11.4,3.92,17.87-1.84,10.43-.79,13.75c1.29,4.1,9.7,4.86,22.7,4.31,13.41-.56,19.75-1.92,15.95-11.91s5.17-48.09,3.48-50.76S512.55,264.17,501.57,264.6Z" transform="translate(-60.68 -69)"/><path class="cls-19" d="M434.88,179.88h11.54a0,0,0,0,1,0,0v18.86a4.59,4.59,0,0,1-4.59,4.59h-2.36a4.59,4.59,0,0,1-4.59-4.59V179.88A0,0,0,0,1,434.88,179.88Z"/><path class="cls-18" d="M495.57,264.83s4.67,1,11.54-2.73V255l-11.55,7.63S495.57,264,495.57,264.83Z" transform="translate(-60.68 -69)"/><path class="cls-19" d="M487.25,237.44s-2.12,26.86,8.18,26.86c11.3,0,13-10.38,13-10.38s3.78-2.13,2.93-4.54c-.61-1.71-2.45-.71-2.45-.71S513.9,232.75,487.25,237.44Z" transform="translate(-60.68 -69)"/><path class="cls-28" d="M486.75,235.64s1.9,10.89,10.88,9.19,6.84,4.94,11.06,3.84c0,0,10.35-6.68,2.54-13.41S491.54,230.24,486.75,235.64Z" transform="translate(-60.68 -69)"/><path class="cls-19" d="M492.71,267.18s2.13,6.56,6.2,7.78c0,0,6.42-.62,11.53-9.22,0,0-5.78-1.6-9.72-1.16C500.72,264.58,495.86,265.9,492.71,267.18Z" transform="translate(-60.68 -69)"/><path class="cls-29" d="M521.71,285.38s-4.28,17.33.74,32.61l2-36.9Z" transform="translate(-60.68 -69)"/><path class="cls-32" d="M507,313.33h-8.93a2.18,2.18,0,0,1-2.1-1.6l-5-17.87a2.19,2.19,0,0,1,2.1-2.77H502a2.17,2.17,0,0,1,2.1,1.6l5,17.87A2.18,2.18,0,0,1,507,313.33Z" transform="translate(-60.68 -69)"/><path class="cls-30" d="M505.86,313.33h-8.93a2.18,2.18,0,0,1-2.1-1.6l-5-17.87a2.19,2.19,0,0,1,2.1-2.77h8.93a2.17,2.17,0,0,1,2.1,1.6l5,17.87A2.18,2.18,0,0,1,505.86,313.33Z" transform="translate(-60.68 -69)"/><path class="cls-33" d="M502,297.54h-1.51a.38.38,0,0,1-.37-.28L499,293.17a.38.38,0,0,1,.36-.48h1.52a.38.38,0,0,1,.36.28l1.12,4.09A.38.38,0,0,1,502,297.54Z" transform="translate(-60.68 -69)"/><path class="cls-19" d="M522.76,292.37s4.47,28.13,6,33.44c1,3.43,8,5.78,10.23,1.24.49-1,.37-2.67.32-4.37-.34-10.49-6.11-32.87-6.11-32.87Z" transform="translate(-60.68 -69)"/><path class="cls-19" d="M531.2,317.28s-15-6-17.21-9.55c-3.07-4.86-4.66-4.24-6.89-6.16-3.57-3.08-3.54-2-3.54-2s-1,2.46,2,4.36c1.51,1,3,1.72,2.32,1.86,0,0-12.88-3.65-15.55-4.72s-1.56,2.07.17,3.51c0,0,.22,2.66,2.32,3.16,0,0-1.29.91,3.59,3.38s11,.59,12.87,3,10.9,11.81,20,14.9c4.34,1.48,6.28,0,7.32-2C540.38,323.38,536.86,320.6,531.2,317.28Z" transform="translate(-60.68 -69)"/><path class="cls-23" d="M526.91,274.59s-9.53,8.3-4.74,32.09a14.2,14.2,0,0,0,15.05-3.24S536.06,284.44,526.91,274.59Z" transform="translate(-60.68 -69)"/><polygon class="cls-34" points="445.42 302.37 440.04 282.18 444.53 320.67 445.42 302.37"/><circle class="cls-35" cx="437.42" cy="182.49" r="0.84"/><circle class="cls-35" cx="429.84" cy="182.49" r="0.84"/><path class="cls-21" d="M501.15,249.05a3.39,3.39,0,0,0-3.88-1.3" transform="translate(-60.68 -69)"/><path class="cls-21" d="M492.71,247.87a2.67,2.67,0,0,0-3.79.16" transform="translate(-60.68 -69)"/><path class="cls-22" d="M494.38,249.94a12.31,12.31,0,0,1-1.67,3.76c-1,1.29,1.51,2.08,1.51,2.08" transform="translate(-60.68 -69)"/><path class="cls-22" d="M499.41,257.42a4,4,0,0,1-4.05,1.53" transform="translate(-60.68 -69)"/><path class="cls-22" d="M508.47,251.53s0-2.12,2-1.4" transform="translate(-60.68 -69)"/><path class="cls-34" d="M480.18,457.46l.3,2.87a1.32,1.32,0,0,0,1.31,1.18h19.73a1.32,1.32,0,0,0,1.31-1.21l.21-2.42a1.31,1.31,0,0,0-1.28-1.43L481.52,456A1.31,1.31,0,0,0,480.18,457.46Z" transform="translate(-60.68 -69)"/><path class="cls-34" d="M521.77,459.46l.72,3.5a.93.93,0,0,0,1.06.73L545,460.13a.93.93,0,0,0,.77-1l-.49-3.81a.92.92,0,0,0-1.08-.79l-21.68,3.85A.93.93,0,0,0,521.77,459.46Z" transform="translate(-60.68 -69)"/><path class="cls-23" d="M511.18,169.35H657.49a8.36,8.36,0,0,1,8.37,8.36V209.9a8.36,8.36,0,0,1-8.37,8.36h-117L525,233.68V218.26H511.18a8.36,8.36,0,0,1-8.37-8.36V177.71A8.36,8.36,0,0,1,511.18,169.35Z" transform="translate(-60.68 -69)"/><text class="cls-9" transform="translate(457.96 120.45)">“I n<tspan class="cls-36" x="19.24" y="0">ee</tspan><tspan x="33.04" y="0">d </tspan><tspan class="cls-37" x="43.51" y="0">t</tspan><tspan x="47.93" y="0">o </tspan><tspan class="cls-38" x="58.01" y="0">c</tspan><tspan x="64.2" y="0">ommuni</tspan><tspan class="cls-38" x="108.86" y="0">c</tspan><tspan x="115.05" y="0">a</tspan><tspan class="cls-37" x="122.53" y="0">t</tspan><tspan x="126.95" y="0">e </tspan><tspan x="0" y="14.4">wi</tspan><tspan class="cls-39" x="12.36" y="14.4">t</tspan><tspan x="16.9" y="14.4">h c</tspan><tspan class="cls-40" x="33.26" y="14.4">u</tspan><tspan class="cls-37" x="40.2" y="14.4">st</tspan><tspan x="49.99" y="14.4">ome</tspan><tspan class="cls-13" x="74.27" y="14.4">r</tspan><tspan class="cls-41" x="78.53" y="14.4">s</tspan><tspan x="83.78" y="14.4">”</tspan></text><text class="cls-42" transform="translate(109.61 73.89)"><tspan class="cls-43">W</tspan><tspan x="16.88" y="0">e find out </tspan><tspan class="cls-44" x="100.89" y="0">y</tspan><tspan class="cls-45" x="110.07" y="0">our n</tspan><tspan class="cls-46" x="152.84" y="0">eed</tspan><tspan x="184.66" y="0">s</tspan></text><path class="cls-23" d="M386.3,115.42H561.46a9.94,9.94,0,0,1,9.93,9.93V146.7a9.93,9.93,0,0,1-9.93,9.93H421.05l-18.12,33.05-.19-33.05H386.3a9.93,9.93,0,0,1-9.93-9.93V125.35A9.94,9.94,0,0,1,386.3,115.42Z" transform="translate(-60.68 -69)"/><text class="cls-9" transform="translate(326.56 69.58)">“I <tspan class="cls-37" x="12.24" y="0">w</tspan><tspan x="21.24" y="0">ant </tspan><tspan class="cls-37" x="43.37" y="0">t</tspan><tspan x="47.78" y="0">o d</tspan><tspan class="cls-47" x="65.34" y="0">ev</tspan><tspan x="78.3" y="0">elop </tspan><tspan class="cls-39" x="105.93" y="0">m</tspan><tspan x="116.05" y="0">y </tspan><tspan class="cls-37" x="125.41" y="0">t</tspan><tspan class="cls-40" x="129.83" y="0">e</tspan><tspan x="136.73" y="0">a</tspan><tspan class="cls-36" x="144.2" y="0">c</tspan><tspan x="150.51" y="0">he</tspan><tspan class="cls-48" x="164.47" y="0">r</tspan><tspan x="169.15" y="0">”</tspan></text><path class="cls-29" d="M409.32,221.51a27.31,27.31,0,0,1,1.38,14.83c-1.5,8.86,8.26,8,7.09,16.59,0,0-27.66,8.21-53.22-8.44,0,0-1.75-7.6,3.59-9.42,7.48-2.55,9.37-10.28,9.37-10.28Z" transform="translate(-60.68 -69)"/><ellipse class="cls-29" cx="393.97" cy="227.02" rx="15.4" ry="16.59" transform="translate(55.2 517.77) rotate(-82.25)"/><polygon class="cls-19" points="334.84 170.65 334.5 195.92 322.31 194.3 326.07 172.11 334.84 170.65"/><path class="cls-49" d="M385.19,249.37l1.33-6.69,8.91,3.89a13.23,13.23,0,0,1-4.92,2.22A19.14,19.14,0,0,1,385.19,249.37Z" transform="translate(-60.68 -69)"/><path class="cls-49" d="M382.4,238a12.34,12.34,0,0,0-.71-4.64c-.75-2.08-2-4.14-4.5-3.36-4.2,1.34-1.17,8.29,2.81,9.35a1.8,1.8,0,0,0,2.4-1.35Z" transform="translate(-60.68 -69)"/><path class="cls-19" d="M398.17,215.56a18.48,18.48,0,0,0-8.52-1.51c-3.93.29-9.16,2-10.73,8.94-2.61,11.51-2,19.16,3,23.09,3.53,2.76,7.47,3,13,.77,2-.85,5.08-4.52,5.9-6.68l2.35-6S411,221,398.17,215.56Z" transform="translate(-60.68 -69)"/><path class="cls-50" d="M394.74,225.74l-6.92,6.7s1.16,3.54,3.92,3.63l6.94-6.51S397.7,226,394.74,225.74Z" transform="translate(-60.68 -69)"/><path class="cls-50" d="M382.12,223.61l-6,6.84s.91,3.49,3.26,3.53l6.06-6.65S384.63,223.83,382.12,223.61Z" transform="translate(-60.68 -69)"/><path class="cls-51" d="M387.77,230a5.59,5.59,0,1,0,6.43-4.58A5.59,5.59,0,0,0,387.77,230Z" transform="translate(-60.68 -69)"/><path class="cls-51" d="M376.08,228.05c-.5,3,1.18,5.86,3.76,6.3s5.08-1.67,5.58-4.71-1.18-5.87-3.76-6.31S376.58,225,376.08,228.05Z" transform="translate(-60.68 -69)"/><path class="cls-51" d="M387.77,230a2.65,2.65,0,0,0-2.35-.39" transform="translate(-60.68 -69)"/><line class="cls-51" x1="341.67" y1="166.28" x2="338.02" y2="163.35"/><path class="cls-29" d="M400.67,236.61c0-1.06-3-9.64,1.46-20,0,0,4.09-.49,4.6,7C407.54,235.66,400.67,236.61,400.67,236.61Z" transform="translate(-60.68 -69)"/><path class="cls-19" d="M398.49,240.12a13.21,13.21,0,0,1,2.51-4.27c1.54-1.73,3.61-3.24,5.71-1.52,3.58,2.95-2.09,8.56-6.4,8-1.26-.15-2.17-1.28-1.82-2.25Z" transform="translate(-60.68 -69)"/><path class="cls-52" d="M405.22,237.33c-2.9-1.45-5,1.75-5,1.75" transform="translate(-60.68 -69)"/><path class="cls-29" d="M403.34,217.54s-5.62,5.46-25.84,2.2c0,0,4-7.68,14.51-8.07S403.34,217.54,403.34,217.54Z" transform="translate(-60.68 -69)"/><circle class="cls-35" cx="329.09" cy="163.13" r="0.9"/><circle class="cls-35" cx="320.92" cy="163.13" r="0.9"/><path class="cls-21" d="M394.58,224.21a3.69,3.69,0,0,0-4.2-1.41" transform="translate(-60.68 -69)"/><path class="cls-21" d="M385.47,222.93a2.89,2.89,0,0,0-4.09.18" transform="translate(-60.68 -69)"/><path class="cls-22" d="M385.76,230.47a13.14,13.14,0,0,1-1.81,4.05c-1.08,1.39,1.63,2.24,1.63,2.24" transform="translate(-60.68 -69)"/><path class="cls-22" d="M391.18,238.53a4.28,4.28,0,0,1-4.37,1.66" transform="translate(-60.68 -69)"/><path class="cls-19" d="M395.09,263.36s-23.19,7.76-22.07-6.44l10.92-8.39,7.33,4.14,3.82,3.19,3.83,6.4Z" transform="translate(-60.68 -69)"/><path class="cls-53" d="M385.42,457.32s2.66-.1,2.53,4.95,0,12.52,0,12.52h-2.53v-8.74l-7.58,8.74h-26s1.39-4.8,13.66-4.68Z" transform="translate(-60.68 -69)"/><path class="cls-19" d="M375.28,446.94l1.52,10.38-12.46,12.9h5.73a10.74,10.74,0,0,0,7.25-2.8c2.68-2.43,6.28-6.18,8.1-10.1v-6.5s-.81-45-.82-61.89H367.68Z" transform="translate(-60.68 -69)"/><path class="cls-53" d="M424.79,457.32s-2.66-.1-2.53,4.95,0,12.52,0,12.52h2.53v-8.74l7.58,8.74h26.05s-1.4-4.8-13.66-4.68Z" transform="translate(-60.68 -69)"/><path class="cls-17" d="M418.28,438.45l6.51,18.87c1.81,3.92,5.42,7.67,8.1,10.1a10.71,10.71,0,0,0,7.24,2.8h5.73l-12.45-12.9-5-17.73-12.87-56.95-18.39,2.56Z" transform="translate(-60.68 -69)"/><path class="cls-54" d="M398,308.09l-30.35-.17s-3.29,35.93-3.29,51.61c0,11.69,1.89,38.9,1.89,38.9l55.28-1.4s-3-21.37-12-54.79C401.47,312.33,398,308.09,398,308.09" transform="translate(-60.68 -69)"/><path class="cls-55" d="M378.27,266.56s-7.13,14.41-25.69,27.7l-8.92-11.65,30.79-33.37Z" transform="translate(-60.68 -69)"/><path class="cls-19" d="M325.51,258.58l6.33-3.26,9.37,13.6c-2.22,1.48-5.15,3.1-7.39,4.57Z" transform="translate(-60.68 -69)"/><path class="cls-19" d="M332.88,254.57l.41-1.47a13.11,13.11,0,0,0,.23-6.07l-.7-3.54a1.39,1.39,0,0,0-1.85-1h0a1.79,1.79,0,0,0-1.15,1.63l-.08,3.83L324,237.59a1.08,1.08,0,0,0-1.57-.39l-.35.24a1.08,1.08,0,0,0-.38,1.31l4,7.95-5.85-8.5a1.07,1.07,0,0,0-1.58-.29l-.25.2a1.07,1.07,0,0,0-.26,1.4l4.74,7.8-4.9-5.13a1.07,1.07,0,0,0-1.67.09l-.08.11a1.07,1.07,0,0,0,0,1.27l4.71,5.7L317.5,247a1.07,1.07,0,0,0-1.78.39h0a1.06,1.06,0,0,0,.18,1l11.43,12.94,3.12-2.85A8.41,8.41,0,0,0,332.88,254.57Z" transform="translate(-60.68 -69)"/><path class="cls-55" d="M355.94,284.94l-20.64-27-8.22,6.87,14.17,25.92c2.41,4.17,6,6.29,10,4.41h0C354.79,293.41,357.59,288.53,355.94,284.94Z" transform="translate(-60.68 -69)"/><path class="cls-56" d="M373.25,307c.56.14.73-4.34.7-4.92-.43-10.16-.83-20,2.11-27.38,1.92-4.83,3.58-9.44,4.91-13.34,2-5.78,3.22-10.06,3.67-11.63a.86.86,0,0,0-.4-1h0a4.91,4.91,0,0,0-.62-.28,13.19,13.19,0,0,0-6.43-.77,3.74,3.74,0,0,0-.48.12c-7.46,2.77-12.62,25.26-13.71,31.13-1,5.25,2.52,25.95,3.23,26.65a5.39,5.39,0,0,0,3.51,1.41c.07,0,2,0,2.1,0Z" transform="translate(-60.68 -69)"/><path class="cls-57" d="M372.55,307h.7s1.1-1.11.55-8.63c0,0-.67-13.59.44-16.53,0,0,1.82-13.46,5.29-16.59l-1.37.32a12.52,12.52,0,0,0-3.51,5.62,68.37,68.37,0,0,0-2.1,16.85C372.55,291.5,373.25,307,372.55,307Z" transform="translate(-60.68 -69)"/><path class="cls-58" d="M378.87,266.22s-3.51-6.32-7,0c0,0,5.47-16.05,9.88-18.41a5.44,5.44,0,0,1,3.47,1.42S381,263.41,378.87,266.22Z" transform="translate(-60.68 -69)"/><ellipse class="cls-59" cx="373.49" cy="262.97" rx="0.42" ry="0.35" transform="translate(-74.59 436) rotate(-67.14)"/><path class="cls-60" d="M374.65,247.26s4.22-.7,6.32,0c0,0,1.41.7-.7,1.41l-5.82.57S374,248,374.65,247.26Z" transform="translate(-60.68 -69)"/><ellipse class="cls-61" cx="379.92" cy="247.96" rx="0.7" ry="0.35" transform="translate(-84.99 -27.01) rotate(-6.13)"/><path class="cls-59" d="M378.71,247a2.9,2.9,0,0,0-.29,1.9l-.56.05s-.16-1.56.42-2Z" transform="translate(-60.68 -69)"/><path class="cls-59" d="M375.7,247.12a5.29,5.29,0,0,0,.09,2l-.47.05s0-1.38,0-2Z" transform="translate(-60.68 -69)"/><path class="cls-59" d="M377.31,247a8.52,8.52,0,0,0,0,2l-.42,0v-2Z" transform="translate(-60.68 -69)"/><path class="cls-62" d="M372.36,276.05a8.92,8.92,0,0,1-1.22,4.92,3.07,3.07,0,0,1-2.1.7s.74,0,2.1-1.4c1-1,1-4.22,1-4.22Z" transform="translate(-60.68 -69)"/><path class="cls-58" d="M372.55,274a22.38,22.38,0,0,1-5.62-.71,2.49,2.49,0,0,0-.7,1.41,2.17,2.17,0,0,0,.7,1.4l1.4,1.41c.47.23.71.7,2.11,0l1.4-.71a2.43,2.43,0,0,0,.71-1.4Z" transform="translate(-60.68 -69)"/><path class="cls-56" d="M395,253.58c-.7,2.81-6.32,7.73-14.75,11.24-5.84,2.43-7,12.3-7,20.36v21.07s0,4.91,11.94,4.21l13.34-.7-2.11-8.43,8-22.44-4.78-23.17L395,253.58Z" transform="translate(-60.68 -69)"/><path class="cls-56" d="M398.27,255s12.55,3,35.24,39l-12.25,8.09-23.7-26.81Z" transform="translate(-60.68 -69)"/><path class="cls-58" d="M395.34,252.75a4.64,4.64,0,0,1,3.19,2.24s-2.11,9.83-7,16.15c0,0,.7-10.54-11.24-6.32C380.27,264.82,393,256.5,395.34,252.75Z" transform="translate(-60.68 -69)"/><circle class="cls-57" cx="316.43" cy="206" r="1.05"/><circle class="cls-57" cx="315.02" cy="219.34" r="1.05"/><circle class="cls-57" cx="314.32" cy="231.98" r="1.05"/><path class="cls-60" d="M409.52,262.13l-8.08-7.1a1.26,1.26,0,0,0-.76-.31c-2.79-.06-2.89,1.85-2.77,2.78a1.3,1.3,0,0,0,.41.79l7.46,7.45A5.34,5.34,0,0,1,409.52,262.13Z" transform="translate(-60.68 -69)"/><circle class="cls-63" cx="339.6" cy="187.74" r="1.4"/><path class="cls-59" d="M400.71,260.67s1.81-2.52,3.68-3.05l.53.47s-3,1.7-3.64,3.16Z" transform="translate(-60.68 -69)"/><path class="cls-59" d="M402.31,262.27a5.13,5.13,0,0,1,3.79-3.15l.53.47s-3,1.14-3.82,3.19Z" transform="translate(-60.68 -69)"/><path class="cls-59" d="M403.86,263.82a7.22,7.22,0,0,1,3.75-3.37l.57.5a6.94,6.94,0,0,0-3.71,3.47Z" transform="translate(-60.68 -69)"/><circle class="cls-59" cx="331.88" cy="198.27" r="1.05"/><polygon class="cls-59" points="321.69 200.73 320.99 202.84 334.33 204.95 334.33 202.84 321.69 200.73"/><path class="cls-62" d="M392.85,279l-1.4,8.4c-1.23,2.46-4.53,3.36-5.53,3.58a5.87,5.87,0,0,0,.85.06s4.21-.7,5.62-3.51l1.4-8.43Z" transform="translate(-60.68 -69)"/><path class="cls-62" d="M379.57,285.18l1.4-7.72h-.7l-1.4,7.72s1.74,4.61,5.73,5.47C381,289.39,379.57,285.18,379.57,285.18Z" transform="translate(-60.68 -69)"/><path class="cls-58" d="M381,275.35l13.35,2.11a2.48,2.48,0,0,1-.71,2.81s-1.4,1.4-6.32,2.8a3.65,3.65,0,0,1-2.1-.7l-4.92-3.51A2.76,2.76,0,0,1,381,275.35Z" transform="translate(-60.68 -69)"/><polygon class="cls-59" points="321.69 202.84 320.99 204.95 333.63 207.05 333.63 204.24 321.69 202.84"/><polygon class="cls-29" points="322.41 200.85 321.69 202.92 324.33 203.34 325.04 201.29 322.41 200.85"/><polygon class="cls-30" points="325.27 201.33 324.61 203.41 325.24 203.55 325.78 201.41 325.27 201.33"/><polygon class="cls-30" points="322.01 203.02 321.46 205.02 322.27 205.16 322.72 203.11 322.01 203.02"/><polygon class="cls-29" points="330.64 202.22 330.27 204.34 333.95 204.89 333.95 202.78 330.64 202.22"/><polygon class="cls-30" points="333.25 204.84 333.18 206.98 332.84 206.92 332.95 204.8 333.25 204.84"/><polygon class="cls-23" points="326.33 201.51 325.78 203.59 327.46 203.91 327.86 201.76 326.33 201.51"/><polygon class="cls-23" points="323.19 203.26 322.71 205.23 325.27 205.66 325.62 203.74 323.19 203.26"/><polygon class="cls-23" points="332.73 204.77 332.63 206.88 330.82 206.58 331.06 204.56 332.73 204.77"/><polygon class="cls-30" points="328.2 201.82 327.86 203.91 328.37 204.01 328.71 201.9 328.2 201.82"/><polygon class="cls-30" points="329.17 201.98 328.79 204.06 329.27 204.14 329.56 202.04 329.17 201.98"/><polygon class="cls-30" points="329.98 202.11 329.62 204.21 329.98 204.26 330.32 202.17 329.98 202.11"/><polygon class="cls-30" points="325.49 205.69 325.87 203.76 326.19 203.81 325.84 205.75 325.49 205.69"/><polygon class="cls-30" points="326.46 203.86 326.11 205.8 326.4 205.85 326.78 203.91 326.46 203.86"/><polygon class="cls-23" points="327.05 203.97 326.66 205.89 328.62 206.22 328.82 204.28 327.05 203.97"/><polygon class="cls-30" points="328.82 206.25 329.04 204.29 329.89 204.4 329.62 206.38 328.82 206.25"/><polygon class="cls-30" points="330.15 204.42 329.87 206.43 330.13 206.47 330.41 204.46 330.15 204.42"/><polygon class="cls-30" points="330.62 204.5 330.32 206.5 330.57 206.54 330.83 204.53 330.62 204.5"/><path class="cls-64" d="M397.12,307l-30.69-1.1a.88.88,0,0,0-.91.87v2.68a.86.86,0,0,0,.71.85c2.93.54,11.23,1.61,28.09.91.82,0,4.21-.57,4.21-1.4Z" transform="translate(-60.68 -69)"/><polygon class="cls-59" points="310.58 237.03 310.58 241.9 317.01 242.39 317.48 237.03 310.58 237.03"/><circle class="cls-57" cx="325.91" cy="212.67" r="0.7"/><circle class="cls-57" cx="308.63" cy="207.64" r="0.43"/><polygon points="316.68 213.35 346 199.97 349.35 206.99 320.69 219.72 316.68 213.35"/><polygon class="cls-24" points="347.02 204.78 345.31 201.45 317.83 214.25 319.67 217.57 347.02 204.78"/><polygon class="cls-65" points="319.4 215.48 338.5 255.88 367.4 242.1 348.89 201.77 319.4 215.48"/><polygon points="319.4 215.48 316.68 213.35 335.61 253.66 338.5 255.88 319.4 215.48"/><polygon class="cls-24" points="349.42 217.96 330.95 226.55 328.63 221.72 347.1 213.12 349.42 217.96"/><path class="cls-19" d="M383,299.69l8.16-1.85-.26-1.82a1.52,1.52,0,0,1,.84-1.59,1.41,1.41,0,0,1,1.74.43l5.49,7.63,4.17,5.88c-4.78,2.39-9.26,2-10.54.94l-6.35.48a1.15,1.15,0,0,1-1.31-.94c-.09-.45,0-1.11,1.32-1.41l-1.31.3a1.19,1.19,0,0,1-1.36-1c-.12-.59.38-1.2,1.17-1.48l-1,.13a1.24,1.24,0,0,1-1.42-1.18,1.37,1.37,0,0,1,1.08-1.38l1.44-.32-1.6,0a1.34,1.34,0,0,1-1.45-1.33A1.48,1.48,0,0,1,383,299.69Z" transform="translate(-60.68 -69)"/><polygon class="cls-19" points="338.25 233.49 351.8 229.87 354.02 238.02 340.08 240.34 338.25 233.49"/><path class="cls-56" d="M425,291.28l-23.75,8.12,5,10.74L429.16,305a7.21,7.21,0,0,0,5.1-9.63h0A7.21,7.21,0,0,0,425,291.28Z" transform="translate(-60.68 -69)"/><path class="cls-8" d="M644.07,232.47s14.79-12.1,29.08-4.25c0,0,8.05,8.88,11.77,4.83,0,0,.44,4.45-5.67,3.34,0,0,7.9,6.77,15.7-3.14a8.14,8.14,0,0,1-6.77,7.74s10.49,5.67,13-3.14c0,0,1.83,10-14.73,9.37l-8.09,0s2.8,3.93,5.69,3.29c0,0-4.79,3.77-14.12-4.76,0,0-9-8.08-16-2.13A13.94,13.94,0,0,1,638.5,242l-1.42-5.27Z" transform="translate(-60.68 -69)"/><polygon class="cls-66" points="579.38 174.1 578.02 166.72 575.91 167.04 577.15 173.53 579.38 174.1"/><polygon class="cls-17" points="541.7 315.79 539.61 401.22 549.33 401.22 554.59 315.79 541.7 315.79"/><path class="cls-67" d="M611.24,453.61a14.63,14.63,0,0,1-10.62-.62l-.33,11.83L597,466.07l-4.9,1.88,1.14,3.85,16.81-.48Z" transform="translate(-60.68 -69)"/><path class="cls-25" d="M593.06,467.55c-.77,1.21,2.49,1.77,2.49,1.77,3.55.45,5-1.09,5-1.09.14-.32-2.35-1.58-3.53-2.16.18-.06,1-.35,1.08-.42,2.23-1.07,4.43,4.94,12.22.61,0,0,4.22,6.82,1,8s-24,1.32-29.15.55C578.3,474.25,587,470,593.06,467.55Z" transform="translate(-60.68 -69)"/><polygon class="cls-17" points="582.95 315.79 594.45 401.22 584.74 401.22 570.06 315.79 582.95 315.79"/><path class="cls-67" d="M642.13,451.09a11.71,11.71,0,0,0,10.22-1.68l2,14.59,3.28,1.25,4.9,1.88L661.42,471l-16-.76Z" transform="translate(-60.68 -69)"/><path class="cls-25" d="M661.62,466.74c.77,1.21-2.49,1.76-2.49,1.76-3.54.46-5-1.09-5-1.09-.13-.31,2.36-1.58,3.54-2.16l-1.09-.41c-2.22-1.07-4.42,4.94-12.22.61,0,0-4.22,6.81-1.05,8s24,1.33,29.16.55C676.38,473.44,667.68,469.21,661.62,466.74Z" transform="translate(-60.68 -69)"/><path class="cls-8" d="M628.24,254.91c5.27-2.23,9.86-8.81,9.7-12.27a33.7,33.7,0,0,0-1.88-9.9c-1.49-4.12-6.14-6.42-10.52-6.42a18.63,18.63,0,0,0-5.29.8c-1.55.45-5.44,2.84-6.6,2.86s-3.44,8.49-2.85,24.34l1.06,1.31Z" transform="translate(-60.68 -69)"/><path class="cls-19" d="M614.5,249.91l.7,13.65.21,3.89a6.24,6.24,0,0,0,6.22,5.91,6.23,6.23,0,0,0,6.23-6.38l-.18-7-.29-11.55Z" transform="translate(-60.68 -69)"/><path class="cls-18" d="M614.5,249.91l.7,12.85c6,.25,10.46-2.21,12.48-5.48l-.29-8.8Z" transform="translate(-60.68 -69)"/><path class="cls-19" d="M609.7,239.34a46.3,46.3,0,0,0,.18,9.37c.72,5.69,1.35,12.21,8.85,12.82,8.94.73,11.92-9.54,11.92-9.54s4.15-1,4.66-3.8a2.52,2.52,0,0,0-3.67-2.8s-1.22-12-12.3-12C609.57,233.41,609.7,239.34,609.7,239.34Z" transform="translate(-60.68 -69)"/><path class="cls-8" d="M613.55,230.83s1,8.66-4.54,11.52C609,242.35,606.22,231.86,613.55,230.83Z" transform="translate(-60.68 -69)"/><path class="cls-8" d="M611.86,231.65s2,7.55,6.89,8,4,4.41,8.38,4.87c2.59.28,3.74,3,3.74,3a4.92,4.92,0,0,1,2.72-3.63C635.94,242.9,628.06,222.93,611.86,231.65Z" transform="translate(-60.68 -69)"/><path class="cls-8" d="M620.19,249.82a.86.86,0,1,0,.86-.86A.85.85,0,0,0,620.19,249.82Z" transform="translate(-60.68 -69)"/><path class="cls-8" d="M612.47,249.82a.85.85,0,1,0,1.7,0,.85.85,0,1,0-1.7,0Z" transform="translate(-60.68 -69)"/><path class="cls-68" d="M624.16,246.85a3.48,3.48,0,0,0-4-1.34" transform="translate(-60.68 -69)"/><path class="cls-68" d="M615.54,245.48a2.72,2.72,0,0,0-3.86.17" transform="translate(-60.68 -69)"/><path class="cls-69" d="M617.25,247.6s-.92,2.36-1.71,3.83,1.54,2.12,1.54,2.12" transform="translate(-60.68 -69)"/><path class="cls-69" d="M622.37,255.22a4,4,0,0,1-4.12,1.57" transform="translate(-60.68 -69)"/><path class="cls-69" d="M631.62,249.22s0-2.66,2-1.93" transform="translate(-60.68 -69)"/><path class="cls-19" d="M618.21,277.6a67.46,67.46,0,0,0,14.44-12.2c-4.7-1.87-7-2.62-7-2.62l-10.4.78a18,18,0,0,1-4.33.71S611,274.85,618.21,277.6Z" transform="translate(-60.68 -69)"/><path class="cls-70" d="M654.27,407.35s-8.61-43.83-17.19-84.53H600.21L594,407.66Z" transform="translate(-60.68 -69)"/><path class="cls-19" d="M578.59,296.64c-4.23-3.37-21.43-14.75-21.6-16.34-.31-3-1.36-5.36-7.77-7.41a1.83,1.83,0,0,0,.37,2,6.59,6.59,0,0,0,1.73,1.53s-1.71.63-4.22-1.37-3.56-3.74-4.64-3.33c0,0-1.24-1.16-1.84-1a.52.52,0,0,0-.36.6c-1-.17-.82,2.69.92,5a23.49,23.49,0,0,0,9.48,6.91c1.94.73,14.63,19.49,23.14,21.53C576.25,305.4,580.56,298.21,578.59,296.64Z" transform="translate(-60.68 -69)"/><path class="cls-19" d="M591.91,280s-19,13.26-20.86,16.56-.46,12.1,8,6.45,21.84-15.92,21.84-15.92Z" transform="translate(-60.68 -69)"/><path class="cls-71" d="M601.68,267.92a18.64,18.64,0,0,0-8.71,5.46l-7.62,9.07,14.42,11.2S603.29,273.27,601.68,267.92Z" transform="translate(-60.68 -69)"/><path class="cls-71" d="M640.67,269.17a46.44,46.44,0,0,0-6.17-3c-12.13,3.09-16.29,9.53-16.29,9.53-3.37-3.68-9.38-10.64-9.38-10.64-2.75,1.06-5.54,2.17-7.15,2.86-4,1.69-.29,13.54-2.35,18.67s-3.08,10.26-1,20.08a78.38,78.38,0,0,1,1.9,16.15h36.87S645.66,272.24,640.67,269.17Z" transform="translate(-60.68 -69)"/><path class="cls-67" d="M618.21,275.7l1.82-2.51,7.83-9.6a8.23,8.23,0,0,1,7.17,2.8,42.43,42.43,0,0,1-6.29,14.39s-3.14-7.68-5.26-8.21c0,0-1.25-1-3.17,1.12Z" transform="translate(-60.68 -69)"/><path class="cls-67" d="M618.21,275.7s-3.8-9.44-4-12.7a5.48,5.48,0,0,0-5.34,2.06s.43,9.12,1.79,12.78c0,0,1.46-5.2,3-5.51,0,0,1-.15,2.71,1.67Z" transform="translate(-60.68 -69)"/><path class="cls-72" d="M616.32,322.82a27.56,27.56,0,0,1-2.69-10s-1-21.39,1.94-31.88l2.64-5.26a29.91,29.91,0,0,0-3.28,5.37S611.83,299,613.2,311c0,0,.42,9.7,2.67,11.81Z" transform="translate(-60.68 -69)"/><polygon class="cls-73" points="576.4 253.82 539.52 253.82 539.41 257.47 576.8 257.47 576.4 253.82"/><rect class="cls-74" x="552.16" y="253.82" width="6.86" height="3.65"/><path class="cls-75" d="M601,314H567.19a1.21,1.21,0,0,1-1.21-1.2h0a1.21,1.21,0,0,1,1.21-1.21H601a1.21,1.21,0,0,1,1.21,1.21h0A1.21,1.21,0,0,1,601,314Z" transform="translate(-60.68 -69)"/><path class="cls-76" d="M603.49,311.63H569.41l-6.49-26.17a1.77,1.77,0,0,1,1.73-2.2h30.42a1.78,1.78,0,0,1,1.72,1.35Z" transform="translate(-60.68 -69)"/><path class="cls-77" d="M601.16,311.63H567.08l-6.49-26.17a1.77,1.77,0,0,1,1.72-2.2h30.42a1.79,1.79,0,0,1,1.73,1.35Z" transform="translate(-60.68 -69)"/><rect class="cls-78" x="539.73" y="242.63" width="27.83" height="2.42" rx="0.96"/><path class="cls-76" d="M582.11,295.78c.63,1.62.11,3.33-1.15,3.81s-2.79-.43-3.42-2-.1-3.33,1.16-3.82S581.49,294.16,582.11,295.78Z" transform="translate(-60.68 -69)"/><path class="cls-19" d="M639.23,285.81s5.26,28.27,6.57,32.9c.84,3,7,5,8.91,1.08A9.49,9.49,0,0,0,655,316c-.29-9.14-6.69-32.39-6.69-32.39Z" transform="translate(-60.68 -69)"/><path class="cls-71" d="M640.67,269.17a16.22,16.22,0,0,1,5.78,6.15c2.64,4.55,6.29,12.57,6,14.51-1.37,3.74-12.21,7.61-12.21,7.61S633.06,273.65,640.67,269.17Z" transform="translate(-60.68 -69)"/><path class="cls-19" d="M646.75,313.25s-16.7-.37-19.86-2.25c-4.3-2.57-5.29-1.46-7.78-2.07-4-1-3.55-.19-3.55-.19s.18,2.31,3.27,2.61c1.55.14,3.89.8,3.39,1.19,0,0-12.38,1.28-14.88,1.5s-1.27,2.14.63,2.58a3,3,0,0,0,3,1s-.4.81,4.36.81,9.56-2.53,12-1.43,15.48,6.16,23.76,5c4-.56,4-2.46,4-4.48C655,314,652.46,313.6,646.75,313.25Z" transform="translate(-60.68 -69)"/><polygon class="cls-24" points="273.26 419.34 272.14 400.92 263.51 400.96 264.61 419.35 273.26 419.34"/><path class="cls-79" d="M334.6,488.34l10.78,5.87,6.06,1.18a6.41,6.41,0,0,1,5.15,5.69l.12,1.32-32.69.15L324,488.39Z" transform="translate(-60.68 -69)"/><polyline class="cls-24" points="263.21 433.77 296.16 433.62 296.14 430.71 263.19 430.86 263.21 433.77"/><path class="cls-19" d="M308.76,273.72h0a8.67,8.67,0,0,1-8.67-8.67V246.59h17.35v18.46A8.68,8.68,0,0,1,308.76,273.72Z" transform="translate(-60.68 -69)"/><path class="cls-19" d="M321,237.72a2.9,2.9,0,0,1,3.59-.95c2.42.92,1.33,6.79-2.3,7.54a2.85,2.85,0,0,1-2.32-.6S320.9,239.37,321,237.72Z" transform="translate(-60.68 -69)"/><path class="cls-19" d="M296.29,237.72a2.9,2.9,0,0,0-3.59-.95c-2.42.92-1.33,6.79,2.3,7.54a2.85,2.85,0,0,0,2.32-.6S296.43,239.37,296.29,237.72Z" transform="translate(-60.68 -69)"/><path class="cls-80" d="M325.1,222.09a2.62,2.62,0,0,0,0-2.52,2.72,2.72,0,0,0-2.15-1.43,4.21,4.21,0,0,0,.32-4.2,5.29,5.29,0,0,0-3.33-2.71,7.07,7.07,0,0,0-4.36.2,9,9,0,0,0-6.63-2.91h-1.06a9,9,0,0,0-6.63,2.91,7,7,0,0,0-4.35-.2,5.27,5.27,0,0,0-3.33,2.71,4.23,4.23,0,0,0,.31,4.2,2.73,2.73,0,0,0-2.15,1.43,2.6,2.6,0,0,0,.05,2.52,4.4,4.4,0,0,0-2.48,4.61,5.21,5.21,0,0,0,3.53,3.87l.85,3.61a7.25,7.25,0,0,0,2.12,3l.84,3.5h0a23.16,23.16,0,0,0,1.84,6.32c2.64,5.36,5.94,7.07,10.38,6.93a10.83,10.83,0,0,0,9.85-6.48,25.45,25.45,0,0,0,2-7.67h0l.69-3v.49a6.41,6.41,0,0,0,1.71-3.08l.84-3.61a5.19,5.19,0,0,0,3.53-3.87A4.38,4.38,0,0,0,325.1,222.09Z" transform="translate(-60.68 -69)"/><polygon class="cls-81" points="271.89 289.87 224.13 289.87 225.69 265.65 269.8 265.65 271.89 289.87"/><path class="cls-81" d="M284.81,358.58l-1.42,55.93a8.94,8.94,0,0,0,8.94,9.24h0a8.94,8.94,0,0,0,8.89-8l5.62-55.64a11,11,0,0,0-11-12.2h0A11.05,11.05,0,0,0,284.81,358.58Z" transform="translate(-60.68 -69)"/><polygon class="cls-24" points="222.09 419.34 223.21 400.92 231.84 400.96 230.74 419.35 222.09 419.34"/><path class="cls-79" d="M282.12,488.34l-10.78,5.87-6.06,1.18a6.39,6.39,0,0,0-5.14,5.69L260,502.4l32.69.15.06-14.16Z" transform="translate(-60.68 -69)"/><polyline class="cls-24" points="232.15 433.77 199.2 433.62 199.21 430.71 232.16 430.86 232.15 433.77"/><path class="cls-81" d="M301.2,416.05l-7.11,64.79h-12.6l1.93-66a8.91,8.91,0,0,1,9.35-8.65h0A8.91,8.91,0,0,1,301.2,416.05Z" transform="translate(-60.68 -69)"/><path class="cls-81" d="M332.49,358.58l1.42,55.93a8.94,8.94,0,0,1-8.94,9.24h0a9,9,0,0,1-8.89-8l-5.62-55.64a11,11,0,0,1,11-12.2h0A11,11,0,0,1,332.49,358.58Z" transform="translate(-60.68 -69)"/><path class="cls-81" d="M316.1,416.05l7.11,64.79h12.61l-1.94-66a8.91,8.91,0,0,0-9.35-8.65h0A8.92,8.92,0,0,0,316.1,416.05Z" transform="translate(-60.68 -69)"/><path class="cls-3" d="M277.15,277.57c-2.27,11.35-8.32,36.72-11.39,49.47a8.18,8.18,0,0,0,5.69,9.78h0a8.18,8.18,0,0,0,10.22-5.91L294,281.09a8.58,8.58,0,0,0-7.05-10.32h0A8.59,8.59,0,0,0,277.15,277.57Z" transform="translate(-60.68 -69)"/><path class="cls-19" d="M267.61,378.71a5.91,5.91,0,0,0-1.75-2.54l1.91-9a3.83,3.83,0,1,0-7.5-1.54l-1.8,8.48a2.07,2.07,0,0,0-.14.42l0,.09a28.23,28.23,0,0,0-2.86,10.08c-.68,7.52,2.5,11.34,4.85,11.38s3.47-8.79,4-12.06l1.38,3.32a1,1,0,0,0,2-.27l.49-3.86A9.07,9.07,0,0,0,267.61,378.71Z" transform="translate(-60.68 -69)"/><path class="cls-3" d="M265.74,327l-10.47,42.79,15.9,4.34,10.66-43.76a8.22,8.22,0,0,0-6.75-9.88h0A8.22,8.22,0,0,0,265.74,327Z" transform="translate(-60.68 -69)"/><path class="cls-3" d="M339.85,277.57c2.27,11.35,8.33,36.72,11.4,49.47a8.18,8.18,0,0,1-5.69,9.78h0a8.19,8.19,0,0,1-10.23-5.91l-12.28-49.82a8.59,8.59,0,0,1,7.05-10.32h0A8.59,8.59,0,0,1,339.85,277.57Z" transform="translate(-60.68 -69)"/><path class="cls-19" d="M361.57,384.67a28.36,28.36,0,0,0-2.87-10.08l0-.09c0-.15-.09-.28-.14-.42l-1.8-8.48a3.83,3.83,0,0,0-7.51,1.54l1.92,9a5.73,5.73,0,0,0-1.75,2.54,8.84,8.84,0,0,0-.53,4.47l.48,3.86a1.05,1.05,0,0,0,.95.91,1,1,0,0,0,1.05-.64l1.38-3.32c.51,3.27,1.76,12.09,4,12.06S362.25,392.19,361.57,384.67Z" transform="translate(-60.68 -69)"/><path class="cls-3" d="M351.26,327l10.48,42.79-15.91,4.34-10.66-43.76a8.22,8.22,0,0,1,6.76-9.88h0A8.22,8.22,0,0,1,351.26,327Z" transform="translate(-60.68 -69)"/><polygon class="cls-3" points="256.75 194.65 247.72 194.78 239.41 194.65 222.4 202.03 225.69 265.65 247.72 265.65 269.97 265.65 273.26 202.03 256.75 194.65"/><path class="cls-3" d="M317.65,259.6s-12.78-.8-17.94.26a7.17,7.17,0,0,0,0,3.79s14.46.62,17.94,0A11.87,11.87,0,0,0,317.65,259.6Z" transform="translate(-60.68 -69)"/></g></g></svg>