<svg id="Layer_1" data-name="Layer 1" xmlns="http://www.w3.org/2000/svg" xmlns:xlink="http://www.w3.org/1999/xlink" viewBox="0 0 727.48 638.62"><defs><style>.cls-1,.cls-11,.cls-12,.cls-14,.cls-15,.cls-25,.cls-27,.cls-5,.cls-60{fill:none;}.cls-2{opacity:0.5;}.cls-3{fill:url(#linear-gradient);}.cls-10,.cls-38,.cls-4{fill:#fff;}.cls-5{stroke:#fff;}.cls-11,.cls-25,.cls-27,.cls-5{stroke-miterlimit:10;}.cls-6{clip-path:url(#clip-path);}.cls-7{fill:#431459;}.cls-8{fill:#ffcad0;}.cls-9{fill:#edb2bb;}.cls-10{opacity:0.22;}.cls-11{stroke:#d86539;stroke-width:0.72px;}.cls-12{stroke:#eab2ba;stroke-width:0.45px;}.cls-12,.cls-14,.cls-15{stroke-linecap:round;}.cls-12,.cls-14,.cls-15,.cls-60{stroke-linejoin:round;}.cls-13{fill:#171d51;}.cls-14{stroke:#171d51;stroke-width:1.15px;}.cls-15{stroke:#ee84aa;stroke-width:0.86px;}.cls-16{fill:#1e0401;}.cls-17{fill:#fec9cf;}.cls-18{fill:#ceb5a1;}.cls-19{fill:#c6ab99;}.cls-20{fill:#ceb4a1;}.cls-21{fill:#bca291;}.cls-22{fill:#d3bbab;}.cls-23{fill:#f7c249;}.cls-24{fill:#ddc6ba;}.cls-25,.cls-27{stroke:#f7c249;}.cls-25{stroke-width:0.5px;}.cls-26{fill:#c4ab9b;}.cls-28{fill:#d31610;}.cls-29{fill:#511a66;}.cls-30{fill:#837165;}.cls-31{fill:#132a35;}.cls-32{fill:#703e82;}.cls-33{font-size:14px;}.cls-33,.cls-45,.cls-49,.cls-50{fill:#e6e6e6;}.cls-33,.cls-38,.cls-45,.cls-50{font-family:Gilroy-ExtraBold, Gilroy;font-weight:800;}.cls-34{letter-spacing:0em;}.cls-35{letter-spacing:0em;}.cls-36{letter-spacing:-0.02em;}.cls-37{letter-spacing:-0.04em;}.cls-38,.cls-50{font-size:28.26px;}.cls-39{letter-spacing:-0.06em;}.cls-40{letter-spacing:-0.01em;}.cls-41{letter-spacing:-0.01em;}.cls-42{letter-spacing:-0.02em;}.cls-43{letter-spacing:0em;}.cls-44{fill:#b3b3b3;}.cls-45{font-size:16.48px;}.cls-46{letter-spacing:-0.01em;}.cls-47{letter-spacing:0em;}.cls-48{letter-spacing:-0.02em;}.cls-51{letter-spacing:0em;}.cls-52{letter-spacing:-0.03em;}.cls-53{letter-spacing:0em;}.cls-54{letter-spacing:-0.02em;}.cls-55{letter-spacing:-0.02em;}.cls-56{letter-spacing:-0.02em;}.cls-57{letter-spacing:0em;}.cls-58{letter-spacing:-0.01em;}.cls-59{fill:#27315e;}.cls-60{stroke:#5730a0;stroke-width:3px;}</style><linearGradient id="linear-gradient" x1="57.96" y1="273.17" x2="743.99" y2="273.17" gradientUnits="userSpaceOnUse"><stop offset="0" stop-color="#d31610"/><stop offset="1" stop-color="#511a66"/></linearGradient><clipPath id="clip-path" transform="translate(-16.51 -42.72)"><path class="cls-1" d="M167.4,503.62c-46.8-24.1-94.15-60.26-104.33-109.45s-8-111.72,33.31-143.48c26.86-20.66,60.82-30.84,92.48-44.2s63.5-32.14,77.37-62c9.55-20.56,9.5-44.29,19.81-64.52,16.84-33,60.58-42.28,99-36.2,55.25,8.73,71.77,51.87,119.34,67.55S577,122.53,628.35,128c57.31,6.15,88.65,19.8,97.51,71,5.15,29.78-2,51.14-17.34,79.91-7.25,13.56-16.4,41.75,0,74.18,14.9,29.48,36.54,41.51,35.44,82.52-.88,32.58-35.44,65.86-61.84,66.68Z"/></clipPath></defs><g class="cls-2"><path class="cls-3" d="M167.39,503.62c-46.8-24.06-94.15-60.17-104.33-109.28s-8-111.55,33.31-143.26c26.86-20.62,60.82-30.78,92.49-44.12s63.49-32.1,77.36-61.93c9.55-20.53,9.5-44.21,19.82-64.42,16.84-33,60.57-42.21,99-36.14,55.25,8.72,71.77,51.79,119.35,67.44S577,123.12,628.34,128.63c57.32,6.14,88.65,19.77,97.51,70.83,5.16,29.74-2,51.07-17.34,79.79-7.25,13.54-16.4,41.69,0,74.07,14.9,29.43,36.55,41.44,35.44,82.38-.88,32.53-35.44,65.76-61.84,66.58Z" transform="translate(-16.51 -42.72)"/></g><polygon class="cls-4" points="569.91 102.87 572.16 97.94 574.41 102.87 579.65 104.98 574.41 107.1 572.16 112.03 569.91 107.1 564.67 104.98 569.91 102.87"/><polygon class="cls-4" points="247.46 388.96 249.71 384.04 251.96 388.96 257.2 391.07 251.96 393.19 249.71 398.12 247.46 393.19 242.22 391.07 247.46 388.96"/><polygon class="cls-4" points="372.65 32.64 374.9 27.71 377.15 32.64 382.39 34.75 377.15 36.87 374.9 41.79 372.65 36.87 367.41 34.75 372.65 32.64"/><polygon class="cls-4" points="596.26 199.26 597.62 196.3 598.97 199.26 602.12 200.53 598.97 201.8 597.62 204.76 596.26 201.8 593.12 200.53 596.26 199.26"/><polygon class="cls-4" points="439.02 346.65 440.37 343.69 441.72 346.65 444.87 347.93 441.72 349.2 440.37 352.16 439.02 349.2 435.87 347.93 439.02 346.65"/><polygon class="cls-4" points="360.74 418.31 362.09 415.35 363.44 418.31 366.59 419.58 363.44 420.85 362.09 423.81 360.74 420.85 357.59 419.58 360.74 418.31"/><polygon class="cls-4" points="93.59 242.94 94.94 239.98 96.29 242.94 99.44 244.22 96.29 245.49 94.94 248.45 93.59 245.49 90.44 244.22 93.59 242.94"/><path class="cls-5" d="M340.27,66.36a3.24,3.24,0,1,1-3.23-3A3.14,3.14,0,0,1,340.27,66.36Z" transform="translate(-16.51 -42.72)"/><path class="cls-5" d="M291.92,375.7a3.24,3.24,0,1,1-3.24-3A3.14,3.14,0,0,1,291.92,375.7Z" transform="translate(-16.51 -42.72)"/><path class="cls-5" d="M178,247.49a3.24,3.24,0,1,1-3.23-3A3.15,3.15,0,0,1,178,247.49Z" transform="translate(-16.51 -42.72)"/><path class="cls-5" d="M580.21,211a3.24,3.24,0,1,1-3.24-3A3.14,3.14,0,0,1,580.21,211Z" transform="translate(-16.51 -42.72)"/><path class="cls-5" d="M678.07,358.1a5.11,5.11,0,1,1-5.09-4.78A4.94,4.94,0,0,1,678.07,358.1Z" transform="translate(-16.51 -42.72)"/><path class="cls-5" d="M586.38,422a5.1,5.1,0,1,1-5.09-4.79A5,5,0,0,1,586.38,422Z" transform="translate(-16.51 -42.72)"/><path class="cls-5" d="M83.48,338.79A5.1,5.1,0,1,1,78.39,334,5,5,0,0,1,83.48,338.79Z" transform="translate(-16.51 -42.72)"/><g class="cls-6"><path class="cls-7" d="M241.09,308.9s1.82,9.66-3.3,21.28c-5.23,11.89,8.75,14.14,4.08,25.75,0,0-41.68,1.75-71.63-30.63,0,0,.23-11.27,8.36-11.94,11.38-.93,16.77-11.1,16.77-11.1Z" transform="translate(-16.51 -42.72)"/><ellipse class="cls-7" cx="217.62" cy="311.2" rx="22.27" ry="23.98" transform="translate(-168.79 354.36) rotate(-68.11)"/><polygon class="cls-8" points="198.83 286.73 189.43 322.04 172.91 315.47 186.03 285.69 198.83 286.73"/><path class="cls-9" d="M197.42,339.43l4.23-8.9,11.11,8.6a19.19,19.19,0,0,1-7.68,1.37A27.83,27.83,0,0,1,197.42,339.43Z" transform="translate(-16.51 -42.72)"/><path class="cls-9" d="M197.54,322.44a17.84,17.84,0,0,0,.65-6.76c-.32-3.17-1.4-6.53-5.13-6.3-6.36.39-4.56,11.21.64,14.11,1.53.85,3.45.32,3.84-1.05Z" transform="translate(-16.51 -42.72)"/><path class="cls-8" d="M227.56,296.61a26.77,26.77,0,0,0-11.41-5.12c-5.62-1-13.56-.4-18.2,8.74-7.73,15.22-9.61,26.14-3.94,33.44,4,5.11,9.4,6.9,17.9,5.65,3.16-.46,8.72-4.54,10.63-7.28l5.43-7.61S243.59,308.77,227.56,296.61Z" transform="translate(-16.51 -42.72)"/><path class="cls-10" d="M219.16,309.67l-12.07,7s.37,5.36,4.22,6.47l12-6.68S223.2,311.11,219.16,309.67Z" transform="translate(-16.51 -42.72)"/><path class="cls-10" d="M202.22,302.24l-10.88,7.45s0,5.22,3.32,6.09l10.84-7.17S205.66,303.42,202.22,302.24Z" transform="translate(-16.51 -42.72)"/><path class="cls-11" d="M207.86,313.23a8.08,8.08,0,1,0,10.64-4.16A8.07,8.07,0,0,0,207.86,313.23Z" transform="translate(-16.51 -42.72)"/><path class="cls-11" d="M192.18,306.32c-1.78,4.09-.42,8.64,3,10.17s7.71-.55,9.49-4.64.42-8.64-3-10.17S194,302.23,192.18,306.32Z" transform="translate(-16.51 -42.72)"/><path class="cls-11" d="M207.86,313.23a3.79,3.79,0,0,0-3.15-1.38" transform="translate(-16.51 -42.72)"/><line class="cls-11" x1="209.95" y1="283.02" x2="205.88" y2="277.62"/><path class="cls-7" d="M223.63,327c.4-1.49-.84-14.59,9.09-27.46,0,0,5.91.76,4,11.43C233.6,328.1,223.63,327,223.63,327Z" transform="translate(-16.51 -42.72)"/><path class="cls-8" d="M219.34,331.16a18.87,18.87,0,0,1,5-5.1c2.77-1.88,6.21-3.27,8.54-.1,4,5.39-6,11.24-11.8,9-1.72-.66-2.6-2.57-1.76-3.81Z" transform="translate(-16.51 -42.72)"/><path class="cls-12" d="M229.75,329.63c-3.55-3.06-7.6.68-7.6.68" transform="translate(-16.51 -42.72)"/><path class="cls-7" d="M234.11,301.21s-9.81,5.67-37-6c0,0,8.38-9.33,23.19-6.19S234.11,301.21,234.11,301.21Z" transform="translate(-16.51 -42.72)"/><circle class="cls-13" cx="193.43" cy="274.16" r="1.31"/><circle class="cls-13" cx="181.97" cy="271.28" r="1.31"/><path class="cls-14" d="M219.47,307.47a5.31,5.31,0,0,0-5.38-3.45" transform="translate(-16.51 -42.72)"/><path class="cls-14" d="M207.15,302.46a4.17,4.17,0,0,0-5.79-1.19" transform="translate(-16.51 -42.72)"/><path class="cls-15" d="M204.9,313.14a19.32,19.32,0,0,1-4,5c-2,1.56,1.49,3.71,1.49,3.71" transform="translate(-16.51 -42.72)"/><path class="cls-15" d="M209.64,326.35a6.16,6.16,0,0,1-6.7.78" transform="translate(-16.51 -42.72)"/><path class="cls-8" d="M206.36,362.54s-35.26,2.69-28.67-16.83l18.28-7.9,8.81,8.39L209,352l3.11,10.33Z" transform="translate(-16.51 -42.72)"/><path class="cls-16" d="M124.28,631.05s3.76.8,1.8,7.85-4.42,17.55-4.42,17.55l-3.55-.9,3.09-12.25-13.72,9.58L71,643.68s3.65-6.25,20.8-1.74Z" transform="translate(-16.51 -42.72)"/><path class="cls-8" d="M113.74,612.93,112.2,628l-22,13.7,8,2a15.51,15.51,0,0,0,11.14-1.36c4.62-2.48,11-6.46,14.93-11.32l2.3-9.11s14.76-63.39,20.71-87.06l-23.72-6Z" transform="translate(-16.51 -42.72)"/><path class="cls-16" d="M179.48,645s-3.69-1.08-5.3,6.06-4.43,17.55-4.43,17.55l3.55.89,3.09-12.25,7.54,14.93,36.52,9.2S220.2,674.11,203,670Z" transform="translate(-16.51 -42.72)"/><path class="cls-17" d="M177,616.2,179.48,645c1.16,6.14,4.89,12.67,7.78,17a15.58,15.58,0,0,0,9.17,6.48l8,2L191.56,648l-.74-26.62L192.88,537l-26.68-2.91Z" transform="translate(-16.51 -42.72)"/><path class="cls-18" d="M194.61,426.28l-42.49-11s-17.3,49.21-22.85,71.21c-4.12,16.38-11.09,55.19-11.09,55.19l78,17.58s3.41-31,2.58-81c-.74-44.78-4.14-52-4.14-52" transform="translate(-16.51 -42.72)"/><path class="cls-19" d="M181.65,361.09s-15.09,17.68-45.8,29.75l-8.4-19.48,55-35.91Z" transform="translate(-16.51 -42.72)"/><path class="cls-8" d="M110.5,331.26l10-2.33,8.33,22.38c-3.63,1.28-8.31,2.53-12,3.79Z" transform="translate(-16.51 -42.72)"/><path class="cls-8" d="M122.24,328.24l1.1-1.91a19,19,0,0,0,2.47-8.43l.27-5.21a2,2,0,0,0-2.24-2.1h0a2.57,2.57,0,0,0-2.18,1.88l-1.46,5.34-4.37-16.5a1.54,1.54,0,0,0-2-1.1l-.59.22a1.54,1.54,0,0,0-1,1.7L115,314.68l-5.19-14a1.56,1.56,0,0,0-2.12-1l-.42.19a1.55,1.55,0,0,0-.86,1.87l3.9,12.61-5.06-8.92a1.56,1.56,0,0,0-2.38-.47l-.15.13a1.55,1.55,0,0,0-.43,1.79l4.59,9.65-3.5-4.41a1.55,1.55,0,0,0-2.63-.09h0a1.55,1.55,0,0,0-.12,1.53l11.46,22.17,5.38-2.88A12.06,12.06,0,0,0,122.24,328.24Z" transform="translate(-16.51 -42.72)"/><path class="cls-19" d="M143.84,379l-19.39-45.2-14,6.73,10.72,41.34c1.9,6.7,6.18,10.93,12.41,9.7h0C139.24,390.44,144.89,384.59,143.84,379Z" transform="translate(-16.51 -42.72)"/><path class="cls-20" d="M160.34,415.94c.73.39,2.55-5.83,2.72-6.64,3-14.41,5.9-28.33,12.63-37.65,4.39-6.1,8.36-12,11.6-17,4.8-7.41,8.07-13,9.26-15a1.24,1.24,0,0,0-.22-1.52h0a4.91,4.91,0,0,0-.77-.61c-4.38-2.82-7.62-3.29-8.75-3.37a4.21,4.21,0,0,0-.71,0c-11.44,1.24-26.62,30.95-30.22,38.79-3.22,7-5.63,37.28-4.89,38.51a7.89,7.89,0,0,0,4.43,3.21c.09,0,2.86.7,3,.74Z" transform="translate(-16.51 -42.72)"/><path class="cls-21" d="M159.35,415.69l1,.25s1.94-1.17,3.82-11.91c0,0,3.86-19.29,6.46-23,0,0,7.3-18.23,13.28-21.39l-2,0a17.94,17.94,0,0,0-6.91,6.64,98.05,98.05,0,0,0-8.91,22.88C164.81,394,160.34,415.94,159.35,415.69Z" transform="translate(-16.51 -42.72)"/><path class="cls-22" d="M182.6,360.82s-2.69-10.1-9.84-2.48c0,0,13.33-20.57,20.35-22.32a7.93,7.93,0,0,1,4.36,3.21S186.55,357.63,182.6,360.82Z" transform="translate(-16.51 -42.72)"/><ellipse class="cls-23" cx="176.21" cy="354.37" rx="0.61" ry="0.51" transform="translate(-229.36 239.12) rotate(-53)"/><path class="cls-24" d="M183.39,332.75s6.16.51,8.86,2.24c0,0,1.72,1.48-1.48,1.72l-8.36-1.26S182.16,333.49,183.39,332.75Z" transform="translate(-16.51 -42.72)"/><ellipse class="cls-25" cx="190.53" cy="335.6" rx="0.51" ry="1.02" transform="translate(-184.86 434.77) rotate(-81.99)"/><path class="cls-23" d="M189.19,333.75a4.28,4.28,0,0,0-1.08,2.56l-.81-.12s.34-2.25,1.29-2.59Z" transform="translate(-16.51 -42.72)"/><path class="cls-23" d="M184.91,332.93a7.52,7.52,0,0,0-.57,2.81l-.69-.1s.43-1.95.7-2.79Z" transform="translate(-16.51 -42.72)"/><path class="cls-23" d="M187.22,333.3a12.53,12.53,0,0,0-.7,2.77l-.6-.09.71-2.83Z" transform="translate(-16.51 -42.72)"/><path class="cls-26" d="M170,372.31a12.91,12.91,0,0,1-3.45,6.46,4.42,4.42,0,0,1-3.2.24s1,.26,3.45-1.23c1.77-1.09,2.87-5.55,2.87-5.55Z" transform="translate(-16.51 -42.72)"/><path class="cls-22" d="M171,369.42a32.69,32.69,0,0,1-7.63-3,3.57,3.57,0,0,0-1.48,1.72,3.2,3.2,0,0,0,.49,2.22l1.48,2.46c.56.49.73,1.24,2.95.75l2.22-.49a3.57,3.57,0,0,0,1.48-1.72Z" transform="translate(-16.51 -42.72)"/><path class="cls-20" d="M209.71,348.81c-2,3.69-11.59,8.6-24.64,10.54-9,1.35-14.19,14.76-17,26.07L160.59,415s-1.74,6.89,15.24,10.12l19,3.73,0-12.56L213.9,387.6l1.49-34.18-5.68-4.61Z" transform="translate(-16.51 -42.72)"/><path class="cls-20" d="M213.78,351.92s16.53,8.66,35.63,67.12l-20,7-23.76-46Z" transform="translate(-16.51 -42.72)"/><path class="cls-22" d="M210.46,347.76a6.7,6.7,0,0,1,3.68,4.26s-6.43,13-15.55,20.16c0,0,4.7-14.52-13.52-12.83C185.07,359.35,205.79,352.17,210.46,347.76Z" transform="translate(-16.51 -42.72)"/><circle class="cls-21" cx="160.53" cy="329.79" r="1.52"/><circle class="cls-21" cx="153.85" cy="348" r="1.52"/><circle class="cls-21" cx="148.4" cy="365.47" r="1.52"/><path class="cls-24" d="M227,365.91l-8.82-12.8a1.76,1.76,0,0,0-.95-.7c-3.89-1.08-4.71,1.56-4.87,2.91a1.84,1.84,0,0,0,.29,1.25l7.84,13.08A7.7,7.7,0,0,1,227,365.91Z" transform="translate(-16.51 -42.72)"/><circle class="cls-27" cx="199.47" cy="312.38" r="2.03"/><path class="cls-23" d="M215.18,360.76s3.43-2.9,6.24-3l.58.85s-4.78,1.32-6.21,3.14Z" transform="translate(-16.51 -42.72)"/><path class="cls-23" d="M216.86,363.57a7.43,7.43,0,0,1,6.43-3.08l.57.84s-4.66.53-6.47,3.12Z" transform="translate(-16.51 -42.72)"/><path class="cls-23" d="M218.49,366.29a10.45,10.45,0,0,1,6.45-3.4l.62.9a10,10,0,0,0-6.43,3.56Z" transform="translate(-16.51 -42.72)"/><circle class="cls-23" cx="184.92" cy="324.42" r="1.52"/><polygon class="cls-23" points="169.78 324.26 168.05 326.97 186.01 334.64 186.75 331.68 169.78 324.26"/><path class="cls-26" d="M197.69,383.7,192.77,395c-2.6,3-7.56,3.11-9,3.07a8.43,8.43,0,0,0,1.17.38s6.16.51,9.12-2.94L199,384.17Z" transform="translate(-16.51 -42.72)"/><path class="cls-26" d="M176.89,387.65l4.7-10.33-1-.25-4.7,10.34s.82,7.07,6.11,9.68C177.37,394.06,176.89,387.65,176.89,387.65Z" transform="translate(-16.51 -42.72)"/><path class="cls-22" d="M182.33,374.37l18,7.66a3.58,3.58,0,0,1-2,3.69s-2.46,1.48-9.85,1.71c-.79,0-2.17-1.14-2.7-1.73L180.11,379C179.62,376.82,180.56,375.43,182.33,374.37Z" transform="translate(-16.51 -42.72)"/><polygon class="cls-23" points="169.03 327.22 167.3 329.92 184.28 337.34 185.27 333.4 169.03 327.22"/><polygon class="cls-7" points="170.74 324.69 169 327.32 172.54 328.85 174.27 326.23 170.74 324.69"/><polygon class="cls-28" points="174.57 326.36 172.92 329.05 173.75 329.47 175.26 326.66 174.57 326.36"/><polygon class="cls-28" points="169.42 327.58 167.93 330.2 169.02 330.68 170.37 327.96 169.42 327.58"/><polygon class="cls-7" points="181.79 329.51 180.53 332.35 185.5 334.42 186.24 331.46 181.79 329.51"/><polygon class="cls-28" points="184.53 334.11 183.68 337.08 183.22 336.88 184.12 333.94 184.53 334.11"/><polygon class="cls-29" points="176 326.99 174.49 329.72 176.74 330.76 178.06 327.89 176 326.99"/><polygon class="cls-29" points="170.99 328.34 169.6 330.93 173.04 332.43 174.22 329.88 170.99 328.34"/><polygon class="cls-29" points="183.83 333.82 182.93 336.75 180.51 335.69 181.56 332.94 183.83 333.82"/><polygon class="cls-28" points="178.52 328.08 177.3 330.9 177.98 331.22 179.21 328.39 178.52 328.08"/><polygon class="cls-28" points="179.82 328.65 178.55 331.45 179.19 331.72 180.33 328.88 179.82 328.65"/><polygon class="cls-28" points="180.9 329.13 179.66 331.93 180.14 332.13 181.36 329.33 180.9 329.13"/><polygon class="cls-28" points="173.34 332.56 174.56 329.99 175 330.16 173.81 332.77 173.34 332.56"/><polygon class="cls-28" points="175.35 330.34 174.17 332.93 174.56 333.1 175.78 330.52 175.35 330.34"/><polygon class="cls-29" points="176.15 330.7 174.91 333.25 177.55 334.4 178.51 331.76 176.15 330.7"/><polygon class="cls-28" points="177.81 334.52 178.82 331.85 179.98 332.3 178.89 334.99 177.81 334.52"/><polygon class="cls-28" points="180.33 332.43 179.23 335.13 179.58 335.29 180.68 332.57 180.33 332.43"/><polygon class="cls-28" points="180.96 332.69 179.83 335.4 180.17 335.55 181.24 332.82 180.96 332.69"/><path class="cls-30" d="M193.81,424.37,151.16,412a1.26,1.26,0,0,0-1.57.91l-1,3.75a1.24,1.24,0,0,0,.69,1.44c3.92,1.78,15.18,6.23,39,11.2,1.18.24,6.11.68,6.41-.48Z" transform="translate(-16.51 -42.72)"/><polygon class="cls-23" points="141.38 371.22 139.65 378.06 148.49 381.02 151.05 373.66 141.38 371.22"/><circle class="cls-21" cx="171.46" cy="342.49" r="1.02"/><circle class="cls-21" cx="149.01" cy="329.34" r="0.62"/><polygon points="158.29 340.19 204.13 331.79 206.34 342.8 161.66 350.54 158.29 340.19"/><polygon class="cls-4" points="203.85 338.88 202.63 333.61 159.58 341.84 160.98 347.16 203.85 338.88"/><polygon class="cls-31" points="161.35 344.13 173.86 407.52 219.24 398.41 207.54 335.32 161.35 344.13"/><polygon points="161.35 344.13 158.29 340.19 170.59 403.38 173.86 407.52 161.35 344.13"/><polygon class="cls-4" points="202.57 358.21 173.63 363.73 172.08 356.13 201.02 350.61 202.57 358.21"/><path class="cls-8" d="M176.51,409.19l12.1.29.27-2.64a2.22,2.22,0,0,1,1.75-1.94,2,2,0,0,1,2.28,1.23l5,12.63,3.77,9.71c-7.55,1.67-13.7-.46-15.11-2.39l-9.08-1.57a1.67,1.67,0,0,1-1.51-1.78c0-.67.42-1.57,2.36-1.52l-1.94,0a1.73,1.73,0,0,1-1.56-1.89c.05-.87,1-1.55,2.18-1.65l-1.41-.18a1.78,1.78,0,0,1-1.57-2.14,2,2,0,0,1,2-1.56l2.13.06-2.23-.61a1.94,1.94,0,0,1-1.57-2.38A2.15,2.15,0,0,1,176.51,409.19Z" transform="translate(-16.51 -42.72)"/><polygon class="cls-8" points="181.41 376.04 201.69 375.75 201.93 387.96 181.57 386.28 181.41 376.04"/><path class="cls-20" d="M238.42,412.25l-36.17,3,3.25,16.83,33.9.92A10.41,10.41,0,0,0,250,421.3h0A10.41,10.41,0,0,0,238.42,412.25Z" transform="translate(-16.51 -42.72)"/></g><path class="cls-32" d="M199.24,215.8H31.07a14.58,14.58,0,0,0-14.56,14.42l.2,29.71a14.36,14.36,0,0,0,14.36,14.36H149l26.47,26.48V274.29h23.79a15.92,15.92,0,0,0,15.34-13.38V231.15C213.6,222.23,207.17,215.8,199.24,215.8Z" transform="translate(-16.51 -42.72)"/><text class="cls-33" transform="translate(25.14 206.18)">I n<tspan class="cls-34" x="15.58" y="0">ee</tspan><tspan class="cls-35" x="31.68" y="0">d </tspan><tspan class="cls-36" x="43.9" y="0">t</tspan><tspan x="49.06" y="0">o l</tspan><tspan class="cls-34" x="64.46" y="0">e</tspan><tspan x="72.51" y="0">arn onlin</tspan><tspan class="cls-37" x="129.93" y="0">e</tspan><tspan x="137.49" y="0">.</tspan></text><circle class="cls-29" cx="408.74" cy="249.17" r="170.91"/><text class="cls-38" transform="translate(188.65 446.5)"><tspan class="cls-39">W</tspan><tspan x="26.51" y="0">e build a </tspan><tspan class="cls-40" x="148.07" y="0">c</tspan><tspan x="162.65" y="0">ou</tspan><tspan class="cls-40" x="195.79" y="0">r</tspan><tspan class="cls-41" x="205.83" y="0">s</tspan><tspan x="218.77" y="0">e </tspan><tspan class="cls-42" x="242.22" y="0">t</tspan><tspan x="252.62" y="0">o m</tspan><tspan class="cls-43" x="300.46" y="0">e</tspan><tspan class="cls-40" x="316.71" y="0">e</tspan><tspan x="332.67" y="0">t </tspan><tspan class="cls-42" x="350.7" y="0">y</tspan><tspan x="365.11" y="0">our n</tspan><tspan class="cls-43" x="432.25" y="0">eed</tspan><tspan x="482.21" y="0">s</tspan></text><path class="cls-28" d="M425.25,121a170.92,170.92,0,1,0,0,341.83Z" transform="translate(-16.51 -42.72)"/><path class="cls-44" d="M254.33,291.89A170.92,170.92,0,0,0,425.25,462.81V291.89Z" transform="translate(-16.51 -42.72)"/><text class="cls-45" transform="translate(433.9 344.3)"><tspan class="cls-46">s</tspan><tspan class="cls-47" x="7.55" y="0">elf </tspan><tspan class="cls-48" x="30.96" y="0">s</tspan><tspan x="38.34" y="0">tudy</tspan></text><path class="cls-49" d="M502.63,302.66h-31.5a5.4,5.4,0,0,0-5.39,5.39v51.51a5.4,5.4,0,0,0,5.39,5.4h31.5a5.4,5.4,0,0,0,5.4-5.4V308.05A5.4,5.4,0,0,0,502.63,302.66Zm2.9,56.9a2.9,2.9,0,0,1-2.9,2.9h-31.5a2.9,2.9,0,0,1-2.89-2.9V308.05a2.9,2.9,0,0,1,2.89-2.89h31.5a2.9,2.9,0,0,1,2.9,2.89Z" transform="translate(-16.51 -42.72)"/><path class="cls-49" d="M486.88,306.47a.58.58,0,0,0,.58-.59.58.58,0,0,0-1.16,0A.58.58,0,0,0,486.88,306.47Z" transform="translate(-16.51 -42.72)"/><path class="cls-49" d="M484.71,308.8h4.35a.58.58,0,0,0,0-1.15h-4.35a.58.58,0,1,0,0,1.15Z" transform="translate(-16.51 -42.72)"/><path class="cls-49" d="M482.77,308.67a.45.45,0,1,0-.45-.45A.45.45,0,0,0,482.77,308.67Z" transform="translate(-16.51 -42.72)"/><path class="cls-49" d="M486.88,355.17a3.53,3.53,0,1,0,3.53,3.53A3.53,3.53,0,0,0,486.88,355.17Zm0,5.8a2.28,2.28,0,1,1,2.28-2.27A2.27,2.27,0,0,1,486.88,361Z" transform="translate(-16.51 -42.72)"/><path class="cls-49" d="M501.66,310.05H472.11a.63.63,0,0,0-.63.62v43.78a.63.63,0,0,0,.63.63h29.55a.63.63,0,0,0,.63-.63V310.67A.63.63,0,0,0,501.66,310.05ZM501,353.83h-28.3V311.3H501Z" transform="translate(-16.51 -42.72)"/><path class="cls-49" d="M499.64,339.79c-1.82-1.56-4.52-2.23-8-2a8.68,8.68,0,1,0-10.08-.24c-2.54-.25-7.89-.06-9.52,5.58a1.1,1.1,0,0,0,0,.18v9.85a.66.66,0,0,0,.66.66h28.49a.66.66,0,0,0,.66-.66v-9.42A6.1,6.1,0,0,0,499.64,339.79Zm-20.35-9.15a7.44,7.44,0,1,1,7.47,7.43h-.07A7.45,7.45,0,0,1,479.29,330.64Zm7.31,10.07h.63l.94,1.94-1.28,2.51-1-1.89Zm-.78-1.32a.44.44,0,0,1,.44-.44h1.25a.44.44,0,0,1,.44.44.44.44,0,0,1-.44.44h-1.25A.43.43,0,0,1,485.82,339.39Zm2.31,1.16a1.33,1.33,0,0,0,.7-1.16,1.26,1.26,0,0,0-.05-.33,8.4,8.4,0,0,0,1.51-.52l-1.61,3.14Zm-2.41.05-.39,1.49-1.71-3.36a8.63,8.63,0,0,0,1.34.4,2.11,2.11,0,0,0,0,.26A1.33,1.33,0,0,0,485.72,340.6Zm14.75,11.91H473.29v-9.1c1.65-5.5,7.59-4.69,9-4.42l4,7.91a.66.66,0,0,0,.58.36h0a.66.66,0,0,0,.59-.36l4-7.76c3.25-.27,5.71.28,7.29,1.63a4.75,4.75,0,0,1,1.71,3Z" transform="translate(-16.51 -42.72)"/><text class="cls-50" transform="translate(444.87 374.46)"><tspan class="cls-40">2</tspan><tspan class="cls-42" x="14.64" y="0">5</tspan><tspan x="29.61" y="0">%</tspan></text><path class="cls-49" d="M367.22,316.28c-1.35-1.16-3.35-1.66-6-1.48a6.43,6.43,0,1,0-7.48-.17c-1.89-.19-5.85-.05-7.06,4.13a.59.59,0,0,0,0,.13v7.31a.49.49,0,0,0,.49.49h21.13a.49.49,0,0,0,.49-.49v-7A4.49,4.49,0,0,0,367.22,316.28Zm-15.09-6.79a5.51,5.51,0,1,1,5.54,5.51h-.06A5.51,5.51,0,0,1,352.13,309.49Zm5.41,7.47H358l.69,1.44-.95,1.86-.71-1.4Zm-.58-1a.33.33,0,0,1,.33-.33h.93a.33.33,0,1,1,0,.66h-.93A.33.33,0,0,1,357,316Zm1.72.86a1,1,0,0,0,.49-1.1,7,7,0,0,0,1.11-.39l-1.19,2.33Zm-1.79,0L356.6,318l-1.26-2.49a5.65,5.65,0,0,0,1,.3,1.11,1.11,0,0,0,0,.19A1,1,0,0,0,356.89,316.87Zm10.94,8.84H347.68V319c1.22-4.08,5.62-3.48,6.66-3.27l3,5.86a.49.49,0,0,0,.44.27h0a.49.49,0,0,0,.43-.27l3-5.76c2.42-.19,4.24.21,5.42,1.21a3.55,3.55,0,0,1,1.26,2.26Z" transform="translate(-16.51 -42.72)"/><path class="cls-49" d="M337.24,326.25a4.86,4.86,0,0,0,3.44,8.31h0a4.87,4.87,0,1,0-3.44-8.31Zm7,3.44a3.58,3.58,0,0,1-3.58,3.58h0a3.58,3.58,0,1,1,3.58-3.58Z" transform="translate(-16.51 -42.72)"/><path class="cls-49" d="M335.15,342h11.06a.64.64,0,0,0,.64-.63c0-.17.11-4.28-2.47-6.65a.65.65,0,0,0-.83,0s-2.89,2.17-5.55,0a.64.64,0,0,0-.83,0,9.17,9.17,0,0,0-2.66,6.65.65.65,0,0,0,.64.65Zm2.51-6a5.81,5.81,0,0,0,6.2,0,8.14,8.14,0,0,1,1.68,4.68h-9.71A8.21,8.21,0,0,1,337.66,336.06Z" transform="translate(-16.51 -42.72)"/><path class="cls-49" d="M374.83,336.32h0a4.87,4.87,0,1,0-4.87-4.87A4.83,4.83,0,0,0,374.83,336.32Zm-2.53-7.4a3.58,3.58,0,1,1,5.06,5.06,3.52,3.52,0,0,1-2.53,1h0a3.59,3.59,0,0,1-3.58-3.58A3.52,3.52,0,0,1,372.3,328.92Z" transform="translate(-16.51 -42.72)"/><path class="cls-49" d="M381,343.15c0-.18.11-4.29-2.48-6.66a.64.64,0,0,0-.82,0s-2.89,2.17-5.55,0a.64.64,0,0,0-.83,0,9.13,9.13,0,0,0-2.66,6.64.62.62,0,0,0,.19.46.6.6,0,0,0,.45.19h11.06A.64.64,0,0,0,381,343.15Zm-11-.66a8.21,8.21,0,0,1,1.83-4.67,5.79,5.79,0,0,0,6.2,0,8.16,8.16,0,0,1,1.68,4.68Z" transform="translate(-16.51 -42.72)"/><path class="cls-49" d="M340.69,346.6a4.87,4.87,0,1,0,0,9.74h0a4.82,4.82,0,0,0,3.44-1.42,4.87,4.87,0,0,0-3.44-8.32Zm2.53,7.4a3.57,3.57,0,0,1-2.53,1.06h0a3.59,3.59,0,1,1,3.58-3.59A3.52,3.52,0,0,1,343.22,354Z" transform="translate(-16.51 -42.72)"/><path class="cls-49" d="M335.16,363.8h11a.65.65,0,0,0,.65-.62c0-.18.11-4.29-2.48-6.66a.65.65,0,0,0-.83,0s-2.89,2.18-5.55,0a.65.65,0,0,0-.83,0,9.23,9.23,0,0,0-2.65,6.65.61.61,0,0,0,.18.46A.66.66,0,0,0,335.16,363.8Zm2.51-6a5.77,5.77,0,0,0,6.19,0,8.16,8.16,0,0,1,1.69,4.68h-9.72A8.13,8.13,0,0,1,337.67,357.84Z" transform="translate(-16.51 -42.72)"/><path class="cls-49" d="M371.25,345.68a4.87,4.87,0,1,0,0,9.74h0a4.87,4.87,0,1,0,0-9.74Zm2.54,7.4a3.57,3.57,0,0,1-2.54,1.06h0a3.6,3.6,0,1,1,2.54-1.06Z" transform="translate(-16.51 -42.72)"/><path class="cls-49" d="M365.73,362.88h11a.64.64,0,0,0,.64-.62c0-.18.11-4.29-2.47-6.66a.65.65,0,0,0-.83,0s-2.89,2.18-5.55,0a.65.65,0,0,0-.83,0,9.17,9.17,0,0,0-2.66,6.65.66.66,0,0,0,.19.46A.64.64,0,0,0,365.73,362.88Zm2.51-6a5.77,5.77,0,0,0,6.19,0,8.16,8.16,0,0,1,1.69,4.68H366.4A8.13,8.13,0,0,1,368.24,356.92Z" transform="translate(-16.51 -42.72)"/><path class="cls-49" d="M357.05,350.33a4.87,4.87,0,0,0,0,9.74h0a4.88,4.88,0,0,0,4.87-4.87A4.88,4.88,0,0,0,357.05,350.33Zm2.54,7.4a3.56,3.56,0,0,1-2.53,1h0a3.58,3.58,0,1,1,2.54-1Z" transform="translate(-16.51 -42.72)"/><path class="cls-49" d="M351.53,367.53h11.05a.64.64,0,0,0,.64-.63c0-.17.12-4.28-2.47-6.65a.65.65,0,0,0-.83,0s-2.89,2.17-5.55,0a.65.65,0,0,0-.83,0,9.26,9.26,0,0,0-2.66,6.65.65.65,0,0,0,.65.65Zm2.51-6a5.77,5.77,0,0,0,6.19,0,8.16,8.16,0,0,1,1.69,4.68H352.2A8.13,8.13,0,0,1,354,361.57Z" transform="translate(-16.51 -42.72)"/><text class="cls-45" transform="translate(297.36 343.69)">Cl<tspan class="cls-51" x="16.14" y="0">a</tspan><tspan class="cls-52" x="26.32" y="0">s</tspan><tspan class="cls-53" x="33.54" y="0">s </tspan><tspan class="cls-54" x="45.38" y="0">s</tspan><tspan class="cls-53" x="52.76" y="0">tudy</tspan></text><text class="cls-50" transform="translate(317.29 374.46)"><tspan class="cls-40">2</tspan><tspan class="cls-55" x="14.64" y="0">5</tspan><tspan x="29.61" y="0">%</tspan></text><text class="cls-45" transform="translate(303.15 204.5)"><tspan class="cls-56">f</tspan><tspan class="cls-57" x="5.19" y="0">a</tspan><tspan class="cls-58" x="15.46" y="0">c</tspan><tspan x="23.97" y="0">e </tspan><tspan class="cls-54" x="37.65" y="0">t</tspan><tspan x="43.71" y="0">o </tspan><tspan class="cls-56" x="57.56" y="0">f</tspan><tspan x="62.75" y="0">a</tspan><tspan class="cls-58" x="73.02" y="0">c</tspan><tspan class="cls-47" x="81.53" y="0">e</tspan></text><path class="cls-49" d="M387.28,222.64c0-.28.18-7.09-4.1-11a1.19,1.19,0,0,0-1.52-.07c-.19.14-4.69,3.48-9,0a1.18,1.18,0,0,0-1.52,0,9.84,9.84,0,0,0-1.3,1.46,14.48,14.48,0,0,0-2.39-2.84,1.18,1.18,0,0,0-1.51-.07c-.28.22-7,5.23-13.44,0a1.19,1.19,0,0,0-1.52,0c-.24.22-6,5.32-6.12,15.36a1.12,1.12,0,0,0,.34.84,1.15,1.15,0,0,0,.84.35H372a1.17,1.17,0,0,0,1.18-1.14c0-.1,0-.77,0-1.8H386.1A1.17,1.17,0,0,0,387.28,222.64Zm-40,1.74a19.76,19.76,0,0,1,4.62-11.74c6.12,4.27,12.38,1.31,14.62,0,3.48,3.73,4.15,9.38,4.28,11.77Zm25.59-2.95a23.45,23.45,0,0,0-1.74-6,9.92,9.92,0,0,1,.95-1.34,9.58,9.58,0,0,0,10.11,0c2,2.35,2.53,5.68,2.66,7.4Z" transform="translate(-16.51 -42.72)"/><path class="cls-49" d="M375.06,181h-9.19v2.9a2.62,2.62,0,0,0,2.62,2.62h8.18l2.32,2.67a.88.88,0,0,0,.67.31.8.8,0,0,0,.34-.07.88.88,0,0,0,.54-.88l-.16-2h4.2a2.63,2.63,0,0,0,2.63-2.62V173.48a2.63,2.63,0,0,0-2.63-2.63h-5.72v6.3A3.8,3.8,0,0,1,375.06,181Zm4-3.74v-4.59h5.51a.86.86,0,0,1,.86.86v10.37a.85.85,0,0,1-.86.85h-5.15a.91.91,0,0,0-.89,1l0,.3-.83-1a.87.87,0,0,0-.67-.31h-8.58a.85.85,0,0,1-.85-.85v-2.76h7.55A3.88,3.88,0,0,0,379.07,177.21Z" transform="translate(-16.51 -42.72)"/><path class="cls-49" d="M343.13,177.15a3.8,3.8,0,0,0,3.8,3.8h10.21l-.29,3.66a1,1,0,0,0,.62,1,1.1,1.1,0,0,0,.4.08,1,1,0,0,0,.76-.35l3.84-4.41h12.59a3.8,3.8,0,0,0,3.8-3.8V162a3.8,3.8,0,0,0-3.8-3.8H346.93a3.81,3.81,0,0,0-3.8,3.8Zm2-15.15a1.76,1.76,0,0,1,1.76-1.76h28.13a1.76,1.76,0,0,1,1.76,1.76v15.15a1.76,1.76,0,0,1-1.76,1.76H362a1,1,0,0,0-.77.35l-2.11,2.43.13-1.68a1,1,0,0,0-.26-.77,1,1,0,0,0-.75-.33H346.93a1.76,1.76,0,0,1-1.76-1.76Z" transform="translate(-16.51 -42.72)"/><path class="cls-49" d="M377,211.55h0a8.13,8.13,0,0,0,8.11-8.11,8.11,8.11,0,0,0-13.85-5.74,7.87,7.87,0,0,0-1.19,1.53c0-.37.05-.74.05-1.11a11.1,11.1,0,1,0-11.1,11.11h0a11.12,11.12,0,0,0,9.87-6c0,.08,0,.16,0,.24A8.12,8.12,0,0,0,377,211.55ZM373,199.37a5.69,5.69,0,0,1,4.06-1.69,5.76,5.76,0,0,1,0,11.51h0a5.75,5.75,0,0,1-4.06-9.82Zm-7.73,4.94a8.69,8.69,0,0,1-6.18,2.56h0a8.74,8.74,0,1,1,6.18-2.56Z" transform="translate(-16.51 -42.72)"/><text class="cls-50" transform="translate(324.17 230.09)"><tspan class="cls-40">2</tspan><tspan class="cls-55" x="14.64" y="0">5</tspan><tspan x="29.61" y="0">%</tspan></text><path class="cls-59" d="M545.83,170.78A170.34,170.34,0,0,0,425.25,121V291.37l-.27.26h.27v.26l.26-.26,170.39-.37a170.37,170.37,0,0,0-50.06-120.48" transform="translate(-16.51 -42.72)"/><path class="cls-49" d="M478.38,184.12a11.27,11.27,0,0,0,8,19.24h0a11.28,11.28,0,0,0,11.27-11.28,11.27,11.27,0,0,0-19.25-8Zm16.27,8a8.31,8.31,0,0,1-8.29,8.3h0a8.29,8.29,0,1,1,8.29-8.3Z" transform="translate(-16.51 -42.72)"/><path class="cls-49" d="M494.9,203.77a1.48,1.48,0,0,0-1.91-.09c-.07.06-6.69,5-12.84,0a1.5,1.5,0,0,0-1.93,0c-.24.21-6,5.33-6.15,15.38a1.53,1.53,0,0,0,.43,1.07,1.5,1.5,0,0,0,1.06.44h25.59a1.5,1.5,0,0,0,1.49-1.45C500.65,218.77,500.89,209.25,494.9,203.77Zm-19.77,13.87a18.83,18.83,0,0,1,4.24-10.81c5.38,3.57,11.16,1.88,14.33,0,3,3.43,3.75,8.41,3.91,10.83Z" transform="translate(-16.51 -42.72)"/><path class="cls-49" d="M471.63,204a1.09,1.09,0,0,0,.66-.22h3.49a.89.89,0,0,0,.89-.89V186.44a.89.89,0,0,0-.89-.89h-1v-10c0-3.55,5-6.38,10.83-6.49,6.43-.12,12.25,2.94,12.25,6.49v10h-1a.89.89,0,0,0-.89.89v16.49a.89.89,0,0,0,.89.89h3.49a1.09,1.09,0,0,0,.66.22,9.35,9.35,0,0,0,3.16-18.15V175.58c0-7.39-9.21-12.63-18.59-12.83-7.88-.18-17.18,5.44-17.18,12.83v10.31A9.35,9.35,0,0,0,471.63,204ZM502,175.58v9.8a7.3,7.3,0,0,0-.94,0,1.09,1.09,0,0,0-.66.22h-.31v-10c0-5.19-7.83-9-14.46-8.71s-13,3.52-13,8.71v10h-.31a1.09,1.09,0,0,0-.66-.22,7.3,7.3,0,0,0-.94,0v-9.8c0-6.21,8.27-10.33,15-10.62C493,164.65,502,169.37,502,175.58Zm-4.21,11.74h2.39v14.73h-2.39Zm4.38,14.42V187.63a7.14,7.14,0,0,1,0,14.11Zm-27.29.31h-2.38V187.32h2.38Zm-4.38-14.42v14.11a7.14,7.14,0,0,1,0-14.11Z" transform="translate(-16.51 -42.72)"/><text class="cls-45" transform="translate(433.9 200.22)">online <tspan class="cls-58" x="51.2" y="0">c</tspan><tspan x="59.7" y="0">ou</tspan><tspan class="cls-58" x="79.04" y="0">r</tspan><tspan class="cls-46" x="84.89" y="0">s</tspan><tspan class="cls-47" x="92.44" y="0">e</tspan></text><text class="cls-50" transform="translate(440.03 230.91)"><tspan class="cls-40">2</tspan><tspan class="cls-42" x="14.64" y="0">5</tspan><tspan x="29.61" y="0">%</tspan></text><line class="cls-60" x1="694.27" y1="459.57" x2="123.22" y2="459.57"/></svg>