<svg xmlns="http://www.w3.org/2000/svg" xmlns:xlink="http://www.w3.org/1999/xlink" viewBox="0 0 684.98 437.61"><defs><style>.cls-1{isolation:isolate;}.cls-2{opacity:0.5;fill:url(#linear-gradient);}.cls-10,.cls-13,.cls-16,.cls-25,.cls-26,.cls-28,.cls-29,.cls-3,.cls-4,.cls-44,.cls-5,.cls-55,.cls-6,.cls-7,.cls-8{fill:none;}.cls-3{stroke:#5730a0;stroke-width:2px;}.cls-10,.cls-13,.cls-16,.cls-26,.cls-28,.cls-29,.cls-3,.cls-4,.cls-44,.cls-5,.cls-6,.cls-7,.cls-8{stroke-linecap:round;}.cls-10,.cls-13,.cls-16,.cls-26,.cls-28,.cls-29,.cls-3,.cls-44{stroke-linejoin:round;}.cls-4,.cls-5{stroke:#dc4540;}.cls-25,.cls-4,.cls-5,.cls-55,.cls-6,.cls-7,.cls-8{stroke-miterlimit:10;}.cls-5{stroke-dasharray:12.16 5.07;}.cls-6,.cls-7{stroke:#8c649a;}.cls-7{stroke-dasharray:12.26 5.11;}.cls-8{stroke:#6f4082;stroke-dasharray:12 5;}.cls-9{fill:#e23d3d;}.cls-10,.cls-13,.cls-16{stroke:#fff;}.cls-10{stroke-width:1.38px;}.cls-11{fill:#d31610;}.cls-12{fill:#dc4540;}.cls-13{stroke-width:1.06px;}.cls-14{fill:#8e64a0;}.cls-15{fill:#8c649a;}.cls-16{stroke-width:1.62px;}.cls-17,.cls-18,.cls-19{fill:#885a9b;}.cls-102,.cls-18,.cls-20{opacity:0.3;}.cls-19{opacity:0.2;}.cls-21{fill:#431459;}.cls-22{fill:#ffcad0;}.cls-23{fill:#edb2bb;}.cls-103,.cls-24,.cls-30,.cls-88{fill:#fff;}.cls-24{opacity:0.22;}.cls-25{stroke:#d86539;stroke-width:0.72px;}.cls-26{stroke:#eab2ba;stroke-width:0.45px;}.cls-27{fill:#171d51;}.cls-28{stroke:#171d51;}.cls-28,.cls-44{stroke-width:1.15px;}.cls-29{stroke:#ee84aa;stroke-width:0.86px;}.cls-31{fill:#1a1a1a;}.cls-32{fill:#af93b9;}.cls-33{fill:#7f7f7f;}.cls-34{fill:#6d6d6d;}.cls-35{fill:#ceb4a1;}.cls-36{fill:#c4ab9b;}.cls-37{fill:#fec9cf;}.cls-38{fill:#ceb5a1;}.cls-39{fill:#b3b3b3;}.cls-40{fill:#ee84aa;}.cls-41{fill:#a99b95;}.cls-42{fill:#ffa687;}.cls-43{fill:#3b164c;}.cls-44{stroke:#a99b95;}.cls-45{fill:#f6f3f7;}.cls-46{fill:#e4e4e0;}.cls-47{fill:url(#linear-gradient-2);}.cls-48{fill:url(#linear-gradient-3);}.cls-49{fill:#910f0f;}.cls-50{fill:#80538f;}.cls-51{fill:#292c3d;}.cls-52{fill:#d3bbab;}.cls-53{fill:#f7c249;}.cls-54{fill:#ddc6ba;}.cls-55{stroke:#f7c249;}.cls-56{fill:#511a66;}.cls-57{fill:#837165;}.cls-58{fill:#1e0401;}.cls-59{fill:#d72923;}.cls-60{fill:#4d505e;}.cls-61{fill:#eea4a2;}.cls-62{fill:#0b0b0c;}.cls-63{fill:#abacb3;opacity:0.55;mix-blend-mode:multiply;}.cls-64{fill:#ccc;}.cls-65{fill:#e57370;}.cls-66{fill:#3d8ed1;}.cls-67{fill:url(#linear-gradient-4);}.cls-68{fill:#ff4f58;}.cls-69{fill:#ff6f59;}.cls-70{fill:#ffad5b;}.cls-71{fill:#bdc1c9;}.cls-72{fill:#b8b8b8;}.cls-73,.cls-74{opacity:0.18;}.cls-73{fill:url(#linear-gradient-5);}.cls-74{fill:url(#linear-gradient-6);}.cls-75{fill:url(#linear-gradient-7);}.cls-76{fill:url(#linear-gradient-8);}.cls-77{fill:url(#linear-gradient-9);}.cls-78{fill:url(#linear-gradient-10);}.cls-79{fill:url(#linear-gradient-11);}.cls-80{fill:url(#linear-gradient-12);}.cls-81{fill:#ed9d9b;}.cls-82{fill:url(#linear-gradient-13);}.cls-83{fill:url(#linear-gradient-14);}.cls-84{fill:url(#linear-gradient-15);}.cls-85{fill:#ebeff7;}.cls-86{fill:url(#linear-gradient-16);}.cls-87{fill:#9c79a8;}.cls-88{mix-blend-mode:soft-light;}.cls-89{fill:url(#linear-gradient-17);}.cls-90{fill:url(#linear-gradient-18);}.cls-91{fill:url(#linear-gradient-19);}.cls-92{fill:url(#linear-gradient-20);}.cls-93{fill:url(#linear-gradient-21);}.cls-94{fill:url(#linear-gradient-22);}.cls-95{fill:url(#linear-gradient-23);}.cls-96{fill:url(#linear-gradient-24);}.cls-97{fill:url(#linear-gradient-25);}.cls-98{fill:url(#linear-gradient-26);}.cls-99{fill:#fff6e6;}.cls-100{fill:#ffecca;}.cls-101{fill:#441659;}.cls-102{fill:#47284f;}.cls-103{font-size:14px;font-family:Gilroy-ExtraBold, Gilroy;font-weight:800;}.cls-104{letter-spacing:-0.1em;}.cls-105{letter-spacing:-0.01em;}.cls-106{letter-spacing:-0.02em;}.cls-107{letter-spacing:0em;}.cls-108{letter-spacing:-0.02em;}.cls-109{letter-spacing:0em;}.cls-110{letter-spacing:-0.01em;}.cls-111{letter-spacing:-0.01em;}.cls-112{letter-spacing:0em;}.cls-113{letter-spacing:0em;}</style><linearGradient id="linear-gradient" x1="43.07" y1="286.06" x2="721.53" y2="286.06" gradientUnits="userSpaceOnUse"><stop offset="0" stop-color="#d31610"/><stop offset="1" stop-color="#511a66"/></linearGradient><linearGradient id="linear-gradient-2" x1="467.6" y1="267.13" x2="472.53" y2="267.13" xlink:href="#linear-gradient"/><linearGradient id="linear-gradient-3" x1="464.26" y1="288.46" x2="475.18" y2="288.46" xlink:href="#linear-gradient"/><linearGradient id="linear-gradient-4" x1="378.09" y1="272.99" x2="413.67" y2="272.99" gradientUnits="userSpaceOnUse"><stop offset="0" stop-color="#d5e4ff"/><stop offset="1" stop-color="#edfffe"/></linearGradient><linearGradient id="linear-gradient-5" x1="370.49" y1="123.54" x2="392.03" y2="123.54" gradientTransform="translate(762.52 247.07) rotate(-180)" xlink:href="#linear-gradient-4"/><linearGradient id="linear-gradient-6" x1="370.49" y1="120.13" x2="392.03" y2="120.13" gradientTransform="translate(762.52 240.26) rotate(-180)" xlink:href="#linear-gradient-4"/><linearGradient id="linear-gradient-7" x1="160.27" y1="164.02" x2="248.75" y2="75.54" gradientUnits="userSpaceOnUse"><stop offset="0.08" stop-color="#bcd7e8"/><stop offset="1" stop-color="#e6e7e8"/></linearGradient><linearGradient id="linear-gradient-8" x1="156.62" y1="160.38" x2="245.11" y2="71.89" xlink:href="#linear-gradient-7"/><linearGradient id="linear-gradient-9" x1="147.77" y1="151.53" x2="236.26" y2="63.05" xlink:href="#linear-gradient-7"/><linearGradient id="linear-gradient-10" x1="148.05" y1="135" x2="236.54" y2="46.52" xlink:href="#linear-gradient-7"/><linearGradient id="linear-gradient-11" x1="141.47" y1="405.17" x2="229.95" y2="316.68" xlink:href="#linear-gradient-7"/><linearGradient id="linear-gradient-12" x1="160.17" y1="388.01" x2="248.65" y2="299.53" xlink:href="#linear-gradient-7"/><linearGradient id="linear-gradient-13" x1="405.17" y1="346.84" x2="519.35" y2="346.84" gradientUnits="userSpaceOnUse"><stop offset="0" stop-color="#ed9d9b"/><stop offset="1" stop-color="#d88888"/></linearGradient><linearGradient id="linear-gradient-14" x1="408.35" y1="432.86" x2="390.08" y2="330.53" xlink:href="#linear-gradient-13"/><linearGradient id="linear-gradient-15" x1="391.72" y1="486.4" x2="317.79" y2="364.52" xlink:href="#linear-gradient-13"/><linearGradient id="linear-gradient-16" x1="338.04" y1="412.41" x2="327.26" y2="391.18" gradientUnits="userSpaceOnUse"><stop offset="0" stop-color="#fff"/><stop offset="1" stop-color="#b3b3b3"/></linearGradient><linearGradient id="linear-gradient-17" x1="273.46" y1="415.58" x2="256.85" y2="330.1" gradientUnits="userSpaceOnUse"><stop offset="0" stop-color="#efafaf"/><stop offset="0.79" stop-color="#ed9d9b"/><stop offset="0.89" stop-color="#e19190"/><stop offset="1" stop-color="#d88888"/></linearGradient><linearGradient id="linear-gradient-18" x1="265.31" y1="374.15" x2="275.35" y2="416.01" gradientUnits="userSpaceOnUse"><stop offset="0" stop-color="#ed9d9b"/><stop offset="1" stop-color="#ffe0d1"/></linearGradient><linearGradient id="linear-gradient-19" x1="266.41" y1="363.44" x2="252.57" y2="295.28" xlink:href="#linear-gradient-17"/><linearGradient id="linear-gradient-20" x1="260.75" y1="335.39" x2="272.17" y2="385.39" xlink:href="#linear-gradient-18"/><linearGradient id="linear-gradient-21" x1="263.12" y1="325.08" x2="263.64" y2="224.02" xlink:href="#linear-gradient-17"/><linearGradient id="linear-gradient-22" x1="263.33" y1="307.12" x2="269.73" y2="351.75" xlink:href="#linear-gradient-18"/><linearGradient id="linear-gradient-23" x1="255.93" y1="280.94" x2="287.42" y2="233.9" xlink:href="#linear-gradient-17"/><linearGradient id="linear-gradient-24" x1="245.64" y1="268.83" x2="263.09" y2="268.83" gradientUnits="userSpaceOnUse"><stop offset="0" stop-color="#ffe0d1"/><stop offset="0.96" stop-color="#ed9d9b"/></linearGradient><linearGradient id="linear-gradient-25" x1="285.28" y1="275.61" x2="293.7" y2="275.61" xlink:href="#linear-gradient"/><linearGradient id="linear-gradient-26" x1="281.85" y1="299.69" x2="297.13" y2="299.69" xlink:href="#linear-gradient"/></defs><g class="cls-1"><g id="Layer_2" data-name="Layer 2"><path class="cls-2" d="M72.63,504S.4,419.86,81.77,328.25c65.58-73.84,44.64-102.4,41.62-152.19-2.56-42.15,45.23-104.47,116.76-107.58,117.24-5.1,146.39,32.57,208.63,29.91s90.4-24.46,162.7-15.87C745.64,98.45,727.56,225.6,708,320.65s39.19,127.49-3.08,183.47" transform="translate(-43.07 -68)"/><line class="cls-3" x1="6.22" y1="436.61" x2="672.24" y2="436.61"/><line class="cls-4" x1="147.07" y1="209.76" x2="141.07" y2="209.76"/><path class="cls-5" d="M179.08,277.76H135.5a4.44,4.44,0,0,0-4.44,4.44V450.64a4.44,4.44,0,0,0,.63,2.28" transform="translate(-43.07 -68)"/><path class="cls-4" d="M133.52,454.62a4.54,4.54,0,0,0,2,.46h3.95" transform="translate(-43.07 -68)"/><line class="cls-6" x1="531.25" y1="153.35" x2="537.25" y2="153.35"/><path class="cls-7" d="M585.43,221.35h93.48a7.8,7.8,0,0,1,7.8,7.8V365.72a7.8,7.8,0,0,1-7.8,7.8h-3.38" transform="translate(-43.07 -68)"/><line class="cls-6" x1="629.9" y1="305.52" x2="623.9" y2="305.52"/><path class="cls-8" d="M363.06,190.13V130a12.75,12.75,0,0,0-12.75-12.75H203.24s-9.15.76-9.91,13,0,128.18,0,128.18" transform="translate(-43.07 -68)"/><polyline class="cls-9" points="622.74 215.01 615.53 218.85 619.14 209.48"/><path class="cls-9" d="M688.18,271A15.24,15.24,0,1,1,673,255.78,15.23,15.23,0,0,1,688.18,271Z" transform="translate(-43.07 -68)"/><polyline class="cls-10" points="623.46 201.57 628.08 207.32 636.29 198.72"/><polyline class="cls-11" points="68.28 233.57 75.49 237.28 71.88 228.25"/><path class="cls-11" d="M89,290c0,8.11,6.82,14.68,15.24,14.68s15.24-6.57,15.24-14.68-6.83-14.68-15.24-14.68S89,281.92,89,290Z" transform="translate(-43.07 -68)"/><polyline class="cls-10" points="54.73 220.63 59.36 226.17 67.56 217.88"/><path class="cls-12" d="M299.54,457.64a6.14,6.14,0,1,1-6.88-5.3A6.14,6.14,0,0,1,299.54,457.64Z" transform="translate(-43.07 -68)"/><polyline class="cls-13" points="247.74 391.06 250.44 393.08 253.08 388.34"/><path class="cls-14" d="M316.08,134.52a6.14,6.14,0,1,1-7.75-3.93A6.15,6.15,0,0,1,316.08,134.52Z" transform="translate(-43.07 -68)"/><polyline class="cls-13" points="264.69 69.54 267.72 71.02 269.43 65.87"/><path class="cls-15" d="M646.41,248.34a9.39,9.39,0,1,1-8.68-10.05A9.39,9.39,0,0,1,646.41,248.34Z" transform="translate(-43.07 -68)"/><polyline class="cls-16" points="589.82 179.79 593.24 183.63 598.66 177.35"/><path class="cls-17" d="M617.6,247.32a2.26,2.26,0,1,1-2.26-2.26A2.26,2.26,0,0,1,617.6,247.32Z" transform="translate(-43.07 -68)"/><path class="cls-18" d="M541.55,92a2.26,2.26,0,1,1-2.26-2.25A2.26,2.26,0,0,1,541.55,92Z" transform="translate(-43.07 -68)"/><path class="cls-17" d="M173.66,297.93a3.61,3.61,0,1,1-3.61-3.61A3.61,3.61,0,0,1,173.66,297.93Z" transform="translate(-43.07 -68)"/><path class="cls-18" d="M721.53,334.41a5.55,5.55,0,1,1-5.54-5.54A5.54,5.54,0,0,1,721.53,334.41Z" transform="translate(-43.07 -68)"/><path class="cls-18" d="M115.39,257.84a5.55,5.55,0,1,1-5.55-5.54A5.55,5.55,0,0,1,115.39,257.84Z" transform="translate(-43.07 -68)"/><path class="cls-18" d="M676,384.4a3.61,3.61,0,1,1-3.6-3.61A3.6,3.6,0,0,1,676,384.4Z" transform="translate(-43.07 -68)"/><path class="cls-18" d="M394.71,105a3.61,3.61,0,1,1-3.61-3.61A3.61,3.61,0,0,1,394.71,105Z" transform="translate(-43.07 -68)"/><path class="cls-19" d="M461.8,87a3.61,3.61,0,1,1-3.61-3.6A3.61,3.61,0,0,1,461.8,87Z" transform="translate(-43.07 -68)"/><path class="cls-11" d="M105.44,209.05a.72.72,0,0,1-.72-.72v-5.08a.72.72,0,0,1,1.44,0v5.08A.72.72,0,0,1,105.44,209.05Z" transform="translate(-43.07 -68)"/><path class="cls-11" d="M108,206.51H102.9a.72.72,0,1,1,0-1.44H108a.72.72,0,0,1,0,1.44Z" transform="translate(-43.07 -68)"/><g class="cls-20"><path class="cls-11" d="M145.31,81.36a.72.72,0,0,1-.72-.72V75.56a.72.72,0,0,1,1.44,0v5.08A.73.73,0,0,1,145.31,81.36Z" transform="translate(-43.07 -68)"/><path class="cls-11" d="M147.85,78.82h-5.08a.72.72,0,0,1,0-1.44h5.08a.72.72,0,0,1,0,1.44Z" transform="translate(-43.07 -68)"/></g><path class="cls-11" d="M568.06,142.17a.72.72,0,0,1-.72-.72v-5.08a.72.72,0,0,1,1.44,0v5.08A.72.72,0,0,1,568.06,142.17Z" transform="translate(-43.07 -68)"/><path class="cls-11" d="M570.6,139.63h-5.08a.72.72,0,0,1,0-1.44h5.08a.72.72,0,1,1,0,1.44Z" transform="translate(-43.07 -68)"/><path class="cls-11" d="M724.79,410.41a.72.72,0,0,1-.72-.72v-5.08a.72.72,0,1,1,1.44,0v5.08A.72.72,0,0,1,724.79,410.41Z" transform="translate(-43.07 -68)"/><path class="cls-11" d="M727.33,407.87h-5.08a.72.72,0,0,1,0-1.44h5.08a.72.72,0,0,1,0,1.44Z" transform="translate(-43.07 -68)"/><path class="cls-21" d="M632.53,316.87a25.39,25.39,0,0,1,1.28,13.8c-1.39,8.25,7.69,7.45,6.6,15.44,0,0-25.75,7.65-49.54-7.86,0,0-1.63-7.07,3.34-8.77,7-2.37,8.72-9.57,8.72-9.57Z" transform="translate(-43.07 -68)"/><ellipse class="cls-21" cx="618.23" cy="321.99" rx="14.34" ry="15.44" transform="translate(172.73 823.15) rotate(-82.25)"/><polygon class="cls-22" points="576.61 265.75 578.24 289.27 572.56 295.73 563.88 287.65 568.45 267.11 576.61 265.75"/><path class="cls-23" d="M609.81,342.81l1.49-6.24,8.29,3.62a12.34,12.34,0,0,1-4.57,2.07A20.57,20.57,0,0,1,609.81,342.81Z" transform="translate(-43.07 -68)"/><path class="cls-23" d="M607.47,332.17a11.7,11.7,0,0,0-.66-4.33c-.7-1.93-1.9-3.85-4.2-3.12-3.91,1.25-1.08,7.72,2.62,8.71a1.69,1.69,0,0,0,2.24-1.26Z" transform="translate(-43.07 -68)"/><path class="cls-22" d="M622.14,311.32a17.27,17.27,0,0,0-7.93-1.4c-3.66.27-8.53,1.88-10,8.32-2.43,10.72-1.89,17.83,2.8,21.49,3.28,2.57,7,2.83,12.06.72,1.9-.79,4.73-4.21,5.49-6.22l2.19-5.6S634.06,316.39,622.14,311.32Z" transform="translate(-43.07 -68)"/><path class="cls-24" d="M619,320.8,612.51,327s1.08,3.29,3.65,3.38l6.46-6.06S621.7,321.06,619,320.8Z" transform="translate(-43.07 -68)"/><path class="cls-24" d="M607.21,318.82l-5.62,6.36s.84,3.26,3,3.29l5.63-6.19S609.55,319,607.21,318.82Z" transform="translate(-43.07 -68)"/><path class="cls-25" d="M612.46,324.8a5.2,5.2,0,1,0,6-4.27A5.21,5.21,0,0,0,612.46,324.8Z" transform="translate(-43.07 -68)"/><path class="cls-25" d="M601.58,323c-.47,2.83,1.1,5.46,3.5,5.87s4.73-1.56,5.2-4.39-1.1-5.46-3.51-5.87S602.05,320.11,601.58,323Z" transform="translate(-43.07 -68)"/><path class="cls-25" d="M612.46,324.8a2.44,2.44,0,0,0-2.18-.37" transform="translate(-43.07 -68)"/><line class="cls-25" x1="582.97" y1="261.68" x2="579.57" y2="258.95"/><path class="cls-21" d="M624.48,330.92c0-1-2.82-9,1.35-18.57,0,0,3.81-.45,4.28,6.51C630.87,330,624.48,330.92,624.48,330.92Z" transform="translate(-43.07 -68)"/><path class="cls-22" d="M622.45,334.18a12.28,12.28,0,0,1,2.33-4c1.43-1.61,3.36-3,5.32-1.41,3.33,2.74-2,8-6,7.48-1.18-.14-2-1.19-1.69-2.1Z" transform="translate(-43.07 -68)"/><path class="cls-26" d="M628.71,331.59c-2.7-1.35-4.64,1.62-4.64,1.62" transform="translate(-43.07 -68)"/><path class="cls-21" d="M627,313.16s-5.23,5.08-24.05,2c0,0,3.76-7.14,13.5-7.51S627,313.16,627,313.16Z" transform="translate(-43.07 -68)"/><circle class="cls-27" cx="571.26" cy="258.75" r="0.84"/><circle class="cls-27" cx="563.65" cy="258.75" r="0.84"/><path class="cls-28" d="M618.8,319.38a3.41,3.41,0,0,0-3.9-1.32" transform="translate(-43.07 -68)"/><path class="cls-28" d="M610.32,318.18a2.68,2.68,0,0,0-3.8.17" transform="translate(-43.07 -68)"/><path class="cls-29" d="M610.59,325.2a12.19,12.19,0,0,1-1.68,3.77c-1,1.3,1.52,2.09,1.52,2.09" transform="translate(-43.07 -68)"/><path class="cls-29" d="M615.64,332.71a4,4,0,0,1-4.07,1.54" transform="translate(-43.07 -68)"/><polygon class="cls-30" points="490.33 416.19 495.86 402.43 489.58 399.49 484.05 413.22 490.33 416.19"/><path class="cls-31" d="M533.88,484.41l5.8,8,4,2.95a5.12,5.12,0,0,1,1.77,5.9l-.36,1-23.77-11.15,4.83-10.3Z" transform="translate(-43.07 -68)"/><polyline class="cls-30" points="478.06 423.2 502.03 434.44 503.02 432.32 479.06 421.08 478.06 423.2"/><polygon class="cls-30" points="475.73 416.12 480.88 399.89 473.44 397.06 468.29 413.26 475.73 416.12"/><path class="cls-31" d="M519.37,484.34,526.7,493l4.83,3a5.9,5.9,0,0,1,2.54,6.6l-.33,1.18-28.18-10.71,4.63-12.21Z" transform="translate(-43.07 -68)"/><polyline class="cls-30" points="462.3 425.21 490.71 436 491.66 433.49 463.25 422.7 462.3 425.21"/><rect class="cls-32" x="442.4" y="349.68" width="3.2" height="85.68"/><rect class="cls-32" x="501.69" y="349.68" width="3.2" height="85.68"/><rect class="cls-32" x="540.69" y="349.68" width="3.2" height="85.78"/><rect class="cls-32" x="599.99" y="349.68" width="3.2" height="85.78"/><rect class="cls-9" x="433.8" y="344.7" width="79.68" height="8.25"/><path class="cls-33" d="M525.5,384.08s6.53,5.08,20.33,10.46c8.76,3.42,21,7.89,20.59,17.29-.29,6.85-27.87,72.89-27.87,72.89L526,478.45s23-55.58,22.55-59.36-3.06-.43-25.76-2.49-29.57-6.37-29.42-17.15,6.09-25.82,15.28-29.64S525.5,384.08,525.5,384.08Z" transform="translate(-43.07 -68)"/><path class="cls-34" d="M523.51,384.55s1.1,4.73,14.9,10.11c8.75,3.41,19.63,9.66,19.62,15.68,0,6.86-25.69,71.28-25.69,71.28L526,478.45s23-55.58,22.55-59.36-3.06-.43-25.76-2.49-29.57-6.37-29.42-17.15,6.09-25.82,15.28-29.64S523.51,384.55,523.51,384.55Z" transform="translate(-43.07 -68)"/><path class="cls-33" d="M518.4,374.86s.58,14.69,9.24,18.34,27.05,8.62,27,18.22c0,6.86-29.7,74.78-29.7,74.78l-15.22-7.12s20.11-55,19.6-58.73,1.48-1.91-21.26-3.28-25.81-5.71-26-16.48S488,380.2,488,380.2C497.07,376.1,518.4,374.86,518.4,374.86Z" transform="translate(-43.07 -68)"/><path class="cls-35" d="M632.74,371.33c-1.85-5.35-.89-19.73-.89-19.73-2.28-.71-11.18-4.89-11.18-4.89l-5.77,14-6.09-13.85s-7.18,3.45-9.45,4.16c0,0-.45,15-2.3,20.36,0,0,5.64,9.2,0,29.83h35.68C627.1,380.53,632.74,371.33,632.74,371.33Z" transform="translate(-43.07 -68)"/><path class="cls-36" d="M632.74,371.33c-.46-1.32-.61-6-.78-8.3-.85,2.28-1.85,7.25-2.71,9.5-2.93,7.59-6.09,10.73-14.6,10.87-6.79.12-13.15-10.88-13.86-12.9-.83-2.35-1.84-4.59-2.7-6.88a31.61,31.61,0,0,1-1,7.71s5.64,9.2,0,29.83h35.68C627.1,380.53,632.74,371.33,632.74,371.33Z" transform="translate(-43.07 -68)"/><path class="cls-37" d="M631.43,386.52s-3,1.54-4,1.26c-1.23-.35-1.49-.94-3.58-.29a14,14,0,0,0-3.91,1.71c-1.06.63-3.1,1.64-2.45,2.86s2.83-.4,3-.5l.91-.43s-2.49,1.18-2,1.89,1.69.69,2.49.24a17.45,17.45,0,0,0,1.49-.95s-1.66,1.15-1.35,1.54a2.16,2.16,0,0,0,2.38.08,4.49,4.49,0,0,0,1.33-1s-1.49,1-.16,1.5,2.56-.94,3.29-1.46,1.78-1.71,2.13-1.93,3.59-1.35,3.59-1.35Z" transform="translate(-43.07 -68)"/><path class="cls-35" d="M631.42,351.53c1.47.24,6.87,2.71,11.66,14.44,4.59,11.23,5.93,20.67,5.52,23.61-.65,4.77-19.14,4.6-19.14,4.6l-1.24-7.35s8.3-2.7,8.1-3.71c-.26-1.38-2.6-6.44-3.58-9.52C632.57,373.05,630,351.29,631.42,351.53Z" transform="translate(-43.07 -68)"/><path class="cls-38" d="M638,419.05c0-.35,0-.68,0-1a29.93,29.93,0,0,0-5.44-17.3H596.87a32.12,32.12,0,0,0-4.88,17.3c0,.29,0,.62,0,1Z" transform="translate(-43.07 -68)"/><rect class="cls-39" x="532.25" y="344.7" width="78.7" height="8.25"/><path class="cls-37" d="M519.84,307.77l-.8,15.45-.52,4.44a6.63,6.63,0,0,1-1.91,4.72,7,7,0,0,1-4.85,1.94c-4,0-6.14-1.59-6-5.55l-.82-9.55.33-13.07Z" transform="translate(-43.07 -68)"/><path class="cls-40" d="M519.84,310.85l-.8,14.56c-6.85.28-11.84-2.51-14.13-6.21l.33-10Z" transform="translate(-43.07 -68)"/><path class="cls-22" d="M525.27,298.88a52.55,52.55,0,0,1-.2,10.61c-.82,6.45-.53,14-10,14.52-10.13.54-13.49-10.8-13.49-10.8s-5.38-1-5.75-4.64,3.4-3.85,4.62-2.83c0,0,1.39-13.56,13.93-13.56C525.42,292.18,525.27,298.88,525.27,298.88Z" transform="translate(-43.07 -68)"/><path class="cls-41" d="M496.58,306a6.62,6.62,0,0,1-4.22-4.58,4.82,4.82,0,0,1,2.73-5.08,2.82,2.82,0,0,1,0-2.77,3.18,3.18,0,0,1,1-1.1,3.69,3.69,0,0,1,.69-2,4.79,4.79,0,0,1,.33-3.12,5.76,5.76,0,0,1,3.66-3,7.77,7.77,0,0,1,4.79.21,9.93,9.93,0,0,1,7.3-3.2H514a9.93,9.93,0,0,1,7.3,3.2,7.77,7.77,0,0,1,4.79-.21,5.8,5.8,0,0,1,3.67,3,4.65,4.65,0,0,1-.35,4.63,3,3,0,0,1,2.37,1.57,2.87,2.87,0,0,1,0,2.77c1.87.75,1.84,3.86,1.09,5.73s-2.33,2.17-4.24,2.8l-1.08,2c-1.48,2.38-1.86,3.27-2.8,4.2l.4-3c0-.41.18-.84.28-1.74,0-.43-.31-1.08-.13-1.6l.14-1.46a2.63,2.63,0,0,1-.77-2.22v-.45a5.55,5.55,0,0,1-2,0v-1.84a3.37,3.37,0,0,0-1.38-2.73l-1.61-1.19a1.77,1.77,0,0,0-2.18.06l-.51.41a3.5,3.5,0,0,1-2.22.79h-2.88a3.71,3.71,0,0,1-2.23-.79l-.5-.41a1.77,1.77,0,0,0-2.18-.06l-1.61,1.19a3.38,3.38,0,0,0-1.39,2.73V301c-.35.92-.66,1.85-.91,2.72l-.91.91a2.67,2.67,0,0,0-.78,1.89v1.2a15,15,0,0,1-.94-2,3.33,3.33,0,0,0-1.69-.5,4.75,4.75,0,0,0-1.12.22l-.52.19Z" transform="translate(-43.07 -68)"/><path class="cls-42" d="M513.85,310.74a4.68,4.68,0,0,0-3.09,0A4.56,4.56,0,0,0,513.85,310.74Z" transform="translate(-43.07 -68)"/><path class="cls-42" d="M522.84,310.79a3.14,3.14,0,0,0-2.74,0A3.07,3.07,0,0,0,522.84,310.79Z" transform="translate(-43.07 -68)"/><path class="cls-41" d="M522.48,315.47l-.18-.15a5.94,5.94,0,0,0-3.95-1.47h-6.86a5.94,5.94,0,0,0-3.95,1.47l-.18.15a4.81,4.81,0,0,0-1.63,3.55v1.85a4.81,4.81,0,0,0,3.36,4.44l.75.27a15.27,15.27,0,0,0,10.16,0l.75-.27a4.82,4.82,0,0,0,3.37-4.44V319A4.79,4.79,0,0,0,522.48,315.47Zm-.55,4.85c-.75,1-1.13,1-2.52,1.8l-1.62.26a2.93,2.93,0,0,1-2.36-.51c-.1-.09-.41.55-.51.63a3.54,3.54,0,0,1-2.65.32l-1.66-.63c-1.17-.34-2.7-.77-2.7-1.87v-1.73a2,2,0,0,1,1.83-1.89l2.6-.34c1-.13,3.36-.1,4-.79a4,4,0,0,0,2.55,1l1.2.15a2,2,0,0,1,1.82,1.89Z" transform="translate(-43.07 -68)"/><path class="cls-43" d="M513.4,309.47a1,1,0,1,1-1-1A1,1,0,0,1,513.4,309.47Z" transform="translate(-43.07 -68)"/><path class="cls-43" d="M522.47,309.47a1,1,0,1,1-1-1A1,1,0,0,1,522.47,309.47Z" transform="translate(-43.07 -68)"/><path class="cls-44" d="M507.77,303.43a4.09,4.09,0,0,1,4.66-1.57" transform="translate(-43.07 -68)"/><path class="cls-44" d="M518.91,302.88a3.21,3.21,0,0,1,4.54.21" transform="translate(-43.07 -68)"/><path class="cls-29" d="M516.85,306.86s1.09,2.77,2,4.5-1.81,2.49-1.81,2.49" transform="translate(-43.07 -68)"/><path class="cls-29" d="M513.21,317a4.75,4.75,0,0,0,5.12.84" transform="translate(-43.07 -68)"/><path class="cls-29" d="M501.44,310.61s0-3.12-2.36-2.27" transform="translate(-43.07 -68)"/><path class="cls-30" d="M531.48,356.69c-.9-5.1-4.57-10.9-.78-21.42L522,329.72l-8.85,1.65-10.25-3.18-11.79,4.87c.35,4.77,1.22,10.2.32,15.31L488.2,361.5c-2.73,16.23-3.63,22.35-1.3,22.35l12.49,2.4c.11,0,18.11-.27,18.22-.29l7.89-1.88Z" transform="translate(-43.07 -68)"/><polygon class="cls-45" points="462.42 258.03 458.81 260.79 465.35 271.46 470.95 266.84 476.29 271.17 478.92 261.72 475.45 258.8 471.08 265.71 462.42 258.03"/><path class="cls-46" d="M524.28,347.75a66,66,0,0,1-6.95.24,47.2,47.2,0,0,1-15.17-2.87,63,63,0,0,1-6.37-2.75,24.2,24.2,0,0,0,5.77,4.12,28.94,28.94,0,0,0,7.7,2.64,28.32,28.32,0,0,0,8.13.34A23.89,23.89,0,0,0,524.28,347.75Z" transform="translate(-43.07 -68)"/><path class="cls-46" d="M524.17,343.75c-1.93.29-4.39.71-6.87,1s-5,.41-6.91.56a21.7,21.7,0,0,0,13.78-1.54Z" transform="translate(-43.07 -68)"/><path class="cls-46" d="M528.08,351.61c-1.8.37-3.83.82-6,1.24s-4.48.83-6.8,1.15-4.64.57-6.85.75-4.29.32-6.12.45a31,31,0,0,0,6.14.86,38.84,38.84,0,0,0,14-1.94A32.32,32.32,0,0,0,528.08,351.61Z" transform="translate(-43.07 -68)"/><polygon class="cls-46" points="470.07 263.37 462.7 261.89 465.59 271.56 467.6 269.16 468.45 269.79 470.07 269.79 471.69 269.79 472.53 269.16 474.54 271.56 477.43 261.89 470.07 263.37"/><polygon class="cls-47" points="470.07 263.37 467.6 267.38 468.83 270.89 470.07 270.89 471.3 270.89 472.53 267.38 470.07 263.37"/><polygon class="cls-48" points="471.3 270.89 470.07 270.89 468.83 270.89 464.25 299.13 469.71 306.04 475.18 299.44 471.3 270.89"/><path class="cls-49" d="M513.14,331.37l.44.71-1.7,2.95a1.08,1.08,0,0,0-.08.88l.09.26a1.81,1.81,0,0,0,1.72,1.22h1.29l-.53,1.5h-2.46l-1.24-3.51Z" transform="translate(-43.07 -68)"/><polygon class="cls-30" points="462.36 257.9 470.07 263.37 466.12 269.79 458.81 260.79 462.36 257.9"/><polygon class="cls-30" points="475.58 258.7 470.07 263.37 474.01 269.79 478.92 261.72 475.58 258.7"/><path class="cls-22" d="M493.36,388.05s2.67.42,3.24.44,8.11-3.94,8.9-3.35,8.16,6.06,7.91,7.08-2.35.34-6.26-3.15c0,0,5.22,3.92,4.17,4.81s-5.57-3.47-5.57-3.47,4.69,3.71,3.52,4.47-5.26-3.61-5.26-3.61,3.22,3.29,2.74,3.81-2.53-.45-4.76-2.65c0,0-.41-.24-1.65.37s-8.65-.85-8.65-.85Z" transform="translate(-43.07 -68)"/><path class="cls-30" d="M495.84,388.23l-2.4,5.45s-23-9.95-23.79-19.2S482,332.8,491.82,333c0,0,4,17.69-3.43,27.7,0,0-5.55,8.79-5.47,10.93S495.84,388.23,495.84,388.23Z" transform="translate(-43.07 -68)"/><path class="cls-36" d="M614.9,360.66s-1,11.08-.91,15.11.33,25,.33,25h-.75S614.36,367.62,614.9,360.66Z" transform="translate(-43.07 -68)"/><rect class="cls-50" x="409.65" y="325.67" width="2.47" height="109.01"/><rect class="cls-50" x="624" y="325.67" width="2.47" height="110.41"/><rect class="cls-50" x="405.46" y="325.67" width="225.19" height="2.89"/><path class="cls-51" d="M617.56,392.42,608.79,378s-2.62-1.38-2.49,1.73l10.38,13.4S619.7,396.55,617.56,392.42Z" transform="translate(-43.07 -68)"/><path class="cls-37" d="M597.94,386.55s3.11,1.73,3.57,1.58,7-3.93,8.38-3.25,2.23,2.22,2.91,3.13,2.86,3.61,1.82,4.48-2.56-2.12-3.12-2.74-2.26-2.39-3.21-2.2a8.65,8.65,0,0,1,2.68,2c.81,1.13,2.8,2.87,2.07,4.07s-3.2-2.33-3.43-2.55a8.52,8.52,0,0,0-2.61-1.67s2,1.47,2.29,1.74,2.62,2.14,2.21,2.77-1.2.93-3-1.16a8.71,8.71,0,0,0-2.18-1.55,16,16,0,0,1,2.06,1.42c.39.42,1.29,1.4.59,1.61s-1.68-.32-2.72-1a4.45,4.45,0,0,0-3.44-.69c-1.21.29-6.91-1.71-6.91-1.71Z" transform="translate(-43.07 -68)"/><path class="cls-37" d="M613.15,385.18s2.43.8,2.89,1.84-.33,1.64-.9,1.42Z" transform="translate(-43.07 -68)"/><path class="cls-35" d="M599.36,351c-2,.56-7,2.42-11.66,15-4.21,11.38-5.93,20.67-5.52,23.61.65,4.77,19.14,4.6,19.14,4.6l1.24-7.35s-8.3-2.7-8.1-3.71c.26-1.38,2.6-6.44,3.57-9.52C598.2,373.05,600.79,350.58,599.36,351Z" transform="translate(-43.07 -68)"/><path class="cls-22" d="M573.61,383.12l-2.38,4.19a36.46,36.46,0,0,1,4.11,2.77c.73.76,1.94,3.67,5.55,4.36s4.26,1.44,5.21.49-1.51-2.26-3-2.6-2.67-.59-2.47-.94,1.56-.33,4.16.07,6.06,1.61,6.86,1.08-2-2.81-5.15-3.14a29.29,29.29,0,0,1-3.41-.52s3,.16,3.7.34,5.14,1.45,6.17.62-2.9-2.31-5.64-2.6a13,13,0,0,0-3.61-.08,36.23,36.23,0,0,1,4-.11c1,.11,3.85.95,4.15.2s-2.07-1.75-4.2-1.81a23.42,23.42,0,0,0-4,.24,22.43,22.43,0,0,1,3.85-.51c1,.08,2.64.28,2.74-.2s-.6-1.4-4.17-1.36a28.46,28.46,0,0,0-4.86.68C579.33,384.66,574.14,383.12,573.61,383.12Z" transform="translate(-43.07 -68)"/><path class="cls-30" d="M575.72,381.53l-2.32,8.62s-30.45-5.45-33.3-9.67S530,358.13,530,358.13s-4.13-13.8.66-22.86c0,0,4.54,1.71,7.12,8.73,1.66,4.52,9.75,23.92,11.35,25.95S575.72,381.53,575.72,381.53Z" transform="translate(-43.07 -68)"/><path class="cls-52" d="M608.67,362.71l-3.29-14.31,3.43-1.59,6.09,13.85S610.25,356.64,608.67,362.71Z" transform="translate(-43.07 -68)"/><ellipse class="cls-53" cx="565.67" cy="292.3" rx="0.4" ry="0.6"/><path class="cls-54" d="M594.57,352.31l9.17-4.67a1.15,1.15,0,0,1,.77-.11c2.61.59,2.25,2.39,1.92,3.23a1.28,1.28,0,0,1-.56.63l-8.69,5.15S594.57,352.94,594.57,352.31Z" transform="translate(-43.07 -68)"/><circle class="cls-55" cx="561.6" cy="281.59" r="1.34"/><path class="cls-53" d="M603.08,353s-1.08-2.77-2.69-3.7l-.61.31s2.37,2.28,2.63,3.79Z" transform="translate(-43.07 -68)"/><path class="cls-53" d="M601.22,354.15a4.92,4.92,0,0,0-2.77-3.82l-.6.31s2.55,1.78,2.78,3.85Z" transform="translate(-43.07 -68)"/><path class="cls-53" d="M599.42,355.22a6.92,6.92,0,0,0-2.69-4l-.64.33a6.64,6.64,0,0,1,2.62,4.1Z" transform="translate(-43.07 -68)"/><polygon class="cls-53" points="575.14 292.55 574.96 294.08 584.32 293.68 584.03 292.25 575.14 292.55"/><polygon class="cls-53" points="575.43 293.98 575.25 295.51 584.13 295.21 583.74 293.3 575.43 293.98"/><polygon class="cls-21" points="575.65 292.53 575.45 294.03 577.29 293.96 577.5 292.47 575.65 292.53"/><polygon class="cls-11" points="577.66 292.46 577.5 293.97 577.94 293.98 578.01 292.45 577.66 292.46"/><polygon class="cls-11" points="575.68 294.06 575.57 295.5 576.15 295.48 576.17 294.03 575.68 294.06"/><polygon class="cls-21" points="581.43 292.34 581.47 293.82 584.05 293.69 583.76 292.26 581.43 292.34"/><polygon class="cls-11" points="583.57 293.76 583.81 295.22 583.57 295.23 583.35 293.77 583.57 293.76"/><polygon class="cls-56" points="578.4 292.44 578.31 293.94 579.5 293.92 579.48 292.41 578.4 292.44"/><polygon class="cls-56" points="576.51 294.06 576.45 295.47 578.25 295.41 578.23 294.06 576.51 294.06"/><polygon class="cls-56" points="583.2 293.78 583.42 295.23 582.15 295.28 582.04 293.86 583.2 293.78"/><polygon class="cls-11" points="579.72 292.39 579.78 293.87 580.13 293.87 580.08 292.38 579.72 292.39"/><polygon class="cls-11" points="580.4 292.37 580.43 293.84 580.76 293.83 580.67 292.36 580.4 292.37"/><polygon class="cls-11" points="580.97 292.35 581.01 293.82 581.26 293.81 581.21 292.34 580.97 292.35"/><polygon class="cls-11" points="578.4 295.4 578.4 294.04 578.63 294.02 578.65 295.39 578.4 295.4"/><polygon class="cls-11" points="578.82 294.02 578.84 295.39 579.04 295.38 579.04 294.01 578.82 294.02"/><polygon class="cls-56" points="579.23 294.02 579.23 295.38 580.61 295.33 580.47 293.99 579.23 294.02"/><polygon class="cls-11" points="580.74 295.32 580.63 293.96 581.22 293.92 581.31 295.31 580.74 295.32"/><polygon class="cls-11" points="581.4 293.9 581.49 295.3 581.67 295.29 581.58 293.89 581.4 293.9"/><polygon class="cls-11" points="581.73 293.88 581.8 295.29 581.98 295.28 581.88 293.88 581.73 293.88"/><path class="cls-36" d="M626.9,365.05l.17,6c-.51,1.88-2.69,3-3.35,3.24a4.09,4.09,0,0,0,.6-.07s2.83-1.06,3.42-3.2l-.18-6.05Z" transform="translate(-43.07 -68)"/><path class="cls-36" d="M618.52,371.15l-.08-5.55-.49.09.08,5.56s1.84,3,4.73,3C620.07,373.88,618.52,371.15,618.52,371.15Z" transform="translate(-43.07 -68)"/><path class="cls-52" d="M618.28,364.4l9-.33a1.64,1.64,0,0,1-.09,1.92s-.74,1.1-3.77,2.65a2.49,2.49,0,0,1-1.46-.19l-3.66-1.66A1.86,1.86,0,0,1,618.28,364.4Z" transform="translate(-43.07 -68)"/><circle class="cls-36" cx="579.8" cy="299.62" r="0.61"/><path class="cls-36" d="M609.67,365.47l.16,5.55c-.48,1.73-2.48,2.72-3.09,3a3.6,3.6,0,0,0,.55-.07s2.61-1,3.15-2.95l-.16-5.57Z" transform="translate(-43.07 -68)"/><path class="cls-36" d="M602,371.09l-.08-5.12-.44.09.07,5.12s1.69,2.73,4.35,2.78A6.12,6.12,0,0,1,602,371.09Z" transform="translate(-43.07 -68)"/><path class="cls-52" d="M601.73,364.88l8.27-.31a1.51,1.51,0,0,1-.09,1.77s-.67,1-3.46,2.43a2.2,2.2,0,0,1-1.35-.17l-3.38-1.53A1.69,1.69,0,0,1,601.73,364.88Z" transform="translate(-43.07 -68)"/><circle class="cls-36" cx="562.88" cy="299.84" r="0.56"/><path class="cls-52" d="M614.9,360.66l5.77-14s3,1.37,4.08,1.88l-2,13.56S619.37,357.78,614.9,360.66Z" transform="translate(-43.07 -68)"/><circle class="cls-53" cx="579.03" cy="292.07" r="0.6"/><path class="cls-54" d="M637.11,353.57l-10.68-4.74a2.5,2.5,0,0,0-1.21-.28c-2.92.83-2.08,3.05-1.65,4a1.4,1.4,0,0,0,.68.68l10.15,5.31S636.22,355.33,637.11,353.57Z" transform="translate(-43.07 -68)"/><circle class="cls-55" cx="582.71" cy="282.98" r="1.53"/><path class="cls-53" d="M627.5,354.92s1.06-3.21,2.83-4.36l.7.31s-2.54,2.73-2.75,4.46Z" transform="translate(-43.07 -68)"/><path class="cls-53" d="M629.68,356.05a5.55,5.55,0,0,1,2.91-4.49l.69.31s-2.77,2.18-2.91,4.54Z" transform="translate(-43.07 -68)"/><path class="cls-53" d="M631.79,357.16a7.88,7.88,0,0,1,2.79-4.71l.76.33a7.59,7.59,0,0,0-2.73,4.81Z" transform="translate(-43.07 -68)"/><circle class="cls-36" cx="572.38" cy="301.56" r="0.73"/><circle class="cls-36" cx="572.38" cy="308.57" r="0.73"/><circle class="cls-36" cx="572.06" cy="314.56" r="0.73"/><path class="cls-57" d="M597.55,398.34s31.32.83,34.47,0a5,5,0,0,1,.58,2.44H596.87Z" transform="translate(-43.07 -68)"/><polygon class="cls-53" points="575.25 332.79 575.39 330.7 569.83 330.64 569.83 332.79 575.25 332.79"/><path class="cls-58" d="M620.19,477.36s-1.23-.92-2.34,2.71a62.42,62.42,0,0,0-1.7,9.43l1.8.6.82-5.93L624,494.45l2.67,2.62c.09.08,2.07,1.59,2.17,1.64l3.52,1.72c1.21.54,2.1.15,2.19-.45a9.79,9.79,0,0,0-3.23-8.76Z" transform="translate(-43.07 -68)"/><path class="cls-37" d="M625.26,479.54l.66-13.8v-.06c1.09-9.39,3.57-31,4.82-43.77.17-1.67,2.3-16.66-8.12-16.66-6.88,0-6.13,7.61-6.47,11.79-.08,1,.91,15,1.88,28.34l.94,17.13.15,15a35,35,0,0,0,3.48,10.58c.95,1.7,2.9,4.51,4.72,5.26a2.11,2.11,0,0,0,.6.09l.47.1c2.86.27,2.55-2.07,2.4-2.37Z" transform="translate(-43.07 -68)"/><path class="cls-58" d="M607.79,477.36s1.23-.92,2.34,2.71a61.07,61.07,0,0,1,1.7,9.43l-1.8.6-.82-5.93-5.27,10.28-2.67,2.62c-.09.08-2.07,1.59-2.17,1.64l-3.52,1.72c-1.21.54-2.1.15-2.19-.45a9.84,9.84,0,0,1,3.23-8.76Z" transform="translate(-43.07 -68)"/><path class="cls-37" d="M602.72,479.54l-.66-13.8v-.06c-1.08-9.39-3.56-31-4.82-43.77-.17-1.67-2.3-16.66,8.12-16.66,6.89,0,6.13,7.61,6.47,11.79.08,1-.9,15-1.87,28.34l-1,17.13-.15,15a35,35,0,0,1-3.48,10.58c-1,1.7-2.89,4.51-4.72,5.26a2,2,0,0,1-.6.09l-.47.1c-2.85.27-2.54-2.07-2.4-2.37Z" transform="translate(-43.07 -68)"/><path class="cls-59" d="M138.9,313.09c3.23-.66,6.4,1.42,9.69,1.45,1.3,0,2.58-.29,3.87-.34a4.64,4.64,0,0,1,3.6,1.2,5.52,5.52,0,0,1,1,4.42,14.94,14.94,0,0,1-5.5,9.91,6.27,6.27,0,0,1-4.43,1.6,8.18,8.18,0,0,1-3.47-1.65c-3.38-2.33-7-4.83-9.16-8.53C132.61,317.9,135.67,313.74,138.9,313.09Z" transform="translate(-43.07 -68)"/><path class="cls-59" d="M137.33,340.22s-12.72-11.63-7.21-20.18,11.31.38,11.31.38S143.88,335.09,137.33,340.22Z" transform="translate(-43.07 -68)"/><path class="cls-37" d="M148.28,331.81l-.58,11.34-.17,3.24a5.18,5.18,0,0,1-10.35-.4l.15-5.77.24-9.59Z" transform="translate(-43.07 -68)"/><path class="cls-40" d="M148.28,334.08l-.58,10.68c-5,.2-8.69-1.84-10.37-4.56l.24-7.31Z" transform="translate(-43.07 -68)"/><path class="cls-22" d="M152.27,325.3a38.73,38.73,0,0,1-.15,7.78c-.6,4.73-.38,10.28-7.35,10.65-7.44.4-9.9-7.92-9.9-7.92s-4-.74-4.22-3.41a2.14,2.14,0,0,1,3.39-2.07s1-10,10.22-10C152.38,320.37,152.27,325.3,152.27,325.3Z" transform="translate(-43.07 -68)"/><path class="cls-43" d="M143.56,333.07a.74.74,0,1,1-.74-.74A.74.74,0,0,1,143.56,333.07Z" transform="translate(-43.07 -68)"/><path class="cls-43" d="M150.22,333.07a.74.74,0,1,1-.74-.74A.74.74,0,0,1,150.22,333.07Z" transform="translate(-43.07 -68)"/><path class="cls-28" d="M140.14,330.5a3,3,0,0,1,3.42-1.15" transform="translate(-43.07 -68)"/><path class="cls-28" d="M147.57,329.32a2.35,2.35,0,0,1,3.33.15" transform="translate(-43.07 -68)"/><path class="cls-29" d="M146.09,331.15s.8,2,1.48,3.3-1.33,1.83-1.33,1.83" transform="translate(-43.07 -68)"/><path class="cls-29" d="M143.42,338.55a3.49,3.49,0,0,0,3.76.62" transform="translate(-43.07 -68)"/><path class="cls-29" d="M134.78,333.9s0-2.29-1.73-1.66" transform="translate(-43.07 -68)"/><path class="cls-59" d="M134.55,331.08a7.91,7.91,0,0,0,4.3-9.07s-3.83-5.89-7.09-3.74S134.55,331.08,134.55,331.08Z" transform="translate(-43.07 -68)"/><path class="cls-59" d="M143.43,322.79c1.68.38,3.11,1.62,4.66,2.5s3.45,1.39,4.91.32a5,5,0,0,0,1.5-4.85,6.83,6.83,0,0,0-2.86-4.17,11.86,11.86,0,0,0-4.44-1.66,14.62,14.62,0,0,0-6.07-.13c-1.79.4-6.82,2.86-5.78,6,.39,1.18,2,1.52,2.93,1.73C140,322.89,141.73,322.4,143.43,322.79Z" transform="translate(-43.07 -68)"/><path class="cls-22" d="M195.73,382.16c-.81-.62-3.94,1.15-6.2,1.89a25,25,0,0,1-5.9.56,21.23,21.23,0,0,1-.44,3.27c1.42.06,2.52.33,3.56.25s3.2-.36,4-.51a3.6,3.6,0,0,1,2.53.29c2.52,2.09,3.93,2.24,4.26,1.49.06-.12-2-1.92-2.64-2.64,1.1,1,3.81,3,4.38,2.35s-2.1-2.77-3.17-3.71c1.13,1,4,3.4,4.74,3.2C202.76,388.06,196.53,382.79,195.73,382.16Z" transform="translate(-43.07 -68)"/><rect class="cls-51" x="131.05" y="320.07" width="35.42" height="4.54"/><path class="cls-60" d="M186.48,383.35l-1.24,5.16s-16.32-1.77-21.87-4.34-11.11-15.78-11.11-15.78l4.24-16.64s8.2,21.67,11.07,24.39S186.48,383.35,186.48,383.35Z" transform="translate(-43.07 -68)"/><rect class="cls-61" x="79.04" y="353.27" width="3.13" height="82.52"/><rect class="cls-61" x="137.04" y="353.27" width="3.13" height="82.52"/><rect class="cls-56" x="70.64" y="348.4" width="77.93" height="8.07"/><path class="cls-56" d="M156,466.86s-8,6.93-7.91,7.93,13.6,24.06,16,24.13,2.91-3.92,2.53-5.44S161.87,470,161.87,470Z" transform="translate(-43.07 -68)"/><path class="cls-56" d="M144.47,471.14s-7.74,7.17-7.66,8.17S151.13,503,153.5,503s2.79-4,2.36-5.52-5.44-23.35-5.44-23.35Z" transform="translate(-43.07 -68)"/><path class="cls-51" d="M149.47,392s10.06,4.79,21.62,9.3c7.33,2.86,17.59,6.61,17.25,14.48-.24,5.74-23.35,61.07-23.35,61.07l-10.51-5.26s19.23-46.56,18.9-49.73-2.57-.36-21.58-2.09-24.78-5.33-24.65-14.36,5.1-21.63,12.8-24.84S149.47,392,149.47,392Z" transform="translate(-43.07 -68)"/><path class="cls-62" d="M149.47,392s3.84,4.89,15.4,9.39c7.34,2.86,16.45,8.1,16.44,13.14,0,5.75-21.52,59.71-21.52,59.71l-5.31-2.65s19.23-46.56,18.9-49.73-2.57-.36-21.58-2.09-24.78-5.33-24.65-14.36,5.1-21.63,12.8-24.84S149.47,392,149.47,392Z" transform="translate(-43.07 -68)"/><path class="cls-51" d="M144.26,385.13s3.06,12.74,10.32,15.8,23.93,6.47,23.92,14.51c0,5.75-24.88,62.66-24.88,62.66l-12.75-6s16.85-46.05,16.42-49.2,1.24-1.6-17.81-2.75-21.62-4.78-21.77-13.81,11.56-21.24,11.56-21.24C136.86,381.69,144.26,385.13,144.26,385.13Z" transform="translate(-43.07 -68)"/><path class="cls-22" d="M158.67,385.09s2.88.36,3.49.36,8.55-4.46,9.41-3.85,8.92,6.24,8.68,7.34-2.5.44-6.79-3.18c0,0,5.71,4,4.61,5s-6.07-3.54-6.07-3.54,5.13,3.83,3.91,4.68-5.75-3.7-5.75-3.7,3.55,3.42,3.06,4-2.73-.41-5.18-2.69c0,0-.44-.25-1.75.45s-9.29-.65-9.29-.65Z" transform="translate(-43.07 -68)"/><path class="cls-30" d="M136,345.81l6.82,3.69,5.3-3.18a48.49,48.49,0,0,1,1.93,17.31c-.78,9.2-2.27,15.81-8.49,7.26S133.06,348.79,136,345.81Z" transform="translate(-43.07 -68)"/><path class="cls-51" d="M144.13,353.72s3.66,19.83,3.35,20.21c-.2-.25-2.43,5.38-3.72,0-1-4.18-1.12-19.76-1.28-19.95,0,0-1.91-2.06-3-3.07-.74-.67-1.45-1.35-2.13-2.05-.18-.33-.35-.66-.5-1l.3.71a16,16,0,0,0-1.45-2.31,3.13,3.13,0,0,1,.36-.44l6.82,3.69,5.3-3.18s.16.47.39,1.31a25.77,25.77,0,0,0-1.5,2.31C146.48,350.91,144.13,353.72,144.13,353.72Z" transform="translate(-43.07 -68)"/><path class="cls-60" d="M148.74,346.43c2.16,1.05,3.92,1.9,6,3.1a7.09,7.09,0,0,1,2.28,3.78c-.14,4.12-.19,11-.61,15.39-.35,3.61-.7,6.12-.69,6.42l-.61,19.76c0,1.27-7,2.51-8,1.66-1.84-1.66-2-5.23-2.15-9.77-.49-16.64-.48-20-.49-20.81a1.55,1.55,0,0,1,0-.37l3.27-17.33C148,347.19,147.76,346,148.74,346.43Z" transform="translate(-43.07 -68)"/><path class="cls-51" d="M145.87,368.09a.62.62,0,1,0,1.24,0,.61.61,0,0,0-.63-.6A.62.62,0,0,0,145.87,368.09Z" transform="translate(-43.07 -68)"/><path class="cls-51" d="M146.27,374.17a.61.61,0,0,0,.63.61.62.62,0,1,0,0-1.24A.62.62,0,0,0,146.27,374.17Z" transform="translate(-43.07 -68)"/><path class="cls-51" d="M146.66,380.26a.63.63,0,0,0,.63.61.62.62,0,1,0,0-1.24A.62.62,0,0,0,146.66,380.26Z" transform="translate(-43.07 -68)"/><path class="cls-51" d="M147.06,386.34a.61.61,0,0,0,.63.61.62.62,0,0,0,.61-.63.63.63,0,0,0-.63-.61A.62.62,0,0,0,147.06,386.34Z" transform="translate(-43.07 -68)"/><path class="cls-60" d="M126.17,350.64l9.86-4.83,8.44,20,1.8,23.32s.22,7.25-4.44,8.31c-7.35,1.66-16.3,0-19.32-.67-1.72-.38.63-8.66,3.24-18.44l2.54-8.23S130.32,355.79,126.17,350.64Z" transform="translate(-43.07 -68)"/><path class="cls-63" d="M148.48,347.44c.05.18-1.79,6.58-1.79,6.58l-3.84-2.88-3.27,3.06-3.46-7.32.56-.71,4.13,2.23,2,1.83,4.5-3.43.27-.16Z" transform="translate(-43.07 -68)"/><polygon class="cls-30" points="99.78 280.99 105.21 276.84 105.67 278.43 103.83 284.93 99.78 281.89 96.13 285.31 92.56 277.9 93.74 276.12 99.78 280.99"/><path class="cls-60" d="M159.55,383.83l-.68,7.83s-39.15-.76-45.07-1.53-8.6-8.59-4.78-15.47,13.16-23.9,18.13-24.28,9.86,5.56,5.75,12.92S121.34,377.72,123,379,159.55,383.83,159.55,383.83Z" transform="translate(-43.07 -68)"/><polygon class="cls-45" points="541.81 243.44 504.91 264.75 504.91 206.77 541.81 185.47 541.81 243.44"/><path class="cls-39" d="M560,271.76l-1.58.91v-.58l3.81-2.21v.56l-1.59.92v4.57l-.67.39Z" transform="translate(-43.07 -68)"/><path class="cls-39" d="M565.56,270.76l-2,1.16v1.87l2.24-1.3v.56l-2.91,1.69v-5.19l2.8-1.62v.57l-2.13,1.23v1.64l2-1.16Z" transform="translate(-43.07 -68)"/><path class="cls-39" d="M566.59,271.79a2.43,2.43,0,0,0,1.2-.35,1.92,1.92,0,0,0,1.08-1.53c0-.48-.28-.6-1-.46s-1.36.05-1.36-.68a3.1,3.1,0,0,1,1.68-2.38,2.45,2.45,0,0,1,1.14-.41l-.18.65a2.2,2.2,0,0,0-1,.33,1.72,1.72,0,0,0-1,1.34c0,.48.31.54,1,.4.88-.17,1.32,0,1.32.76a3.22,3.22,0,0,1-1.82,2.54,2.7,2.7,0,0,1-1.32.44Z" transform="translate(-43.07 -68)"/><path class="cls-39" d="M571.44,265.18l-1.58.91v-.57l3.82-2.21v.56l-1.59.92v4.57l-.68.39Z" transform="translate(-43.07 -68)"/><polygon class="cls-64" points="539.18 200.86 513.71 215.57 513.71 214.59 539.18 199.88 539.18 200.86"/><polygon class="cls-64" points="539.18 205.53 513.71 220.24 513.71 219.27 539.18 204.56 539.18 205.53"/><polygon class="cls-64" points="539.18 210.2 513.71 224.92 513.71 223.95 539.18 209.24 539.18 210.2"/><polygon class="cls-64" points="539.18 214.88 513.71 229.59 513.71 228.62 539.18 213.91 539.18 214.88"/><polygon class="cls-64" points="539.18 219.55 513.71 234.26 513.71 233.29 539.18 218.58 539.18 219.55"/><polygon class="cls-64" points="539.18 224.22 513.71 238.93 513.71 237.96 539.18 223.25 539.18 224.22"/><polygon class="cls-64" points="539.18 228.9 513.71 243.61 513.71 242.64 539.18 227.93 539.18 228.9"/><polygon class="cls-64" points="539.18 233.57 513.71 248.28 513.71 247.31 539.18 232.6 539.18 233.57"/><polygon class="cls-64" points="539.18 238.25 513.71 252.96 513.71 251.99 539.18 237.28 539.18 238.25"/><path class="cls-65" d="M551.83,287c-.6.35-1.08.14-1.08-.45a2.22,2.22,0,0,1,1.08-1.69c.58-.35,1.06-.14,1.06.45A2.2,2.2,0,0,1,551.83,287Zm0-1.87a1.69,1.69,0,0,0-.77,1.26c0,.44.36.59.77.34a1.69,1.69,0,0,0,.76-1.25C552.62,285.06,552.26,284.89,551.83,285.14Z" transform="translate(-43.07 -68)"/><path class="cls-65" d="M551.83,291.69c-.6.33-1.08.14-1.08-.45a2.26,2.26,0,0,1,1.08-1.7c.58-.34,1.06-.13,1.06.46A2.22,2.22,0,0,1,551.83,291.69Zm0-1.87a1.67,1.67,0,0,0-.77,1.26c0,.43.36.59.77.33a1.64,1.64,0,0,0,.76-1.25c0-.45-.33-.6-.76-.35Z" transform="translate(-43.07 -68)"/><path class="cls-65" d="M551.83,296.36c-.6.33-1.08.14-1.08-.46a2.22,2.22,0,0,1,1.08-1.69c.58-.35,1.06-.14,1.06.45A2.23,2.23,0,0,1,551.83,296.36Zm0-1.87a1.67,1.67,0,0,0-.77,1.26c0,.44.36.59.77.33a1.65,1.65,0,0,0,.76-1.26C552.62,294.39,552.26,294.21,551.83,294.49Z" transform="translate(-43.07 -68)"/><path class="cls-65" d="M551.83,301c-.6.34-1.08.13-1.08-.46a2.24,2.24,0,0,1,1.08-1.7c.58-.33,1.06-.13,1.06.46A2.23,2.23,0,0,1,551.83,301Zm0-1.87a1.64,1.64,0,0,0-.77,1.25c0,.44.36.58.77.33a1.66,1.66,0,0,0,.76-1.26C552.62,299.06,552.26,298.91,551.83,299.17Z" transform="translate(-43.07 -68)"/><path class="cls-65" d="M551.83,305.7c-.6.35-1.08.14-1.08-.45a2.22,2.22,0,0,1,1.08-1.69c.58-.34,1.06-.14,1.06.45A2.2,2.2,0,0,1,551.83,305.7Zm0-1.86a1.64,1.64,0,0,0-.77,1.25c0,.43.36.58.77.33a1.66,1.66,0,0,0,.76-1.26C552.62,303.74,552.26,303.58,551.83,303.84Z" transform="translate(-43.07 -68)"/><path class="cls-65" d="M551.83,310.38c-.6.34-1.08.14-1.08-.46a2.22,2.22,0,0,1,1.08-1.69c.58-.34,1.06-.14,1.06.45A2.23,2.23,0,0,1,551.83,310.38Zm0-1.87a1.67,1.67,0,0,0-.77,1.26c0,.44.36.59.77.34a1.68,1.68,0,0,0,.76-1.26C552.62,308.41,552.26,308.25,551.83,308.51Z" transform="translate(-43.07 -68)"/><path class="cls-65" d="M551.83,315.05c-.6.34-1.08.14-1.08-.45a2.22,2.22,0,0,1,1.08-1.69c.58-.34,1.06-.14,1.06.45A2.22,2.22,0,0,1,551.83,315.05Zm0-1.87a1.67,1.67,0,0,0-.77,1.26c0,.44.36.59.77.34a1.69,1.69,0,0,0,.76-1.26C552.62,313.08,552.26,312.93,551.83,313.18Z" transform="translate(-43.07 -68)"/><path class="cls-65" d="M551.83,319.73c-.6.34-1.08.13-1.08-.45a2.22,2.22,0,0,1,1.08-1.7c.58-.34,1.06-.13,1.06.45A2.22,2.22,0,0,1,551.83,319.73Zm0-1.87a1.65,1.65,0,0,0-.77,1.25c0,.43.36.59.77.34a1.68,1.68,0,0,0,.76-1.26c0-.44-.33-.58-.76-.32Z" transform="translate(-43.07 -68)"/><path class="cls-65" d="M551.83,324.4c-.6.35-1.08.14-1.08-.45a2.22,2.22,0,0,1,1.08-1.69c.58-.34,1.06-.14,1.06.45A2.2,2.2,0,0,1,551.83,324.4Zm0-1.86a1.65,1.65,0,0,0-.77,1.25c0,.44.36.59.77.34a1.66,1.66,0,0,0,.76-1.26c0-.43-.33-.59-.76-.34Z" transform="translate(-43.07 -68)"/><rect class="cls-39" x="137.04" y="258.05" width="75.71" height="48.3" rx="3.33"/><path class="cls-51" d="M184.05,371V329.38a3.33,3.33,0,0,1,3.33-3.33h-3.94a3.33,3.33,0,0,0-3.33,3.33V371a3.33,3.33,0,0,0,3.33,3.33h3.94A3.33,3.33,0,0,1,184.05,371Z" transform="translate(-43.07 -68)"/><path class="cls-51" d="M218.09,386.28s1.53-14.67-5.16-19.64c0,0-1.52-1.24,1-2.67s9.46-3.08,11.82,1.21,3.94,11.82,2.94,21.1Z" transform="translate(-43.07 -68)"/><path class="cls-51" d="M234.91,392.62H212.35a1.82,1.82,0,0,1-1.63-2.64l1.33-2.66a1.82,1.82,0,0,1,1.63-1h19.9a1.82,1.82,0,0,1,1.63,1l1.33,2.66A1.82,1.82,0,0,1,234.91,392.62Z" transform="translate(-43.07 -68)"/><rect class="cls-56" x="28.68" y="324.62" width="197.6" height="5.29"/><rect class="cls-56" x="35.99" y="326.88" width="2.29" height="108.91"/><rect class="cls-56" x="216.68" y="326.88" width="2.29" height="108.91"/><path class="cls-66" d="M429.81,383a6.75,6.75,0,0,1-2.78.5,4.93,4.93,0,0,1-5.21-5.33,5.25,5.25,0,0,1,5.51-5.54,5.61,5.61,0,0,1,2.5.47l-.33,1.11a5,5,0,0,0-2.13-.44c-2.47,0-4.11,1.58-4.11,4.35,0,2.58,1.49,4.23,4.05,4.23a5.55,5.55,0,0,0,2.22-.43Z" transform="translate(-43.07 -68)"/><path class="cls-67" d="M412.62,267a17.78,17.78,0,1,0-33.48,12c.13.38.28.75.43,1.11a18.06,18.06,0,0,0,2.76,4.43A17.78,17.78,0,0,0,412.62,267Zm-12.25,18.54a13.35,13.35,0,0,1-14.65-3.92,13.05,13.05,0,0,1-2.06-3.32c-.12-.27-.23-.55-.33-.83a13.33,13.33,0,1,1,17,8.07Z" transform="translate(-43.07 -68)"/><path class="cls-68" d="M383.15,269l-4.25-1.33a17.84,17.84,0,0,1,16.45-12.48l.13,4.45A13.37,13.37,0,0,0,383.15,269Z" transform="translate(-43.07 -68)"/><path class="cls-69" d="M383.66,278.31l-4.09,1.78c-.15-.36-.3-.73-.43-1.11a17.7,17.7,0,0,1-.24-11.29l4.25,1.33a13.27,13.27,0,0,0,.18,8.46C383.43,277.76,383.54,278,383.66,278.31Z" transform="translate(-43.07 -68)"/><path class="cls-70" d="M382.33,284.52a18.06,18.06,0,0,1-2.76-4.43l4.09-1.78a13.05,13.05,0,0,0,2.06,3.32Z" transform="translate(-43.07 -68)"/><rect class="cls-71" x="335.02" y="231.23" width="35.57" height="2.74"/><rect class="cls-71" x="335.02" y="237.06" width="26.62" height="2.74"/><rect class="cls-72" x="252.16" y="165.88" width="7" height="2.26"/><rect class="cls-72" x="312.16" y="165.88" width="12.36" height="2.26"/><rect class="cls-72" x="278.99" y="165.88" width="12.36" height="2.26"/><rect class="cls-72" x="347.9" y="165.88" width="6.94" height="2.26"/><rect class="cls-73" x="370.49" y="121.59" width="21.54" height="3.9" transform="translate(719.45 179.07) rotate(180)"/><rect class="cls-74" x="370.49" y="119.76" width="21.54" height="0.73" transform="translate(719.45 172.26) rotate(180)"/><polygon class="cls-75" points="227.5 96.54 236.09 96.54 233.46 91.09 224.87 91.09 227.5 96.54"/><polygon class="cls-76" points="223.48 96.54 225.53 96.54 222.9 91.09 220.85 91.09 223.48 96.54"/><polygon class="cls-77" points="193.81 90.05 228.58 90.05 227.43 87.32 192.66 87.32 193.81 90.05"/><rect class="cls-78" x="177.94" y="96.54" width="15.96" height="1.19"/><rect class="cls-79" x="169.99" y="367.05" width="15.96" height="3.23"/><polygon class="cls-80" points="206.22 338.03 206.22 348.82 179.76 348.82 179.76 350.72 206.22 350.72 206.22 352.4 179.76 352.4 179.76 360.37 206.22 360.37 206.81 360.37 207.41 360.37 207.41 338.03 206.22 338.03"/><path class="cls-81" d="M522.78,459.93,454.92,504H428.48l-47.11-53.13S324.79,428,313,419.63a8.16,8.16,0,0,1-1.94-1.74c-4.15-6.22,82.26-70.31,82.26-76s.78-48.52.51-52.16-7.91-35-3.2-50.6c0,0,5-17,15.57-14.18,0,0,1.33.12,1.33,2.55,0,.14,0,.29,0,.44a11.3,11.3,0,0,1-.27,1.85c-1,4.67,2.42,21.8,4.67,26.47s8.13,13.49,9.52,21.1,7.26,30.27,9.51,36.16,8.31,15.91,9.17,21.45,2.07,20.41,5,25.95,11.51,34.42,19.29,43.76S522.78,459.93,522.78,459.93Z" transform="translate(-43.07 -68)"/><path class="cls-82" d="M519.35,456.8l-25.58,8.95s-39.84-42.76-54-53.14-5.54-47.39-7.61-55.71S430.41,331,425.22,323s-5.88-26-6.92-34.27-5.53-14.53-10.79-32.87c-5.15-17.95-.21-27.57,0-28a11.51,11.51,0,0,1-.27,1.84c-1,4.67,2.42,21.8,4.67,26.47s8.13,13.49,9.52,21.11,7.26,30.27,9.51,36.14,8.3,15.92,9.17,21.46,2.08,20.41,5,25.95,11.51,34.42,19.29,43.76S519.35,456.8,519.35,456.8Z" transform="translate(-43.07 -68)"/><path class="cls-83" d="M393.82,289.71s5,22,5.37,33.33,8.39,23.28,10.2,38.18-7.3,54.25-15.72,58.32S393.82,289.71,393.82,289.71Z" transform="translate(-43.07 -68)"/><path class="cls-84" d="M418.79,493.05l-37.42-42.2S324.78,428,313,419.63h41.14s-8.31,4,2.33,10.46,49,13.23,51.38,20S388.17,445.05,418.79,493.05Z" transform="translate(-43.07 -68)"/><path class="cls-39" d="M393.82,210V405a14.56,14.56,0,0,1-14.56,14.56h-93.5A14.56,14.56,0,0,1,271.2,405V210a14.56,14.56,0,0,1,14.56-14.57h93.5A14.56,14.56,0,0,1,393.82,210Z" transform="translate(-43.07 -68)"/><rect class="cls-85" x="237.46" y="137.17" width="103.97" height="178.57"/><path class="cls-86" d="M345.34,401.52c0,5.2-5.74,9.42-12.83,9.42s-12.83-4.22-12.83-9.42,5.75-9.41,12.83-9.41S345.34,396.32,345.34,401.52Z" transform="translate(-43.07 -68)"/><polygon class="cls-87" points="491.94 400.99 440.35 435.98 372.83 435.98 368.55 431.03 459.79 370.15 491.94 400.99"/><path class="cls-56" d="M580.35,504H460.28l62.17-40.59a21.65,21.65,0,0,1,28.21,4Z" transform="translate(-43.07 -68)"/><path class="cls-88" d="M341,195.4,275,414.8A14.48,14.48,0,0,1,271.2,405V210a14.56,14.56,0,0,1,14.56-14.57Z" transform="translate(-43.07 -68)"/><polygon class="cls-88" points="250.02 351.54 317.38 127.4 307.19 127.4 239.83 351.54 250.02 351.54"/><path class="cls-89" d="M261.25,356.76S253,364,253,369.81s.23,9.68,1.81,12.66c1.19,2.26,16,21.72,19.34,21.49,2.86-.21,8.77-5,7.37-11.65s-7.1-16.94-7.37-17.74V353.88Z" transform="translate(-43.07 -68)"/><path class="cls-90" d="M271.5,401.48s3.68-5.29,5.35-6.63-8.9-18.54-13.86-14S264.47,395.45,271.5,401.48Z" transform="translate(-43.07 -68)"/><path class="cls-91" d="M255.27,312.94s-10.73,9.32-10.64,16.87.3,12.5,2.33,16.34c1.54,2.92,20.93,29.07,25,27.77s11.33-6.49,9.51-15.05S272.3,337,272,336V309.22Z" transform="translate(-43.07 -68)"/><path class="cls-92" d="M268.5,370.72s4.76-6.84,6.92-8.57-11.51-23.95-17.91-18.07S259.42,362.93,268.5,370.72Z" transform="translate(-43.07 -68)"/><path class="cls-93" d="M255.27,279.07s-10.73,9.33-10.64,16.87.3,12.5,2.33,16.35c1.54,2.92,20.93,29.06,25,27.76s11.33-6.49,9.51-15.05-9.17-21.88-9.51-22.92V275.35Z" transform="translate(-43.07 -68)"/><path class="cls-94" d="M268.5,336.85s4.76-6.83,6.92-8.56-11.51-24-17.91-18.08S259.42,329.07,268.5,336.85Z" transform="translate(-43.07 -68)"/><path class="cls-95" d="M271.2,242.75l.76,34c-18.6,9.86-25.26,3.63-26,2.07s16.35-27.24,19-30.87A16.37,16.37,0,0,1,271.2,242.75Z" transform="translate(-43.07 -68)"/><path class="cls-96" d="M245.9,280.2s8.15-6.14,11.1-7.27,8.19-14.19,5.18-15.31C256.13,255.37,243.72,278.94,245.9,280.2Z" transform="translate(-43.07 -68)"/><path class="cls-37" d="M343.19,302,342,324.47l-.75,6.45a9.69,9.69,0,0,1-2.78,6.88,10.17,10.17,0,0,1-7.05,2.81c-5.77,0-8.94-2.31-8.79-8.07l-1.19-13.89.49-19Z" transform="translate(-43.07 -68)"/><path class="cls-40" d="M343.19,306.47,342,327.65c-10,.4-17.23-3.65-20.56-9l.49-14.49Z" transform="translate(-43.07 -68)"/><path class="cls-22" d="M351.09,289.06a76.7,76.7,0,0,1-.29,15.44c-1.2,9.37-.77,20.39-14.59,21.12-14.75.78-19.63-15.72-19.63-15.72s-7.83-1.46-8.37-6.75,4.94-5.6,6.73-4.11c0,0,2-19.74,20.26-19.74C351.31,279.3,351.09,289.06,351.09,289.06Z" transform="translate(-43.07 -68)"/><path class="cls-41" d="M309.34,299.38c-2.79-.91-5.62-3.77-6.13-6.66a7.05,7.05,0,0,1,4-7.4,4.16,4.16,0,0,1-.07-4,4.74,4.74,0,0,1,1.46-1.6,5.43,5.43,0,0,1,1-2.89,7,7,0,0,1,.48-4.54,8.44,8.44,0,0,1,5.34-4.33,11.31,11.31,0,0,1,7,.31A14.41,14.41,0,0,1,333,263.59h1.71a14.41,14.41,0,0,1,10.61,4.66,11.31,11.31,0,0,1,7-.31,8.44,8.44,0,0,1,5.34,4.33,6.77,6.77,0,0,1-.5,6.74,4.36,4.36,0,0,1,3.44,2.29,4.16,4.16,0,0,1-.07,4c2.72,1.1,2.68,5.63,1.58,8.35-1.16,2.88-3.38,3.16-6.17,4.07l-1.57,2.93c-2.14,3.45-2.71,4.75-4.07,6.1l.59-4.3c0-.59.26-1.23.4-2.54.06-.62-.45-1.57-.18-2.33l.19-2.11a3.87,3.87,0,0,1-1.11-3.23v-.66a8,8,0,0,1-2.84,0v-2.68a5,5,0,0,0-2-4l-2.34-1.72a2.6,2.6,0,0,0-3.17.08l-.74.6a5.09,5.09,0,0,1-3.24,1.15h-4.19a5.09,5.09,0,0,1-2-.42,4.93,4.93,0,0,1-1.23-.73l-.74-.6a2.6,2.6,0,0,0-3.17-.08l-2.35,1.72a5,5,0,0,0-2,4v3.22c-.51,1.34-1,2.69-1.33,4l-1.33,1.32a3.92,3.92,0,0,0-1.13,2.75v1.74a20.21,20.21,0,0,1-1.36-2.87,4.81,4.81,0,0,0-2.46-.73,6.6,6.6,0,0,0-1.64.32l-.75.28Z" transform="translate(-43.07 -68)"/><path class="cls-42" d="M334.48,306.31a6.81,6.81,0,0,0-4.5,0A6.69,6.69,0,0,0,334.48,306.31Z" transform="translate(-43.07 -68)"/><path class="cls-42" d="M347.55,306.39a4.49,4.49,0,0,0-4,0A4.56,4.56,0,0,0,347.55,306.39Z" transform="translate(-43.07 -68)"/><path class="cls-41" d="M347,313.2l-.25-.23a8.65,8.65,0,0,0-5.76-2.14h-10a8.65,8.65,0,0,0-5.76,2.14l-.25.23a6.9,6.9,0,0,0-2.39,5.15V321a7,7,0,0,0,4.9,6.46l1.09.39a22.08,22.08,0,0,0,14.79,0l1.09-.39a7,7,0,0,0,4.89-6.46v-2.69A6.93,6.93,0,0,0,347,313.2Zm-.8,7c-1.09,1.47-1.64,1.43-3.66,2.63l-2.37.37a4.26,4.26,0,0,1-3.43-.74c-.15-.12-.59.8-.74.92-.8.68-2.79.76-3.85.46l-2.42-.92c-1.7-.48-3.93-1.12-3.93-2.72v-2.51a2.9,2.9,0,0,1,2.66-2.75l3.79-.49c1.46-.19,4.89-.15,5.84-1.16a5.78,5.78,0,0,0,3.72,1.43l1.74.22a2.9,2.9,0,0,1,2.65,2.75Z" transform="translate(-43.07 -68)"/><path class="cls-43" d="M333.82,304.46a1.47,1.47,0,1,1-1.47-1.46A1.47,1.47,0,0,1,333.82,304.46Z" transform="translate(-43.07 -68)"/><path class="cls-43" d="M347,304.46a1.46,1.46,0,1,1-1.46-1.46A1.46,1.46,0,0,1,347,304.46Z" transform="translate(-43.07 -68)"/><path class="cls-44" d="M325.63,295.67a5.94,5.94,0,0,1,6.78-2.28" transform="translate(-43.07 -68)"/><path class="cls-44" d="M341.84,294.88a4.67,4.67,0,0,1,6.61.29" transform="translate(-43.07 -68)"/><path class="cls-29" d="M338.84,300.67s1.58,4,2.92,6.54-2.63,3.62-2.63,3.62" transform="translate(-43.07 -68)"/><path class="cls-29" d="M333.55,315.34a6.89,6.89,0,0,0,7.44,1.23" transform="translate(-43.07 -68)"/><path class="cls-29" d="M316.42,306.12s-.05-4.54-3.44-3.3" transform="translate(-43.07 -68)"/><path class="cls-30" d="M384.39,361.2a24.21,24.21,0,0,0-16.09-18.72l-23.16-7.81-12.58,2.51L320,334.67l-23.15,7.81a24.17,24.17,0,0,0-16.09,18.72l-.17,24,52,.11,52-.11Z" transform="translate(-43.07 -68)"/><polygon class="cls-46" points="254.31 317.49 250.27 287.56 259.57 317.49 254.31 317.49"/><polygon class="cls-46" points="324.67 317.49 328.72 287.56 319.42 317.49 324.67 317.49"/><path class="cls-46" d="M355.36,365.15a105.44,105.44,0,0,1-11.85.41,84.64,84.64,0,0,1-13.16-1.38,83.76,83.76,0,0,1-12.75-3.51A105.37,105.37,0,0,1,306.71,356a41.09,41.09,0,0,0,9.86,7,48.45,48.45,0,0,0,27,5.1A40.91,40.91,0,0,0,355.36,365.15Z" transform="translate(-43.07 -68)"/><path class="cls-46" d="M355.17,358.32c-3.29.49-7.49,1.21-11.72,1.67s-8.48.71-11.8,1a36.92,36.92,0,0,0,23.52-2.63Z" transform="translate(-43.07 -68)"/><path class="cls-46" d="M361.86,371.75c-3.07.63-6.55,1.4-10.27,2.12s-7.65,1.41-11.61,2-7.93,1-11.7,1.29-7.33.53-10.46.76a53.67,53.67,0,0,0,10.5,1.47A66.38,66.38,0,0,0,352.17,376,53.51,53.51,0,0,0,361.86,371.75Z" transform="translate(-43.07 -68)"/><polygon class="cls-46" points="289.49 269.18 276.91 266.67 281.85 283.18 285.28 279.07 286.73 280.15 289.49 280.15 292.26 280.15 293.7 279.07 297.13 283.18 302.07 266.67 289.49 269.18"/><polygon class="cls-97" points="289.49 269.18 285.28 276.03 287.39 282.03 289.49 282.03 291.6 282.03 293.7 276.03 289.49 269.18"/><polygon class="cls-98" points="291.6 282.03 289.49 282.03 287.39 282.03 281.85 317.35 289.49 317.35 297.13 317.35 291.6 282.03"/><path class="cls-49" d="M332.56,337.18l.75,1.22-2.89,5a1.8,1.8,0,0,0-.15,1.5l.16.45a3.1,3.1,0,0,0,2.93,2.09h2.21l-.9,2.56h-4.21l-2.11-6Z" transform="translate(-43.07 -68)"/><polygon class="cls-30" points="278.15 260.44 289.49 269.18 282.75 280.15 276.91 266.67 278.15 260.44"/><polygon class="cls-30" points="298.69 261.38 289.49 269.18 296.23 280.15 302.07 266.67 298.69 261.38"/><polygon class="cls-99" points="242.46 273.41 243.61 271.38 266.8 265.48 268.93 268.07 242.46 273.41"/><polygon class="cls-99" points="242.46 273.41 227.14 256.24 231.92 255.68 243.61 271.38 242.46 273.41"/><polygon class="cls-100" points="227.14 256.24 227.14 260.4 242.46 273.41 227.14 256.24"/><polygon class="cls-100" points="268.93 268.07 268.7 270 242.46 273.41 268.93 268.07"/><polygon class="cls-56" points="242.46 273.41 224.35 258.04 224.35 297.95 239.63 311.6 242.46 273.41 242.46 273.41"/><polygon class="cls-101" points="242.46 273.41 239.63 311.6 239.63 311.6 265.78 310.88 270.36 269.79 242.46 273.41"/><path class="cls-102" d="M278.39,375.74l-1.8-24.56h0a3.12,3.12,0,0,1,3.07,2.57l.65,3.64,2.39-9.24h0a4,4,0,0,1,3.35,4l-.19,7.14,3.41-6.29h0a3.31,3.31,0,0,1,2.25,3.57l-.95,7.27,3.51-5.18h0a3.16,3.16,0,0,1,1.84,3.4l-1.69,10.19.82,7-12.35.34Z" transform="translate(-43.07 -68)"/><path class="cls-22" d="M280.1,381.43,276,367.69l-1-14.81a1.6,1.6,0,0,1,1.59-1.7h0a1.6,1.6,0,0,1,1.58,1.38l1.57,11.63L281,349.75a1.76,1.76,0,0,1,1.75-1.6h0a1.75,1.75,0,0,1,1.76,1.75v15l2.66-10.55a1.78,1.78,0,0,1,2.15-1.29h0A1.78,1.78,0,0,1,290.6,355L289,367.69l3.28-8.19a1.41,1.41,0,0,1,1.76-.82h0a1.42,1.42,0,0,1,.95,1.59l-2.08,12,.24,4.77A12.43,12.43,0,0,1,292,383.1h0l-2.11.42a12.6,12.6,0,0,1-9.75-2.09Z" transform="translate(-43.07 -68)"/><path class="cls-46" d="M280.1,381.43h0a12.6,12.6,0,0,0,9.75,2.09l2.11-.42.36,2.25H280.1Z" transform="translate(-43.07 -68)"/><path class="cls-11" d="M306.84,184.11h246a6.79,6.79,0,0,1,6.8,6.8v36.85a6.79,6.79,0,0,1-6.8,6.8H354.3L341.76,247.1V234.56H306.84a6.8,6.8,0,0,1-6.8-6.8V190.91A6.8,6.8,0,0,1,306.84,184.11Z" transform="translate(-43.07 -68)"/><text class="cls-103" transform="translate(289.55 138.05)"><tspan class="cls-104">Y</tspan><tspan x="7.42" y="0">ou </tspan><tspan class="cls-105" x="27.34" y="0">c</tspan><tspan x="34.57" y="0">ompl</tspan><tspan class="cls-105" x="67.13" y="0">e</tspan><tspan class="cls-106" x="75.04" y="0">t</tspan><tspan class="cls-107" x="80.19" y="0">e online modul</tspan><tspan class="cls-108" x="176.02" y="0">e</tspan><tspan class="cls-109" x="183.86" y="0">s </tspan><tspan x="-25.91" y="16.8">a</tspan><tspan class="cls-110" x="-17.19" y="16.8">n</tspan><tspan x="-9.16" y="16.8">ywhe</tspan><tspan class="cls-105" x="25.32" y="16.8">r</tspan><tspan x="30.29" y="16.8">e and a</tspan><tspan class="cls-110" x="79.74" y="16.8">n</tspan><tspan x="87.76" y="16.8">y</tspan><tspan class="cls-110" x="95.18" y="16.8">t</tspan><tspan x="100.47" y="16.8">ime </tspan><tspan class="cls-111" x="127.67" y="16.8">t</tspan><tspan x="132.96" y="16.8">hat </tspan><tspan class="cls-112" x="158.78" y="16.8">s</tspan><tspan class="cls-113" x="165.26" y="16.8">ui</tspan><tspan class="cls-105" x="177.06" y="16.8">t</tspan><tspan x="182.28" y="16.8">s </tspan><tspan class="cls-108" x="192.34" y="16.8">y</tspan><tspan class="cls-109" x="199.48" y="16.8">ou.</tspan></text></g></g></svg>