<svg xmlns="http://www.w3.org/2000/svg" xmlns:xlink="http://www.w3.org/1999/xlink" viewBox="0 0 700.34 515.09"><defs><style>.cls-1,.cls-28,.cls-29,.cls-42,.cls-43,.cls-48,.cls-63,.cls-64,.cls-70,.cls-71,.cls-81,.cls-83{fill:none;}.cls-2{isolation:isolate;}.cls-3{opacity:0.5;}.cls-4{fill:url(#linear-gradient);}.cls-5{fill:url(#linear-gradient-2);}.cls-6{fill:#d1d1d1;}.cls-7{fill:url(#linear-gradient-3);}.cls-8{fill:url(#linear-gradient-4);}.cls-9{fill:#ceceea;}.cls-10{opacity:0.3;}.cls-11{fill:#eefaff;}.cls-12{fill:#511a66;}.cls-13{fill:#a5a5a5;}.cls-14,.cls-15{opacity:0.2;}.cls-14{fill:url(#linear-gradient-5);}.cls-15{fill:url(#linear-gradient-6);}.cls-16{fill:#73388e;}.cls-17{fill:#d31610;}.cls-18,.cls-49,.cls-69{fill:#fff;}.cls-19{fill:#fae3e2;}.cls-20{fill:#b3b3b3;}.cls-21{fill:#eda29f;}.cls-22{fill:#e36a66;}.cls-23{fill:#fcefee;}.cls-24{fill:#e2635f;}.cls-25{fill:#da3934;}.cls-26{fill:#e57370;}.cls-27{fill:#d5221c;}.cls-28{stroke:#5730a0;}.cls-28,.cls-29,.cls-42,.cls-43,.cls-63,.cls-64,.cls-71{stroke-linecap:round;stroke-linejoin:round;}.cls-28,.cls-29{stroke-width:2px;}.cls-29{stroke:#e5e5e5;}.cls-30{fill:#a8a8a8;}.cls-31{fill:#f0f3ff;}.cls-32{fill:#d72d28;}.cls-33{fill:#895f97;}.cls-34{fill:#db423d;}.cls-35{fill:#703e82;}.cls-36{fill:#eaa344;}.cls-37{fill:#fec9cf;}.cls-38{fill:#f7f7f7;}.cls-39{fill:#292c3d;}.cls-40{fill:#ffcad0;}.cls-41{fill:#ee84aa;}.cls-42{stroke:#703e82;}.cls-43,.cls-64{stroke:#ee84aa;}.cls-43{stroke-width:0.75px;}.cls-44{fill:#2c334b;}.cls-45{fill:#efefef;}.cls-46{fill:#dbd9d9;}.cls-47{fill:#2d2d2d;}.cls-48{stroke:#e6e6e6;}.cls-48,.cls-70,.cls-81,.cls-83{stroke-miterlimit:10;}.cls-49{font-size:13.2px;font-family:Gilroy-ExtraBold, Gilroy;font-weight:800;}.cls-50{letter-spacing:-0.02em;}.cls-51{letter-spacing:0em;}.cls-52{letter-spacing:-0.01em;}.cls-53{letter-spacing:-0.02em;}.cls-54{letter-spacing:-0.01em;}.cls-55{letter-spacing:0em;}.cls-56{letter-spacing:-0.03em;}.cls-57{letter-spacing:0em;}.cls-58{letter-spacing:-0.02em;}.cls-59{letter-spacing:0.01em;}.cls-60{clip-path:url(#clip-path);}.cls-61{fill:#d72923;}.cls-62{fill:#3b164c;}.cls-63{stroke:#171d51;stroke-width:1.15px;}.cls-64{stroke-width:0.86px;}.cls-65{fill:#4d505e;}.cls-66{fill:#abacb3;opacity:0.55;mix-blend-mode:multiply;}.cls-67{fill:#431459;}.cls-68{fill:#edb2bb;}.cls-69{opacity:0.22;}.cls-70{stroke:#d86539;stroke-width:0.72px;}.cls-71{stroke:#eab2ba;stroke-width:0.45px;}.cls-72{fill:#171d51;}.cls-73{fill:#1e0401;}.cls-74{fill:#ceb5a1;}.cls-75{fill:#c6ab99;}.cls-76{fill:#ceb4a1;}.cls-77{fill:#bca291;}.cls-78{fill:#d3bbab;}.cls-79{fill:#f7c249;}.cls-80{fill:#ddc6ba;}.cls-81,.cls-83{stroke:#f7c249;}.cls-81{stroke-width:0.5px;}.cls-82{fill:#c4ab9b;}.cls-84{fill:#837165;}.cls-85{fill:#132a35;}.cls-86{fill:#dd4c47;}.cls-87{fill:#ef6060;}.cls-88{fill:#af0c0c;}</style><linearGradient id="linear-gradient" x1="46.53" y1="274.29" x2="742" y2="274.29" gradientUnits="userSpaceOnUse"><stop offset="0" stop-color="#d31610"/><stop offset="1" stop-color="#511a66"/></linearGradient><linearGradient id="linear-gradient-2" x1="273.76" y1="403.75" x2="395.63" y2="403.75" gradientUnits="userSpaceOnUse"><stop offset="0" stop-color="#fff"/><stop offset="1" stop-color="#d8d8d8"/></linearGradient><linearGradient id="linear-gradient-3" x1="259.29" y1="494.82" x2="493.41" y2="494.82" xlink:href="#linear-gradient-2"/><linearGradient id="linear-gradient-4" x1="177.53" y1="296.54" x2="575.19" y2="296.54" xlink:href="#linear-gradient-2"/><linearGradient id="linear-gradient-5" x1="384.69" y1="126.76" x2="384.69" y2="376.96" gradientUnits="userSpaceOnUse"><stop offset="0" stop-color="#fff"/><stop offset="1" stop-color="#fff" stop-opacity="0"/></linearGradient><linearGradient id="linear-gradient-6" x1="437.11" y1="126.76" x2="437.11" y2="376.96" xlink:href="#linear-gradient-5"/><clipPath id="clip-path" transform="translate(-41.66 -42.7)"><rect class="cls-1" x="179.53" y="95.65" width="402.75" height="255.32"/></clipPath></defs><g class="cls-2"><g id="Layer_3" data-name="Layer 3"><g class="cls-3"><path class="cls-4" d="M669.51,451c-120-52.18,186.28-191.66,23.76-320.21S464.84,181.93,333.48,82,57.92,91.1,77.69,204.77s65.66,120.34-4.76,170.64c-42.42,30.3-22.75,80.82-15.39,128.27l618.38,2.2C658.57,480.53,703.06,465.54,669.51,451Z" transform="translate(-41.66 -42.7)"/></g><polygon class="cls-5" points="395.63 447.1 273.76 447.1 287 395.06 290 383.26 295.83 360.4 373.57 360.4 379.39 383.26 382.39 395.06 395.63 447.1"/><polygon class="cls-6" points="382.39 395.06 287 395.06 290 383.26 379.39 383.26 382.39 395.06"/><path class="cls-7" d="M484.05,504.18H268.65a9.36,9.36,0,0,1-9.36-9.36h0a9.36,9.36,0,0,1,9.36-9.36h215.4a9.36,9.36,0,0,1,9.36,9.36h0A9.36,9.36,0,0,1,484.05,504.18Z" transform="translate(-41.66 -42.7)"/><path class="cls-8" d="M575.19,182V411.08a9.87,9.87,0,0,1-9.87,9.87H187.4a9.86,9.86,0,0,1-9.87-9.87V182a9.86,9.86,0,0,1,9.87-9.87H565.32A9.87,9.87,0,0,1,575.19,182Z" transform="translate(-41.66 -42.7)"/><rect class="cls-9" x="143.14" y="136.67" width="382.38" height="201.94"/><g class="cls-10"><rect class="cls-11" x="476.96" y="136.67" width="10.72" height="171.74"/><rect class="cls-11" x="504.12" y="136.67" width="10.72" height="171.74"/><rect class="cls-11" x="151.06" y="136.67" width="10.72" height="171.74"/><rect class="cls-11" x="178.22" y="136.67" width="10.72" height="171.74"/><rect class="cls-11" x="205.37" y="136.67" width="10.72" height="171.74"/><rect class="cls-11" x="232.53" y="136.67" width="10.72" height="171.74"/><rect class="cls-11" x="259.69" y="136.67" width="10.72" height="171.74"/><rect class="cls-11" x="286.85" y="136.67" width="10.72" height="171.74"/><rect class="cls-11" x="314.01" y="136.67" width="10.72" height="171.74"/><rect class="cls-11" x="341.17" y="136.67" width="10.72" height="171.74"/><rect class="cls-11" x="368.33" y="136.67" width="10.72" height="171.74"/><rect class="cls-11" x="395.49" y="136.67" width="10.72" height="171.74"/><rect class="cls-11" x="422.65" y="136.67" width="10.72" height="171.74"/><rect class="cls-11" x="449.8" y="136.67" width="10.72" height="171.74"/></g><rect class="cls-12" x="143.14" y="308.41" width="382.38" height="30.2"/><path class="cls-13" d="M376.33,409.66h0a9.2,9.2,0,0,1-9.17-9.17h0a9.2,9.2,0,0,1,9.17-9.17h0a9.2,9.2,0,0,1,9.17,9.17h0A9.2,9.2,0,0,1,376.33,409.66Z" transform="translate(-41.66 -42.7)"/><polygon class="cls-14" points="362.8 378.07 335.94 378.07 406.58 129.42 433.44 129.42 362.8 378.07"/><polygon class="cls-15" points="430.28 378.07 373.3 378.07 443.94 129.42 500.92 129.42 430.28 378.07"/><path class="cls-16" d="M552.52,369.17H238.8a3,3,0,1,1,0-5.93H552.52a3,3,0,0,1,0,5.93Z" transform="translate(-41.66 -42.7)"/><path class="cls-17" d="M395.66,363.24v5.93H238.8a3,3,0,0,1,0-5.93Z" transform="translate(-41.66 -42.7)"/><circle class="cls-18" cx="354.08" cy="323.51" r="5.34"/><circle class="cls-18" cx="210.38" cy="366.21" r="11.91" transform="translate(-236.02 444.13) rotate(-76.72)"/><path class="cls-12" d="M208.59,360.87l6.53,5a.4.4,0,0,1,0,.62l-6.53,5a.4.4,0,0,1-.64-.31V361.18A.4.4,0,0,1,208.59,360.87Z" transform="translate(-41.66 -42.7)"/><polygon class="cls-19" points="216.63 204.02 147.94 243.68 147.94 135.78 216.63 96.1 216.63 204.02"/><path class="cls-20" d="M211.07,176l-1.83,1v-1.83l6.11-3.53v1.83l-1.83,1v9.69l-2.58,1.49Z" transform="translate(-41.66 -42.7)"/><path class="cls-20" d="M216.41,171l5.22-3v1.83L219,171.34v2.87l2-1.17v1.83L219,176v3.46l2.69-1.56v1.74l-5.25,3Z" transform="translate(-41.66 -42.7)"/><path class="cls-20" d="M223.4,177.83c-.53-.27-.82-1-.86-2.3l2.2-1.59a2.58,2.58,0,0,0,.26,1.42c.16.22.42.24.75,0a1.29,1.29,0,0,0,.64-1.22,1.41,1.41,0,0,0-.31-1,2.15,2.15,0,0,0-1-.5l-1-.29a2.33,2.33,0,0,1-1.17-.66,2.06,2.06,0,0,1-.4-1.44,4.84,4.84,0,0,1,.86-2.75,7.11,7.11,0,0,1,2.37-2.16c1.1-.64,1.83-.75,2.26-.33a3,3,0,0,1,.62,2l-2.22,1.54a3.8,3.8,0,0,0-.16-1.21c-.09-.22-.29-.24-.61,0a1.28,1.28,0,0,0-.51.57,1.79,1.79,0,0,0-.18.73,1,1,0,0,0,.27.84,2.42,2.42,0,0,0,.85.42l1,.29a3.05,3.05,0,0,1,1.33.81,2.42,2.42,0,0,1,.48,1.63,4.22,4.22,0,0,1-.39,1.7,6.39,6.39,0,0,1-2.65,3C224.76,177.93,224,178.1,223.4,177.83Z" transform="translate(-41.66 -42.7)"/><path class="cls-20" d="M231.24,164.33l-1.83,1v-1.83l6.11-3.53v1.83l-1.83,1v9.7L231.11,174Z" transform="translate(-41.66 -42.7)"/><polygon class="cls-21" points="210.92 126.17 163.48 153.56 163.48 151.75 210.92 124.38 210.92 126.17"/><polygon class="cls-21" points="210.92 134.88 163.48 162.26 163.48 160.45 210.92 133.07 210.92 134.88"/><polygon class="cls-21" points="210.92 143.57 163.48 170.95 163.48 169.16 210.92 141.76 210.92 143.57"/><polygon class="cls-21" points="210.92 152.28 163.48 179.64 163.48 177.85 210.92 150.47 210.92 152.28"/><polygon class="cls-21" points="210.92 160.98 163.48 188.35 163.48 186.56 210.92 159.16 210.92 160.98"/><polygon class="cls-21" points="210.92 169.67 163.48 197.05 163.48 195.25 210.92 167.88 210.92 169.67"/><polygon class="cls-21" points="210.92 178.38 163.48 205.76 163.48 203.95 210.92 176.57 210.92 178.38"/><polygon class="cls-21" points="210.92 187.07 163.48 214.45 163.48 212.66 210.92 185.26 210.92 187.07"/><polygon class="cls-21" points="210.92 195.77 163.48 223.15 163.48 221.35 210.92 193.97 210.92 195.77"/><path class="cls-22" d="M196,202.67c-1.1.64-2,.26-2-.84a4.15,4.15,0,0,1,2-3.15c1.1-.64,2-.26,2,.84A4.15,4.15,0,0,1,196,202.67Zm0-3.48a3.05,3.05,0,0,0-1.48,2.34c0,.81.66,1.1,1.48.63a3.05,3.05,0,0,0,1.48-2.35C197.4,199,196.74,198.72,196,199.19Z" transform="translate(-41.66 -42.7)"/><path class="cls-22" d="M196,211.36c-1.1.64-2,.26-2-.84a4.11,4.11,0,0,1,2-3.09c1.1-.64,2-.26,2,.84A4.15,4.15,0,0,1,196,211.36Zm0-3.48a3.09,3.09,0,0,0-1.48,2.35c0,.82.66,1.1,1.48.62a3.05,3.05,0,0,0,1.48-2.34C197.4,207.7,196.74,207.43,196,207.88Z" transform="translate(-41.66 -42.7)"/><path class="cls-22" d="M196,220.07c-1.1.64-2,.26-2-.84a4.18,4.18,0,0,1,2-3.15c1.1-.64,2-.25,2,.85A4.13,4.13,0,0,1,196,220.07Zm0-3.47a3.11,3.11,0,0,0-1.48,2.34c0,.82.66,1.1,1.48.62a3.05,3.05,0,0,0,1.48-2.34c0-.83-.69-1.1-1.48-.64Z" transform="translate(-41.66 -42.7)"/><path class="cls-22" d="M196,228.77c-1.1.64-2,.25-2-.85a4.13,4.13,0,0,1,2-3.16c1.1-.62,2-.26,2,.84A4.2,4.2,0,0,1,196,228.77Zm0-3.48a3.05,3.05,0,0,0-1.48,2.34c0,.81.66,1.1,1.48.62a3,3,0,0,0,1.48-2.34c0-.8-.69-1.1-1.48-.62Z" transform="translate(-41.66 -42.7)"/><path class="cls-22" d="M196,237.46c-1.1.64-2,.26-2-.84a4.15,4.15,0,0,1,2-3.15c1.1-.64,2-.26,2,.84A4.15,4.15,0,0,1,196,237.46Zm0-3.48a3.05,3.05,0,0,0-1.48,2.34c0,.83.66,1.1,1.48.63a3.05,3.05,0,0,0,1.48-2.35c0-.8-.69-1.09-1.48-.6Z" transform="translate(-41.66 -42.7)"/><path class="cls-22" d="M196,246.17c-1.1.62-2,.26-2-.84a4.13,4.13,0,0,1,2-3.13c1.1-.62,2-.26,2,.84A4.17,4.17,0,0,1,196,246.17Zm0-3.48a3.12,3.12,0,0,0-1.48,2.35c0,.8.66,1.09,1.48.62a3.05,3.05,0,0,0,1.48-2.34C197.4,242.49,196.74,242.2,196,242.69Z" transform="translate(-41.66 -42.7)"/><path class="cls-22" d="M196,254.86c-1.1.64-2,.26-2-.84a4.18,4.18,0,0,1,2-3.15c1.1-.64,2-.25,2,.85A4.13,4.13,0,0,1,196,254.86Zm0-3.47a3.11,3.11,0,0,0-1.48,2.34c0,.8.66,1.1,1.48.62a3.05,3.05,0,0,0,1.48-2.34c0-.81-.69-1.1-1.48-.66Z" transform="translate(-41.66 -42.7)"/><path class="cls-22" d="M196,263.57c-1.1.63-2,.26-2-.84a4.15,4.15,0,0,1,2-3.14c1.1-.65,2-.26,2,.84A4.13,4.13,0,0,1,196,263.57Zm0-3.47a3.11,3.11,0,0,0-1.48,2.34c0,.82.66,1.1,1.48.62a3,3,0,0,0,1.48-2.34c0-.82-.69-1.1-1.48-.64Z" transform="translate(-41.66 -42.7)"/><path class="cls-22" d="M196,272.27c-1.1.64-2,.25-2-.84a4.13,4.13,0,0,1,2-3.17c1.1-.64,2-.26,2,.84A4.18,4.18,0,0,1,196,272.27Zm0-3.48a3.11,3.11,0,0,0-1.48,2.34c0,.81.66,1.1,1.48.63a3.05,3.05,0,0,0,1.48-2.35C197.4,268.61,196.74,268.31,196,268.79Z" transform="translate(-41.66 -42.7)"/><polygon class="cls-23" points="262.13 225.47 193.44 265.13 193.44 157.22 262.13 117.55 262.13 225.47"/><path class="cls-20" d="M256.55,197.43l-1.83,1v-1.83l6.11-3.53v1.83L259,196v9.65l-2.58,1.48Z" transform="translate(-41.66 -42.7)"/><path class="cls-20" d="M261.84,192.44l5.21-3v1.83l-2.65,1.54v2.87l2-1.17v1.83l-2,1.17V201l2.69-1.56v1.74L261.84,204Z" transform="translate(-41.66 -42.7)"/><path class="cls-20" d="M268.9,199.28c-.53-.27-.82-1-.86-2.3l2.2-1.59a2.67,2.67,0,0,0,.25,1.42c.17.22.42.24.75,0a1.3,1.3,0,0,0,.64-1.22,1.32,1.32,0,0,0-.31-1,2.1,2.1,0,0,0-1-.5l-1-.29a2.56,2.56,0,0,1-1.18-.66,2.18,2.18,0,0,1-.4-1.44,4.89,4.89,0,0,1,.88-2.75,7.14,7.14,0,0,1,2.38-2.16c1.1-.64,1.83-.75,2.23-.33a2.9,2.9,0,0,1,.64,2L271.94,190a4.1,4.1,0,0,0-.17-1.2c-.09-.22-.29-.24-.6,0a1.2,1.2,0,0,0-.51.56,1.88,1.88,0,0,0-.19.74,1.09,1.09,0,0,0,.28.84,2.37,2.37,0,0,0,.84.42l1,.29a3,3,0,0,1,1.34.81,2.36,2.36,0,0,1,.47,1.63,4.38,4.38,0,0,1-.38,1.7,6.47,6.47,0,0,1-2.66,3C270.27,199.37,269.45,199.56,268.9,199.28Z" transform="translate(-41.66 -42.7)"/><path class="cls-20" d="M276.71,185.8l-1.83,1V185l6.12-3.53v1.83l-1.83,1V194l-2.58,1.49Z" transform="translate(-41.66 -42.7)"/><polygon class="cls-21" points="256.42 147.63 208.98 175.01 208.98 173.2 256.42 145.82 256.42 147.63"/><polygon class="cls-21" points="256.42 156.33 208.98 183.71 208.98 181.9 256.42 154.52 256.42 156.33"/><polygon class="cls-21" points="256.42 165.02 208.98 192.4 208.98 190.61 256.42 163.21 256.42 165.02"/><polygon class="cls-21" points="256.42 173.73 208.98 201.11 208.98 199.3 256.42 171.92 256.42 173.73"/><polygon class="cls-21" points="256.42 182.43 208.98 209.8 208.98 208.01 256.42 180.61 256.42 182.43"/><polygon class="cls-21" points="256.42 191.12 208.98 218.51 208.98 216.7 256.42 189.31 256.42 191.12"/><polygon class="cls-21" points="256.42 199.83 208.98 227.21 208.98 225.4 256.42 198.02 256.42 199.83"/><polygon class="cls-21" points="256.42 208.52 208.98 235.9 208.98 234.11 256.42 206.73 256.42 208.52"/><polygon class="cls-21" points="256.42 217.23 208.98 244.61 208.98 242.8 256.42 215.42 256.42 217.23"/><path class="cls-22" d="M241.43,224.12c-1.12.64-2,.25-2-.84a4.14,4.14,0,0,1,2-3.15c1.1-.64,2-.26,2,.84A4.16,4.16,0,0,1,241.43,224.12Zm0-3.48A3.05,3.05,0,0,0,240,223c0,.83.66,1.1,1.48.63a3.14,3.14,0,0,0,1.48-2.35C242.89,220.44,242.24,220.24,241.43,220.64Z" transform="translate(-41.66 -42.7)"/><path class="cls-22" d="M241.43,232.81c-1.12.62-2,.26-2-.84a4.14,4.14,0,0,1,2-3.15c1.1-.64,2-.26,2,.84A4.15,4.15,0,0,1,241.43,232.81Zm0-3.48a3.05,3.05,0,0,0-1.48,2.35c0,.82.66,1.09,1.48.64a3.14,3.14,0,0,0,1.48-2.35c0-.82-.67-1.09-1.48-.58Z" transform="translate(-41.66 -42.7)"/><path class="cls-22" d="M241.43,241.52c-1.12.64-2,.26-2-.84a4.14,4.14,0,0,1,2-3.15c1.1-.62,2-.25,2,.84A4.15,4.15,0,0,1,241.43,241.52Zm0-3.48a3.12,3.12,0,0,0-1.56,2.33c0,.82.66,1.1,1.49.62a3.12,3.12,0,0,0,1.48-2.34c0-.81-.6-1.08-1.41-.61Z" transform="translate(-41.66 -42.7)"/><path class="cls-22" d="M241.43,250.22c-1.12.64-2,.25-2-.85a4.11,4.11,0,0,1,2-3.14c1.1-.65,2-.26,2,.84A4.18,4.18,0,0,1,241.43,250.22Zm0-3.48a3.05,3.05,0,0,0-1.48,2.34c0,.82.66,1.1,1.48.62a3.11,3.11,0,0,0,1.48-2.34c0-.82-.67-1.1-1.48-.62Z" transform="translate(-41.66 -42.7)"/><path class="cls-22" d="M241.43,258.93c-1.12.64-2,.25-2-.85a4.13,4.13,0,0,1,2-3.14c1.1-.64,2-.26,2,.84A4.18,4.18,0,0,1,241.43,258.93Zm0-3.48a3.05,3.05,0,0,0-1.48,2.34c0,.83.66,1.1,1.48.64a3.11,3.11,0,0,0,1.48-2.34C242.89,255.25,242.24,255,241.43,255.45Z" transform="translate(-41.66 -42.7)"/><path class="cls-22" d="M241.43,267.62c-1.12.64-2,.26-2-.84a4.12,4.12,0,0,1,2-3.15c1.1-.64,2-.26,2,.84A4.16,4.16,0,0,1,241.43,267.62Zm0-3.48a3.05,3.05,0,0,0-1.48,2.34c0,.83.66,1.1,1.48.63a3.07,3.07,0,0,0,1.48-2.35c0-.82-.67-1.09-1.48-.6Z" transform="translate(-41.66 -42.7)"/><path class="cls-22" d="M241.43,276.31c-1.12.64-2,.26-2-.84a4.14,4.14,0,0,1,2-3.15c1.1-.64,2-.25,2,.84A4.15,4.15,0,0,1,241.43,276.31Zm0-3.47a3.05,3.05,0,0,0-1.56,2.3c0,.82.66,1.1,1.49.62a3.11,3.11,0,0,0,1.48-2.34C242.89,272.65,242.24,272.36,241.43,272.84Z" transform="translate(-41.66 -42.7)"/><path class="cls-22" d="M241.43,285c-1.12.64-2,.26-2-.84a4.16,4.16,0,0,1,2-3.15c1.1-.62,2-.25,2,.85A4.15,4.15,0,0,1,241.43,285Zm0-3.47a3.05,3.05,0,0,0-1.48,2.34c0,.82.66,1.1,1.48.62a3.11,3.11,0,0,0,1.48-2.34C242.89,281.35,242.24,281.07,241.43,281.55Z" transform="translate(-41.66 -42.7)"/><path class="cls-22" d="M241.43,293.72c-1.12.64-2,.25-2-.85a4.13,4.13,0,0,1,2-3.14c1.1-.64,2-.26,2,.84A4.18,4.18,0,0,1,241.43,293.72Zm0-3.48a3.05,3.05,0,0,0-1.48,2.34c0,.83.66,1.1,1.48.62a3.05,3.05,0,0,0,1.48-2.34C242.89,290,242.24,289.78,241.43,290.24Z" transform="translate(-41.66 -42.7)"/><polygon class="cls-24" points="211.87 96.08 210.36 95.19 220.87 92.72 222.42 93.6 211.87 96.08"/><polygon class="cls-25" points="203.14 121.28 201.59 120.4 210.36 95.19 211.87 96.08 203.14 121.28"/><polygon class="cls-26" points="211.87 96.08 222.42 93.6 203.21 133.79 192.44 118.92 198.11 112.33 203.14 121.28 211.87 96.08"/><polygon class="cls-27" points="203.21 133.79 201.66 132.91 190.93 118.03 192.44 118.92 203.21 133.79"/><polygon class="cls-24" points="192.44 118.92 190.93 118.03 196.55 111.44 198.11 112.33 192.44 118.92"/><line class="cls-28" x1="1" y1="461.91" x2="641.35" y2="461.91"/><path class="cls-29" d="M132.4,239.52H110.47a3.82,3.82,0,0,0-3.81,3.81v9.54a3.82,3.82,0,0,0,3.81,3.81h8.59l7,7v-7h6.31a3.82,3.82,0,0,0,3.82-3.81v-9.54A3.82,3.82,0,0,0,132.4,239.52Z" transform="translate(-41.66 -42.7)"/><rect class="cls-29" x="477.96" y="395.4" width="7.63" height="7.63"/><rect class="cls-30" x="315.64" y="89.54" width="3.81" height="3.81"/><rect class="cls-30" x="656.47" y="225.96" width="5.67" height="5.67"/><rect class="cls-30" x="63.57" y="280.9" width="2.83" height="2.83"/><rect class="cls-30" x="97.32" y="169.78" width="3.85" height="3.85"/><rect class="cls-29" x="121.45" y="349.86" width="7.63" height="7.63" transform="translate(-177.54 41.57) rotate(-24.61)"/><circle class="cls-29" cx="633.08" cy="264.39" r="8.66"/><path class="cls-29" d="M309.07,135.13a4.94,4.94,0,1,1-4.94-4.95A4.94,4.94,0,0,1,309.07,135.13Z" transform="translate(-41.66 -42.7)"/><rect class="cls-30" x="620.04" y="181.81" width="35.05" height="19.37" rx="4.18"/><polygon class="cls-31" points="640.84 191.5 634.3 187.72 634.3 195.27 640.84 191.5"/><polygon class="cls-19" points="579.23 165.37 509.15 205.82 509.15 115.57 579.23 75.11 579.23 165.37"/><path class="cls-32" d="M618,206.79l-64.29,37.1v-84.4L618,122.39Zm-63.64,36.12,63-36.37V123.36l-63,36.37Z" transform="translate(-41.66 -42.7)"/><path class="cls-20" d="M565.46,176.12l.46-.26V177a4.5,4.5,0,0,1-.6.55,7.11,7.11,0,0,1-.72.5,5.53,5.53,0,0,1-1.19.53,1.5,1.5,0,0,1-.89,0,1,1,0,0,1-.56-.49,2.41,2.41,0,0,1-.19-1.06,4.24,4.24,0,0,1,.21-1.32,4.93,4.93,0,0,1,.59-1.14,5.3,5.3,0,0,1,.85-1,6.84,6.84,0,0,1,1-.73l.47-.25.38-.17.32-.1.27-.05v1.31l-.46.27v-.76l-.1-.09-.24.06a2.31,2.31,0,0,0-.55.26,3.88,3.88,0,0,0-.73.55,3.65,3.65,0,0,0-.59.71,3.71,3.71,0,0,0-.53,1.95c0,.69.17,1.11.52,1.29s.83.08,1.47-.28a4.27,4.27,0,0,0,.44-.3,1.54,1.54,0,0,0,.26-.25l.1-.2Z" transform="translate(-41.66 -42.7)"/><path class="cls-20" d="M570.45,169.53v1.13l-.46.27v-.62l-.15-.08-1.75,1v1.87l1.21-.71.1-.17v-.31l.46-.26v1.23l-.46.26v-.3l-.1,0-1.21.71v2l1.88-1.09.15-.22v-.7l.45-.27v1.25l-3.9,2.29v-.4l.65-.38v-4.24l-.65.38v-.4Z" transform="translate(-41.66 -42.7)"/><path class="cls-20" d="M572.72,172.85l.63-.36v.4l-2.09,1.2v-.4l.65-.38v-4.24l-.65.38v-.4l.72-.42.7-.44c.26-.16.51-.32.76-.45a4.61,4.61,0,0,1,.74-.36,1.32,1.32,0,0,1,.59-.08.55.55,0,0,1,.4.21,1,1,0,0,1,.15.57,2.12,2.12,0,0,1-.32,1.06,4.15,4.15,0,0,1-.84,1l1.43,1,.45-.25v.4l-1.17.67-1.37-1.32-.73.42Zm.57-2.46a2.5,2.5,0,0,0,.87-.81,1.89,1.89,0,0,0,.31-1c0-.35-.12-.55-.33-.58a1.39,1.39,0,0,0-.88.25l-.31.2-.23.15v2.12Z" transform="translate(-41.66 -42.7)"/><path class="cls-20" d="M579.36,169.4l-2.29,1.32v-.4l.74-.43v-4.23l-1.29.74-.15.24v.93l-.51.3v-1.48l4.7-2.72v1.49l-.52.3v-.93l-.14-.08-1.29.75v4.23l.74-.43Z" transform="translate(-41.66 -42.7)"/><path class="cls-20" d="M583.27,167.18l-2.12,1.22V168l.65-.38v-4.24l-.65.38v-.4l2.12-1.22v.4l-.66.38v4.24l.66-.4Z" transform="translate(-41.66 -42.7)"/><path class="cls-20" d="M585.31,165.59l.77-.44v.4l-2.23,1.29v-.4l.66-.38v-4.24l-.66.38v-.4l3.91-2.25v1.19l-.46.26v-.62l-.14-.07-1.82,1.05v1.95l1.29-.75.11-.17V162l.46-.26v1.32l-.46.26V163l-.11,0-1.29.75Z" transform="translate(-41.66 -42.7)"/><path class="cls-20" d="M590.6,162.94l-2.12,1.22v-.4l.65-.38v-4.24l-.65.38v-.4l2.12-1.22v.4l-.66.38v4.24l.66-.38Z" transform="translate(-41.66 -42.7)"/><path class="cls-20" d="M595.07,159l.46-.27v1.15a3.92,3.92,0,0,1-.6.55,6,6,0,0,1-1.91,1,1.68,1.68,0,0,1-.89,0,1,1,0,0,1-.56-.49,2.45,2.45,0,0,1-.19-1.07,4.18,4.18,0,0,1,.21-1.31,5,5,0,0,1,.59-1.15,5.58,5.58,0,0,1,.85-1,5.8,5.8,0,0,1,1-.73l.46-.26.39-.16.31-.1.27-.05v1.23l-.46.26V156l-.1-.09-.24.06a3.94,3.94,0,0,0-.55.26,4.36,4.36,0,0,0-.73.55,3.28,3.28,0,0,0-.58.71,3.67,3.67,0,0,0-.54,2c0,.69.17,1.11.53,1.28s.83.08,1.46-.28a3,3,0,0,0,.44-.29,1.53,1.53,0,0,0,.31-.26l.1-.19Z" transform="translate(-41.66 -42.7)"/><path class="cls-20" d="M597.75,158.8l-1.75,1v-.4l.55-.32,1.87-5.72.76-.43,1.71,3.65.54-.32v.4l-2.06,1.2v-.4l.63-.38-.47-1-1.95,1.1-.49,1.55.62-.36Zm0-2.1,1.64-1-.6-1.33-.18-.66h0l-.2.9Z" transform="translate(-41.66 -42.7)"/><path class="cls-20" d="M604.44,155l-2.29,1.31v-.4l.74-.43V151.2l-1.29.74-.15.24v.91l-.51.3v-1.48l4.7-2.71v1.48l-.51.3v-.93L605,150l-1.29.74V155l.74-.43Z" transform="translate(-41.66 -42.7)"/><polygon class="cls-23" points="571.21 162.55 517.16 193.76 517.16 141.15 571.21 109.93 571.21 162.55"/><polygon class="cls-33" points="540.09 109.81 537.71 118.97 539 117.3 539.57 118.41 541.94 109.31 540.09 109.81"/><polygon class="cls-33" points="544.29 107.39 546.67 113.79 545.37 113.62 544.8 115.39 542.43 109.02 544.29 107.39"/><path class="cls-32" d="M587.87,148.15c0,2.22-1.81,5.07-4,6.35s-4,.52-4-1.7,1.81-5.07,4-6.35S587.87,145.93,587.87,148.15Z" transform="translate(-41.66 -42.7)"/><path class="cls-34" d="M586.66,148.85a5.89,5.89,0,0,1-2.82,4.44c-1.55.9-2.81.36-2.81-1.19a5.9,5.9,0,0,1,2.81-4.45C585.4,146.77,586.66,147.29,586.66,148.85Z" transform="translate(-41.66 -42.7)"/><polygon class="cls-21" points="567.74 123.57 521.56 150.24 521.56 149.69 567.74 123.03 567.74 123.57"/><polygon class="cls-21" points="567.74 125.95 521.56 152.62 521.56 152.07 567.74 125.41 567.74 125.95"/><polygon class="cls-21" points="567.74 128.34 521.56 155 521.56 154.44 567.74 127.79 567.74 128.34"/><polygon class="cls-21" points="567.74 130.72 521.56 157.37 521.56 156.82 567.74 130.17 567.74 130.72"/><polygon class="cls-23" points="509.15 115.57 579.23 75.11 578.48 74.72 508.42 115.11 509.15 115.57"/><polygon class="cls-23" points="509.15 115.57 509.15 205.82 508.41 205.82 508.42 115.11 509.15 115.57"/><polygon class="cls-21" points="567.74 134.01 521.56 160.67 521.56 160.13 567.74 133.47 567.74 134.01"/><polygon class="cls-21" points="567.74 136.39 521.56 163.05 521.56 162.51 567.74 135.84 567.74 136.39"/><polygon class="cls-21" points="567.74 138.77 521.56 165.44 521.56 164.88 567.74 138.23 567.74 138.77"/><polygon class="cls-21" points="567.74 141.16 521.56 167.81 521.56 167.26 567.74 140.61 567.74 141.16"/><polygon class="cls-21" points="567.74 144.01 521.56 170.67 521.56 170.13 567.74 143.47 567.74 144.01"/><polygon class="cls-21" points="567.74 146.39 521.56 173.05 521.56 172.51 567.74 145.84 567.74 146.39"/><polygon class="cls-21" points="567.74 148.77 521.56 175.44 521.56 174.88 567.74 148.23 567.74 148.77"/><polygon class="cls-21" points="567.74 151.16 521.56 177.81 521.56 177.26 567.74 150.61 567.74 151.16"/><path class="cls-35" d="M654.75,253.69s15.46-12.64,30.39-4.44c0,0,8.41,9.28,12.3,5.05,0,0,.45,4.65-5.93,3.48,0,0,8.26,7.08,16.4-3.27a8.51,8.51,0,0,1-7.08,8.09s11,5.91,13.58-3.28c0,0,1.91,10.39-15.39,9.78l-8.45,0s2.92,4.11,5.94,3.44c0,0-5,3.94-14.74-5,0,0-9.45-8.44-16.78-2.23a14.55,14.55,0,0,1-16-1.69l-1.48-5.5Z" transform="translate(-41.66 -42.7)"/><polygon class="cls-36" points="608.92 222.1 607.5 214.39 605.3 214.72 606.59 221.5 608.92 222.1"/><polygon class="cls-37" points="569.55 370.11 567.38 459.35 577.53 459.35 583.02 370.11 569.55 370.11"/><path class="cls-38" d="M620.46,484.7a15.29,15.29,0,0,1-11.09-.64L609,496.41l-3.42,1.31-5.12,2,1.19,4,17.56-.51Z" transform="translate(-41.66 -42.7)"/><path class="cls-39" d="M601.48,499.27c-.81,1.26,2.6,1.84,2.6,1.84,3.7.48,5.22-1.14,5.22-1.14.15-.32-2.46-1.65-3.69-2.25.18-.06,1-.37,1.13-.44,2.32-1.11,4.63,5.17,12.77.64,0,0,4.41,7.12,1.09,8.39s-25.08,1.38-30.45.57C586.06,506.27,595.15,501.85,601.48,499.27Z" transform="translate(-41.66 -42.7)"/><polygon class="cls-37" points="612.64 370.11 624.66 459.35 614.51 459.35 599.18 370.11 612.64 370.11"/><path class="cls-38" d="M652.74,482.07a12.19,12.19,0,0,0,10.67-1.76l2.13,15.25,3.42,1.3,5.13,2-1.2,4-16.72-.8Z" transform="translate(-41.66 -42.7)"/><path class="cls-39" d="M673.09,498.42c.81,1.26-2.59,1.84-2.59,1.84-3.71.48-5.23-1.14-5.23-1.14-.14-.33,2.46-1.65,3.69-2.26-.18-.06-1-.36-1.13-.43-2.32-1.12-4.62,5.16-12.76.64,0,0-4.41,7.12-1.1,8.38s25.08,1.39,30.45.58C688.51,505.42,679.42,501,673.09,498.42Z" transform="translate(-41.66 -42.7)"/><path class="cls-35" d="M638.23,277.13c5.5-2.32,10.29-9.2,10.13-12.82a35.33,35.33,0,0,0-2-10.33c-1.55-4.31-6.41-6.71-11-6.72a20,20,0,0,0-5.53.85c-1.61.46-5.67,3-6.89,3s-3.59,8.87-3,25.43l1.1,1.37Z" transform="translate(-41.66 -42.7)"/><path class="cls-40" d="M623.87,271.91l.73,14.26.22,4.07a6.51,6.51,0,0,0,13-.5l-.18-7.26-.31-12.06Z" transform="translate(-41.66 -42.7)"/><path class="cls-41" d="M623.87,271.91l.73,13.43c6.32.25,10.93-2.31,13-5.73l-.31-9.19Z" transform="translate(-41.66 -42.7)"/><path class="cls-40" d="M618.86,260.87a48.73,48.73,0,0,0,.18,9.79c.76,5.94,1.42,12.75,9.25,13.39,9.33.76,12.45-10,12.45-10s4.33-1,4.87-4a2.62,2.62,0,0,0-3.83-2.91s-1.28-12.52-12.85-12.52C618.72,254.68,618.86,260.87,618.86,260.87Z" transform="translate(-41.66 -42.7)"/><path class="cls-35" d="M622.88,252s1.07,9-4.74,12C618.14,264,615.22,253.05,622.88,252Z" transform="translate(-41.66 -42.7)"/><path class="cls-35" d="M621.11,252.84s2.07,7.88,7.2,8.34,4.21,4.61,8.76,5.1c2.7.28,3.9,3.09,3.9,3.09a5.09,5.09,0,0,1,2.84-3.78C646.26,264.59,638,243.73,621.11,252.84Z" transform="translate(-41.66 -42.7)"/><path class="cls-35" d="M629.81,271.82a.9.9,0,1,0,.9-.9A.89.89,0,0,0,629.81,271.82Z" transform="translate(-41.66 -42.7)"/><path class="cls-35" d="M621.74,271.82a.9.9,0,1,0,.9-.9A.89.89,0,0,0,621.74,271.82Z" transform="translate(-41.66 -42.7)"/><path class="cls-42" d="M634,268.71a3.63,3.63,0,0,0-4.15-1.39" transform="translate(-41.66 -42.7)"/><path class="cls-42" d="M625,267.28a2.86,2.86,0,0,0-4,.18" transform="translate(-41.66 -42.7)"/><path class="cls-43" d="M626.74,269.5s-1,2.46-1.78,4,1.6,2.21,1.6,2.21" transform="translate(-41.66 -42.7)"/><path class="cls-43" d="M632.1,277.46a4.23,4.23,0,0,1-4.32,1.63" transform="translate(-41.66 -42.7)"/><path class="cls-43" d="M641.75,271.19s0-2.77,2.1-2" transform="translate(-41.66 -42.7)"/><path class="cls-40" d="M627.75,300.84a70.42,70.42,0,0,0,15.08-12.74c-4.91-2-7.36-2.74-7.36-2.74l-10.87.81a19,19,0,0,1-4.52.74S620.24,298,627.75,300.84Z" transform="translate(-41.66 -42.7)"/><path class="cls-44" d="M665.42,436.38s-9-45.79-18-88.31H608.94L602.5,436.7Z" transform="translate(-41.66 -42.7)"/><path class="cls-40" d="M586.36,320.73c-4.42-3.52-22.39-15.42-22.56-17.08-.34-3.12-1.43-5.59-8.13-7.73a1.92,1.92,0,0,0,.39,2.09,7,7,0,0,0,1.81,1.6s-1.78.66-4.41-1.44-3.72-3.9-4.84-3.48c0,0-1.3-1.2-1.93-1a.55.55,0,0,0-.38.63c-1-.17-.85,2.81,1,5.26a24.51,24.51,0,0,0,9.91,7.22c2,.76,15.28,20.36,24.17,22.49C583.91,329.88,588.42,322.37,586.36,320.73Z" transform="translate(-41.66 -42.7)"/><path class="cls-40" d="M600.27,303.33s-19.87,13.86-21.79,17.31-.48,12.64,8.37,6.73,22.81-16.63,22.81-16.63Z" transform="translate(-41.66 -42.7)"/><path class="cls-45" d="M610.48,290.73a19.43,19.43,0,0,0-9.1,5.7l-8,9.47,15.07,11.7S612.16,296.32,610.48,290.73Z" transform="translate(-41.66 -42.7)"/><path class="cls-45" d="M651.21,292a48.71,48.71,0,0,0-6.44-3.13c-12.67,3.23-17,10-17,10-3.52-3.85-9.8-11.12-9.8-11.12-2.87,1.11-5.79,2.27-7.47,3-4.14,1.77-.31,14.15-2.46,19.51s-3.21,10.72-1.06,21a81.76,81.76,0,0,1,2,16.87h38.52S656.42,295.24,651.21,292Z" transform="translate(-41.66 -42.7)"/><path class="cls-38" d="M627.75,298.86l1.9-2.63,8.18-10a8.59,8.59,0,0,1,7.48,2.93,44.13,44.13,0,0,1-6.57,15s-3.28-8-5.49-8.58c0,0-1.31-1-3.31,1.18Z" transform="translate(-41.66 -42.7)"/><path class="cls-38" d="M627.75,298.86s-4-9.86-4.22-13.28a5.73,5.73,0,0,0-5.58,2.16s.44,9.53,1.86,13.35c0,0,1.54-5.43,3.15-5.76,0,0,1-.16,2.83,1.75Z" transform="translate(-41.66 -42.7)"/><path class="cls-46" d="M625.77,348.07A28.82,28.82,0,0,1,623,337.65s-1.06-22.34,2-33.3l2.76-5.49a31.56,31.56,0,0,0-3.44,5.6s-3.23,18.73-1.8,31.28c0,0,.44,10.13,2.79,12.33Z" transform="translate(-41.66 -42.7)"/><polygon class="cls-47" points="605.8 305.38 567.28 305.38 567.16 309.19 606.22 309.19 605.8 305.38"/><rect class="cls-48" x="580.49" y="305.38" width="7.16" height="3.81"/><path class="cls-40" d="M649.71,309.42s5.49,29.53,6.85,34.36c.88,3.13,7.3,5.26,9.31,1.13.45-.92.34-2.43.29-4-.31-9.55-7-33.84-7-33.84Z" transform="translate(-41.66 -42.7)"/><path class="cls-45" d="M651.21,292a16.94,16.94,0,0,1,6,6.43c2.75,4.74,6.56,13.13,6.31,15.16-1.43,3.91-12.75,7.95-12.75,7.95S643.25,296.71,651.21,292Z" transform="translate(-41.66 -42.7)"/><path class="cls-40" d="M657.94,350.16s2.78,17.23,1.44,20.83c-1.82,4.9-.49,5.71-.66,8.38-.26,4.29.49,3.69.49,3.69s2.33-.62,2-3.85c-.14-1.63.09-4.15.58-3.71,0,0,3.67,12.48,4.36,15s2.44.91,2.53-1.13a3.17,3.17,0,0,0,.46-3.24s.9.26,0-4.63-4.4-9.34-3.73-12,2-18.13.75-26.78c-.79-5.53-6.19-4.3-8.25-3.92C654.4,339.41,657.22,344.23,657.94,350.16Z" transform="translate(-41.66 -42.7)"/><path class="cls-17" d="M342.57,54.59H634a6.54,6.54,0,0,1,6.54,6.54V96.56A6.54,6.54,0,0,1,634,103.1H419.57l-12.06,12.06V103.1H342.57A6.54,6.54,0,0,1,336,96.56V61.13A6.54,6.54,0,0,1,342.57,54.59Z" transform="translate(-41.66 -42.7)"/><text class="cls-49" transform="translate(315.03 32.99)"><tspan class="cls-50">V</tspan><tspan class="cls-51" x="8.45" y="0">id</tspan><tspan class="cls-52" x="20.11" y="0">e</tspan><tspan x="27.7" y="0">o </tspan><tspan class="cls-50" x="38.79" y="0">e</tspan><tspan x="46.19" y="0">viden</tspan><tspan class="cls-53" x="80.33" y="0">c</tspan><tspan x="87.14" y="0">e </tspan><tspan class="cls-54" x="98.1" y="0">o</tspan><tspan class="cls-55" x="105.7" y="0">f l</tspan><tspan class="cls-52" x="116.79" y="0">e</tspan><tspan x="124.38" y="0">arne</tspan><tspan class="cls-53" x="152.84" y="0">r</tspan><tspan x="157.53" y="0">s per</tspan><tspan class="cls-53" x="187.78" y="0">f</tspan><tspan x="191.94" y="0">orming </tspan><tspan class="cls-50" x="238.54" y="0">t</tspan><tspan class="cls-52" x="243.4" y="0">as</tspan><tspan class="cls-56" x="257.67" y="0">k</tspan><tspan class="cls-51" x="264.34" y="0">s</tspan><tspan x="39.6" y="15.84" xml:space="preserve"> in Engl</tspan><tspan class="cls-57" x="83.68" y="15.84">is</tspan><tspan x="93.17" y="15.84">h and d</tspan><tspan class="cls-53" x="139.84" y="15.84">e</tspan><tspan class="cls-58" x="147.3" y="15.84">t</tspan><tspan x="152.16" y="15.84">ail</tspan><tspan class="cls-52" x="167.25" y="15.84">e</tspan><tspan class="cls-51" x="174.84" y="15.84">d </tspan><tspan class="cls-53" x="186.37" y="15.84">r</tspan><tspan class="cls-55" x="191.06" y="15.84">epo</tspan><tspan class="cls-59" x="214.73" y="15.84">r</tspan><tspan class="cls-53" x="219.81" y="15.84">t</tspan><tspan class="cls-51" x="224.74" y="15.84">s</tspan></text><g class="cls-60"><path class="cls-61" d="M378.83,126.69c7.67-1.56,15.22,3.39,23,3.46,3.08,0,6.12-.71,9.2-.81s6.39.55,8.54,2.85c2.49,2.66,2.78,6.81,2.35,10.5a35.43,35.43,0,0,1-13.06,23.53c-3.05,2.38-6.75,4.26-10.53,3.8-3-.36-5.69-2.16-8.23-3.91-8-5.53-16.7-11.47-21.77-20.27C363.9,138.11,371.17,128.24,378.83,126.69Z" transform="translate(-41.66 -42.7)"/><path class="cls-61" d="M375.1,191.15s-30.22-27.63-17.13-48,26.87.92,26.87.92S390.67,179,375.1,191.15Z" transform="translate(-41.66 -42.7)"/><path class="cls-37" d="M401.13,171.18l-1.4,26.94-.4,7.69a12.3,12.3,0,0,1-24.57-.94l.34-13.72.58-22.79Z" transform="translate(-41.66 -42.7)"/><path class="cls-41" d="M401.13,176.56l-1.4,25.37c-11.93.48-20.64-4.37-24.63-10.83l.58-17.36Z" transform="translate(-41.66 -42.7)"/><path class="cls-40" d="M410.6,155.69a92.37,92.37,0,0,1-.35,18.5c-1.43,11.23-.92,24.43-17.48,25.31-17.67.93-23.52-18.84-23.52-18.84s-9.38-1.75-10-8.09,5.92-6.71,8.06-4.92c0,0,2.43-23.65,24.28-23.65C410.85,144,410.6,155.69,410.6,155.69Z" transform="translate(-41.66 -42.7)"/><path class="cls-62" d="M389.9,174.15a1.75,1.75,0,1,1-1.75-1.75A1.75,1.75,0,0,1,389.9,174.15Z" transform="translate(-41.66 -42.7)"/><path class="cls-62" d="M405.72,174.15A1.75,1.75,0,1,1,404,172.4,1.75,1.75,0,0,1,405.72,174.15Z" transform="translate(-41.66 -42.7)"/><path class="cls-63" d="M381.78,168.06a7.11,7.11,0,0,1,8.12-2.73" transform="translate(-41.66 -42.7)"/><path class="cls-63" d="M399.42,165.26s4-3.64,7.91.35" transform="translate(-41.66 -42.7)"/><path class="cls-64" d="M395.92,169.6s1.89,4.83,3.5,7.84-3.15,4.34-3.15,4.34" transform="translate(-41.66 -42.7)"/><path class="cls-64" d="M389.58,187.19a8.29,8.29,0,0,0,8.92,1.47s-.36,6.66-4.46,6.87S389.58,187.19,389.58,187.19Z" transform="translate(-41.66 -42.7)"/><path class="cls-64" d="M369.05,176.13s-.06-5.44-4.11-3.95" transform="translate(-41.66 -42.7)"/><path class="cls-61" d="M368.49,169.43s13.7-6,10.22-21.55c0,0-9.08-14-16.83-8.87S368.49,169.43,368.49,169.43Z" transform="translate(-41.66 -42.7)"/><path class="cls-61" d="M389.59,149.73c4,.92,7.4,3.85,11.07,5.94s8.2,3.3,11.67.78c3.15-2.29,4.44-7.28,3.57-11.53a16.16,16.16,0,0,0-6.81-9.91,28,28,0,0,0-10.53-3.94c-4.77-.94-9.68-1.39-14.44-.32-4.23,1-16.18,6.81-13.72,14.21.92,2.8,4.8,3.61,7,4.1C381.4,150,385.55,148.8,389.59,149.73Z" transform="translate(-41.66 -42.7)"/><polygon class="cls-37" points="377.64 473.33 381.3 508.47 366.34 508.47 361.27 473.37 377.64 473.33"/><path class="cls-12" d="M406.37,543.83s-6.5,10.49-1.62,12.36,37,2,44.89.85S432,545,426.11,543.29,418.37,550.5,406.37,543.83Z" transform="translate(-41.66 -42.7)"/><polygon class="cls-37" points="314.19 470.21 315.91 507.43 333.95 508.7 330.83 473.33 314.19 470.21"/><path class="cls-12" d="M375.19,542.79s6.5,10.49,1.62,12.36-37,2-44.89.85,17.67-12,23.53-13.75S363.19,549.46,375.19,542.79Z" transform="translate(-41.66 -42.7)"/><path class="cls-40" d="M491.07,229.65s3.78-6.33,6.77-12.19c1.07-2.1-3.64-12.77-3.64-14.56,0-3.12,2.06-5.25,3.12-3.12,4.16,8.32,4.83,8.12,5.26,7.15,3.93-8.71,11.17-23,13.81-21.14,3.23,2.3-5.82,20.63-5.82,20.63s8-22.95,12.29-21.68-7.37,22.65-7.37,22.65,9.61-20.15,12.13-18.2.54,6.43-7.73,21.34c0,0,7.05-12.8,9.72-9.8s-5.93,14.75-9.06,17.52c-.67.59-5.54,6.49-10.74,8.57-6.13,2.45-7.3,10-8.33,11.45C501.48,238.27,491.23,234.93,491.07,229.65Z" transform="translate(-41.66 -42.7)"/><path class="cls-40" d="M285.65,219.57s-4.1-8.14-4.1-10.52,1.2-4.94,1.28-8.19,4.45-10.77,3.51-12.91-3.59-1.62-6.15,3.51-1.71,8.29-3.76,6.83-7.1-7.77-8.72-10.42-6.75-7.86-8.12-7-1.75,2.22,7.33,15c0,0-10.29-15.42-13.31-12.64-2.12,1.95,7.93,13.24,9.38,15,0,0-9.3-11.67-12.07-8.92-2.61,2.59,10.19,12.31,10.19,12.31s-9.55-7.56-10.84-5.34,4.28,7.13,9.75,10.21,6.87,3.89,8.26,5.94,4.81,10.26,4.81,10.26S281.81,224.87,285.65,219.57Z" transform="translate(-41.66 -42.7)"/><path class="cls-18" d="M405.09,201.46l-18,9.73-14-8.4S366,224.19,368,248.46s6,41.7,22.39,19.14S412.93,209.32,405.09,201.46Z" transform="translate(-41.66 -42.7)"/><path class="cls-18" d="M405.09,201.46l-18,9.73-14-8.4S366,224.19,368,248.46s6,41.7,22.39,19.14S412.93,209.32,405.09,201.46Z" transform="translate(-41.66 -42.7)"/><path class="cls-39" d="M383.72,222.31s-9.66,52.32-8.85,53.32c.53-.67,6.42,14.19,9.81,0,2.65-11,3-52.12,3.39-52.62,0,0,5.05-5.43,8-8.1,1.93-1.76,3.8-3.56,5.61-5.42.47-.85.93-1.72,1.33-2.64l-.79,1.87a44.58,44.58,0,0,1,3.8-6.1,6.76,6.76,0,0,0-.93-1.16l-18,9.73-14-8.4s-.41,1.26-1,3.46c1.47,2.05,2.8,4.12,3.95,6.11C377.52,214.9,383.72,222.31,383.72,222.31Z" transform="translate(-41.66 -42.7)"/><path class="cls-39" d="M346.82,298.84l55.21-1s8.4,13.76,10.28,53.49c1.28,27.21,2.4,34.74,5.1,70.69,1.84,24.41,10.5,118,10.5,118H398.56s-12.42-106.76-13.05-112.58c-.23-2.05-7.5-58.5-7.5-58.5S379.2,420,379.2,426s1.29,111,1.29,111H349.58s-3.48-89.31-3.77-109.75C345.34,394.09,342.51,309.53,346.82,298.84Z" transform="translate(-41.66 -42.7)"/><path class="cls-65" d="M368,203.82c-4.93,1-12.4,2.61-17.84,4.06a5.16,5.16,0,0,0-3.82,5.16c.37,10.88.83,40.94-4.72,51.22a4.92,4.92,0,0,0-.61,2.25l-3.16,90.37a5.16,5.16,0,0,0,6.21,5.24c11.94-2.54,36.47-12.63,37.5-52.64,1.12-43.44,1.26-52.88,1.28-54.87a5.52,5.52,0,0,0-.09-1l-8.65-45.7A5.16,5.16,0,0,0,368,203.82Z" transform="translate(-41.66 -42.7)"/><path class="cls-39" d="M379.13,260.21a1.64,1.64,0,1,1-3.27-.06,1.64,1.64,0,0,1,3.27.06Z" transform="translate(-41.66 -42.7)"/><path class="cls-39" d="M378.08,276.26a1.63,1.63,0,1,1-1.6-1.66A1.63,1.63,0,0,1,378.08,276.26Z" transform="translate(-41.66 -42.7)"/><path class="cls-39" d="M377,292.31a1.64,1.64,0,1,1-1.6-1.66A1.62,1.62,0,0,1,377,292.31Z" transform="translate(-41.66 -42.7)"/><path class="cls-39" d="M376,308.36a1.64,1.64,0,1,1-1.61-1.66A1.63,1.63,0,0,1,376,308.36Z" transform="translate(-41.66 -42.7)"/><path class="cls-65" d="M431.62,213.86l-26.53-12.4L382.82,254.1l-4.74,61.49s-5.9,36.78,13.13,44.39c15.61,6.24,17.75,6.3,25.7,4.5a9.7,9.7,0,0,0,7.56-9.81L421,263.79S420.68,227.46,431.62,213.86Z" transform="translate(-41.66 -42.7)"/><path class="cls-65" d="M505.79,235.81l-16.06-11.62S460,271.13,458.28,269.71s-15.9-50.81-26.66-55.85c0,0-5.44,3.89-8.55,15.28-2.2,8.06-2.52,21.06-2,33.86,0,0,28,41.52,37.93,40.15S505.79,235.81,505.79,235.81Z" transform="translate(-41.66 -42.7)"/><path class="cls-65" d="M288.55,213.86l-18.19,7.25s24.9,90,39.25,82.07S343,267.26,343,267.26a66.68,66.68,0,0,0,7.38-22.39c1.84-12,.71-28.49-2.18-35.82,0,0-12.65,7.7-23.25,28.85s-13.83,27.21-14.78,25.89S288.55,213.86,288.55,213.86Z" transform="translate(-41.66 -42.7)"/><path class="cls-66" d="M372.24,205.76c-.13.47,4.72,17.35,4.72,17.35l10.14-7.6,8.63,8.07,9.12-19.3-1.49-1.88-10.88,5.88-5.38,4.84-11.88-9.06-.7-.42Z" transform="translate(-41.66 -42.7)"/><polygon class="cls-18" points="345.44 167.13 332.93 157.59 329.91 160.4 334.75 177.53 345.44 169.53 355.07 178.53 364.46 158.99 358.21 156.83 345.44 167.13"/></g><path class="cls-67" d="M124.67,242.07a28.5,28.5,0,0,0-1.45,15.49c1.57,9.25-8.62,8.35-7.4,17.32,0,0,28.9,8.58,55.6-8.82,0,0,1.82-7.94-3.75-9.84-7.81-2.66-9.79-10.74-9.79-10.74Z" transform="translate(-41.66 -42.7)"/><ellipse class="cls-67" cx="140.71" cy="247.82" rx="17.33" ry="16.09" transform="translate(-73.79 -21.46) rotate(-7.75)"/><polygon class="cls-40" points="97.43 218.31 97.78 244.71 110.52 243.02 106.58 219.84 97.43 218.31"/><path class="cls-68" d="M149.88,271.16l-1.39-7-9.31,4.06a13.85,13.85,0,0,0,5.14,2.32A19.92,19.92,0,0,0,149.88,271.16Z" transform="translate(-41.66 -42.7)"/><path class="cls-68" d="M152.79,259.24a13.07,13.07,0,0,1,.74-4.86c.78-2.16,2.13-4.32,4.71-3.5,4.38,1.4,1.22,8.66-2.94,9.77a1.89,1.89,0,0,1-2.51-1.41Z" transform="translate(-41.66 -42.7)"/><path class="cls-40" d="M136.32,235.84a19.3,19.3,0,0,1,8.9-1.57c4.11.3,9.57,2.11,11.21,9.33,2.72,12,2.11,20-3.15,24.13-3.69,2.88-7.8,3.17-13.53.8-2.14-.88-5.31-4.72-6.16-7l-2.47-6.29S122.94,241.53,136.32,235.84Z" transform="translate(-41.66 -42.7)"/><path class="cls-69" d="M139.9,246.48l7.23,7s-1.21,3.69-4.1,3.79l-7.25-6.8S136.81,246.77,139.9,246.48Z" transform="translate(-41.66 -42.7)"/><path class="cls-69" d="M153.08,244.26l6.31,7.14s-.95,3.65-3.41,3.68l-6.32-6.94S150.46,244.48,153.08,244.26Z" transform="translate(-41.66 -42.7)"/><path class="cls-70" d="M147.19,251a5.84,5.84,0,1,1-6.72-4.79A5.84,5.84,0,0,1,147.19,251Z" transform="translate(-41.66 -42.7)"/><path class="cls-70" d="M159.4,248.89c.52,3.18-1.24,6.13-3.93,6.59s-5.31-1.75-5.83-4.93,1.23-6.13,3.93-6.59S158.87,245.71,159.4,248.89Z" transform="translate(-41.66 -42.7)"/><path class="cls-70" d="M147.19,251a2.75,2.75,0,0,1,2.45-.41" transform="translate(-41.66 -42.7)"/><line class="cls-70" x1="90.29" y1="213.75" x2="94.1" y2="210.68"/><path class="cls-67" d="M133.7,257.84c0-1.12,3.17-10.07-1.52-20.84,0,0-4.27-.51-4.8,7.3C126.53,256.84,133.7,257.84,133.7,257.84Z" transform="translate(-41.66 -42.7)"/><path class="cls-40" d="M136,261.5a13.62,13.62,0,0,0-2.62-4.46c-1.61-1.81-3.77-3.39-6-1.58-3.74,3.07,2.18,8.93,6.68,8.4,1.32-.16,2.27-1.34,1.9-2.36Z" transform="translate(-41.66 -42.7)"/><path class="cls-71" d="M129,258.59c3-1.52,5.21,1.82,5.21,1.82" transform="translate(-41.66 -42.7)"/><path class="cls-67" d="M130.92,237.91s5.87,5.7,27,2.3c0,0-4.22-8-15.16-8.43S130.92,237.91,130.92,237.91Z" transform="translate(-41.66 -42.7)"/><circle class="cls-72" cx="103.43" cy="210.46" r="0.94"/><circle class="cls-72" cx="111.97" cy="210.46" r="0.94"/><path class="cls-63" d="M140.07,244.88a3.84,3.84,0,0,1,4.38-1.47" transform="translate(-41.66 -42.7)"/><path class="cls-63" d="M149.59,243.54a3,3,0,0,1,4.26.19" transform="translate(-41.66 -42.7)"/><path class="cls-64" d="M149.28,251.42a13.81,13.81,0,0,0,1.89,4.23c1.13,1.45-1.7,2.34-1.7,2.34" transform="translate(-41.66 -42.7)"/><path class="cls-64" d="M143.62,259.84a4.47,4.47,0,0,0,4.56,1.73" transform="translate(-41.66 -42.7)"/><path class="cls-40" d="M139.53,285.77s24.23,8.12,23.06-6.72l-11.41-8.77-7.65,4.33-4,3.33-4,6.69Z" transform="translate(-41.66 -42.7)"/><path class="cls-73" d="M149.64,488.39s-2.78-.1-2.65,5.18,0,13.08,0,13.08h2.65v-9.13l7.92,9.13h27.21s-1.46-5-14.27-4.89Z" transform="translate(-41.66 -42.7)"/><path class="cls-40" d="M160.23,477.55l-1.59,10.84,13,13.49h-6A11.22,11.22,0,0,1,158.1,499c-2.8-2.55-6.57-6.46-8.46-10.56V481.6s.85-47,.86-64.65h17.67Z" transform="translate(-41.66 -42.7)"/><path class="cls-73" d="M108.51,488.39s2.78-.1,2.65,5.18,0,13.08,0,13.08h-2.65v-9.13l-7.92,9.13H73.38s1.46-5,14.27-4.89Z" transform="translate(-41.66 -42.7)"/><path class="cls-37" d="M115.31,468.68l-6.8,19.71c-1.89,4.1-5.66,8-8.46,10.56a11.22,11.22,0,0,1-7.57,2.93h-6l13-13.49,5.22-18.51,13.45-59.49,19.21,2.67Z" transform="translate(-41.66 -42.7)"/><path class="cls-74" d="M136.51,332.51l31.71-.19s3.44,37.54,3.44,53.92c0,12.21-2,40.64-2,40.64l-57.75-1.46s3.08-22.33,12.5-57.24c8.43-31.24,12.07-35.67,12.07-35.67" transform="translate(-41.66 -42.7)"/><path class="cls-75" d="M157.1,289.12s7.45,15.05,26.84,28.93l9.32-12.17L161.1,271Z" transform="translate(-41.66 -42.7)"/><path class="cls-40" d="M212.22,280.79l-6.61-3.41-9.79,14.21c2.32,1.54,5.38,3.24,7.71,4.77Z" transform="translate(-41.66 -42.7)"/><path class="cls-40" d="M204.52,276.6l-.43-1.54a13.72,13.72,0,0,1-.24-6.34l.73-3.7a1.45,1.45,0,0,1,1.94-1.07h0a1.86,1.86,0,0,1,1.2,1.69l.08,4,6-10.79a1.12,1.12,0,0,1,1.63-.41l.38.26a1.11,1.11,0,0,1,.39,1.36L212,268.38l6.11-8.88a1.12,1.12,0,0,1,1.65-.31l.27.21a1.13,1.13,0,0,1,.27,1.46l-5,8.15,5.12-5.36a1.13,1.13,0,0,1,1.75.09l.09.12a1.13,1.13,0,0,1,0,1.33l-4.92,5.95,3.23-2.47a1.12,1.12,0,0,1,1.86.4h0a1.13,1.13,0,0,1-.19,1.09l-11.94,13.51-3.26-3A8.79,8.79,0,0,1,204.52,276.6Z" transform="translate(-41.66 -42.7)"/><path class="cls-75" d="M180.44,308.32,202,280.08l8.58,7.18-14.8,27.07c-2.52,4.36-6.26,6.56-10.41,4.61h0C181.64,317.17,178.71,312.07,180.44,308.32Z" transform="translate(-41.66 -42.7)"/><path class="cls-76" d="M162.35,331.31c-.58.15-.76-4.53-.73-5.13.45-10.62.86-20.89-2.2-28.61-2-5.05-3.75-9.86-5.14-13.94-2.05-6-3.36-10.5-3.83-12.15a.88.88,0,0,1,.42-1h0a3.83,3.83,0,0,1,.65-.3,13.92,13.92,0,0,1,6.72-.81,2.75,2.75,0,0,1,.49.14c7.8,2.89,13.19,26.38,14.33,32.51,1,5.49-2.64,27.11-3.37,27.85a5.74,5.74,0,0,1-3.67,1.46h-3.67Z" transform="translate(-41.66 -42.7)"/><path class="cls-77" d="M163.08,331.31h-.73s-1.15-1.16-.58-9c0,0,.7-14.2-.46-17.26,0,0-1.89-14.07-5.52-17.33l1.43.32a13.08,13.08,0,0,1,3.66,5.87,70.86,70.86,0,0,1,2.2,17.61C163.08,315.18,162.35,331.31,163.08,331.31Z" transform="translate(-41.66 -42.7)"/><path class="cls-78" d="M156.48,288.77s3.67-6.6,7.34,0c0,0-5.71-16.77-10.32-19.24a5.72,5.72,0,0,0-3.62,1.49S154.28,285.83,156.48,288.77Z" transform="translate(-41.66 -42.7)"/><ellipse class="cls-79" cx="162.1" cy="285.37" rx="0.37" ry="0.44" transform="translate(-139.77 42.67) rotate(-22.86)"/><path class="cls-80" d="M160.88,269s-4.4-.73-6.6,0c0,0-1.46.74.74,1.47l6.08.59S161.62,269.7,160.88,269Z" transform="translate(-41.66 -42.7)"/><ellipse class="cls-81" cx="155.38" cy="269.7" rx="0.37" ry="0.73" transform="matrix(0.11, -0.99, 0.99, 0.11, -171.02, 352.69)"/><path class="cls-79" d="M156.65,268.64a3,3,0,0,1,.3,2l.59.06s.16-1.64-.45-2Z" transform="translate(-41.66 -42.7)"/><path class="cls-79" d="M159.79,268.81a5.58,5.58,0,0,1-.09,2.08l.49.05s0-1.44,0-2.08Z" transform="translate(-41.66 -42.7)"/><path class="cls-79" d="M158.11,268.67a9.23,9.23,0,0,1,0,2.06l.43,0v-2.1Z" transform="translate(-41.66 -42.7)"/><path class="cls-82" d="M163.28,299a9.29,9.29,0,0,0,1.27,5.13,3.22,3.22,0,0,0,2.2.74s-.78,0-2.2-1.47c-1.05-1.08-1-4.4-1-4.4Z" transform="translate(-41.66 -42.7)"/><path class="cls-78" d="M163.08,296.84a23.41,23.41,0,0,0,5.87-.74,2.58,2.58,0,0,1,.74,1.47A2.28,2.28,0,0,1,169,299l-1.46,1.46c-.49.25-.74.74-2.2,0l-1.47-.73a2.54,2.54,0,0,1-.74-1.47Z" transform="translate(-41.66 -42.7)"/><path class="cls-76" d="M139.61,275.56c.73,2.94,6.6,8.07,15.41,11.74,6.09,2.54,7.33,12.85,7.33,21.27v22s0,5.13-12.47,4.4l-13.94-.73,2.2-8.81L129.83,302l5-24.21,4.79-2.23Z" transform="translate(-41.66 -42.7)"/><path class="cls-76" d="M136.21,277s-13.11,3.14-36.81,40.73l12.79,8.45,24.76-28Z" transform="translate(-41.66 -42.7)"/><path class="cls-78" d="M139.27,274.7a4.82,4.82,0,0,0-3.33,2.33s2.2,10.27,7.34,16.87c0,0-.73-11,11.74-6.6C155,287.3,141.77,278.61,139.27,274.7Z" transform="translate(-41.66 -42.7)"/><circle class="cls-77" cx="116.66" cy="255.24" r="1.1"/><circle class="cls-77" cx="118.13" cy="269.18" r="1.1"/><circle class="cls-77" cx="118.86" cy="282.38" r="1.1"/><path class="cls-80" d="M124.46,284.49l8.45-7.41a1.21,1.21,0,0,1,.78-.32c2.92-.08,3,1.92,2.9,2.9a1.39,1.39,0,0,1-.42.82l-7.8,7.78A5.56,5.56,0,0,0,124.46,284.49Z" transform="translate(-41.66 -42.7)"/><circle class="cls-83" cx="92.45" cy="236.17" r="1.47"/><path class="cls-79" d="M133.67,283s-1.89-2.63-3.84-3.19l-.56.49s3.11,1.78,3.79,3.3Z" transform="translate(-41.66 -42.7)"/><path class="cls-79" d="M132,284.64a5.35,5.35,0,0,0-4-3.29l-.55.49s3.17,1.2,4,3.33Z" transform="translate(-41.66 -42.7)"/><path class="cls-79" d="M130.37,286.26a7.57,7.57,0,0,0-3.91-3.52l-.6.52a7.24,7.24,0,0,1,3.88,3.63Z" transform="translate(-41.66 -42.7)"/><circle class="cls-79" cx="100.52" cy="247.17" r="1.1"/><polygon class="cls-79" points="111.16 249.74 111.89 251.94 97.95 254.14 97.95 251.94 111.16 249.74"/><path class="cls-82" d="M141.87,302.13l1.46,8.77c1.29,2.57,4.75,3.51,5.78,3.74a6.29,6.29,0,0,1-.88.06s-4.4-.73-5.87-3.67l-1.47-8.8Z" transform="translate(-41.66 -42.7)"/><path class="cls-82" d="M155.75,308.57l-1.47-8.07H155l1.46,8.07s-1.82,4.82-6,5.71C154.28,313,155.75,308.57,155.75,308.57Z" transform="translate(-41.66 -42.7)"/><path class="cls-78" d="M154.28,298.3l-13.94,2.2a2.6,2.6,0,0,0,.74,2.94s1.47,1.47,6.6,2.93a3.81,3.81,0,0,0,2.2-.73L155,302A2.89,2.89,0,0,0,154.28,298.3Z" transform="translate(-41.66 -42.7)"/><polygon class="cls-79" points="111.16 251.94 111.89 254.14 98.69 256.34 98.69 253.4 111.16 251.94"/><polygon class="cls-67" points="110.41 249.86 111.16 252.02 108.41 252.46 107.66 250.32 110.41 249.86"/><polygon class="cls-17" points="107.43 250.36 108.11 252.53 107.46 252.68 106.89 250.45 107.43 250.36"/><polygon class="cls-17" points="110.82 252.12 111.4 254.22 110.55 254.36 110.09 252.22 110.82 252.12"/><polygon class="cls-67" points="101.82 251.29 102.2 253.5 98.35 254.07 98.35 251.87 101.82 251.29"/><polygon class="cls-17" points="99.08 254.03 99.16 256.26 99.51 256.2 99.4 253.99 99.08 254.03"/><polygon class="cls-12" points="106.31 250.54 106.89 252.73 105.13 253.06 104.71 250.82 106.31 250.54"/><polygon class="cls-12" points="109.59 252.38 110.1 254.44 107.43 254.88 107.05 252.88 109.59 252.38"/><polygon class="cls-12" points="99.63 253.95 99.74 256.16 101.62 255.85 101.37 253.73 99.63 253.95"/><polygon class="cls-17" points="104.36 250.87 104.71 253.06 104.18 253.16 103.82 250.96 104.36 250.87"/><polygon class="cls-17" points="103.35 251.04 103.74 253.22 103.24 253.3 102.94 251.1 103.35 251.04"/><polygon class="cls-17" points="102.51 251.18 102.88 253.37 102.51 253.42 102.15 251.24 102.51 251.18"/><polygon class="cls-17" points="107.19 254.92 106.8 252.9 106.46 252.95 106.83 254.98 107.19 254.92"/><polygon class="cls-17" points="106.18 253.01 106.55 255.03 106.25 255.08 105.85 253.06 106.18 253.01"/><polygon class="cls-12" points="105.56 253.12 105.97 255.13 103.92 255.47 103.72 253.44 105.56 253.12"/><polygon class="cls-17" points="103.72 255.5 103.48 253.46 102.59 253.57 102.88 255.64 103.72 255.5"/><polygon class="cls-17" points="102.32 253.59 102.62 255.68 102.35 255.73 102.05 253.63 102.32 253.59"/><polygon class="cls-17" points="101.83 253.67 102.15 255.76 101.88 255.81 101.61 253.71 101.83 253.67"/><path class="cls-84" d="M137.41,331.31l32.07-1.14a.91.91,0,0,1,.94.91v2.79a.89.89,0,0,1-.74.89c-3.05.56-11.73,1.69-29.34.95-.86,0-4.4-.6-4.4-1.46Z" transform="translate(-41.66 -42.7)"/><polygon class="cls-79" points="122.77 287.65 122.77 292.74 116.05 293.26 115.56 287.65 122.77 287.65"/><circle class="cls-77" cx="106.76" cy="262.21" r="0.73"/><circle class="cls-77" cx="124.81" cy="256.95" r="0.45"/><polygon points="116.39 262.92 85.76 248.94 82.27 256.27 112.2 269.57 116.39 262.92"/><polygon class="cls-18" points="84.7 253.96 86.49 250.48 115.2 263.85 113.28 267.33 84.7 253.96"/><polygon class="cls-85" points="113.56 265.14 93.6 307.35 63.41 292.95 82.75 250.82 113.56 265.14"/><polygon points="113.56 265.14 116.39 262.92 96.62 305.03 93.6 307.35 113.56 265.14"/><polygon class="cls-18" points="82.19 267.73 101.49 276.71 103.91 271.66 84.61 262.68 82.19 267.73"/><path class="cls-40" d="M152.21,323.73l-8.53-1.93.28-1.9a1.6,1.6,0,0,0-.88-1.67,1.48,1.48,0,0,0-1.82.46l-5.74,8-4.35,6.14c5,2.49,9.68,2.09,11,1l6.63.51a1.2,1.2,0,0,0,1.37-1c.1-.47,0-1.16-1.38-1.47l1.37.31a1.25,1.25,0,0,0,1.42-1.06c.12-.62-.4-1.25-1.23-1.54l1,.13a1.29,1.29,0,0,0,1.48-1.23,1.42,1.42,0,0,0-1.12-1.44l-1.51-.34,1.68,0a1.4,1.4,0,0,0,1.51-1.4A1.53,1.53,0,0,0,152.21,323.73Z" transform="translate(-41.66 -42.7)"/><polygon class="cls-40" points="93.86 283.96 79.71 280.18 77.38 288.69 91.95 291.11 93.86 283.96"/><path class="cls-76" d="M108.3,314.94l24.81,8.49-5.25,11.22L104,329.31a7.53,7.53,0,0,1-5.33-10.06h0A7.53,7.53,0,0,1,108.3,314.94Z" transform="translate(-41.66 -42.7)"/><path class="cls-86" d="M490.18,253.53s3.32-8.16,15.19-8.76c8.53-.43,16.29,4.57,16.89,14.63.64,10.64-2.48,9.81,6.25,13s-3.24,15.09,5.39,16.56S543,303.12,532,306.65s-46.37,1.66-47.94-5.6,8.94-16.88,6.18-22.76S484.4,258.14,490.18,253.53Z" transform="translate(-41.66 -42.7)"/><path class="cls-40" d="M479.77,323.43l-3.57,10s-12-23.1-12.51-25.16.07-11.82,0-12.92a2.21,2.21,0,0,0-2.34,2.13,12,12,0,0,0,0,3.23s-4.19-2.34-6.05-3.3a61.51,61.51,0,0,0-10.38-3.57s-1.58.61.9,2.47,7.69,10.93,9.62,11.69,12.65,34.23,16.29,39.24,10.86,4.27,13.95-3.5A139.49,139.49,0,0,0,491.11,325Z" transform="translate(-41.66 -42.7)"/><path class="cls-67" d="M487.51,295a154.42,154.42,0,0,0-11.74,33.09s1.16,6.27,15.27,6.42C491,334.53,502.24,302.64,487.51,295Z" transform="translate(-41.66 -42.7)"/><polygon class="cls-37" points="451.92 435.52 450 458.87 459.95 458.87 464.25 434.07 451.92 435.52"/><path class="cls-17" d="M502.69,496.68s4.33,7.86,1.08,9.1-24.59.48-29.86-.31,11.76-8,15.65-9.14S494.71,501.12,502.69,496.68Z" transform="translate(-41.66 -42.7)"/><polygon class="cls-37" points="504.26 435.52 506.17 458.87 496.22 458.87 491.05 435.52 504.26 435.52"/><path class="cls-17" d="M536.79,497s-2.52,6.14.73,7.39,13.59,2.51,18.85,1.63c6.83-1.14-4.15-8.25-8-9.38S539.14,500.07,536.79,497Z" transform="translate(-41.66 -42.7)"/><path class="cls-87" d="M491,350.6l-4.51,140h21l4.53-93.22,18,95.89L553,489.4S532.3,384.8,528.79,350.6Z" transform="translate(-41.66 -42.7)"/><path class="cls-12" d="M507.34,285.79s-9.41,2.06-14.71,5.15-6.76,5-7.2,11.9-3.32,17.94,1.09,21.32,5.13,11.91,4.1,18.67-1.92,10.9-.83,14.36c1.35,4.28,10.14,5.08,23.72,4.51,14-.59,20.63-2,16.66-12.45s5.39-50.23,3.63-53S518.8,285.35,507.34,285.79Z" transform="translate(-41.66 -42.7)"/><path class="cls-40" d="M459.4,226.67h12.06a0,0,0,0,1,0,0v19.65a4.86,4.86,0,0,1-4.86,4.86h-2.34a4.86,4.86,0,0,1-4.86-4.86V226.67a0,0,0,0,1,0,0Z"/><path class="cls-41" d="M501.06,286s4.88,1.05,12.06-2.85v-7.45l-12.07,8S501.06,285.19,501.06,286Z" transform="translate(-41.66 -42.7)"/><path class="cls-40" d="M492.37,257.42s-2.21,28.06,8.55,28.06c11.8,0,13.6-10.84,13.6-10.84s4-2.23,3.06-4.75c-.64-1.78-2.56-.73-2.56-.73S520.21,252.52,492.37,257.42Z" transform="translate(-41.66 -42.7)"/><path class="cls-86" d="M491.85,255.54s2,11.38,11.37,9.6,7.14,5.16,11.55,4c0,0,10.81-7,2.65-14S496.86,249.9,491.85,255.54Z" transform="translate(-41.66 -42.7)"/><path class="cls-40" d="M498.07,288.49s2.23,6.86,6.48,8.13c0,0,6.7-.65,12.05-9.64,0,0-6-1.67-10.15-1.21C506.45,285.77,501.36,287.15,498.07,288.49Z" transform="translate(-41.66 -42.7)"/><path class="cls-67" d="M528.37,307.5s-4.47,18.1.77,34.07L531.2,303Z" transform="translate(-41.66 -42.7)"/><path class="cls-40" d="M527.25,317.65s10.63,26.44,13.08,31.66c1.58,3.37,8,6.37,9.53,1.32.33-1.12-.07-2.82-.42-4.56-2.14-10.75-11.91-32.83-11.91-32.83Z" transform="translate(-41.66 -42.7)"/><path class="cls-40" d="M541.68,352.53s7.93,13.17,7.83,17.59c-.13,6,1.61,6.37,2.44,9.33,1.33,4.75,1.91,3.81,1.91,3.81s2.3-1.55.78-4.95c-.77-1.7-1.64-3.24-.95-2.95,0,0,9.1,10.61,10.81,13.08s2.55-.89,1.88-3.14c0,0,1.35-2.45-.19-4.1,0,0,1.64,0-1.18-5s-9.2-6.85-9.48-10-2.56-13.27-6.23-22.4c-1.79-4.45-8-5.76-10.11-4.58C535.59,341.24,538.66,346.37,541.68,352.53Z" transform="translate(-41.66 -42.7)"/><path class="cls-12" d="M533.8,296.23s-9.95,8.67-4.95,33.52a14.86,14.86,0,0,0,15.73-3.38S543.36,306.52,533.8,296.23Z" transform="translate(-41.66 -42.7)"/><polygon class="cls-88" points="470.42 354.63 464.79 333.54 469.49 373.75 470.42 354.63"/><circle class="cls-72" cx="462.05" cy="229.4" r="0.88"/><circle class="cls-72" cx="454.14" cy="229.4" r="0.88"/><path class="cls-63" d="M506.9,269.55a3.57,3.57,0,0,0-4.07-1.36" transform="translate(-41.66 -42.7)"/><path class="cls-63" d="M498.07,268.31a2.78,2.78,0,0,0-3.95.18" transform="translate(-41.66 -42.7)"/><path class="cls-64" d="M499.82,270.48a12.74,12.74,0,0,1-1.75,3.92c-1.05,1.35,1.58,2.18,1.58,2.18" transform="translate(-41.66 -42.7)"/><path class="cls-64" d="M505.07,278.29a4.14,4.14,0,0,1-4.23,1.6" transform="translate(-41.66 -42.7)"/><path class="cls-64" d="M514.54,272.14s0-2.21,2.06-1.47" transform="translate(-41.66 -42.7)"/><path class="cls-88" d="M485,487.26l.32,3a1.37,1.37,0,0,0,1.37,1.23h20.61a1.38,1.38,0,0,0,1.37-1.26l.22-2.53a1.38,1.38,0,0,0-1.34-1.5l-21.15-.46A1.39,1.39,0,0,0,485,487.26Z" transform="translate(-41.66 -42.7)"/><path class="cls-88" d="M528.43,489.35l.75,3.66a1,1,0,0,0,1.11.76l22.41-3.72a1,1,0,0,0,.8-1.08l-.51-4a1,1,0,0,0-1.13-.84l-22.65,4A1,1,0,0,0,528.43,489.35Z" transform="translate(-41.66 -42.7)"/></g></g></svg>