<svg width="101" height="100" viewBox="0 0 101 100" fill="none" xmlns="http://www.w3.org/2000/svg">
<circle cx="50.6484" cy="50" r="47.5" stroke="#511A66" stroke-width="5"/>
<path fill="#511A66" d="M60.3138 24.0834H39.9805C37.9582 24.0834 36.0187 24.8867 34.5888 26.3167C33.1588 27.7466 32.3555 29.6861 32.3555 31.7084V67.2917C32.3555 69.314 33.1588 71.2534 34.5888 72.6834C36.0187 74.1134 37.9582 74.9167 39.9805 74.9167H60.3138C62.3361 74.9167 64.2755 74.1134 65.7055 72.6834C67.1355 71.2534 67.9388 69.314 67.9388 67.2917V31.7084C67.9388 29.6861 67.1355 27.7466 65.7055 26.3167C64.2755 24.8867 62.3361 24.0834 60.3138 24.0834ZM62.8555 67.2917C62.8555 67.9658 62.5877 68.6123 62.111 69.0889C61.6344 69.5656 60.9879 69.8334 60.3138 69.8334H39.9805C39.3064 69.8334 38.6599 69.5656 38.1832 69.0889C37.7066 68.6123 37.4388 67.9658 37.4388 67.2917V64.75H62.8555V67.2917ZM50.1471 54.5834C51.7203 54.5878 53.2536 55.0787 54.5368 55.9888C55.82 56.8988 56.7903 58.1835 57.3146 59.6667H42.9796C43.504 58.1835 44.4743 56.8988 45.7575 55.9888C47.0407 55.0787 48.574 54.5878 50.1471 54.5834ZM47.6055 46.9584C47.6055 46.4557 47.7545 45.9643 48.0338 45.5463C48.3131 45.1283 48.7101 44.8026 49.1745 44.6102C49.6389 44.4178 50.15 44.3675 50.643 44.4655C51.136 44.5636 51.5889 44.8057 51.9444 45.1611C52.2998 45.5166 52.5419 45.9695 52.64 46.4625C52.738 46.9556 52.6877 47.4666 52.4953 47.931C52.303 48.3955 51.9772 48.7924 51.5592 49.0717C51.1412 49.351 50.6498 49.5 50.1471 49.5C49.473 49.5 48.8266 49.2323 48.3499 48.7556C47.8733 48.2789 47.6055 47.6325 47.6055 46.9584ZM62.8555 59.6667H62.6013C62.2322 57.9048 61.493 56.2413 60.4326 54.7866C59.3722 53.3319 58.0149 52.119 56.4505 51.2284C57.3077 49.969 57.768 48.4818 57.7721 46.9584C57.7721 44.9361 56.9688 42.9966 55.5388 41.5667C54.1089 40.1367 52.1694 39.3334 50.1471 39.3334C48.1249 39.3334 46.1854 40.1367 44.7554 41.5667C43.3255 42.9966 42.5221 44.9361 42.5221 46.9584C42.5262 48.4818 42.9866 49.969 43.8438 51.2284C42.2794 52.119 40.922 53.3319 39.8617 54.7866C38.8013 56.2413 38.0621 57.9048 37.693 59.6667H37.4388V31.7084C37.4388 31.0343 37.7066 30.3878 38.1832 29.9111C38.6599 29.4345 39.3064 29.1667 39.9805 29.1667H60.3138C60.9879 29.1667 61.6344 29.4345 62.111 29.9111C62.5877 30.3878 62.8555 31.0343 62.8555 31.7084V59.6667ZM50.1471 31.7084C49.6444 31.7084 49.153 31.8574 48.7351 32.1367C48.3171 32.416 47.9913 32.813 47.7989 33.2774C47.6066 33.7418 47.5562 34.2529 47.6543 34.7459C47.7524 35.2389 47.9944 35.6918 48.3499 36.0473C48.7054 36.4027 49.1582 36.6448 49.6513 36.7429C50.1443 36.8409 50.6554 36.7906 51.1198 36.5982C51.5842 36.4059 51.9812 36.0801 52.2605 35.6621C52.5397 35.2441 52.6888 34.7527 52.6888 34.25C52.6888 33.5759 52.421 32.9295 51.9444 32.4528C51.4677 31.9762 50.8212 31.7084 50.1471 31.7084Z"/>
</svg>


