<svg width="162" height="164" viewBox="0 0 162 164" fill="none" xmlns="http://www.w3.org/2000/svg">
<g clip-path="url(#clip0)">
<path d="M81 164C125.735 164 162 127.287 162 82C162 36.7127 125.735 0 81 0C36.2649 0 0 36.7127 0 82C0 127.287 36.2649 164 81 164Z" fill="#6BC9F2"/>
<path fill-rule="evenodd" clip-rule="evenodd" d="M46.9799 162.359C46.9799 163.446 46.5532 164.489 45.7937 165.258C45.0341 166.027 44.004 166.459 42.9299 166.459C41.8558 166.459 40.8256 166.027 40.0661 165.258C39.3066 164.489 38.8799 163.446 38.8799 162.359V28.6991C38.8799 27.6117 39.3066 26.5689 40.0661 25.8C40.8256 25.0311 41.8558 24.5991 42.9299 24.5991C44.004 24.5991 45.0341 25.0311 45.7937 25.8C46.5532 26.5689 46.9799 27.6117 46.9799 28.6991V162.359Z" fill="white"/>
<path d="M162 119.719H97.2002V40.9985H162L150.66 80.3585L162 119.719Z" fill="#F29C1F"/>
<path fill-rule="evenodd" clip-rule="evenodd" d="M97.2002 119.721V44.2806L111.78 31.1606V106.601L97.2002 119.721Z" fill="#E57E25"/>
<path opacity="0.6" d="M124.767 71.3417L107.286 77.2867L106.811 95.12L95.5328 80.9619L77.7598 86.0394L88.2703 71.3417L77.7598 56.644L95.5344 61.7214L106.811 47.5601L107.286 65.395L124.767 71.3417V71.3417Z" fill="white"/>
<path d="M46.9785 27.8813H111.779V106.601H46.9785V27.8813Z" fill="#F0C419"/>
<path d="M111.782 49.4561L102.017 61.72L84.2422 56.6425L94.7528 71.3402L84.2422 86.0379L102.017 80.9588L111.782 93.2211V49.4561Z" fill="white"/>
</g>
<defs>
<clipPath id="clip0">
<rect width="162" height="164" fill="white"/>
</clipPath>
</defs>
</svg>
