<svg width="40" height="31" viewBox="0 0 40 31" fill="none" xmlns="http://www.w3.org/2000/svg">
<g clip-path="url(#clip0)">
<rect width="40" height="30.8773"/>
<path fill-rule="evenodd" clip-rule="evenodd" d="M29.9856 12.6092C29.8651 12.0174 29.5684 11.4747 29.1337 11.0507L23.4161 5.41899C22.1109 4.11454 20.0375 4.53699 18.3309 4.53699L18.4118 4.97942L18.7005 6.53791H20.5833V10.7453C20.5795 11.5525 20.9 12.3283 21.4745 12.902C22.049 13.4758 22.8305 13.8006 23.6471 13.8052H27.9786V27.8602C27.979 27.9951 27.9524 28.1287 27.9002 28.2534C27.8481 28.3781 27.7715 28.4913 27.6748 28.5866C27.5782 28.6819 27.4634 28.7573 27.3371 28.8085C27.2108 28.8597 27.0756 28.8856 26.9391 28.8849H13.0783C12.9416 28.8868 12.8059 28.8616 12.6792 28.8108C12.5526 28.76 12.4375 28.6846 12.3409 28.589C12.2442 28.4935 12.1679 28.3798 12.1165 28.2546C12.0651 28.1294 12.0396 27.9953 12.0416 27.8602V7.81668L11.5189 4.96515C11.0573 5.2289 10.674 5.608 10.4074 6.0644C10.1408 6.5208 10.0003 7.03847 10 7.56549V28.0229C10.0572 28.7936 10.4055 29.515 10.9757 30.0437C11.5459 30.5725 12.2964 30.87 13.0783 30.8773H26.9391C27.7491 30.8765 28.526 30.5587 29.0996 29.9933C29.6732 29.4279 29.9969 28.6609 30 27.8602V12.6863L29.9856 12.6092ZM18.0768 19.4597C18.051 19.5465 18.0015 19.6247 17.9337 19.6856C17.866 19.7465 17.7826 19.7878 17.6928 19.8051C17.6032 19.8206 17.511 19.8108 17.4268 19.777C17.3425 19.7432 17.2696 19.6867 17.2163 19.6138L14.7618 16.2913L19.1886 15.4893L18.0768 19.4597ZM19.0817 14.8927L14.6463 15.6805L12.7491 5.32765L17.1816 4.53984L19.0817 14.8927ZM16.864 2.86717L12.4487 3.67211L12.6538 4.87095L17.0835 4.06601L16.864 2.86717ZM12.8472 0.472344L15.3624 0.0156424C15.6141 -0.0297082 15.8738 0.0244475 16.0855 0.166452C16.2972 0.308456 16.444 0.526954 16.4944 0.774909L16.7831 2.41333L12.365 3.20114L12.0762 1.57985C12.0505 1.45471 12.0513 1.32566 12.0786 1.20085C12.106 1.07605 12.1592 0.958218 12.2351 0.854831C12.3824 0.647447 12.6065 0.505895 12.8588 0.460927L12.8472 0.472344ZM22.4921 7.94512L26.9246 12.3095H23.5605C23.2774 12.3087 23.006 12.1972 22.8058 11.9993C22.6056 11.8014 22.4928 11.5332 22.4921 11.2534V7.94512Z" fill="#B3B3B3"/>
</g>
<defs>
<clipPath id="clip0">
<rect width="40" height="30.8773" />
</clipPath>
</defs>
</svg>
