<svg width="44" height="23" viewBox="0 0 44 23" fill="none" xmlns="http://www.w3.org/2000/svg">
<rect width="44" height="22.6899"/>
<path fill-rule="evenodd" clip-rule="evenodd" d="M31.12 3.00005H12.8697C12.6513 2.99927 12.4405 3.08116 12.2793 3.22945C12.1182 3.37774 12.0185 3.58156 12 3.80038V15.3682C12 15.8073 12.4349 15.9592 12.8697 15.9592H31.12C31.5651 15.9592 32 15.8073 32 15.3682V3.80038C31.9805 3.58014 31.879 3.3754 31.7159 3.22705C31.5528 3.07869 31.34 2.99763 31.12 3.00005V3.00005ZM13.0719 17.5229H16.2548C16.246 17.5799 16.2426 17.6376 16.2446 17.6953V18.6987H13.0719C12.9153 18.6993 12.7649 18.6377 12.6533 18.5275C12.5417 18.4172 12.4779 18.2671 12.4757 18.1098V18.1098C12.4784 17.9526 12.5424 17.8029 12.6539 17.6927C12.7654 17.5825 12.9155 17.5208 13.0719 17.5208V17.5229ZM17.7085 16.9647C17.8041 16.9642 17.8988 16.9827 17.9872 17.0192C18.0757 17.0557 18.156 17.1095 18.2236 17.1775C18.2912 17.2454 18.3447 17.3262 18.3811 17.415C18.4174 17.5039 18.4358 17.5992 18.4353 17.6953V18.9553C18.4358 19.1492 18.3598 19.3355 18.224 19.4732C18.0881 19.6109 17.9034 19.6888 17.7105 19.6899C17.5195 19.6878 17.337 19.6101 17.2025 19.4738C17.068 19.3375 16.9924 19.1534 16.9918 18.9614V17.7014C16.991 17.6059 17.009 17.5112 17.0447 17.4228C17.0805 17.3343 17.1332 17.2538 17.2 17.1859C17.2668 17.118 17.3463 17.0641 17.4339 17.0272C17.5215 16.9903 17.6155 16.9711 17.7105 16.9709L17.7085 16.9647ZM19.1784 17.5229H30.9322C31.0092 17.5229 31.0854 17.5381 31.1565 17.5677C31.2275 17.5973 31.2921 17.6407 31.3465 17.6954C31.401 17.7501 31.4441 17.815 31.4736 17.8865C31.503 17.9579 31.5182 18.0345 31.5182 18.1118V18.1118C31.5182 18.268 31.4564 18.4178 31.3465 18.5283C31.2367 18.6387 31.0876 18.7008 30.9322 18.7008H19.1784V17.6973C19.1806 17.6397 19.1772 17.5819 19.1682 17.5249L19.1784 17.5229ZM22.2409 8.12624L22.098 8.45253L22.4941 11.9781C22.3328 12.292 22.2511 12.4542 22.098 12.762L21.5529 11.9781L21.9469 8.45253L21.806 8.12624C20.8118 8.19806 18.9743 8.50383 19.0233 9.83976V13.0062C19.0107 13.0721 19.0127 13.14 19.0292 13.205C19.0457 13.2701 19.0764 13.3306 19.1189 13.3824C19.1614 13.4341 19.2148 13.4758 19.2752 13.5044C19.3356 13.533 19.4016 13.5478 19.4684 13.5478C19.5351 13.5478 19.6011 13.533 19.6615 13.5044C19.7219 13.4758 19.7753 13.4341 19.8178 13.3824C19.8603 13.3306 19.891 13.2701 19.9075 13.205C19.924 13.14 19.9261 13.0721 19.9134 13.0062V12.9774C19.9134 12.1771 19.6399 10.0327 20.3871 9.78845V13.0985H23.6701V9.78435C24.2826 9.98956 24.1131 12.4521 24.0784 13.0452V13.0657C24.0664 13.1947 24.1052 13.3233 24.1865 13.4239C24.2678 13.5244 24.3852 13.5888 24.5133 13.6033C24.642 13.5888 24.7601 13.5247 24.8428 13.4244C24.9254 13.3241 24.9661 13.1955 24.9563 13.0657V9.89516C25.0073 8.70699 23.1494 8.1796 22.2389 8.12829L22.2409 8.12624ZM22.0367 7.67067C22.6635 7.67067 23.1678 6.83751 23.1678 6.12543C23.1678 5.41334 22.6717 4.82644 22.0367 4.82644C21.4018 4.82644 20.9138 5.40719 20.9138 6.12543C20.9138 6.84367 21.4243 7.67067 22.0367 7.67067ZM30.6791 13.8455H13.3148V4.31956H30.6872L30.6791 13.8455Z" fill="#B3B3B3"/>
</svg>
