<svg width="34" height="29" viewBox="0 0 34 29" fill="none" xmlns="http://www.w3.org/2000/svg">
<rect width="34" height="28.2945"/>
<path fill-rule="evenodd" clip-rule="evenodd" d="M11.8024 8.04303C13.228 10.6418 12.2358 11.1018 11.0338 11.9665C10.2035 12.5575 11.3896 14.6342 12.6783 16.4787C13.967 18.3231 15.518 20.1284 16.3574 19.5259C17.5503 18.6704 18.3372 17.8884 20.2782 20.0939C22.2192 22.2994 20.2782 23.2262 19.1264 24.0496C17.792 25.0063 13.7206 23.1802 10.2309 18.2196C6.74111 13.259 6.38073 8.79046 7.7219 7.83145C8.87375 7.00353 10.3791 5.46497 11.807 8.04303H11.8024ZM18.5812 9.88286C18.7333 9.88241 18.8822 9.92748 19.0089 10.0124C19.1356 10.0972 19.2345 10.2181 19.293 10.3597C19.3515 10.5013 19.3671 10.6572 19.3377 10.8077C19.3083 10.9582 19.2352 11.0965 19.1278 11.2051C19.0204 11.3137 18.8835 11.3878 18.7343 11.4179C18.5851 11.4479 18.4305 11.4327 18.2899 11.3741C18.1493 11.3156 18.0291 11.2162 17.9445 11.0887C17.86 10.9612 17.8148 10.8113 17.8148 10.6579C17.816 10.4541 17.897 10.2591 18.0401 10.1153C18.1832 9.97141 18.3769 9.89037 18.5789 9.88976L18.5812 9.88286ZM22.1896 9.88286C22.3416 9.88286 22.4902 9.92832 22.6166 10.0135C22.743 10.0986 22.8416 10.2197 22.8997 10.3613C22.9579 10.5029 22.9731 10.6588 22.9435 10.8091C22.9138 10.9594 22.8406 11.0975 22.7331 11.2059C22.6256 11.3143 22.4887 11.3881 22.3396 11.418C22.1905 11.4479 22.0359 11.4326 21.8954 11.3739C21.755 11.3153 21.6349 11.2159 21.5505 11.0885C21.466 10.961 21.4209 10.8112 21.4209 10.6579C21.4209 10.5561 21.4408 10.4553 21.4794 10.3613C21.5181 10.2673 21.5747 10.1818 21.6461 10.1099C21.7174 10.0379 21.8022 9.98081 21.8954 9.94186C21.9887 9.90291 22.0887 9.88286 22.1896 9.88286V9.88286ZM20.3923 9.88286C20.5443 9.88286 20.6929 9.92832 20.8193 10.0135C20.9457 10.0986 21.0442 10.2197 21.1024 10.3613C21.1606 10.5029 21.1758 10.6588 21.1461 10.8091C21.1165 10.9594 21.0433 11.0975 20.9358 11.2059C20.8283 11.3143 20.6913 11.3881 20.5422 11.418C20.3931 11.4479 20.2386 11.4326 20.0981 11.3739C19.9576 11.3153 19.8376 11.2159 19.7531 11.0885C19.6687 10.961 19.6236 10.8112 19.6236 10.6579C19.6233 10.556 19.643 10.4551 19.6815 10.3609C19.72 10.2668 19.7766 10.1812 19.8481 10.1092C19.9195 10.0372 20.0044 9.98008 20.0977 9.94124C20.1911 9.9024 20.2912 9.88256 20.3923 9.88286V9.88286ZM15.502 11.4927H13.7731V15.6576L14.9957 14.5284C15.7678 15.6224 16.8494 16.4559 18.099 16.9199C19.3487 17.3839 20.7081 17.4567 21.9995 17.129C23.2908 16.8012 24.454 16.0881 25.3369 15.0829C26.2197 14.0777 26.7811 12.8272 26.9475 11.495H25.2779C25.1124 12.4882 24.6536 13.4079 23.9615 14.1339C23.2693 14.8599 22.376 15.3585 21.3983 15.5644C20.4206 15.7704 19.4041 15.6741 18.4815 15.2882C17.559 14.9024 16.7733 14.2448 16.2273 13.4015L18.2801 11.5088L15.502 11.4927ZM20.3923 4C18.7799 3.9985 17.2225 4.59084 16.0129 5.66569C14.8032 6.74054 14.0245 8.22387 13.8233 9.83687H15.502C15.6701 8.83202 16.1387 7.90295 16.8451 7.17412C17.5515 6.44528 18.4618 5.95147 19.4543 5.75884C20.4467 5.56622 21.4739 5.68396 22.3981 6.09631C23.3223 6.50866 24.0995 7.19592 24.6256 8.06603L22.867 9.83687H27V5.66965L25.8162 6.86324C25.2094 5.97908 24.3988 5.25663 23.4541 4.75792C22.5093 4.2592 21.4586 3.99912 20.3923 4Z" fill="#B3B3B3"/>
</svg>
