<?xml version="1.0" encoding="utf-8"?>
<!-- Generator: Adobe Illustrator 24.0.1, SVG Export Plug-In . SVG Version: 6.00 Build 0)  -->
<svg version="1.1" id="Layer_1" xmlns="http://www.w3.org/2000/svg" xmlns:xlink="http://www.w3.org/1999/xlink" x="0px" y="0px"
	 viewBox="0 0 40 40" style="enable-background:new 0 0 40 40;" xml:space="preserve">
<style type="text/css">
	.st0{fill:#B3B3B3;}
	.st1{fill:#FFFFFF;}
</style>
<g>
	<path class="st0" d="M18.05,21.04h-5.84c-0.58,0-1.05,0.47-1.05,1.05v13c2.35,1.38,5.04,2.22,7.93,2.36V22.09
		C19.1,21.51,18.63,21.04,18.05,21.04z"/>
	<path class="st0" d="M33.79,30.75c2.32-2.97,3.71-6.69,3.71-10.75c0-9.66-7.84-17.5-17.5-17.5S2.5,10.34,2.5,20
		c0,5.57,2.61,10.52,6.67,13.73V22.09c0-1.68,1.37-3.05,3.05-3.05h5.84c1.68,0,3.05,1.37,3.05,3.05v15.37
		c3.08-0.19,5.94-1.18,8.39-2.77c0.05,0.02,0.1,0.05,0.16,0.07l3.51,0.94c0.94,0.25,1.79-0.61,1.54-1.54L33.79,30.75z"/>
</g>
<path class="st1" d="M24.5,22c-0.28,0-0.5-0.22-0.5-0.5c0-3.03-2.47-5.5-5.5-5.5c-0.28,0-0.5-0.22-0.5-0.5s0.22-0.5,0.5-0.5
	c3.58,0,6.5,2.92,6.5,6.5C25,21.78,24.78,22,24.5,22z"/>
<path class="st1" d="M27.5,22c-0.28,0-0.5-0.22-0.5-0.5c0-4.69-3.81-8.5-8.5-8.5c-0.28,0-0.5-0.22-0.5-0.5s0.22-0.5,0.5-0.5
	c5.24,0,9.5,4.26,9.5,9.5C28,21.78,27.78,22,27.5,22z"/>
<path class="st1" d="M30.5,22c-0.28,0-0.5-0.22-0.5-0.5C30,15.16,24.84,10,18.5,10C18.22,10,18,9.78,18,9.5S18.22,9,18.5,9
	C25.39,9,31,14.61,31,21.5C31,21.78,30.78,22,30.5,22z"/>
</svg>
