<svg width="42" height="36" viewBox="0 0 42 36" fill="none" xmlns="http://www.w3.org/2000/svg">
<rect width="42" height="35.6499"/>
<path d="M13.716 26.2042C13.7117 26.2615 13.7194 26.319 13.7386 26.3732C13.7579 26.4274 13.7882 26.477 13.8276 26.5189C13.8671 26.5608 13.9149 26.5941 13.9679 26.6166C14.021 26.6391 14.0781 26.6504 14.1358 26.6498H19.173V22.5361C19.173 22.5361 19.1021 21.8586 19.7618 21.8586H21.8516C22.633 21.8586 22.5784 22.5361 22.5784 22.5361V26.6389H27.5085C27.5808 26.6409 27.6528 26.6277 27.7196 26.6002C27.7865 26.5727 27.8469 26.5314 27.8967 26.4792C27.9466 26.4269 27.9849 26.3648 28.0091 26.2968C28.0333 26.2288 28.0429 26.1565 28.0373 26.0846V18.4895L21.0992 12.3271L13.7214 18.4859L13.716 26.2042Z" fill="#B3B3B3"/>
<path d="M11 17.9174C11 17.9174 11.6269 19.0695 12.9989 17.9174L21.1635 11.0342L28.8194 17.8758C30.4003 19.0133 31 17.8758 31 17.8758L21.1708 9L11 17.9174Z" fill="#B3B3B3"/>
<path d="M28.6233 11.0161H26.6553L26.6644 13.3963L28.6233 15.0537V11.0161Z" fill="#B3B3B3"/>
</svg>
