<svg width="34" height="38" viewBox="0 0 34 38" fill="none" xmlns="http://www.w3.org/2000/svg">
<rect width="34" height="38"/>
<path fill-rule="evenodd" clip-rule="evenodd" d="M24.2714 18.0869L23.6529 16.3488C23.5574 16.066 23.3619 15.8286 23.1038 15.6819C22.8458 15.5351 22.5432 15.4893 22.2538 15.5531C22.0943 15.5923 21.9448 15.665 21.815 15.7663C21.6853 15.8677 21.5781 15.9954 21.5005 16.1413C21.4229 16.2871 21.3766 16.4478 21.3646 16.6128C21.3527 16.7779 21.3753 16.9437 21.431 17.0993L22.0075 18.7641H21.8032L20.1941 14.3482C20.1002 14.0641 19.9053 13.825 19.6469 13.6771C19.3886 13.5291 19.0851 13.4828 18.795 13.5469C18.6358 13.5865 18.4866 13.6594 18.3571 13.7609C18.2277 13.8623 18.1208 13.9901 18.0435 14.1359C17.9662 14.2817 17.9201 14.4423 17.9083 14.6072C17.8965 14.7721 17.9193 14.9377 17.975 15.0932L19.5057 19.7376L19.3294 19.7235L17.1467 14.1818C17.0501 13.8994 16.8547 13.6623 16.5972 13.5147C16.3396 13.3672 16.0375 13.3195 15.7475 13.3804C15.5875 13.4191 15.4374 13.4913 15.3069 13.5923C15.1765 13.6933 15.0685 13.8209 14.9901 13.9667C14.9117 14.1126 14.8647 14.2734 14.852 14.4388C14.8393 14.6042 14.8612 14.7704 14.9164 14.9267L16.7745 20.1495L16.5423 20.2596L12.7253 10.2794C12.6286 9.99789 12.4326 9.76204 12.1745 9.61686C11.9165 9.47168 11.6145 9.42731 11.3261 9.49221C11.1668 9.53093 11.0173 9.60297 10.8874 9.70366C10.7575 9.80434 10.65 9.93143 10.5719 10.0767C10.4939 10.2219 10.4469 10.3821 10.4341 10.5468C10.4213 10.7115 10.443 10.8771 10.4978 11.0328L14.7625 23.0728L15.0787 23.9813C15.3921 24.6388 15.227 25.4683 14.298 24.9633C13.6431 24.6021 13.0135 23.5129 12.451 22.5903L11.1778 20.6885C11.0923 20.5476 10.9785 20.4265 10.8436 20.3329C10.7087 20.2393 10.5558 20.1754 10.3948 20.1453C10.2338 20.1153 10.0683 20.1197 9.90908 20.1583C9.74989 20.197 9.60054 20.269 9.47075 20.3696C9.23721 20.5555 9.08101 20.8226 9.03286 21.1187C8.98471 21.4147 9.04807 21.7182 9.2105 21.9695C9.2105 21.9695 11.508 25.8013 12.3419 27.0287C14.6925 30.4767 17.5917 32.6945 20.2165 32.3249C22.6399 31.975 24.6072 30.1268 26.3002 28.5834C27.2041 27.7595 27.1397 26.1737 26.6304 24.777L24.2714 18.0869ZM10.1284 5.63503C10.9489 5.63243 11.7369 5.95817 12.3195 6.54077C12.9003 7.13196 13.2278 7.92929 13.2318 8.7614C13.2276 9.17774 13.145 9.58949 12.9883 9.97471C12.8192 9.62331 12.5256 9.34851 12.1656 9.2044C12.194 9.05849 12.2081 8.9101 12.2076 8.7614C12.2086 8.20528 11.9925 7.6711 11.6059 7.2744C11.4124 7.07762 11.1823 6.92125 10.9287 6.81425C10.6752 6.70725 10.4032 6.65171 10.1284 6.65082C9.85311 6.64886 9.58029 6.7031 9.32636 6.81027C9.07244 6.91744 8.84264 7.07532 8.65083 7.2744C8.26138 7.67024 8.04285 8.20523 8.04285 8.76281C8.04285 9.32039 8.26138 9.85538 8.65083 10.2512C9.02686 10.638 9.53818 10.8608 10.0752 10.872C10.0893 10.9694 10.1166 11.0643 10.1564 11.1542L10.3998 11.8793C10.3071 11.8916 10.2135 11.8964 10.12 11.8934C9.71074 11.8961 9.30513 11.8158 8.92728 11.6573C8.54942 11.4988 8.20703 11.2653 7.92045 10.9707C7.62897 10.6819 7.39746 10.3374 7.23942 9.9573C7.08139 9.57725 7 9.16927 7 8.75717C7 8.34506 7.08139 7.93709 7.23942 7.55703C7.39746 7.17698 7.62897 6.83247 7.92045 6.54359C8.20928 6.25322 8.55246 6.02361 8.93006 5.86812C9.30765 5.71264 9.71212 5.63436 10.12 5.63785L10.1284 5.63503Z" fill="#B3B3B3"/>
</svg>
