<svg width="44" height="26" viewBox="0 0 44 26" fill="none" xmlns="http://www.w3.org/2000/svg">
<rect width="44" height="25.2014"/>
<path fill-rule="evenodd" clip-rule="evenodd" d="M17.9773 14.1319V14.4748C19.2683 15.2087 19.9291 14.8319 19.9291 16.5104H14.6269C14.6269 14.7748 15.2877 15.2087 16.5805 14.4748V14.173C16.346 14.0087 16.2976 13.7283 16.2224 13.4159C16.1902 13.4159 16.1526 13.3659 16.1526 13.3069C16.1491 13.2965 16.1491 13.2852 16.1526 13.2748C16.1267 13.2264 16.1074 13.1747 16.0953 13.1212C16.0648 13.0302 15.9842 12.8409 16.0523 12.7641C16.1203 12.6873 16.1651 12.7641 16.1651 12.7641C16.0738 12.2712 15.9413 11.6248 16.6289 11.432C16.6289 11.0106 18.2262 11.1998 18.4303 11.8766C18.5091 12.1409 18.3963 12.7516 18.3963 12.7516C18.3992 12.7428 18.4043 12.7347 18.4109 12.7282C18.4176 12.7217 18.4257 12.7168 18.4346 12.7141C18.4435 12.7113 18.453 12.7106 18.4622 12.7122C18.4714 12.7137 18.4801 12.7175 18.4876 12.723C18.5664 12.7855 18.4876 13.0355 18.4464 13.1123C18.4375 13.1714 18.4161 13.228 18.3837 13.2784V13.2998C18.3837 13.3587 18.3551 13.4087 18.3264 13.4087C18.2566 13.6819 18.185 13.9855 17.9683 14.123L17.9773 14.1319ZM27.3156 15.1497H22.4539C22.4126 15.1396 22.3694 15.1391 22.3278 15.148C22.2861 15.157 22.2471 15.1753 22.2135 15.2015C22.18 15.2277 22.1529 15.2612 22.1343 15.2994C22.1157 15.3376 22.106 15.3796 22.106 15.4221C22.106 15.4645 22.1157 15.5065 22.1343 15.5447C22.1529 15.5829 22.18 15.6164 22.2135 15.6426C22.2471 15.6688 22.2861 15.6871 22.3278 15.6961C22.3694 15.7051 22.4126 15.7045 22.4539 15.6944H27.3138C27.3552 15.7045 27.3983 15.7051 27.44 15.6961C27.4816 15.6871 27.5207 15.6688 27.5542 15.6426C27.5877 15.6164 27.6148 15.5829 27.6335 15.5447C27.6521 15.5065 27.6618 15.4645 27.6618 15.4221C27.6618 15.3796 27.6521 15.3376 27.6335 15.2994C27.6148 15.2612 27.5877 15.2277 27.5542 15.2015C27.5207 15.1753 27.4816 15.157 27.44 15.148C27.3983 15.1391 27.3552 15.1396 27.3138 15.1497H27.3156ZM27.3156 13.7676H22.4539C22.371 13.7606 22.2887 13.7862 22.2244 13.8389C22.1602 13.8916 22.1192 13.9673 22.1101 14.0498C22.1146 14.0903 22.127 14.1295 22.1467 14.1652C22.1665 14.2009 22.1931 14.2323 22.225 14.2577C22.257 14.2831 22.2936 14.302 22.3329 14.3132C22.3722 14.3244 22.4133 14.3277 22.4539 14.323H27.3138C27.3958 14.3321 27.4781 14.3088 27.5431 14.258C27.6081 14.2073 27.6505 14.1331 27.6612 14.0516C27.6509 13.969 27.609 13.8935 27.5443 13.841C27.4796 13.7884 27.397 13.7628 27.3138 13.7694L27.3156 13.7676ZM27.3156 12.398H22.4539C22.4126 12.3879 22.3694 12.3873 22.3278 12.3963C22.2861 12.4053 22.2471 12.4236 22.2135 12.4498C22.18 12.476 22.1529 12.5095 22.1343 12.5477C22.1157 12.5859 22.106 12.6279 22.106 12.6703C22.106 12.7128 22.1157 12.7548 22.1343 12.793C22.1529 12.8312 22.18 12.8647 22.2135 12.8909C22.2471 12.9171 22.2861 12.9354 22.3278 12.9444C22.3694 12.9533 22.4126 12.9528 22.4539 12.9427H27.3138C27.3552 12.9528 27.3983 12.9533 27.44 12.9444C27.4816 12.9354 27.5207 12.9171 27.5542 12.8909C27.5877 12.8647 27.6148 12.8312 27.6335 12.793C27.6521 12.7548 27.6618 12.7128 27.6618 12.6703C27.6618 12.6279 27.6521 12.5859 27.6335 12.5477C27.6148 12.5095 27.5877 12.476 27.5542 12.4498C27.5207 12.4236 27.4816 12.4053 27.44 12.3963C27.3983 12.3873 27.3552 12.3879 27.3138 12.398H27.3156ZM30.1162 7.35887H26.542V8.76955H30.1126C30.1751 8.76955 30.237 8.78184 30.2946 8.80574C30.3523 8.82963 30.4047 8.86464 30.4488 8.90877C30.4929 8.95291 30.5278 9.00528 30.5516 9.0629C30.5753 9.12052 30.5874 9.18224 30.5872 9.24453V18.3139C30.5874 18.3762 30.5753 18.438 30.5516 18.4956C30.5278 18.5532 30.4929 18.6056 30.4488 18.6497C30.4047 18.6938 30.3523 18.7289 30.2946 18.7527C30.237 18.7766 30.1751 18.7889 30.1126 18.7889H13.8892C13.763 18.7885 13.6421 18.7383 13.5529 18.6493C13.4636 18.5603 13.4133 18.4398 13.4128 18.3139V9.24453C13.4133 9.1187 13.4636 8.99816 13.5529 8.90919C13.6421 8.82021 13.763 8.77002 13.8892 8.76955H17.4401V7.35887H13.8892C13.3881 7.35981 12.9079 7.55884 12.5537 7.91232C12.1996 8.2658 12.0005 8.74488 12 9.24453V18.3139C12.0009 18.8136 12.2002 19.2926 12.5541 19.6463C12.9081 19.9999 13.3881 20.1995 13.8892 20.2014H30.1108C30.6118 20.199 31.0915 19.9993 31.4453 19.6458C31.7992 19.2922 31.9986 18.8135 32 18.3139V9.24453C31.9995 8.74488 31.8004 8.2658 31.4463 7.91232C31.0921 7.55884 30.6119 7.35981 30.1108 7.35887H30.1162ZM24.4237 6.13568H23.5928C23.5817 5.8306 23.4523 5.54173 23.2318 5.3299C23.0114 5.11807 22.7171 4.9998 22.411 5H21.5819C21.2763 5.00157 20.983 5.12042 20.7629 5.33188C20.5429 5.54335 20.4129 5.8312 20.4 6.13568H19.5584C17.843 6.13568 17.9021 9.9463 19.5907 9.9463H24.4111C26.0621 9.9463 26.2018 6.13568 24.429 6.13568H24.4237Z" fill="#B3B3B3"/>
</svg>
