<?xml version="1.0" encoding="utf-8"?>
<!-- Generator: Adobe Illustrator 24.0.1, SVG Export Plug-In . SVG Version: 6.00 Build 0)  -->
<svg version="1.1" id="Layer_1" xmlns="http://www.w3.org/2000/svg" xmlns:xlink="http://www.w3.org/1999/xlink" x="0px" y="0px"
	 viewBox="0 0 40 40" style="enable-background:new 0 0 40 40;" xml:space="preserve">
<style type="text/css">
	.st0{fill:#B3B3B3;}
	.st1{fill:#FFFFFF;}
</style>
<g>
	<path class="st0" d="M38,36h-2.17c-0.55,0-1-0.45-1-1s0.45-1,1-1H37V4.78H3V34h0.94c0.55,0,1,0.45,1,1s-0.45,1-1,1H2
		c-0.55,0-1-0.45-1-1V3.78c0-0.55,0.45-1,1-1h36c0.55,0,1,0.45,1,1V35C39,35.55,38.55,36,38,36z"/>
	<circle class="st0" cx="20" cy="12.5" r="4"/>
	<path class="st0" d="M20,17c-2.21,0-4,1.79-4,4v7h8v-7C24,18.79,22.21,17,20,17z"/>
	<path class="st0" d="M9.01,32.45l0.57,1.16c0.11,0.21,0.31,0.36,0.54,0.4l1.28,0.19l-0.92,0.9c-0.17,0.17-0.25,0.41-0.21,0.64
		L10.48,37l-1.14-0.6c-0.21-0.11-0.46-0.11-0.67,0L7.53,37l0.22-1.27c0.04-0.23-0.04-0.47-0.21-0.64l-0.92-0.9L7.89,34
		c0.24-0.03,0.44-0.18,0.54-0.4L9.01,32.45z"/>
	<path class="st0" d="M14.25,32.45l0.57,1.16c0.11,0.21,0.31,0.36,0.54,0.4l1.28,0.19l-0.92,0.9c-0.17,0.17-0.25,0.41-0.21,0.64
		L15.73,37l-1.14-0.6c-0.21-0.11-0.46-0.11-0.67,0L12.77,37l0.22-1.27c0.04-0.23-0.04-0.47-0.21-0.64l-0.92-0.9L13.14,34
		c0.24-0.03,0.44-0.18,0.54-0.4L14.25,32.45z"/>
	<path class="st0" d="M19.5,32.45l0.57,1.16c0.11,0.21,0.31,0.36,0.54,0.4l1.28,0.19l-0.92,0.9c-0.17,0.17-0.25,0.41-0.21,0.64
		L20.98,37l-1.14-0.6c-0.21-0.11-0.46-0.11-0.67,0L18.02,37l0.22-1.27c0.04-0.23-0.04-0.47-0.21-0.64l-0.92-0.9L18.38,34
		c0.24-0.03,0.44-0.18,0.54-0.4L19.5,32.45z"/>
	<path class="st0" d="M24.75,32.45l0.57,1.16c0.11,0.21,0.31,0.36,0.54,0.4l1.28,0.19l-0.92,0.9c-0.17,0.17-0.25,0.41-0.21,0.64
		L26.23,37l-1.14-0.6c-0.21-0.11-0.46-0.11-0.67,0L23.27,37l0.22-1.27c0.04-0.23-0.04-0.47-0.21-0.64l-0.92-0.9L23.63,34
		c0.24-0.03,0.44-0.18,0.54-0.4L24.75,32.45z"/>
	<path class="st0" d="M31.47,37.25c-0.04,0-0.08-0.01-0.12-0.03l-1.14-0.6c-0.14-0.07-0.3-0.07-0.44,0l-1.14,0.6
		c-0.08,0.05-0.19,0.04-0.26-0.02c-0.08-0.06-0.12-0.15-0.1-0.24l0.22-1.27c0.03-0.15-0.02-0.31-0.14-0.42l-0.92-0.9
		c-0.07-0.07-0.09-0.17-0.06-0.26c0.03-0.09,0.11-0.16,0.2-0.17l1.28-0.19c0.15-0.02,0.29-0.12,0.36-0.26l0.57-1.16
		c0.08-0.17,0.36-0.17,0.45,0l0.57,1.16c0.07,0.14,0.2,0.24,0.36,0.26l1.28,0.19c0.09,0.01,0.17,0.08,0.2,0.17
		c0.03,0.09,0,0.19-0.06,0.26l-0.92,0.9c-0.11,0.11-0.16,0.27-0.14,0.42l0.22,1.27c0.02,0.09-0.02,0.19-0.1,0.24
		C31.58,37.23,31.52,37.25,31.47,37.25z M29.99,36.07c0.16,0,0.31,0.04,0.45,0.11l0.69,0.36l-0.13-0.77
		c-0.05-0.31,0.05-0.64,0.28-0.86l0.56-0.55l-0.78-0.11c-0.32-0.05-0.59-0.25-0.73-0.53l-0.35-0.7l-0.35,0.7
		c-0.14,0.29-0.42,0.49-0.73,0.53l-0.77,0.11l0.56,0.55c0.23,0.22,0.33,0.55,0.28,0.86l-0.13,0.77l0.69-0.36
		C29.68,36.1,29.84,36.07,29.99,36.07z"/>
	<path class="st0" d="M34,30.5H5c-0.28,0-0.5-0.22-0.5-0.5s0.22-0.5,0.5-0.5h29c0.28,0,0.5,0.22,0.5,0.5S34.28,30.5,34,30.5z"/>
	<circle class="st0" cx="9" cy="30" r="1"/>
</g>
</svg>
