<svg width="101" height="100" viewBox="0 0 101 100" fill="none" xmlns="http://www.w3.org/2000/svg">
<circle cx="50.6484" cy="50" r="47.5" stroke="#B3B3B3" stroke-width="5"/>
<path d="M37.4388 63.4792H36.168V64.75V67.2917C36.168 68.3028 36.5696 69.2726 37.2846 69.9876C37.9996 70.7025 38.9693 71.1042 39.9805 71.1042H60.3138C61.3249 71.1042 62.2947 70.7025 63.0096 69.9876C63.7246 69.2726 64.1263 68.3028 64.1263 67.2917V64.75V63.4792H62.8555H37.4388ZM57.3146 60.9375H59.1119L58.5128 59.2431C57.901 57.5127 56.769 56.0139 55.2719 54.9522C53.7749 53.8904 51.986 53.3177 50.1507 53.3125L50.1471 54.5834L50.1436 53.3125C48.3082 53.3177 46.5194 53.8904 45.0223 54.9522C43.5253 56.0139 42.3933 57.5127 41.7815 59.2431L41.1824 60.9375H42.9796H57.3146ZM62.8555 60.9375H64.1263V59.6667V31.7084C64.1263 30.6972 63.7246 29.7275 63.0096 29.0125C62.2947 28.2975 61.3249 27.8959 60.3138 27.8959H39.9805C38.9693 27.8959 37.9996 28.2975 37.2846 29.0125C36.5696 29.7275 36.168 30.6972 36.168 31.7084V59.6667V60.9375H37.4388H37.693H38.7252L38.9368 59.9273C39.269 58.3415 39.9343 56.8444 40.8886 55.5352C41.843 54.2259 43.0646 53.1344 44.4726 52.3328L45.6691 51.6515L44.8944 50.5133C44.1803 49.4642 43.7967 48.2254 43.793 46.9564C43.7935 45.2719 44.4629 43.6565 45.6541 42.4653C46.8457 41.2737 48.4619 40.6042 50.1471 40.6042C51.8324 40.6042 53.4486 41.2737 54.6402 42.4653C55.8314 43.6565 56.5008 45.2719 56.5013 46.9564C56.4976 48.2254 56.114 49.4642 55.3999 50.5133L54.6251 51.6515L55.8217 52.3328C57.2297 53.1344 58.4513 54.2259 59.4056 55.5352C60.36 56.8444 61.0253 58.3415 61.3575 59.9273L61.5691 60.9375H62.6013H62.8555ZM39.9805 25.3542H60.3138C61.999 25.3542 63.6152 26.0237 64.8069 27.2153C65.9985 28.4069 66.668 30.0231 66.668 31.7084V67.2917C66.668 68.9769 65.9985 70.5931 64.8069 71.7848C63.6152 72.9764 61.999 73.6459 60.3138 73.6459H39.9805C38.2952 73.6459 36.679 72.9764 35.4874 71.7848C34.2958 70.5931 33.6263 68.9769 33.6263 67.2917V31.7084C33.6263 30.0231 34.2958 28.4069 35.4874 27.2153C36.679 26.0237 38.2952 25.3542 39.9805 25.3542ZM46.9772 44.8403C46.5582 45.4672 46.3346 46.2043 46.3346 46.9584C46.3346 47.9695 46.7363 48.9392 47.4513 49.6542C48.1663 50.3692 49.136 50.7709 50.1471 50.7709C50.9012 50.7709 51.6383 50.5473 52.2652 50.1283C52.8922 49.7094 53.3809 49.114 53.6694 48.4174C53.958 47.7207 54.0335 46.9541 53.8864 46.2146C53.7393 45.475 53.3762 44.7957 52.843 44.2625C52.3098 43.7293 51.6305 43.3662 50.8909 43.2191C50.1514 43.072 49.3848 43.1475 48.6882 43.4361C47.9915 43.7246 47.3961 44.2133 46.9772 44.8403ZM49.4411 33.1934C49.6501 33.0537 49.8958 32.9792 50.1471 32.9792C50.4842 32.9792 50.8074 33.1131 51.0457 33.3514C51.2841 33.5898 51.418 33.913 51.418 34.25C51.418 34.5014 51.3434 34.7471 51.2038 34.9561C51.0642 35.1651 50.8657 35.328 50.6335 35.4241C50.4012 35.5203 50.1457 35.5455 49.8992 35.4965C49.6527 35.4474 49.4263 35.3264 49.2485 35.1487C49.0708 34.9709 48.9498 34.7445 48.9007 34.498C48.8517 34.2514 48.8769 33.9959 48.973 33.7637C49.0692 33.5315 49.2321 33.333 49.4411 33.1934Z" fill="#B3B3B3" stroke="#B3B3B3" stroke-width="2.54167"/>
</svg>
