<?xml version="1.0" encoding="utf-8"?>
<!-- Generator: Adobe Illustrator 24.0.1, SVG Export Plug-In . SVG Version: 6.00 Build 0)  -->
<svg version="1.1" id="Layer_1" xmlns="http://www.w3.org/2000/svg" xmlns:xlink="http://www.w3.org/1999/xlink" x="0px" y="0px"
	 viewBox="0 0 40 40" style="enable-background:new 0 0 40 40;" xml:space="preserve">
<style type="text/css">
	.st0{fill:#B3B3B3;}
	.st1{fill:#FFFFFF;}
</style>
<g>
	<path class="st0" d="M35.58,35H4.42C2.54,35,1,33.53,1,31.73V6.27C1,4.47,2.54,3,4.42,3h25.9c0.55,0,1,0.45,1,1s-0.45,1-1,1H4.42
		C3.64,5,3,5.57,3,6.27v25.46C3,32.43,3.64,33,4.42,33h31.16c0.78,0,1.42-0.57,1.42-1.27V6.27c0-0.55,0.45-1,1-1s1,0.45,1,1v25.46
		C39,33.53,37.46,35,35.58,35z"/>
	<path class="st0" d="M23,10H7c-0.55,0-1-0.45-1-1s0.45-1,1-1h16c0.55,0,1,0.45,1,1S23.55,10,23,10z"/>
	<path class="st0" d="M23,15H7c-0.55,0-1-0.45-1-1s0.45-1,1-1h16c0.55,0,1,0.45,1,1S23.55,15,23,15z"/>
	<path class="st0" d="M21,20H7c-0.55,0-1-0.45-1-1s0.45-1,1-1h14c0.55,0,1,0.45,1,1S21.55,20,21,20z"/>
	<path class="st0" d="M34,25H7c-0.55,0-1-0.45-1-1s0.45-1,1-1h27c0.55,0,1,0.45,1,1S34.55,25,34,25z"/>
	<path class="st0" d="M34,30H7c-0.55,0-1-0.45-1-1s0.45-1,1-1h27c0.55,0,1,0.45,1,1S34.55,30,34,30z"/>
	<g>
		<path class="st0" d="M32.33,4.59l-8.93,10.7c-0.52,0.63-0.48,1.53,0.08,2.11l-0.2,1.16l1.1-0.4c0.67,0.44,1.57,0.33,2.09-0.3
			l8.92-10.68L32.33,4.59z"/>
		<path class="st0" d="M37.05,2.7l-0.63-0.53c-0.67-0.56-1.68-0.47-2.24,0.2L32.82,4l3.06,2.58l1.37-1.64
			C37.81,4.27,37.72,3.27,37.05,2.7z"/>
	</g>
</g>
</svg>
