<svg width="1521" height="1111" viewBox="0 0 1521 1111" fill="none" xmlns="http://www.w3.org/2000/svg">
<path d="M155.644 105.651C134.235 120.827 107.136 132.949 45.8931 107.768C37.6322 100.773 16.8883 90.9803 0 107.768V1111H1521V311.327C1127.29 334.544 1121.39 291.221 930.871 214.235C829.014 173.077 784.041 159.54 720.71 163.853C638.73 163.853 595.631 169.433 515.726 64.2846C515.726 64.2846 442.135 -56.6169 391.39 33.1874C340.285 123.617 277.881 77.3439 277.881 77.3439C277.881 77.3439 231.445 41.5329 200.533 68.2529C200.533 68.2529 175.561 91.5337 155.644 105.651Z" fill="url(#paint0_linear)"/>
<defs>
<linearGradient id="paint0_linear" x1="71.3415" y1="555.499" x2="1416.84" y2="555.499" gradientUnits="userSpaceOnUse">
<stop stop-color="#ECE7EE"/>
<stop offset="0.96875" stop-color="#EFE7E6"/>
</linearGradient>
</defs>
</svg>
