<svg fill="none" height="37" viewBox="0 0 138 37" width="138" xmlns="http://www.w3.org/2000/svg"><path d="m119.017 19c0-5.0602 3.867-8.6265 8.991-8.6265 5.125 0 8.992 3.5663 8.992 8.6265 0 4.9639-3.867 8.6265-8.992 8.6265-5.124 0-8.991-3.6145-8.991-8.6265zm12.907 0c0-2.3614-1.498-4.0964-3.867-4.0964s-3.868 1.735-3.868 4.0964 1.499 4.0964 3.868 4.0964 3.867-1.6868 3.867-4.0964zm-16.291-4c.338.6747.483 1.3976.483 2.1687 0 1.8313-.966 3.518-2.513 4.8193 2.127 1.012 3.384 3.4698 3.384 5.7831 0 4.3373-3.529 7.2289-8.895 7.2289s-8.8951-2.8434-8.8951-7.2289c0-2.3615 1.2571-4.7229 3.3841-5.7831-1.595-1.3013-2.514-2.988-2.514-4.8193 0-3.8073 2.997-6.6024 7.735-6.6024 2.804 0 3.625.4819 5.221.4819 1.063 0 1.788-.1446 3.093-.8193.436-.24095.774-.33733 1.064-.33733.628 0 .967.62653.967 1.39763.048 1.6867-.725 3.0843-2.514 3.7108zm-3.626 12.6265c0-1.9277-1.498-3.2771-3.867-3.2771s-3.867 1.3012-3.867 3.2771c0 1.8313 1.643 3.2771 3.867 3.2771 2.175 0 3.867-1.4458 3.867-3.2771zm-7.009-10.1687c0 1.6386 1.402 2.9398 3.094 2.9398 1.74 0 3.094-1.3012 3.094-2.9398 0-1.7349-1.257-2.9397-3.094-2.9397-1.789 0-3.094 1.1566-3.094 2.9397zm-8.1215 1.8795v6.0241c0 1.1567-.4351 1.6386-1.692 1.6386h-1.6919c-1.2569 0-1.692-.4819-1.692-1.6386v-5.8795c0-1.4939-.2417-2.5542-.7734-3.2289-.5801-.7229-1.4503-1.1084-2.5621-1.1084-1.0635 0-2.0304.3855-2.6588 1.1084-.5801.6747-.9669 1.735-.9669 3.1807v5.8796c0 1.2048-.4834 1.6385-1.6919 1.6385h-1.692c-1.1602 0-1.6919-.4337-1.6919-1.6385v-13.494c0-.7711.3867-1.1085.9668-1.1085.8702 0 2.0787.7229 2.9972 2.1205 1.3536-1.5903 3.4322-2.4096 5.4626-2.4096 2.4654 0 4.4474.8675 5.7526 2.3132 1.3053 1.494 1.9337 3.4217 1.9337 6.6024zm-26.3945-13.59031c0-1.54217 1.2569-2.74699 2.9005-2.74699 1.5469 0 2.9005 1.20482 2.9005 2.74699 0 1.49397-1.3536 2.74699-2.9005 2.74699-1.6436 0-2.9005-1.25302-2.9005-2.74699zm.3384 19.61441v-12.6747c0-1.1566.4351-1.6385 1.6919-1.6385h1.692c1.2569 0 1.692.4819 1.692 1.6385v12.6747c0 1.1567-.4351 1.6386-1.692 1.6386h-1.692c-1.2568 0-1.6919-.4819-1.6919-1.6386zm-8.9432 0v-15.90357c0-4 2.2721-6.26506 4.109-6.26506.5801 0 .9669.38554.9669 1.10843v21.0121c0 1.2048-.4834 1.6385-1.692 1.6385h-1.6919c-1.1602.0482-1.692-.3855-1.692-1.5904zm-20.8836-6.3614c0-5.0602 3.8674-8.6265 8.9916-8.6265s8.9915 3.5663 8.9915 8.6265c0 4.9639-3.8673 8.6265-8.9915 8.6265s-8.9916-3.6145-8.9916-8.6265zm12.8589 0c0-2.3614-1.4986-4.0964-3.8673-4.0964-2.3688 0-3.8673 1.735-3.8673 4.0964s1.4985 4.0964 3.8673 4.0964c2.3687 0 3.8673-1.6868 3.8673-4.0964zm-15.4693-6.3133v13.494c0 .7711-.3867 1.1085-.9668 1.1085-.8702 0-2.0787-.7229-2.9489-2.0723-1.2568 1.4939-3.1905 2.3614-5.3659 2.3614-2.1753 0-3.9156-.7711-5.2209-1.9277-1.4986-1.4458-2.3204-3.6626-2.3204-6.8434v-6.1205c0-1.1566.4351-1.6385 1.692-1.6385h1.6919c1.2569 0 1.692.4819 1.692 1.6385v5.6868c0 1.9277.3384 2.9398.9668 3.6145.5318.5783 1.3053.8674 2.2721.8674s1.8853-.3855 2.4171-1.012c.6284-.6747.9668-1.735.9668-3.3735v-5.7832c0-1.2048.4834-1.6385 1.692-1.6385h1.6919c1.2085-.0482 1.7403.4337 1.7403 1.6385zm-20.3035-8.3855v21.8795c0 .7711-.3867 1.1085-.9668 1.1085-.8701 0-2.0787-.7229-2.9488-2.0241-1.0635 1.253-3.2389 2.3614-5.75267 2.3614-5.02752 0-8.41143-3.6626-8.41143-8.6265 0-4.8675 3.43225-8.6265 8.41143-8.6265 1.83697 0 3.43227.5783 4.64077 1.3976v-2.31327c0-4 2.2721-6.26506 4.1091-6.26506.5801 0 .9184.38554.9184 1.10843zm-5.0275 14.6988c0-2.4578-1.7403-4.0964-3.91564-4.0964-2.22372 0-3.96401 1.6386-3.96401 4.0964s1.74029 4.0964 3.96401 4.0964c2.17534 0 3.91564-1.5904 3.91564-4.0964z" fill="#B4C9DD"/></svg>