<svg width="124" height="37" fill="none" xmlns="http://www.w3.org/2000/svg"><g clip-path="url(#clip0)"><path d="M18.595 0C8.325 0 0 8.283 0 18.5 0 28.718 8.326 37 18.595 37c10.27 0 18.596-8.282 18.596-18.5C37.19 8.283 28.866 0 18.595 0zm8.528 26.682a1.162 1.162 0 01-1.594.384c-4.366-2.656-9.863-3.255-16.335-1.784a1.158 1.158 0 01-1.388-.867 1.15 1.15 0 01.872-1.38c7.083-1.612 13.16-.919 18.06 2.061a1.15 1.15 0 01.385 1.586zm2.276-5.037a1.455 1.455 0 01-1.994.475c-4.997-3.056-12.618-3.941-18.53-2.156-.767.23-1.576-.2-1.81-.96a1.443 1.443 0 01.968-1.8c6.753-2.038 15.148-1.05 20.889 2.459.681.417.897 1.305.477 1.982zm.195-5.245c-5.994-3.541-15.88-3.867-21.603-2.14a1.74 1.74 0 01-2.169-1.152 1.73 1.73 0 011.16-2.159c6.568-1.984 17.488-1.6 24.388 2.475a1.725 1.725 0 01.607 2.37 1.743 1.743 0 01-2.382.606zm20.998.679c-3.21-.762-3.782-1.297-3.782-2.42 0-1.061 1.004-1.776 2.497-1.776 1.448 0 2.884.543 4.389 1.66a.21.21 0 00.297-.048l1.568-2.198a.209.209 0 00-.04-.285c-1.791-1.43-3.808-2.125-6.166-2.125-3.467 0-5.888 2.07-5.888 5.031 0 3.176 2.089 4.3 5.698 5.168 3.073.704 3.591 1.294 3.591 2.349 0 1.168-1.048 1.894-2.736 1.894-1.874 0-3.403-.628-5.113-2.101a.221.221 0 00-.154-.05.21.21 0 00-.144.074l-1.758 2.081a.207.207 0 00.021.29c1.99 1.767 4.437 2.7 7.077 2.7 3.736 0 6.15-2.03 6.15-5.173.006-2.653-1.59-4.122-5.5-5.069l-.007-.002zm13.958-3.15c-1.62 0-2.947.634-4.042 1.934V14.4a.21.21 0 00-.21-.21h-2.875a.21.21 0 00-.21.21v16.26a.21.21 0 00.21.209h2.874a.21.21 0 00.21-.21v-5.132c1.096 1.223 2.424 1.82 4.043 1.82 3.009 0 6.054-2.304 6.054-6.708.005-4.406-3.042-6.71-6.05-6.71h-.004zm2.711 6.71c0 2.242-1.388 3.808-3.377 3.808-1.966 0-3.449-1.637-3.449-3.808 0-2.172 1.483-3.808 3.45-3.808 1.955 0 3.377 1.6 3.377 3.807zm11.15-6.71c-3.875 0-6.91 2.967-6.91 6.757 0 3.75 3.014 6.686 6.862 6.686 3.888 0 6.933-2.958 6.933-6.733 0-3.763-3.024-6.71-6.886-6.71zm0 10.54c-2.061 0-3.615-1.647-3.615-3.832 0-2.193 1.5-3.785 3.567-3.785 2.074 0 3.638 1.648 3.638 3.833 0 2.193-1.51 3.784-3.59 3.784zm15.16-10.28h-3.165v-3.217a.21.21 0 00-.21-.21h-2.874a.21.21 0 00-.21.21v3.218h-1.383a.21.21 0 00-.21.21v2.458c0 .115.094.21.21.21h1.383v6.36c0 2.57 1.285 3.873 3.822 3.873 1.03 0 1.886-.212 2.692-.667a.208.208 0 00.107-.181v-2.34a.211.211 0 00-.305-.188 3.638 3.638 0 01-1.688.405c-.922 0-1.334-.417-1.334-1.35v-5.912h3.164a.21.21 0 00.21-.21v-2.457a.203.203 0 00-.207-.21l-.003-.001zm11.022.014v-.396c0-1.162.448-1.68 1.453-1.68.599 0 1.081.117 1.62.296a.21.21 0 00.276-.199v-2.41a.209.209 0 00-.149-.2 7.922 7.922 0 00-2.389-.342c-2.655 0-4.059 1.487-4.059 4.3v.606h-1.381a.21.21 0 00-.211.209v2.47c0 .116.095.21.21.21h1.382v9.81c0 .116.094.21.21.21h2.875a.21.21 0 00.21-.21v-9.809h2.685l4.111 9.808c-.466 1.03-.925 1.236-1.552 1.236-.507 0-1.04-.15-1.585-.448a.219.219 0 00-.168-.015.21.21 0 00-.124.113l-.974 2.126a.207.207 0 00.09.27c1.017.549 1.936.783 3.07.783 2.123 0 3.297-.984 4.331-3.63l4.987-12.822a.209.209 0 00-.195-.286h-2.993a.212.212 0 00-.199.14l-3.066 8.713-3.358-8.718a.209.209 0 00-.196-.135h-4.912.001zm-6.39-.013h-2.876a.21.21 0 00-.21.21v12.478c0 .115.094.21.21.21h2.875a.21.21 0 00.21-.21V14.4a.21.21 0 00-.21-.21zM96.78 8.508a2.057 2.057 0 00-2.063 2.05c0 1.134.924 2.053 2.063 2.053a2.057 2.057 0 002.062-2.053c0-1.132-.924-2.05-2.06-2.05h-.002zm25.185 9.694a2.01 2.01 0 01-2.023-2.013c0-1.104.897-2.023 2.034-2.023A2.01 2.01 0 01124 16.177a2.03 2.03 0 01-2.034 2.025zm.011-3.836c-1.036 0-1.82.82-1.82 1.823a1.79 1.79 0 001.81 1.812 1.805 1.805 0 001.821-1.824 1.79 1.79 0 00-1.81-1.811h-.001zm.449 2.018l.572.797h-.482l-.516-.73h-.443v.73h-.403V15.07h.947c.493 0 .817.25.817.674.003.346-.199.558-.49.641h-.002zm-.342-.953h-.527v.668h.527c.263 0 .42-.127.42-.334 0-.217-.158-.334-.42-.334z" fill="#B4C9DD"/></g><defs><clipPath id="clip0"><path fill="#B4C9DD" d="M0 0h124v37H0z"/></clipPath></defs></svg>