<svg fill="none" height="32" viewBox="0 0 81 32" width="81" xmlns="http://www.w3.org/2000/svg"><path d="m78.0604 11.7607c-1.8987-1.89759-4.3901-2.94284-7.0167-2.94284-1.9208 0-3.8507.71551-4.9116 1.42184-2.1961 1.4628-4.001 3.0507-7.2505 7.2489v3.0178c2.757-3.5916 5.3658-6.4219 7.3464-7.9784 1.3017-1.0453 3.1487-1.6929 4.8157-1.6929 4.3028 0 7.9396 3.6352 7.9396 7.9401v1.8163c0 2.1271-.8351 4.1255-2.3572 5.6298-1.5064 1.4903-3.4908 2.3109-5.5824 2.3109-3.5361 0-6.6486-2.4273-7.4945-5.7419l-1.4214 1.723c1.0367 3.4731 4.7807 6.0356 8.9159 6.0356 2.6266 0 5.118-1.0469 7.0167-2.9408 1.896-1.8976 2.9396-4.3889 2.9396-7.0166v-1.8163c0-2.6266-1.0436-5.119-2.9396-7.0145zm-43.2007-.9256c1.3701 0 2.5549.2942 3.6244.8998.5027-.6283 1.0103-1.1385 1.3885-1.5162-1.1315-.86421-3.0474-1.40084-5.0129-1.40084-2.8012 0-5.3448 1.01023-7.1611 2.84584-1.8028 1.819-2.7984 4.3443-2.7984 7.1115v11.7737h2.0167v-11.7737c0-4.675 3.2661-7.9401 7.9428-7.9401zm19.1647 19.7138v-11.7737c0-3.6196-2.8356-6.4557-6.4557-6.4557-1.6859 0-3.2953.6826-4.5356 1.9213-1.2376 1.2376-1.9197 2.8496-1.9197 4.5344v1.8163c0 3.4983 2.9574 6.4563 6.4553 6.4563.959 0 2.2645-.236 3.0635-.8917v-2.1314c-.785.6309-1.9245 1.0064-3.0635 1.0064-2.4882 0-4.4386-1.9515-4.4386-4.4396v-1.8163c0-2.4886 1.9504-4.4369 4.4386-4.4369 2.4902 0 4.439 1.9483 4.439 4.4369v11.7737zm-54.0244-12.9423v.6514c0 3.4967 1.3265 6.7596 3.7365 9.1864 2.40408 2.4213 5.62658 3.7526 9.0738 3.7526 2.7715 0 5.2257-.6271 7.2973-1.8593 1.708-1.0184 2.465-2.0474 2.5302-2.1417v-10.8566h-10.3173v2.0177h8.3006v8.2123l-.0081.007c-.972.9736-3.2791 2.6023-7.8027 2.6023-2.94776 0-5.67673-1.1234-7.68911-3.1681-2.00214-2.035-3.1045-4.7887-3.1045-7.7526v-.6514c0-2.7985 1.26238-5.5905 3.46172-7.65621 2.24568-2.10505 5.17129-3.2656 8.23969-3.2656 2.8615 0 4.8551.43427 6.4563 1.40409v-2.26346c-1.667-.70905-3.6594-1.02747-6.4563-1.02747-7.43528 0-13.7181 5.86685-13.7181 12.80865zm34.8597-3.2683c.7651 0 1.4132.1266 1.9294.3777.2511-.6261.5086-1.1422.8841-1.7689-.5484-.3922-1.8539-.6276-2.8135-.6276-3.6799 0-6.4558 2.7753-6.4558 6.4557v11.7737h2.0167v-11.7737c0-2.6136 1.826-4.4369 4.4391-4.4369zm-14.6853-2.368v-2.38467c-1.8248-.97898-3.8162-1.4154-6.4563-1.4154-2.6939 0-5.24779.98868-7.1939 2.77957-1.94772 1.7974-3.02153 4.1617-3.02153 6.6568v.6514c0 5.2042 4.17454 9.4374 9.30763 9.4374 4.175 0 5.8889-1.3663 6.3254-1.7985v-6.0549h-6.8152v2.0162h4.9283v3.0339l-.0178.0059c-.6341.2527-1.9509.7797-4.4207.7797-1.958 0-3.78989-.7613-5.15949-2.1477-1.37607-1.3911-2.13145-3.2645-2.13145-5.272v-.6514c0-4.0215 3.75482-7.4186 8.19874-7.4186 3.0744 0 4.8922.4978 6.4563 1.7823zm47.6069 3.7996c.9101-.9079 2.1013-1.4316 3.2624-1.4316 2.4881 0 4.4396 1.9483 4.4396 4.4369v1.8163c0 2.4881-1.9515 4.4396-4.4396 4.4396-1.2047 0-2.3685-.6622-3.2801-1.8588-.8082-1.0582-1.3319-2.4898-1.4127-3.7764l-1.6331 1.9941c.3206 1.5253 1.118 2.987 2.2446 4.0145 1.1627 1.0582 2.612 1.6433 4.0813 1.6433 3.5609 0 6.4553-2.8965 6.4553-6.4563v-1.8163c0-1.6848-.6822-3.2968-1.9198-4.5344-1.2397-1.2387-2.8496-1.9213-4.5355-1.9213-1.0657 0-2.7607.382-4.7807 2.1982l-.007.007c-.5404.541-1.8098 1.8103-2.5818 2.7155-1.2985 1.4165-3.1854 3.5549-4.7926 5.6945v3.1492c1.784-2.292 2.8109-3.5759 4.4876-5.5123 1.5016-1.7522 3.3604-3.8815 4.4121-4.8017zm-30.1689 4.8216c0 2.6277 1.0447 5.119 2.9407 7.0166 1.8976 1.8939 4.3895 2.9408 7.0156 2.9408 1.1126 0 2.2553-.2376 3.0635-.6358v-2.0151c-.9439.3955-2.0846.6342-3.0635.6342-4.3028 0-7.9407-3.6358-7.9407-7.9407v-1.8163c0-4.3049 3.6379-7.9401 7.9407-7.9401 2.1395 0 4.1395.8189 5.6314 2.3109 1.4903 1.4902 2.3092 3.4897 2.3092 5.6292v11.7737h2.0167v-12.1616c-.1255-2.5695-1.2225-4.9736-3.0883-6.771-1.8685-1.80438-4.3109-2.79844-6.869-2.79844-2.6261 0-5.118 1.04525-7.0156 2.94284-1.896 1.8955-2.9407 4.3879-2.9407 7.0145zm23.3457-7.8076c.6175-.7414 1.2565-1.4946 2.014-2.1304v-10.65347149h-2.014zm3.5-2.95581v-9.82806149h2.0156v8.44499149c-.5474.27639-1.3125.80225-2.0156 1.38307" fill="#22292f"/></svg>