<?xml version="1.0" encoding="utf-8"?>
<!-- Generator: Adobe Illustrator 24.0.1, SVG Export Plug-In . SVG Version: 6.00 Build 0)  -->
<svg version="1.1" id="Layer_1" xmlns="http://www.w3.org/2000/svg" xmlns:xlink="http://www.w3.org/1999/xlink" x="0px" y="0px"
	 viewBox="0 0 515 280" style="enable-background:new 0 0 515 280;" xml:space="preserve">
<style type="text/css">
	.st0{clip-path:url(#SVGID_2_);}
	.st1{clip-path:url(#SVGID_4_);}
	.st2{fill:#627EAB;}
	.st3{fill:#E0E0E0;}
	.st4{fill:#FFFFFF;}
	.st5{clip-path:url(#SVGID_8_);}
	.st6{clip-path:url(#SVGID_10_);}
	.st7{clip-path:url(#SVGID_14_);}
	.st8{clip-path:url(#SVGID_16_);}
	.st9{clip-path:url(#SVGID_20_);}
	.st10{clip-path:url(#SVGID_22_);}
	.st11{clip-path:url(#SVGID_28_);}
	.st12{clip-path:url(#SVGID_30_);}
	.st13{clip-path:url(#SVGID_36_);}
	.st14{clip-path:url(#SVGID_38_);}
	.st15{clip-path:url(#SVGID_44_);}
	.st16{clip-path:url(#SVGID_46_);}
	.st17{fill:#DDECF5;}
	.st18{fill:#E7F6F5;}
	.st19{fill:#B3C8DC;}
	.st20{clip-path:url(#SVGID_52_);}
	.st21{clip-path:url(#SVGID_54_);}
	.st22{clip-path:url(#SVGID_60_);}
	.st23{clip-path:url(#SVGID_62_);}
	.st24{clip-path:url(#SVGID_68_);}
	.st25{clip-path:url(#SVGID_70_);}
	.st26{clip-path:url(#SVGID_76_);}
	.st27{clip-path:url(#SVGID_78_);}
	.st28{clip-path:url(#SVGID_84_);}
	.st29{clip-path:url(#SVGID_86_);}
	.st30{clip-path:url(#SVGID_92_);}
	.st31{clip-path:url(#SVGID_94_);}
	.st32{clip-path:url(#SVGID_100_);}
	.st33{clip-path:url(#SVGID_106_);}
	.st34{clip-path:url(#SVGID_112_);}
	.st35{clip-path:url(#SVGID_114_);}
	.st36{clip-path:url(#SVGID_120_);}
	.st37{clip-path:url(#SVGID_122_);}
</style>
<g>
	<g>
		<path class="st2" d="M184.11,228.27v3.28h0.08c1.57-2.43,3.64-3.65,6.21-3.65c2.13,0,3.83,0.69,5.1,2.05
			c1.27,1.37,1.91,3.26,1.91,5.68v11.5h-2.01v-10.74c0-4.34-1.71-6.52-5.12-6.52c-2.5,0-4.56,1.35-6.17,4.04v13.22h-2.01v-18.85
			H184.11z"/>
		<path class="st2" d="M222.94,237h-14.85c-0.04,0.33-0.06,0.66-0.06,0.98c0,2.1,0.75,3.89,2.25,5.35c1.5,1.46,3.28,2.19,5.33,2.19
			c2.39,0,4.73-0.93,7.01-2.81v2.28c-2.16,1.67-4.58,2.5-7.26,2.5c-2.72,0-4.96-0.94-6.74-2.83c-1.77-1.89-2.66-4.28-2.66-7.19
			c0-2.76,0.82-5.04,2.46-6.86c1.64-1.81,3.7-2.71,6.19-2.71c2.34,0,4.31,0.82,5.92,2.45C222.13,231.98,222.94,234.2,222.94,237z
			 M208.35,235.38h12.21c-0.71-3.67-2.7-5.51-5.96-5.51c-1.54,0-2.88,0.48-4.01,1.45C209.47,232.27,208.72,233.63,208.35,235.38z"/>
		<path class="st2" d="M234.86,222.02v6.25h5.28v1.64h-5.28v11.21c0,1.8,0.15,2.99,0.44,3.56c0.3,0.57,1.09,0.85,2.37,0.85
			c0.98,0,2.13-0.31,3.44-0.92v1.93c-1.32,0.64-2.62,0.96-3.89,0.96c-1.24,0-2.28-0.35-3.11-1.07c-0.83-0.71-1.25-1.69-1.25-2.95
			v-13.56h-5.08v-1.64h5.08v-4.49l1.37-1.76H234.86z"/>
		<path class="st2" d="M275.16,228.27l-8.15,19.22h-0.96l-5.8-15.31l-5.85,15.31h-0.9l-8.07-19.22h1.98l6.44,15.37l5.92-15.37h1.1
			l5.73,15.37l6.58-15.37H275.16z"/>
		<path class="st2" d="M290.07,227.9c2.73,0,5.01,0.94,6.83,2.81c1.82,1.87,2.73,4.21,2.73,7.01c0,2.79-0.91,5.11-2.73,6.98
			s-4.1,2.8-6.83,2.8c-2.73,0-5.02-0.93-6.86-2.8c-1.84-1.87-2.76-4.19-2.76-6.98c0-2.8,0.92-5.14,2.76-7.01
			C285.06,228.84,287.34,227.9,290.07,227.9z M290.07,245.52c2.11,0,3.88-0.74,5.3-2.22c1.42-1.48,2.13-3.34,2.13-5.58
			c0-2.23-0.71-4.09-2.14-5.59c-1.43-1.5-3.19-2.26-5.29-2.26c-2.13,0-3.91,0.75-5.34,2.23c-1.43,1.49-2.14,3.36-2.14,5.61
			c0,2.24,0.71,4.1,2.14,5.58C286.16,244.78,287.94,245.52,290.07,245.52z"/>
		<path class="st2" d="M321.3,230.13l-1.17,1.89c-1.57-1.43-2.84-2.15-3.79-2.15c-1.89,0-3.9,1.8-6.05,5.41v11.85h-2.01v-18.85h2.01
			v4.96h0.08c2.25-3.55,4.45-5.33,6.6-5.33C318.2,227.9,319.64,228.64,321.3,230.13z"/>
		<path class="st2" d="M329.98,218.49v28.63h-2.01v-28.63H329.98z M343.32,228.27l-10.31,8.94l11.91,9.91h-2.75l-11.9-9.9
			l10.42-8.95H343.32z"/>
	</g>
	<g>
		<polygon class="st2" points="286.32,119.59 325.98,119.59 325.98,112.24 286.32,112.24 286.32,79.11 327.04,79.11 327.04,71.83 
			277.92,71.83 277.92,160.5 328.04,160.5 328.04,153.21 286.32,153.21 		"/>
		<polygon class="st2" points="348.71,71.83 340.31,71.83 340.31,160.5 391.74,160.5 391.74,153.21 348.71,153.21 		"/>
		<polygon class="st2" points="380.35,71.83 380.35,79.11 412.98,79.11 412.98,160.5 421.44,160.5 421.44,79.11 454.07,79.11 
			454.07,71.83 		"/>
	</g>
	<path class="st2" d="M128.64,185.33H70.95c-5.14,0-9.78-3.1-11.75-7.85s-0.88-10.22,2.76-13.86l47.45-47.45L61.96,68.71
		c-3.64-3.64-4.72-9.11-2.76-13.86S65.81,47,70.95,47h57.69c3.37,0,6.61,1.34,8.99,3.72l47.45,47.45l47.45-47.45
		c4.97-4.97,13.02-4.97,17.99,0c4.97,4.97,4.97,13.02,0,17.99l-47.45,47.45l47.45,47.45c4.97,4.97,4.97,13.02,0,17.99
		c-4.97,4.97-13.02,4.97-17.99,0l-47.45-47.45l-47.45,47.45C135.25,183.99,132.01,185.33,128.64,185.33z M101.66,159.89h21.71
		l43.72-43.72l-43.72-43.72h-21.71l34.73,34.73c4.97,4.97,4.97,13.02,0,17.99L101.66,159.89z"/>
	<circle class="st3" cx="239.67" cy="116.16" r="15.19"/>
</g>
</svg>
