<svg width="53" height="65" viewBox="0 0 53 65" fill="none" xmlns="http://www.w3.org/2000/svg">
<path d="M25.5419 9.92188C21.5034 9.92187 17.5557 11.1224 14.1978 13.3717C10.8399 15.621 8.2228 18.818 6.67735 22.5584C5.13189 26.2989 4.72753 30.4147 5.5154 34.3856C6.30326 38.3564 8.24797 42.0038 11.1036 44.8666C13.9592 47.7294 17.5975 49.679 21.5584 50.4689C25.5192 51.2587 29.6248 50.8533 33.3558 49.304C37.0869 47.7547 40.2759 45.131 42.5195 41.7647C44.7632 38.3984 45.9607 34.4407 45.9607 30.392C45.9547 24.9649 43.8016 19.7617 39.9736 15.9241C36.1456 12.0865 30.9555 9.92788 25.5419 9.92188V9.92188ZM31.1981 22.0651C31.1981 22.147 31.1656 22.2256 31.1078 22.2836C31.05 22.3415 30.9716 22.3741 30.8898 22.3741H28.4435C28.154 22.3741 27.8763 22.4894 27.6716 22.6946C27.4669 22.8999 27.3519 23.1782 27.3519 23.4685V26.0343H30.8361C30.8788 26.0342 30.9211 26.0429 30.9602 26.06C30.9994 26.0771 31.0346 26.1022 31.0636 26.1337C31.0926 26.1651 31.1147 26.2023 31.1286 26.2428C31.1425 26.2833 31.1479 26.3262 31.1443 26.3689L30.8361 30.0036C30.8297 30.0811 30.7944 30.1533 30.7373 30.2058C30.6801 30.2584 30.6054 30.2874 30.5278 30.2871H27.3519V42.3453C27.3519 42.3858 27.3439 42.426 27.3284 42.4635C27.3129 42.501 27.2902 42.5351 27.2616 42.5638C27.233 42.5925 27.199 42.6152 27.1616 42.6308C27.1242 42.6463 27.0841 42.6543 27.0436 42.6543H22.6346C22.5583 42.648 22.4871 42.6134 22.4348 42.5573C22.3825 42.5012 22.3529 42.4277 22.3518 42.3509V30.2871H20.1431C20.0613 30.2871 19.9829 30.2546 19.9251 30.1966C19.8673 30.1387 19.8348 30.0601 19.8348 29.9781V26.3519C19.8337 26.3106 19.8408 26.2695 19.8558 26.231C19.8708 26.1925 19.8933 26.1574 19.922 26.1278C19.9508 26.0982 19.9851 26.0747 20.0231 26.0586C20.0611 26.0426 20.1019 26.0343 20.1431 26.0343H22.3518V22.5414C22.3518 21.371 22.8148 20.2485 23.6392 19.4199C24.4636 18.5913 25.5821 18.1243 26.7495 18.1213H30.8983C30.9801 18.1213 31.0585 18.1538 31.1163 18.2118C31.1741 18.2698 31.2066 18.3484 31.2066 18.4303L31.1981 22.0651Z" fill="white"/>
</svg>
