<svg width="54" height="65" viewBox="0 0 54 65" fill="none" xmlns="http://www.w3.org/2000/svg">
<path d="M26.4683 25.9854C25.6491 25.9854 24.8482 26.2269 24.1671 26.6795C23.4859 27.1321 22.955 27.7754 22.6415 28.528C22.328 29.2806 22.2459 30.1088 22.4058 30.9078C22.5656 31.7067 22.9601 32.4407 23.5394 33.0167C24.1187 33.5927 24.8567 33.985 25.6602 34.1439C26.4637 34.3029 27.2966 34.2213 28.0534 33.9095C28.8103 33.5978 29.4572 33.0699 29.9124 32.3925C30.3675 31.7152 30.6105 30.9188 30.6105 30.1042C30.6089 29.0123 30.172 27.9655 29.3956 27.1934C28.6191 26.4213 27.5664 25.9869 26.4683 25.9854Z" fill="white"/>
<path d="M31.6326 19.3711H21.2192C19.7822 19.3711 18.404 19.9388 17.3878 20.9492C16.3717 21.9596 15.8008 23.3301 15.8008 24.7591V35.1139C15.8008 36.5429 16.3717 37.9133 17.3878 38.9238C18.404 39.9342 19.7822 40.5019 21.2192 40.5019H31.6297C32.3412 40.5015 33.0458 40.3617 33.703 40.0906C34.3602 39.8195 34.9574 39.4223 35.4602 38.9217C35.9631 38.4211 36.3619 37.827 36.6339 37.1731C36.9058 36.5193 37.0456 35.8186 37.0452 35.111V24.7591C37.0452 23.3311 36.4751 21.9615 35.4602 20.9512C34.4453 19.941 33.0686 19.3726 31.6326 19.3711V19.3711ZM26.4723 36.533C25.193 36.533 23.9424 36.1558 22.8786 35.449C21.8149 34.7422 20.9858 33.7377 20.4962 32.5623C20.0066 31.387 19.8785 30.0937 20.1281 28.846C20.3777 27.5983 20.9938 26.4522 21.8984 25.5527C22.803 24.6532 23.9556 24.0406 25.2104 23.7924C26.4651 23.5442 27.7657 23.6716 28.9477 24.1584C30.1296 24.6452 31.1399 25.4696 31.8506 26.5274C32.5614 27.5852 32.9408 28.8287 32.9408 30.1009C32.9392 31.8068 32.2568 33.4424 31.0435 34.6484C29.8301 35.8544 28.185 36.5322 26.4694 36.533H26.4723ZM33.3179 24.7706C33.0132 24.7706 32.7154 24.6808 32.4621 24.5125C32.2089 24.3442 32.0114 24.105 31.8949 23.8251C31.7783 23.5453 31.7478 23.2373 31.8072 22.9402C31.8666 22.6431 32.0133 22.3702 32.2287 22.156C32.4441 21.9418 32.7186 21.7959 33.0174 21.7368C33.3162 21.6778 33.6258 21.7081 33.9073 21.824C34.1887 21.9399 34.4293 22.1362 34.5985 22.3881C34.7678 22.64 34.8581 22.9361 34.8581 23.239C34.8581 23.4404 34.8182 23.6398 34.7406 23.8258C34.663 24.0118 34.5493 24.1808 34.406 24.323C34.2626 24.4653 34.0925 24.578 33.9053 24.6548C33.7181 24.7316 33.5175 24.771 33.315 24.7706H33.3179Z" fill="white"/>
<path d="M26.3125 9.51855C22.1819 9.51855 18.144 10.7365 14.7095 13.0185C11.2751 15.3004 8.59822 18.5438 7.0175 22.3386C5.43678 26.1333 5.0232 30.3089 5.82904 34.3374C6.63488 38.3659 8.62396 42.0662 11.5447 44.9706C14.4655 47.875 18.1868 49.8529 22.2381 50.6542C26.2893 51.4555 30.4885 51.0442 34.3047 49.4724C38.1209 47.9006 41.3827 45.2388 43.6775 41.8236C45.9724 38.4084 47.1972 34.3933 47.1972 30.2859C47.1972 24.778 44.9969 19.4958 41.0802 15.6012C37.1636 11.7065 31.8515 9.51855 26.3125 9.51855ZM39.5192 35.1114C39.5192 36.1415 39.3151 37.1616 38.9186 38.1133C38.522 39.065 37.9408 39.9297 37.2081 40.6579C36.4755 41.3862 35.6057 41.9639 34.6485 42.3578C33.6912 42.7518 32.6654 42.9543 31.6294 42.954H21.2189C20.183 42.9543 19.1571 42.7518 18.1999 42.3578C17.2426 41.9639 16.3729 41.3862 15.6402 40.6579C14.9075 39.9297 14.3263 39.065 13.9298 38.1133C13.5332 37.1616 13.3291 36.1415 13.3291 35.1114V24.7595C13.3291 23.7293 13.5332 22.7093 13.9298 21.7576C14.3263 20.8059 14.9075 19.9412 15.6402 19.2129C16.3729 18.4846 17.2426 17.907 18.1999 17.5131C19.1571 17.1191 20.183 16.9165 21.2189 16.9169H31.6294C32.6654 16.9165 33.6912 17.1191 34.6485 17.5131C35.6057 17.907 36.4755 18.4846 37.2081 19.2129C37.9408 19.9412 38.522 20.8059 38.9186 21.7576C39.3151 22.7093 39.5192 23.7293 39.5192 24.7595V35.1114Z" fill="white"/>
</svg>
