<svg width="62" height="65" viewBox="0 0 62 65" fill="none" xmlns="http://www.w3.org/2000/svg">
<path d="M30.563 9.9248C26.5435 9.9248 22.6143 11.1257 19.2723 13.3757C15.9302 15.6257 13.3254 18.8237 11.7872 22.5653C10.249 26.307 9.84658 30.4241 10.6307 34.3962C11.4149 38.3682 13.3504 42.0168 16.1926 44.8805C19.0348 47.7442 22.656 49.6944 26.5982 50.4845C30.5404 51.2746 34.6267 50.8691 38.3401 49.3193C42.0536 47.7695 45.2276 45.1449 47.4607 41.7776C49.6938 38.4102 50.8857 34.4513 50.8857 30.4014C50.8797 24.9725 48.7367 19.7677 44.9267 15.9289C41.1168 12.0901 35.9511 9.93081 30.563 9.9248V9.9248ZM42.3316 22.9481C42.3399 23.0847 42.2989 23.2197 42.2162 23.3282C41.6869 24.079 41.0516 24.7478 40.3303 25.3134C40.2233 25.3957 40.0488 25.4808 40.0488 25.6339C40.0488 29.5789 39.0495 33.5183 36.1954 36.3742C32.5558 40.0129 27.1036 41.0027 22.265 39.6556C21.3305 39.3936 20.4272 39.0293 19.5712 38.5693C19.2898 38.4134 19.0083 38.2517 18.7268 38.0674C18.6564 38.0106 18.6058 37.9596 18.6649 37.9227C18.724 37.8858 18.769 37.8915 18.9858 37.9227C20.3499 38.0442 21.7239 37.8672 23.0137 37.4037C23.7174 37.157 25.229 36.6578 25.6653 35.9857C25.6653 35.9715 25.685 35.9715 25.6962 35.9545C25.5189 35.9119 25.3444 35.9119 25.167 35.8807C23.8525 35.5007 22.0961 34.837 21.2826 32.605C21.232 32.4746 21.2826 32.4065 21.4177 32.432C22.033 32.5169 22.658 32.4977 23.2671 32.3753C23.0523 32.3348 22.8426 32.2701 22.6422 32.1825C21.8186 31.8488 21.0979 31.3005 20.5539 30.5939C20.0098 29.8872 19.6619 29.0476 19.5459 28.1609C19.5178 27.9732 19.5075 27.7833 19.515 27.5937C19.515 27.4632 19.5825 27.4207 19.6951 27.4944C20.2877 27.7984 20.9347 27.9797 21.5979 28.0276C21.3868 27.8603 21.1897 27.6787 20.9983 27.4944C19.5628 26.1246 19.0055 23.3339 20.1539 21.5982C20.2468 21.4564 20.3087 21.4564 20.4354 21.5982C23.0616 24.6129 26.2986 26.0225 30.2027 26.6067C30.3068 26.6209 30.3153 26.6067 30.3012 26.4904C30.1841 25.8083 30.2013 25.1097 30.3519 24.4343C30.5277 23.7212 30.8573 23.056 31.3173 22.4859C31.7602 21.9353 32.31 21.4817 32.933 21.1529C33.5062 20.8529 34.1311 20.6662 34.7739 20.6027V20.6027C34.8274 20.6027 34.878 20.5885 34.9315 20.5828C35.6519 20.5353 36.3736 20.6526 37.0426 20.926C37.5439 21.1331 38.0087 21.4204 38.419 21.7768C38.508 21.8554 38.5908 21.9407 38.6667 22.0321C38.6913 22.0587 38.7229 22.0776 38.7578 22.0867C38.7928 22.0957 38.8295 22.0945 38.8638 22.0831C39.853 21.8389 40.808 21.4712 41.7067 20.9884C41.7262 20.978 41.748 20.9725 41.77 20.9725C41.7921 20.9725 41.8139 20.978 41.8334 20.9884C41.8756 21.0196 41.8587 21.0735 41.8334 21.1132C41.6619 21.6464 41.3916 22.142 41.0368 22.5738C40.8088 22.8574 40.2402 23.5607 39.8546 23.626C40.678 23.5002 41.4821 23.2686 42.2471 22.9368C42.3428 22.8914 42.3372 22.8744 42.3372 22.9368L42.3316 22.9481Z" fill="white"/>
</svg>
