<svg width="57" height="65" viewBox="0 0 57 65" fill="none" xmlns="http://www.w3.org/2000/svg">
<path d="M30.5798 30.0972L25.1662 26.9653C24.9335 26.8296 24.7148 27.0021 24.7148 27.2734V33.3761C24.7148 33.6446 24.9251 33.8142 25.1578 33.687L30.535 30.7134C30.591 30.6863 30.639 30.6447 30.674 30.5929C30.709 30.5411 30.7298 30.4809 30.7344 30.4184C30.7389 30.3559 30.727 30.2933 30.6999 30.2369C30.6728 30.1805 30.6313 30.1323 30.5798 30.0972V30.0972Z" fill="white"/>
<path d="M26.9231 9.89453C22.9197 9.89453 19.0063 11.0914 15.6776 13.3339C12.3489 15.5764 9.75447 18.7637 8.22244 22.4928C6.69041 26.2219 6.28956 30.3253 7.07058 34.2841C7.85161 38.2429 9.77942 41.8793 12.6102 44.7334C15.4411 47.5876 19.0478 49.5313 22.9742 50.3187C26.9007 51.1062 30.9706 50.702 34.6692 49.1574C38.3679 47.6127 41.5291 44.997 43.7533 41.6409C45.9775 38.2848 47.1646 34.339 47.1646 30.3027C47.1587 24.8919 45.0242 19.7045 41.2295 15.8786C37.4347 12.0526 32.2897 9.90052 26.9231 9.89453V9.89453ZM39.0344 33.59C39.0344 34.9799 38.4868 36.3129 37.512 37.2957C36.5372 38.2785 35.2152 38.8306 33.8366 38.8306H20.3629C19.6803 38.8306 19.0044 38.695 18.3738 38.4317C17.7432 38.1683 17.1702 37.7823 16.6875 37.2957C15.7127 36.3129 15.1651 34.9799 15.1651 33.59V27.2075C15.1651 25.8177 15.7127 24.4847 16.6875 23.5019C17.6623 22.5191 18.9843 21.967 20.3629 21.967H33.845C35.2221 21.9692 36.542 22.5224 37.515 23.5049C38.4879 24.4875 39.0344 25.8191 39.0344 27.2075V33.59Z" fill="white"/>
<path d="M30.5369 30.7128L25.1598 33.6864C24.9271 33.8136 24.7168 33.644 24.7168 33.3754V27.2728C24.7168 26.9901 24.9327 26.8318 25.1682 26.9647L30.5818 30.0937C30.634 30.1286 30.6761 30.1769 30.7036 30.2337C30.7312 30.2904 30.7434 30.3535 30.7388 30.4165C30.7342 30.4795 30.7131 30.5401 30.6777 30.5922C30.6422 30.6442 30.5936 30.6859 30.5369 30.7128V30.7128Z" fill="white"/>
</svg>
