<svg width="1440" height="1111" viewBox="0 0 1440 1111" fill="none" xmlns="http://www.w3.org/2000/svg">
<path opacity="0.1" d="M152.554 105.651C131.146 120.827 104.046 132.949 42.8033 107.768C34.5425 100.773 13.7986 90.9803 -3.08972 107.768V1111H1517.91V311.327C1124.2 334.544 1118.3 291.221 927.781 214.235C825.924 173.077 780.951 159.54 717.62 163.853C635.64 163.853 592.541 169.433 512.636 64.2846C512.636 64.2846 439.046 -56.6169 388.3 33.1874C337.195 123.617 274.792 77.3439 274.792 77.3439C274.792 77.3439 228.355 41.5329 197.444 68.2529C197.444 68.2529 172.472 91.5337 152.554 105.651Z" fill="url(#paint0_linear)"/>
<defs>
<linearGradient id="paint0_linear" x1="68.2517" y1="555.499" x2="1413.75" y2="555.499" gradientUnits="userSpaceOnUse">
<stop stop-color="#743C8A"/>
<stop offset="0.96875" stop-color="#CF665E"/>
</linearGradient>
</defs>
</svg>
