<svg width="97" height="96" viewBox="0 0 97 96" fill="none" xmlns="http://www.w3.org/2000/svg">
<g filter="url(#filter0_d)">
<path d="M71.9271 10.0001H24.185C23.0972 9.99356 22.0501 10.4116 21.2679 11.1646C20.4856 11.9176 20.0305 12.9458 20 14.0289V61.6994C20.0246 62.7845 20.4778 63.8162 21.2613 64.5705C22.0448 65.3248 23.0954 65.7408 24.185 65.7282H71.9271C73.0167 65.7408 74.0673 65.3248 74.8509 64.5705C75.6344 63.8162 76.0876 62.7845 76.1122 61.6994V14.0289C76.0816 12.9458 75.6265 11.9176 74.8443 11.1646C74.0621 10.4116 73.015 9.99356 71.9271 10.0001V10.0001ZM36.6232 57.5309H28.3934V30.9593H36.6232V57.5309ZM32.6019 27.2565C31.3383 27.2568 30.1247 26.765 29.2204 25.886C28.316 25.007 27.7927 23.8105 27.7622 22.5523C27.7393 21.9131 27.8488 21.2761 28.084 20.6809C28.3191 20.0857 28.6747 19.5452 29.1288 19.0929C29.5828 18.6406 30.1255 18.2864 30.7231 18.0522C31.3206 17.818 31.9601 17.7089 32.6019 17.7317C33.8243 17.8165 34.9689 18.36 35.8047 19.2525C36.6405 20.145 37.1054 21.3201 37.1054 22.5407C37.1054 23.7612 36.6405 24.9363 35.8047 25.8288C34.9689 26.7214 33.8243 27.2648 32.6019 27.3496V27.2565ZM67.8824 57.3679H59.7461V44.3732C59.7461 41.2758 59.7461 37.247 55.3974 37.247C51.0487 37.247 50.3941 40.6471 50.3941 44.0704V57.2281H42.0708V30.9593H49.833V34.4525H49.9966C50.7922 33.0762 51.9523 31.9443 53.3501 31.1803C54.748 30.4164 56.3297 30.0499 57.9225 30.1209C66.3159 30.1209 67.8824 35.71 67.8824 42.8129V57.3679Z" fill="white"/>
</g>
<defs>
<filter id="filter0_d" x="0" y="0" width="96.1122" height="95.7285" filterUnits="userSpaceOnUse" color-interpolation-filters="sRGB">
<feFlood flood-opacity="0" result="BackgroundImageFix"/>
<feColorMatrix in="SourceAlpha" type="matrix" values="0 0 0 0 0 0 0 0 0 0 0 0 0 0 0 0 0 0 127 0"/>
<feOffset dy="10"/>
<feGaussianBlur stdDeviation="10"/>
<feColorMatrix type="matrix" values="0 0 0 0 0 0 0 0 0 0 0 0 0 0 0 0 0 0 0.15 0"/>
<feBlend mode="normal" in2="BackgroundImageFix" result="effect1_dropShadow"/>
<feBlend mode="normal" in="SourceGraphic" in2="effect1_dropShadow" result="shape"/>
</filter>
</defs>
</svg>
