<svg width="145" height="144" viewBox="0 0 145 144" fill="none" xmlns="http://www.w3.org/2000/svg">
<g filter="url(#filter0_d)">
<path d="M110.89 62.8653C111.218 60.8586 111.382 58.8288 111.379 56.7959C111.379 46.4697 107.239 36.5665 99.8696 29.2648C92.5005 21.9631 82.5057 17.861 72.0842 17.861C70.0325 17.8579 67.9839 18.0198 65.9587 18.3453C61.4169 15.6496 56.0964 14.5346 50.842 15.1774C45.5877 15.8202 40.7006 18.184 36.957 21.8934C33.2134 25.6027 30.8278 30.445 30.179 35.6513C29.5303 40.8576 30.6556 46.1294 33.3762 50.6296C33.0096 52.6655 32.8135 54.728 32.7897 56.7959C32.7897 67.1221 36.9296 77.0253 44.2988 84.327C51.6679 91.6287 61.6627 95.7308 72.0842 95.7308C74.1359 95.7339 76.1845 95.572 78.2097 95.2465C82.7515 97.9422 88.072 99.0572 93.3264 98.4144C98.5807 97.7716 103.468 95.4078 107.211 91.6985C110.955 87.9891 113.341 83.1468 113.989 77.9405C114.638 72.7342 113.513 67.4624 110.792 62.9622L110.89 62.8653ZM90.754 74.4877C88.9148 77.0071 86.3804 78.9465 83.4555 80.0729C79.8466 81.4762 75.9927 82.1565 72.1168 82.0745C67.6053 82.2616 63.1171 81.3411 59.0512 79.3949C56.6808 78.1323 54.648 76.3284 53.1212 74.1326C51.7226 72.2567 50.9277 70.0064 50.8404 67.6757C50.837 67.071 50.9596 66.4721 51.2007 65.9166C51.4418 65.361 51.7961 64.8608 52.2415 64.4473C53.2283 63.6151 54.4987 63.1878 55.7929 63.2528C56.8745 63.2325 57.9272 63.5993 58.758 64.2859C59.6673 65.1287 60.3695 66.1669 60.8107 67.3206C61.3759 68.6688 62.0976 69.9472 62.9611 71.1301C63.8217 72.2222 64.9408 73.0871 66.2193 73.6483C67.956 74.3865 69.8378 74.7286 71.7258 74.6491C74.4149 74.7782 77.0783 74.079 79.3501 72.6475C80.2219 72.1414 80.947 71.4207 81.4551 70.5553C81.9632 69.6899 82.237 68.7091 82.2499 67.708C82.2781 67.007 82.1562 66.308 81.8923 65.657C81.6283 65.0059 81.2283 64.4176 80.7186 63.9307C79.5584 62.8717 78.1633 62.0976 76.6457 61.6708C74.9515 61.122 72.7033 60.5732 69.8686 59.9598C66.613 59.2088 63.4379 58.1493 60.3871 56.7959C57.9865 55.821 55.8697 54.2674 54.229 52.2761C52.6728 50.2236 51.8684 47.7072 51.9482 45.1413C51.9219 42.5327 52.7699 39.9892 54.3593 37.9096C56.1748 35.6747 58.5925 33.9956 61.332 33.0669C64.796 31.9269 68.436 31.4023 72.0842 31.5173C74.9387 31.4673 77.7843 31.8483 80.5231 32.6472C82.6724 33.2796 84.6913 34.2853 86.4857 35.6174C87.8977 36.6683 89.0739 37.9985 89.9394 39.5238C90.6438 40.7559 91.0247 42.1435 91.0472 43.5593C91.0431 44.1629 90.917 44.7595 90.6763 45.314C90.4357 45.8685 90.0854 46.3696 89.6462 46.7878C89.2027 47.2638 88.6632 47.6421 88.0625 47.8979C87.4619 48.1538 86.8136 48.2815 86.1598 48.2728C85.1117 48.3537 84.0726 48.0297 83.26 47.3689C82.405 46.5526 81.6897 45.604 81.1421 44.5601C80.3352 42.9147 79.1661 41.4695 77.721 40.3309C75.8245 39.1595 73.5923 38.6377 71.3674 38.8458C69.0836 38.7504 66.8207 39.311 64.8509 40.46C64.1354 40.8386 63.5311 41.3945 63.0971 42.0735C62.6631 42.7525 62.4142 43.5314 62.3746 44.3342C62.3488 45.2113 62.6374 46.0691 63.1892 46.7555C63.839 47.5015 64.6378 48.1061 65.5351 48.5311C66.4907 49.0209 67.4954 49.4105 68.5327 49.6934C69.5753 49.9839 71.2696 50.4036 73.6482 50.9524C76.6457 51.5981 79.3175 52.3084 81.7612 53.0832C83.947 53.743 86.0303 54.6991 87.9519 55.9242C89.628 56.9745 91.0071 58.4299 91.9595 60.1535C92.9278 62.1193 93.3763 64.2966 93.2628 66.4812C93.2922 69.3443 92.4148 72.1445 90.754 74.4877Z" fill="white"/>
</g>
<defs>
<filter id="filter0_d" x="0" y="0" width="144.168" height="143.592" filterUnits="userSpaceOnUse" color-interpolation-filters="sRGB">
<feFlood flood-opacity="0" result="BackgroundImageFix"/>
<feColorMatrix in="SourceAlpha" type="matrix" values="0 0 0 0 0 0 0 0 0 0 0 0 0 0 0 0 0 0 127 0"/>
<feOffset dy="15"/>
<feGaussianBlur stdDeviation="15"/>
<feColorMatrix type="matrix" values="0 0 0 0 0 0 0 0 0 0 0 0 0 0 0 0 0 0 0.15 0"/>
<feBlend mode="normal" in2="BackgroundImageFix" result="effect1_dropShadow"/>
<feBlend mode="normal" in="SourceGraphic" in2="effect1_dropShadow" result="shape"/>
</filter>
</defs>
</svg>
