<?xml version="1.0" encoding="utf-8"?>
<!-- Generator: Adobe Illustrator 24.0.1, SVG Export Plug-In . SVG Version: 6.00 Build 0)  -->
<svg version="1.1" id="Layer_1" xmlns="http://www.w3.org/2000/svg" xmlns:xlink="http://www.w3.org/1999/xlink" x="0px" y="0px"
	 viewBox="0 0 40 40" style="enable-background:new 0 0 40 40;" xml:space="preserve">
<style type="text/css">
	.st0{fill:#B3B3B3;}
	.st1{fill:#FFFFFF;}
</style>
<g>
	<path class="st0" d="M36.3,21.41c-0.38,0-0.77-0.15-1.06-0.44L20,5.74L4.76,20.97c-0.59,0.59-1.54,0.59-2.12,0
		c-0.59-0.59-0.59-1.54,0-2.12l16.3-16.3c0.59-0.59,1.54-0.59,2.12,0l16.3,16.3c0.59,0.59,0.59,1.54,0,2.12
		C37.06,21.27,36.68,21.41,36.3,21.41z"/>
	<path class="st0" d="M32.63,19.63L20.9,7.9c-0.5-0.5-1.31-0.5-1.8,0L7.37,19.63C7.13,19.87,7,20.19,7,20.53v16.2
		C7,37.43,7.57,38,8.28,38h7.22v-8.22c0-1.54,1.24-2.78,2.78-2.78h3.44c1.54,0,2.78,1.24,2.78,2.78V38h7.22
		c0.7,0,1.28-0.57,1.28-1.28v-16.2C33,20.19,32.87,19.87,32.63,19.63z"/>
</g>
</svg>
