<?xml version="1.0" encoding="utf-8"?>
<!-- Generator: Adobe Illustrator 24.0.1, SVG Export Plug-In . SVG Version: 6.00 Build 0)  -->
<svg version="1.1" id="Layer_1" xmlns="http://www.w3.org/2000/svg" xmlns:xlink="http://www.w3.org/1999/xlink" x="0px" y="0px"
	 viewBox="0 0 40 40" style="enable-background:new 0 0 40 40;" xml:space="preserve">
<style type="text/css">
	.st0{fill:#B3B3B3;}
	.st1{fill:#FFFFFF;}
</style>
<g>
	<path class="st0" d="M14.56,24.42c-5.45,0-9.89-4.44-9.89-9.89s4.44-9.89,9.89-9.89c1.1,0,2,0.9,2,2s-0.9,2-2,2
		c-3.25,0-5.89,2.64-5.89,5.89s2.64,5.89,5.89,5.89c3.25,0,5.89-2.64,5.89-5.89c0-1.1,0.9-2,2-2s2,0.9,2,2
		C24.45,19.99,20.01,24.42,14.56,24.42z"/>
	<path class="st0" d="M33.36,22.35L16.38,14.4c-1.42-0.67-2.9,0.81-2.23,2.23l7.95,16.98c0.49,1.06,1.89,1.3,2.71,0.48l0.94-0.94
		c0.66-0.66,1.72-0.66,2.38,0l2.41,2.41c0.66,0.66,1.72,0.66,2.38,0l2.41-2.41c0.66-0.66,0.66-1.72,0-2.38l-2.41-2.41
		c-0.66-0.66-0.66-1.72,0-2.38l0.94-0.94C34.66,24.23,34.42,22.84,33.36,22.35z"/>
	<circle class="st0" cx="19.72" cy="9.44" r="2.44"/>
</g>
</svg>
