<svg id="Layer_1" data-name="Layer 1" xmlns="http://www.w3.org/2000/svg" xmlns:xlink="http://www.w3.org/1999/xlink" viewBox="0 0 412.87 500"><defs><style>.cls-1,.cls-19,.cls-20,.cls-26,.cls-29{fill:none;}.cls-2{opacity:0.7;fill:url(#linear-gradient);}.cls-2,.cls-23,.cls-3,.cls-4,.cls-6{isolation:isolate;}.cls-3,.cls-4{fill:#f2f2f2;}.cls-3{opacity:0.2;}.cls-4{opacity:0.1;}.cls-5{fill:#511a66;}.cls-6{font-size:19.55px;fill:#e6e6e6;font-family:Gilroy-ExtraBold, Gilroy;font-weight:800;}.cls-7{letter-spacing:0em;}.cls-8{letter-spacing:0em;}.cls-9{letter-spacing:-0.02em;}.cls-10{letter-spacing:-0.01em;}.cls-11{letter-spacing:-0.01em;}.cls-12{letter-spacing:0.03em;}.cls-13{clip-path:url(#clip-path);}.cls-14{fill:#292c3d;}.cls-15{fill:#fec9cf;}.cls-16{fill:#ee84aa;}.cls-17{fill:#ffcad0;}.cls-18{fill:#3b164c;}.cls-19{stroke:#171d51;}.cls-19,.cls-20,.cls-26,.cls-29{stroke-linecap:round;stroke-linejoin:round;}.cls-19,.cls-26{stroke-width:1.15px;}.cls-20{stroke:#ee84aa;stroke-width:0.86px;}.cls-21{fill:#fff;}.cls-22{fill:#4d505e;}.cls-23{fill:#abacb3;opacity:0.55;}.cls-24{fill:#a99b95;}.cls-25{fill:#ffa687;}.cls-26{stroke:#a99b95;}.cls-27{fill:#7f7f7f;}.cls-28{fill:#132a35;}.cls-29{stroke:#e0e0e0;stroke-width:0.75px;}.cls-30{fill:#e4e4e0;}.cls-31{fill:url(#linear-gradient-2);}.cls-32{fill:url(#linear-gradient-3);}.cls-33{fill:#910f0f;}.cls-34{fill:#d31610;}.cls-35{letter-spacing:-0.04em;}.cls-36{letter-spacing:-0.06em;}.cls-37{letter-spacing:-0.02em;}.cls-38{letter-spacing:-0.07em;}</style><linearGradient id="linear-gradient" x1="7.07" y1="259.99" x2="408.19" y2="259.99" gradientTransform="matrix(1, 0, 0, -1, 0, 502)" gradientUnits="userSpaceOnUse"><stop offset="0" stop-color="#d31610"/><stop offset="1" stop-color="#511a66"/></linearGradient><clipPath id="clip-path"><path class="cls-1" d="M207.63,69.31c-5.87,0-11.66.28-17.39.77A78.49,78.49,0,1,0,53.78,141.31,199.92,199.92,0,0,0,7.07,269.94c0,110.76,89.8,200.57,200.56,200.57S408.19,380.7,408.19,269.94,318.39,69.31,207.63,69.31Z"/></clipPath><linearGradient id="linear-gradient-2" x1="292.62" y1="267.6" x2="301.04" y2="267.6" xlink:href="#linear-gradient"/><linearGradient id="linear-gradient-3" x1="286.91" y1="231.19" x2="305.56" y2="231.19" xlink:href="#linear-gradient"/></defs><title>Test(500x412px</title><g id="Layer_5" data-name="Layer 5"><path class="cls-2" d="M207.63,69.31c-5.87,0-11.66.28-17.39.77A78.49,78.49,0,1,0,53.78,141.31,199.92,199.92,0,0,0,7.07,269.94c0,110.76,89.8,200.57,200.56,200.57S408.19,380.7,408.19,269.94,318.39,69.31,207.63,69.31Z"/></g><g id="Layer_3" data-name="Layer 3"><circle class="cls-3" cx="157.35" cy="78.94" r="75.56"/><circle class="cls-3" cx="86.05" cy="150.73" r="75.56"/><path class="cls-3" d="M261.47,269.17A110.13,110.13,0,0,0,371.6,379.3c1.68,0,3.42-.07,5.1-.14a200.6,200.6,0,0,0-1-220.12c-1.4-.07-2.72-.07-4.12-.07A110.24,110.24,0,0,0,261.47,269.17Z"/><path class="cls-3" d="M406.52,294.94A121.91,121.91,0,0,0,247.23,466.66C330.26,449.9,395.76,381.61,406.52,294.94Z"/><path class="cls-3" d="M263.43,321.48A107.86,107.86,0,0,0,155.67,429.23,106.63,106.63,0,0,0,162,465.62l.84.21a105.91,105.91,0,0,1-6.43-36.6A107,107,0,0,1,365,395.15c.14-.21.35-.41.49-.62A108,108,0,0,0,263.43,321.48Z"/><path class="cls-4" d="M389.27,356.89A107.05,107.05,0,0,1,373.7,159a4.38,4.38,0,0,0-.42-.55,107.72,107.72,0,0,0,15.71,199C389.06,357.3,389.2,357.09,389.27,356.89Z"/><path class="cls-5" d="M149.39,8.9l205.17.56a16.15,16.15,0,0,1,16.13,16l-.21,32.89a15.92,15.92,0,0,1-15.92,15.93H202.74l-15.85,8.59.14-8.59-37.57-.56a17.57,17.57,0,0,1-17-14.81v-33C133.47,16,140.59,8.9,149.39,8.9Z"/><text class="cls-6" transform="translate(141.32 48.76)">“I n<tspan class="cls-7" x="31.34" y="0">ee</tspan><tspan class="cls-8" x="53.83" y="0">d </tspan><tspan class="cls-9" x="70.9" y="0">t</tspan><tspan x="78.1" y="0">o t</tspan><tspan class="cls-10" x="102.11" y="0">r</tspan><tspan x="109.05" y="0">ain </tspan><tspan class="cls-11" x="142.6" y="0">m</tspan><tspan x="159.09" y="0">y </tspan><tspan class="cls-9" x="174.34" y="0">st</tspan><tspan x="190.29" y="0">a</tspan><tspan class="cls-12" x="202.48" y="0">ff</tspan><tspan x="214.99" y="0">”</tspan></text><g class="cls-13"><path class="cls-14" d="M117.26,86.63c7-1.4,13.83,3.07,20.88,3.14,2.8,0,5.59-.63,8.38-.77s5.8.49,7.76,2.58c2.23,2.45,2.51,6.22,2.16,9.57a32.28,32.28,0,0,1-11.87,21.37c-2.79,2.17-6.15,3.84-9.57,3.42-2.72-.35-5.17-2-7.47-3.56-7.33-5-15.15-10.4-19.76-18.43C103.72,97,110.35,88,117.26,86.63Z"/><path class="cls-14" d="M113.91,145.15s-27.44-25.07-15.57-43.51,24.37.84,24.37.84S128,134.11,113.91,145.15Z"/><path class="cls-15" d="M137.52,127.06l-1.26,24.44-.35,7a11.18,11.18,0,0,1-22.35-.84l.28-12.43.56-20.67Z"/><path class="cls-16" d="M137.52,132l-1.26,23c-10.83.42-18.72-4-22.35-9.84l.56-15.79Z"/><path class="cls-17" d="M146.11,113a79.65,79.65,0,0,1-.35,16.76c-1.33,10.2-.84,22.21-15.86,23-16.06.84-21.37-17.11-21.37-17.11S100,134,99.46,128.25s5.37-6.08,7.33-4.47c0,0,2.23-21.51,22.07-21.51C146.39,102.34,146.11,113,146.11,113Z"/><path class="cls-18" d="M127.32,129.71a1.61,1.61,0,1,1-1.61-1.6A1.67,1.67,0,0,1,127.32,129.71Z"/><path class="cls-18" d="M141.71,129.71a1.61,1.61,0,1,1-1.61-1.6A1.67,1.67,0,0,1,141.71,129.71Z"/><path class="cls-19" d="M120,124.2a6.5,6.5,0,0,1,7.4-2.52"/><path class="cls-19" d="M136,121.68a5.09,5.09,0,0,1,7.19.35"/><path class="cls-20" d="M132.77,125.59s1.74,4.4,3.21,7.13-2.86,3.91-2.86,3.91"/><path class="cls-20" d="M127,141.59a7.55,7.55,0,0,0,8.1,1.32"/><path class="cls-20" d="M108.4,131.53s-.07-5-3.78-3.56"/><path class="cls-14" d="M107.91,125.45s12.43-5.51,9.28-19.55c0,0-8.24-12.71-15.29-8S107.91,125.45,107.91,125.45Z"/><path class="cls-14" d="M127,107.58c3.63.83,6.71,3.49,10.06,5.37s7.47,3,10.61.7c2.87-2.09,4-6.63,3.21-10.47a14.68,14.68,0,0,0-6.21-9,25.21,25.21,0,0,0-9.57-3.56A31.94,31.94,0,0,0,122,90.33c-3.84.84-14.66,6.21-12.5,12.92.84,2.51,4.33,3.28,6.36,3.7C119.64,107.79,123.41,106.74,127,107.58Z"/><polygon class="cls-15" points="154 440.2 157.35 472.11 143.73 472.11 139.19 440.2 154 440.2"/><path class="cls-5" d="M142.26,465.41s-5.93,9.5-1.46,11.24,33.59,1.82,40.78.77-16.06-11-21.37-12.5S153.16,471.48,142.26,465.41Z"/><polygon class="cls-15" points="96.38 437.33 97.99 471.13 114.33 472.25 111.54 440.2 96.38 437.33"/><path class="cls-5" d="M114,464.5s5.94,9.5,1.47,11.24-33.59,1.82-40.78.77S90.73,465.55,96,464,103.09,470.51,114,464.5Z"/><path class="cls-17" d="M219.22,180.13s3.42-5.72,6.15-11.1c1-1.88-3.28-11.59-3.28-13.2,0-2.86,1.88-4.75,2.86-2.86,3.77,7.54,4.4,7.4,4.75,6.49,3.56-7.89,10.12-20.88,12.57-19.2C245.2,142.35,237,159,237,159s7.26-20.81,11.17-19.69-6.7,20.53-6.7,20.53,8.73-18.29,11-16.55.49,5.87-7.05,19.42c0,0,6.42-11.6,8.8-8.87s-5.38,13.41-8.24,15.92c-.63.56-5,5.87-9.78,7.75-5.58,2.24-6.63,9.08-7.54,10.41C228.65,188,219.36,185,219.22,180.13Z"/><path class="cls-17" d="M68.38,268.82s-1.89,7.41-1.47,9.36,1.82,3.84,2.52,6.5,5.51,8,5.17,9.91-2.66,2-5.66-1.74-2.86-6.5-4.26-4.89-4.4,7.61-5.31,10.05-4.12,7.62-5.38,7.13-1.81-1.54,3.36-13.55c0,0-5.66,14.39-8.66,12.71-2.1-1.19,4.12-12.22,5-14,0,0-5.52,11.18-8.32,9.43-2.58-1.68,6.15-11.87,6.15-11.87s-6.49,7.89-7.89,6.28,2.23-6.56,6.14-10.05,5-4.4,5.73-6.29a91.34,91.34,0,0,0,2.1-9.22S64.33,265.19,68.38,268.82Z"/><path class="cls-21" d="M141.15,154.51l-16.34,8.86-12.71-7.61a115.16,115.16,0,0,0-4.61,41.48c1.88,22.07,5.44,37.85,20.32,17.39S148.27,161.7,141.15,154.51Z"/><path class="cls-21" d="M141.15,154.51l-16.34,8.86-12.71-7.61a115.16,115.16,0,0,0-4.61,41.48c1.88,22.07,5.44,37.85,20.32,17.39S148.27,161.7,141.15,154.51Z"/><path class="cls-14" d="M121.73,173.43s-8.8,47.49-8,48.4c.49-.63,5.8,12.85,8.94,0,2.38-10.06,2.73-47.35,3.07-47.77,0,0,4.61-5,7.27-7.33,1.74-1.61,3.42-3.22,5.09-4.89a25.15,25.15,0,0,0,1.19-2.38c-.21.56-.49,1.12-.7,1.68a36.58,36.58,0,0,1,3.43-5.52,6.31,6.31,0,0,0-.84-1l-16.34,8.86-12.71-7.61s-.35,1.12-.91,3.14c1.33,1.89,2.51,3.78,3.56,5.52C116.08,166.73,121.73,173.43,121.73,173.43Z"/><path class="cls-14" d="M88.21,243l50.14-1s7.62,12.5,9.36,48.6c1.19,24.72,2.17,31.57,4.61,64.18,1.68,22.14,9.5,107.13,9.5,107.13H135.14S123.83,365,123.27,359.68c-.21-1.89-6.77-53.15-6.77-53.15s1,46.44,1,51.82,1.19,100.77,1.19,100.77H90.66S87.51,378,87.24,359.47C86.89,329.44,84.3,252.69,88.21,243Z"/><path class="cls-22" d="M107.42,156.67c-4.47.91-11.25,2.37-16.2,3.7a4.73,4.73,0,0,0-3.5,4.68c.35,9.85.77,37.15-4.26,46.51a4.32,4.32,0,0,0-.55,2l-2.87,82a4.66,4.66,0,0,0,5.66,4.75c10.82-2.31,33.1-11.45,34.08-47.77,1-39.45,1.12-48,1.19-49.79a4,4,0,0,0-.07-.91l-7.83-41.48A4.91,4.91,0,0,0,107.42,156.67Z"/><path class="cls-14" d="M117.54,207.86a1.5,1.5,0,1,1-1.46-1.54A1.58,1.58,0,0,1,117.54,207.86Z"/><path class="cls-14" d="M116.64,222.45a1.51,1.51,0,1,1-1.47-1.53A1.59,1.59,0,0,1,116.64,222.45Z"/><path class="cls-14" d="M115.66,237.05a1.5,1.5,0,1,1-1.47-1.54A1.49,1.49,0,0,1,115.66,237.05Z"/><path class="cls-14" d="M114.68,251.57a1.5,1.5,0,1,1-1.47-1.53A1.53,1.53,0,0,1,114.68,251.57Z"/><path class="cls-22" d="M165.24,165.82l-24.09-11.24L120.9,202.34l-4.33,55.87s-5.38,33.38,11.94,40.29c14.17,5.66,16.13,5.73,23.32,4.12a8.81,8.81,0,0,0,6.85-8.93l-3.15-82.55C155.6,211.14,155.25,178.11,165.24,165.82Z"/><path class="cls-22" d="M232.56,185.72,218,175.18s-27,42.6-28.57,41.34-14.45-46.16-24.23-50.7c0,0-5,3.56-7.75,13.9-2,7.33-2.31,19.13-1.89,30.72,0,0,25.42,37.71,34.43,36.46S232.56,185.72,232.56,185.72Z"/><path class="cls-22" d="M68.38,187.61c5.73-20.67,21.09-26.19,21.09-26.19,2.65,6.63,3.63,21.65,2,32.54a60.22,60.22,0,0,1-6.71,20.32s-2.37,12.36-9.57,31.15c-.14.35-2.51,12.22-2.58,12.57l-4.4,16.9-15.29-2.3S56.51,230.62,68.38,187.61Z"/><path class="cls-23" d="M111.26,158.42c-.14.42,4.26,15.78,4.26,15.78l9.22-6.92,7.82,7.34,8.31-17.53-1.33-1.75-9.85,5.31-4.88,4.4-10.76-8.24-.63-.35Z"/><polygon class="cls-21" points="124.81 162.12 113.42 153.46 110.7 156.04 115.1 171.54 124.81 164.28 133.54 172.45 142.06 154.72 136.4 152.76 124.81 162.12"/></g></g><g id="Layer_4" data-name="Layer 4"><g class="cls-13"><path class="cls-15" d="M280.12,182.37l1.46,28.49,1,8.17a12.49,12.49,0,0,0,3.49,8.73,12.85,12.85,0,0,0,8.94,3.56c7.34,0,11.32-2.93,11.11-10.19l1.53-17.6L307,179.44Z"/><path class="cls-16" d="M280.12,188.1l1.46,26.81c12.64.49,21.86-4.61,26.05-11.45L307,185.09Z"/><path class="cls-17" d="M270.13,166a100.28,100.28,0,0,0,.35,19.55c1.54,11.87,1,25.84,18.51,26.75,18.64,1,24.86-19.9,24.86-19.9s9.91-1.82,10.61-8.52-6.28-7.13-8.52-5.24c0,0-2.58-25-25.7-25C269.85,153.67,270.13,166,270.13,166Z"/><path class="cls-24" d="M323,179.09c3.56-1.19,7.12-4.75,7.75-8.45a8.91,8.91,0,0,0-5-9.36,5.11,5.11,0,0,0,.07-5.1,6.12,6.12,0,0,0-1.82-2,7,7,0,0,0-1.25-3.64,8.94,8.94,0,0,0-.63-5.72,10.56,10.56,0,0,0-6.78-5.52,14,14,0,0,0-8.79.42A18.26,18.26,0,0,0,293,133.83h-2.1a18.63,18.63,0,0,0-13.48,5.87,14.51,14.51,0,0,0-8.79-.42,10.91,10.91,0,0,0-6.78,5.52,8.62,8.62,0,0,0,.63,8.52,5.44,5.44,0,0,0-4.33,2.93,5.28,5.28,0,0,0,.07,5.1c-3.42,1.4-3.42,7.12-2,10.54,1.47,3.64,4.26,4,7.83,5.17l1.95,3.7c2.72,4.4,3.42,6,5.17,7.75l-.77-5.44c0-.77-.35-1.54-.49-3.21-.07-.77.56-2,.21-2.94l-.28-2.65c1.26-1.26,1.4-2.31,1.4-4.12v-.84a10.14,10.14,0,0,0,3.56,0v-3.42a6.47,6.47,0,0,1,2.51-5l2.94-2.16a3.35,3.35,0,0,1,4.05.07l.91.76a6.31,6.31,0,0,0,4.12,1.47h5.3a6,6,0,0,0,2.52-.56,5.54,5.54,0,0,0,1.53-.91l.91-.76a3.25,3.25,0,0,1,4-.07l2.94,2.16a6.27,6.27,0,0,1,2.51,5v4.05c.63,1.67,1.19,3.42,1.68,5l1.67,1.67a5,5,0,0,1,1.47,3.49v2.24a34.39,34.39,0,0,0,1.74-3.63,6,6,0,0,1,3.15-.91,6.9,6.9,0,0,1,2.09.42l1,.35Z"/><path class="cls-25" d="M289.06,183.7a8.89,8.89,0,0,1,5.72,0A9,9,0,0,1,289.06,183.7Z"/><path class="cls-25" d="M272.51,183.77a5.74,5.74,0,0,1,5,0A5.81,5.81,0,0,1,272.51,183.77Z"/><path class="cls-24" d="M268.73,200.32v3.42a8.82,8.82,0,0,0,6.22,8.17l1.4.49a27.82,27.82,0,0,0,18.71,0l1.4-.49a8.88,8.88,0,0,0,6.21-8.17v-3.42a9,9,0,0,0-3-6.57l-.35-.28a10.9,10.9,0,0,0-7.26-2.72H279.49a10.77,10.77,0,0,0-7.26,2.72l-.35.28A8.69,8.69,0,0,0,268.73,200.32Zm4.06-.77a3.72,3.72,0,0,1,3.35-3.49l2.16-.28c1.89-.21,3.49-.56,4.68-1.82,1.19,1.26,5.52,1.26,7.4,1.47l4.82.63a3.66,3.66,0,0,1,3.35,3.49v3.21c0,2-2.79,2.86-4.95,3.42l-3.08,1.19c-1.32.35-3.84.28-4.89-.56-.2-.14-.76-1.33-.9-1.19a5.31,5.31,0,0,1-4.33.91l-3-.49c-2.58-1.53-3.28-1.46-4.6-3.35Z"/><path class="cls-18" d="M289.41,178.6a1.87,1.87,0,0,0,1.88,1.88,1.82,1.82,0,0,0,1.82-1.88,1.87,1.87,0,0,0-1.82-1.89A2,2,0,0,0,289.41,178.6Z"/><path class="cls-18" d="M272.72,178.6a1.89,1.89,0,1,0,1.88-1.89A2,2,0,0,0,272.72,178.6Z"/><path class="cls-26" d="M302.4,172.31a7.44,7.44,0,0,0-8.59-2.86"/><path class="cls-26" d="M281.86,171.27s-4.19-3.85-8.38.34"/><path class="cls-20" d="M281.58,174.48s-2,5.1-3.7,8.31,3.36,4.61,3.36,4.61"/><path class="cls-20" d="M286.19,197.8a8.76,8.76,0,0,1-9.49-1"/><path class="cls-20" d="M314.06,189s.07-5.72,4.33-4.19"/><path class="cls-27" d="M262.38,306.81s-2,3.91-3.21,40.93c-.28,7.61-1.47,21.23-1.54,33.52l.49,194h31.43l3.56-202.73,23.11,202.73,31.78-.84L329.28,313.94l-29.75-3.63Z"/><path class="cls-17" d="M258.82,307.58c-4.26-1.67-13.13-.63-14.46,3.7-8.59,27.73-8.59,27.66-20.25,72.56l-5.59,14.67a15,15,0,0,0,1.26,12.43l6.84,8.66a2.66,2.66,0,0,0,4.4.42c.63-.77-.41-.56-.83-1.47l-3.29-7.89a13.26,13.26,0,0,1-.55-8.66l.48-1.82,1.47,5.24a2.93,2.93,0,0,0,3.35,2.09,2.68,2.68,0,0,0,2.1-2.93l-.91-8.94a24.66,24.66,0,0,0,2.23-14.17L264,318.69C265.59,314.78,262.8,309.19,258.82,307.58Z"/><path class="cls-21" d="M242,310.31l2.58-41.9c3.7-32.06,23.75-40.65,23.75-40.65L270,282.37,263.92,279l-4.33,56.91-18.37,42.74-18-7.47Z"/><path class="cls-21" d="M331.24,228.67c-2-1-4.26-2-6.5-2.93-8-3.08-7.75-2.38-9.64-3.08-3.42-1-8.86-2.65-8.86-2.65-2.31,3.63-9.43,8-9.43,8-1.12-.63-11.94-4.05-13.69-5.31l-8.94,2.94h0c-1.53.42-2.65.9-4.19,1.46-8.38,2.94-10.54,15.09-10.75,27.52l-2.73,71.09a5.6,5.6,0,0,0,5.45,5.87l69.28,1.67,3.35-88.62C335.22,238.1,336.89,231.67,331.24,228.67Z"/><path class="cls-21" d="M328.65,227.34s21.37,3.42,67,65.37l-23.46,18.36L334.52,267.5C319.71,248.15,328.65,227.34,328.65,227.34Z"/><polygon points="342.34 248.15 291.5 266.66 295.76 279.02 345.06 260.51 342.34 248.15"/><polygon class="cls-21" points="295.97 273.57 294.08 267.64 342.06 250.6 343.74 256.74 295.97 273.57"/><polygon class="cls-28" points="341.64 253.88 366.29 324.76 315.45 342.29 290.17 272.18 341.64 253.88"/><polygon points="341.64 253.88 342.34 248.15 367.13 318.69 366.29 324.76 341.64 253.88"/><polygon class="cls-21" points="308.61 292.22 340.8 280.77 337.94 272.25 305.68 283.7 308.61 292.22"/><path class="cls-17" d="M359.17,298.22l-37.36,13.55a.22.22,0,0,1-.14-.07l-2-2.86a14.68,14.68,0,0,0-6.49-5.17l-4.89-1.88a2.63,2.63,0,0,0-3.21,1,2.69,2.69,0,0,0,.42,3.57l2.51,2.3c-5.38-.56-10.26,0-10.4,4.05-.42,8.94.9,30.45,26.11,13.13l38.2-7.12Z"/><path class="cls-21" d="M378,288.52l-48.47,15.71L334,328.88l54.12-13.48A14.33,14.33,0,0,0,397,295.57h0A14.27,14.27,0,0,0,378,288.52Z"/><line class="cls-29" x1="359.03" y1="294.66" x2="372.16" y2="290.4"/><path class="cls-30" d="M315.87,255.9a105.68,105.68,0,0,1-11.87.42,82.18,82.18,0,0,1-25.91-4.88c-4-1.47-7.68-3.15-10.89-4.68a40.5,40.5,0,0,0,9.85,7.05,50.63,50.63,0,0,0,13.12,4.54,46.65,46.65,0,0,0,13.9.56A42.12,42.12,0,0,0,315.87,255.9Z"/><path class="cls-30" d="M315.66,249.13c-3.28.49-7.47,1.19-11.73,1.68s-8.45.7-11.8,1a34.47,34.47,0,0,0,11.94.63A38.54,38.54,0,0,0,315.66,249.13Z"/><path class="cls-30" d="M322.37,262.54c-3.08.63-6.57,1.4-10.27,2.09s-7.68,1.4-11.59,2-8,1-11.73,1.26-7.34.56-10.48.76a51.1,51.1,0,0,0,10.48,1.47,64.58,64.58,0,0,0,12.08-.56,68.32,68.32,0,0,0,11.73-2.72A53.54,53.54,0,0,0,322.37,262.54Z"/><polygon class="cls-30" points="296.81 227.97 284.24 225.46 289.2 241.94 292.62 237.89 294.08 238.94 296.81 238.94 299.6 238.94 301.07 237.89 304.49 241.94 309.38 225.46 296.81 227.97"/><polygon class="cls-31" points="296.81 227.97 292.62 234.81 294.71 240.82 296.81 240.82 298.9 240.82 301.07 234.81 296.81 227.97"/><polygon class="cls-32" points="298.9 240.82 296.81 240.82 294.71 240.82 286.89 289.01 296.25 300.81 305.54 289.56 298.9 240.82"/><path class="cls-33" d="M296.81,228l.77,1.19-2.87,5a1.56,1.56,0,0,0-.14,1.46l.14.42a3.09,3.09,0,0,0,2.94,2.1h2.23l-.91,2.58h-4.19l-2.09-6Z"/><polygon class="cls-21" points="282.7 220.29 296.81 227.97 290.1 238.94 277.25 224.62 282.7 220.29"/><polygon class="cls-21" points="306.24 220.01 296.81 227.97 303.58 238.94 313.5 222.18 306.24 220.01"/></g></g><g id="Layer_2" data-name="Layer 2"><path class="cls-34" d="M261.47,491.32H96.38A14.37,14.37,0,0,1,82,476.93v-30.8a14.36,14.36,0,0,1,14.38-14.38H228.44l30.73-16.83-4.26,16.83h6.56a14.37,14.37,0,0,1,14.39,14.38V477A14.36,14.36,0,0,1,261.47,491.32Z"/><text class="cls-6" transform="translate(95.75 466.09)"><tspan class="cls-35">“</tspan><tspan x="8.8" y="0">OK. </tspan><tspan class="cls-36" x="46.81" y="0">W</tspan><tspan x="65.15" y="0">e </tspan><tspan class="cls-37" x="81.38" y="0">c</tspan><tspan x="91.47" y="0">an hel</tspan><tspan class="cls-38" x="147.76" y="0">p</tspan><tspan x="158.58" y="0">”</tspan></text></g></svg>