<svg xmlns="http://www.w3.org/2000/svg" xmlns:xlink="http://www.w3.org/1999/xlink" width="395.84" height="189" viewBox="0 0 395.84 189">
  <defs>
    <clipPath id="clip-Artboard_1">
      <rect width="395.84" height="189"/>
    </clipPath>
  </defs>
  <g id="Artboard_1" data-name="Artboard – 1" clip-path="url(#clip-Artboard_1)">
    <g id="Page-1" transform="translate(-0.231 0.008)">
      <g id="_01" data-name="01">
        <g id="Group" transform="translate(124 159)">
          <path id="Path" d="M2.11,10.27v3.28h.08A7.127,7.127,0,0,1,8.4,9.9a6.651,6.651,0,0,1,5.1,2.05,8.03,8.03,0,0,1,1.91,5.68v11.5H13.4V18.39c0-4.34-1.71-6.52-5.12-6.52q-3.75,0-6.17,4.04V29.13H.1V10.28H2.11Z" fill="#627eab"/>
          <path id="Shape" d="M40.94,19H26.09a8.18,8.18,0,0,0-.06.98,7.191,7.191,0,0,0,2.25,5.35,7.39,7.39,0,0,0,5.33,2.19,10.945,10.945,0,0,0,7.01-2.81v2.28a11.568,11.568,0,0,1-7.26,2.5,8.849,8.849,0,0,1-6.74-2.83,10.1,10.1,0,0,1-2.66-7.19,9.851,9.851,0,0,1,2.46-6.86A7.989,7.989,0,0,1,32.61,9.9a8,8,0,0,1,5.92,2.45A9.093,9.093,0,0,1,40.94,19ZM26.35,17.38H38.56q-1.065-5.5-5.96-5.51a5.96,5.96,0,0,0-4.01,1.45A7.047,7.047,0,0,0,26.35,17.38Z" fill="#627eab"/>
          <path id="Path-2" data-name="Path" d="M52.86,4.02v6.25h5.28v1.64H52.86V23.12a9.27,9.27,0,0,0,.44,3.56c.3.57,1.09.85,2.37.85a8.4,8.4,0,0,0,3.44-.92v1.93a8.884,8.884,0,0,1-3.89.96,4.576,4.576,0,0,1-3.11-1.07,3.674,3.674,0,0,1-1.25-2.95V11.92H45.78V10.28h5.08V5.79l1.37-1.76h.63Z" fill="#627eab"/>
          <path id="Path-3" data-name="Path" d="M93.16,10.27,85.01,29.49h-.96l-5.8-15.31L72.4,29.49h-.9L63.43,10.27h1.98l6.44,15.37,5.92-15.37h1.1L84.6,25.64l6.58-15.37Z" fill="#627eab"/>
          <path id="Shape-2" data-name="Shape" d="M108.07,9.9a9.148,9.148,0,0,1,6.83,2.81,9.655,9.655,0,0,1,2.73,7.01,9.6,9.6,0,0,1-2.73,6.98,9.139,9.139,0,0,1-6.83,2.8,9.237,9.237,0,0,1-6.86-2.8,9.545,9.545,0,0,1-2.76-6.98,9.6,9.6,0,0,1,2.76-7.01A9.261,9.261,0,0,1,108.07,9.9Zm0,17.62a7.051,7.051,0,0,0,5.3-2.22,7.738,7.738,0,0,0,2.13-5.58,7.777,7.777,0,0,0-2.14-5.59,7.023,7.023,0,0,0-5.29-2.26,7.132,7.132,0,0,0-5.34,2.23,7.775,7.775,0,0,0-2.14,5.61,7.7,7.7,0,0,0,2.14,5.58A7.1,7.1,0,0,0,108.07,27.52Z" fill="#627eab"/>
          <path id="Path-4" data-name="Path" d="M139.3,12.13l-1.17,1.89c-1.57-1.43-2.84-2.15-3.79-2.15-1.89,0-3.9,1.8-6.05,5.41V29.13h-2.01V10.28h2.01v4.96h.08q3.375-5.325,6.6-5.33Q136.815,9.9,139.3,12.13Z" fill="#627eab"/>
          <path id="Shape-3" data-name="Shape" d="M147.98.49V29.12h-2.01V.49Zm13.34,9.78-10.31,8.94,11.91,9.91h-2.75l-11.9-9.9,10.42-8.95Z" fill="#627eab"/>
        </g>
        <g id="Group-2" data-name="Group" transform="translate(219 25)">
          <path id="Path-5" data-name="Path" d="M9.32,48.59H48.98V41.24H9.32V8.11H50.04V.83H.92V89.5H51.04V82.21H9.32Z" fill="#627eab"/>
          <path id="Path-6" data-name="Path" d="M71.71.83h-8.4V89.5h51.43V82.21H71.71Z" fill="#627eab"/>
          <path id="Path-7" data-name="Path" d="M103.35.83V8.11h32.63V89.5h8.46V8.11h32.63V.83Z" fill="#627eab"/>
        </g>
        <path id="Shape-4" data-name="Shape" d="M70.64,139.33H12.95a12.715,12.715,0,0,1-8.99-21.71L51.41,70.17,3.96,22.71A12.715,12.715,0,0,1,12.95,1H70.64a12.724,12.724,0,0,1,8.99,3.72l47.45,47.45L174.53,4.72a12.721,12.721,0,0,1,17.99,17.99L145.07,70.16l47.45,47.45a12.721,12.721,0,0,1-17.99,17.99L127.08,88.15,79.63,135.6A12.692,12.692,0,0,1,70.64,139.33ZM43.66,113.89H65.37l43.72-43.72L65.37,26.45H43.66L78.39,61.18a12.717,12.717,0,0,1,0,17.99Z" fill="#627eab"/>
        <circle id="Oval" cx="15.19" cy="15.19" r="15.19" transform="translate(166.48 54.97)" fill="#e0e0e0"/>
      </g>
    </g>
  </g>
</svg>
